<?xml version="1.0" encoding="UTF-8"?>
<svg width="400" height="400" viewBox="0 0 400 400" xmlns="http://www.w3.org/2000/svg">
  <defs>
    <pattern id="woodPattern" patternUnits="userSpaceOnUse" width="100" height="100">
      <rect width="100" height="100" fill="#f3e5d7"/>
      <path d="M0 0c10 20 30 20 50 10s40-10 50 0v10c-10-10-30-10-50 0s-40 10-50-10z" fill="#e6d5c3" opacity=".3"/>
      <path d="M0 25c10 20 30 20 50 10s40-10 50 0v10c-10-10-30-10-50 0s-40 10-50-10z" fill="#d4b795" opacity=".2"/>
      <path d="M0 50c10 20 30 20 50 10s40-10 50 0v10c-10-10-30-10-50 0s-40 10-50-10z" fill="#a67c52" opacity=".1"/>
      <path d="M0 75c10 20 30 20 50 10s40-10 50 0v10c-10-10-30-10-50 0s-40 10-50-10z" fill="#754c24" opacity=".1"/>
    </pattern>
  </defs>
  <rect width="400" height="400" fill="url(#woodPattern)"/>
</svg>