<?xml version="1.0" encoding="UTF-8"?>
<!DOCTYPE svg PUBLIC "-//W3C//DTD SVG 1.1//EN" "http://www.w3.org/Graphics/SVG/1.1/DTD/svg11.dtd">
<svg xmlns="http://www.w3.org/2000/svg" version="1.1" width="382px" height="654px" style="shape-rendering:geometricPrecision; text-rendering:geometricPrecision; image-rendering:optimizeQuality; fill-rule:evenodd; clip-rule:evenodd" xmlns:xlink="http://www.w3.org/1999/xlink">
<g><path style="opacity:1" fill="#b83236" d="M 194.5,52.5 C 193.671,45.6787 193.171,38.6787 193,31.5C 191.554,36.6452 191.054,41.9786 191.5,47.5C 190.167,47.5 188.833,47.5 187.5,47.5C 186.645,52.2616 186.645,56.9283 187.5,61.5C 186.781,66.6582 185.448,71.6582 183.5,76.5C 183.971,78.2464 184.638,79.913 185.5,81.5C 184.303,84.0891 183.303,86.7558 182.5,89.5C 181.627,105.148 178.961,120.481 174.5,135.5C 173.833,136.167 173.167,136.833 172.5,137.5C 171.503,144.803 171.169,152.137 171.5,159.5C 170.127,159.343 168.793,159.51 167.5,160C 168.766,162.383 169.432,165.05 169.5,168C 167.099,189.366 163.432,210.533 158.5,231.5C 157.833,232.167 157.167,232.833 156.5,233.5C 155.45,247.553 153.95,261.553 152,275.5C 149.276,279.85 148.776,284.517 150.5,289.5C 148.284,294.935 147.117,300.602 147,306.5C 146.293,308.081 145.46,309.581 144.5,311C 147.101,314.508 146.934,318.008 144,321.5C 143.667,325.833 143.333,330.167 143,334.5C 141.989,335.337 140.822,335.67 139.5,335.5C 139.83,342.2 139.497,348.866 138.5,355.5C 136.427,363.747 134.76,372.08 133.5,380.5C 133.79,382.044 134.456,383.377 135.5,384.5C 133.572,389.277 130.905,393.611 127.5,397.5C 129.385,398.983 130.385,400.983 130.5,403.5C 129.803,410.29 128.469,416.956 126.5,423.5C 125.833,424.167 125.167,424.833 124.5,425.5C 123.558,442.708 121.224,459.708 117.5,476.5C 118.411,481.636 117.744,486.636 115.5,491.5C 113.464,501.415 111.964,511.415 111,521.5C 109.473,523.221 108.473,525.221 108,527.5C 107.082,537.842 106.082,548.175 105,558.5C 103.933,559.191 102.766,559.691 101.5,560C 103.332,560.748 104.999,561.748 106.5,563C 104.283,564.275 101.949,565.275 99.5,566C 102.482,566.498 105.482,566.665 108.5,566.5C 109.167,566.5 109.5,566.833 109.5,567.5C 101.082,567.559 92.7482,566.726 84.5,565C 86.6264,564.102 88.6264,562.935 90.5,561.5C 91.086,561.709 91.586,562.043 92,562.5C 93.1447,557.917 93.8113,553.251 94,548.5C 94.9799,546.941 95.8133,545.274 96.5,543.5C 100.827,518.208 104.494,492.875 107.5,467.5C 110.981,458.499 112.315,449.166 111.5,439.5C 112.5,439.5 113.5,439.5 114.5,439.5C 114.335,432.808 114.668,426.141 115.5,419.5C 119.994,403.83 122.66,387.83 123.5,371.5C 126.064,361.996 127.898,352.329 129,342.5C 131.739,339.124 132.239,335.458 130.5,331.5C 133.508,315.583 136.008,299.583 138,283.5C 142.793,266.489 145.626,249.156 146.5,231.5C 147.5,231.5 148.5,231.5 149.5,231.5C 149.504,222.122 150.171,212.789 151.5,203.5C 154.332,187.474 157.165,171.474 160,155.5C 162.495,153.346 162.995,150.679 161.5,147.5C 162.061,140.591 163.561,133.924 166,127.5C 167.349,114.061 168.849,100.728 170.5,87.5C 171.5,87.5 172.5,87.5 173.5,87.5C 172.116,78.9046 173.116,70.5712 176.5,62.5C 175.669,60.4199 174.669,58.4199 173.5,56.5C 173.974,53.3003 174.974,52.967 176.5,55.5C 177.086,55.2907 177.586,54.9574 178,54.5C 179.245,46.8715 180.079,39.2048 180.5,31.5C 181.675,31.719 182.675,31.3857 183.5,30.5C 180.531,29.332 180.198,27.9987 182.5,26.5C 181.652,24.5914 181.318,22.5914 181.5,20.5C 185.221,14.7588 189.221,9.09209 193.5,3.5C 194.499,19.8197 194.833,36.1531 194.5,52.5 Z"/></g>
<g><path style="opacity:1" fill="#b23336" d="M 181.5,20.5 C 181.318,22.5914 181.652,24.5914 182.5,26.5C 180.198,27.9987 180.531,29.332 183.5,30.5C 182.675,31.3857 181.675,31.719 180.5,31.5C 180.079,39.2048 179.245,46.8715 178,54.5C 177.586,54.9574 177.086,55.2907 176.5,55.5C 174.974,52.967 173.974,53.3003 173.5,56.5C 174.669,58.4199 175.669,60.4199 176.5,62.5C 173.116,70.5712 172.116,78.9046 173.5,87.5C 172.5,87.5 171.5,87.5 170.5,87.5C 168.849,100.728 167.349,114.061 166,127.5C 163.561,133.924 162.061,140.591 161.5,147.5C 162.995,150.679 162.495,153.346 160,155.5C 157.165,171.474 154.332,187.474 151.5,203.5C 150.171,212.789 149.504,222.122 149.5,231.5C 148.5,231.5 147.5,231.5 146.5,231.5C 145.626,249.156 142.793,266.489 138,283.5C 136.008,299.583 133.508,315.583 130.5,331.5C 132.239,335.458 131.739,339.124 129,342.5C 127.898,352.329 126.064,361.996 123.5,371.5C 122.66,387.83 119.994,403.83 115.5,419.5C 114.668,426.141 114.335,432.808 114.5,439.5C 113.5,439.5 112.5,439.5 111.5,439.5C 112.315,449.166 110.981,458.499 107.5,467.5C 104.494,492.875 100.827,518.208 96.5,543.5C 95.8133,545.274 94.9799,546.941 94,548.5C 93.8113,553.251 93.1447,557.917 92,562.5C 91.586,562.043 91.086,561.709 90.5,561.5C 88.6264,562.935 86.6264,564.102 84.5,565C 92.7482,566.726 101.082,567.559 109.5,567.5C 115.5,567.5 121.5,567.5 127.5,567.5C 138.167,567.5 148.833,567.5 159.5,567.5C 171.167,567.5 182.833,567.5 194.5,567.5C 194.5,532.5 194.5,497.5 194.5,462.5C 194.5,438.833 194.5,415.167 194.5,391.5C 194.5,372.833 194.5,354.167 194.5,335.5C 194.5,316.833 194.5,298.167 194.5,279.5C 194.5,260.833 194.5,242.167 194.5,223.5C 194.833,223.5 195.167,223.5 195.5,223.5C 195.5,338.5 195.5,453.5 195.5,568.5C 162.167,568.5 128.833,568.5 95.5,568.5C 93.7354,567.539 91.7354,567.205 89.5,567.5C 86.3752,566.521 83.0419,566.187 79.5,566.5C 79.244,564.088 80.244,562.421 82.5,561.5C 84.5,544.833 86.5,528.167 88.5,511.5C 93.002,494.825 95.502,477.825 96,460.5C 97.9986,458.507 99.4986,456.173 100.5,453.5C 102.02,432.672 104.687,412.005 108.5,391.5C 109.333,390.5 110.167,389.5 111,388.5C 111.333,380.5 111.667,372.5 112,364.5C 116.29,360.446 117.79,355.613 116.5,350C 118.736,334.548 120.736,319.048 122.5,303.5C 123.167,300.833 123.833,298.167 124.5,295.5C 125.524,294.147 126.857,293.48 128.5,293.5C 128.278,289.829 127.944,286.163 127.5,282.5C 128.532,278.818 129.532,275.151 130.5,271.5C 129.5,271.5 128.5,271.5 127.5,271.5C 128.716,268.093 130.216,264.76 132,261.5C 133.297,252.886 133.797,244.219 133.5,235.5C 134.5,235.5 135.5,235.5 136.5,235.5C 136.489,233.453 136.156,231.453 135.5,229.5C 136.963,220.884 138.297,212.218 139.5,203.5C 139.449,201.9 139.116,200.4 138.5,199C 141.299,199.402 142.966,197.902 143.5,194.5C 143.029,192.754 142.362,191.087 141.5,189.5C 143.136,183.981 143.97,178.315 144,172.5C 145.999,170.507 147.499,168.173 148.5,165.5C 148.943,156.06 149.943,146.727 151.5,137.5C 150.844,135.547 150.511,133.547 150.5,131.5C 151.5,131.5 152.5,131.5 153.5,131.5C 153.31,124.971 154.31,118.638 156.5,112.5C 154.786,108.364 155.453,104.697 158.5,101.5C 159.02,94.0005 160.353,86.6671 162.5,79.5C 163.494,74.544 163.827,69.544 163.5,64.5C 161.654,64.7778 160.32,64.1112 159.5,62.5C 161.766,61.6858 164.1,61.1858 166.5,61C 170.89,55.5906 169.557,54.0906 162.5,56.5C 161.5,56.1667 160.833,55.5 160.5,54.5C 162.669,51.6933 164.335,48.6933 165.5,45.5C 167.455,43.6541 168.455,41.3208 168.5,38.5C 169.822,38.67 170.989,38.3366 172,37.5C 172.287,34.1345 173.454,31.1345 175.5,28.5C 176.325,27.6143 177.325,27.281 178.5,27.5C 178.517,25.4352 178.85,23.4352 179.5,21.5C 180.167,21.1667 180.833,20.8333 181.5,20.5 Z"/></g>
<g><path style="opacity:1" fill="#be3336" d="M 194.5,52.5 C 194.5,77.8333 194.5,103.167 194.5,128.5C 193.795,125.772 193.128,122.939 192.5,120C 193.574,106.556 193.407,93.0556 192,79.5C 191.781,78.062 191.281,76.7287 190.5,75.5C 190.167,76.1667 189.833,76.8333 189.5,77.5C 190.167,79.1667 190.833,80.8333 191.5,82.5C 189.717,85.2882 188.384,88.2882 187.5,91.5C 184.845,108.741 183.178,126.075 182.5,143.5C 181.221,148.725 178.888,153.391 175.5,157.5C 177.023,159.283 179.023,159.949 181.5,159.5C 181.813,162.247 181.48,164.914 180.5,167.5C 179.17,162.306 177.67,162.306 176,167.5C 175.828,172.202 175.328,176.868 174.5,181.5C 172.613,183.026 171.613,185.026 171.5,187.5C 168.722,206.88 166.389,226.213 164.5,245.5C 163.499,248.173 161.999,250.507 160,252.5C 159.832,260.853 159.332,269.187 158.5,277.5C 155.063,280.904 154.73,284.571 157.5,288.5C 155.583,291.915 154.25,295.581 153.5,299.5C 152.405,308.158 151.405,316.825 150.5,325.5C 149.697,328.244 148.697,330.911 147.5,333.5C 149.919,339.86 149.085,345.86 145,351.5C 144.656,356.256 143.822,360.923 142.5,365.5C 144.318,369.367 143.652,372.7 140.5,375.5C 139.52,378.086 139.187,380.753 139.5,383.5C 141.167,383.5 142.833,383.5 144.5,383.5C 141.87,388.812 139.203,394.146 136.5,399.5C 134.833,412.833 133.167,426.167 131.5,439.5C 131.672,450.136 132.172,450.136 133,439.5C 133.828,443.871 133.661,448.205 132.5,452.5C 131.573,450.887 130.739,449.221 130,447.5C 129.829,452.864 129.329,458.198 128.5,463.5C 127.229,467.736 125.563,471.736 123.5,475.5C 123.716,477.384 124.383,479.051 125.5,480.5C 120.291,492.263 118.457,504.596 120,517.5C 120.889,516.112 121.389,516.278 121.5,518C 121.049,521.338 120.049,521.838 118.5,519.5C 116.187,527.337 115.187,535.337 115.5,543.5C 114.167,543.5 112.833,543.5 111.5,543.5C 112.622,549.658 111.955,555.658 109.5,561.5C 111.604,561.201 113.604,561.534 115.5,562.5C 113.021,562.922 110.687,564.256 108.5,566.5C 105.482,566.665 102.482,566.498 99.5,566C 101.949,565.275 104.283,564.275 106.5,563C 104.999,561.748 103.332,560.748 101.5,560C 102.766,559.691 103.933,559.191 105,558.5C 106.082,548.175 107.082,537.842 108,527.5C 108.473,525.221 109.473,523.221 111,521.5C 111.964,511.415 113.464,501.415 115.5,491.5C 117.744,486.636 118.411,481.636 117.5,476.5C 121.224,459.708 123.558,442.708 124.5,425.5C 125.167,424.833 125.833,424.167 126.5,423.5C 128.469,416.956 129.803,410.29 130.5,403.5C 130.385,400.983 129.385,398.983 127.5,397.5C 130.905,393.611 133.572,389.277 135.5,384.5C 134.456,383.377 133.79,382.044 133.5,380.5C 134.76,372.08 136.427,363.747 138.5,355.5C 139.497,348.866 139.83,342.2 139.5,335.5C 140.822,335.67 141.989,335.337 143,334.5C 143.333,330.167 143.667,325.833 144,321.5C 146.934,318.008 147.101,314.508 144.5,311C 145.46,309.581 146.293,308.081 147,306.5C 147.117,300.602 148.284,294.935 150.5,289.5C 148.776,284.517 149.276,279.85 152,275.5C 153.95,261.553 155.45,247.553 156.5,233.5C 157.167,232.833 157.833,232.167 158.5,231.5C 163.432,210.533 167.099,189.366 169.5,168C 169.432,165.05 168.766,162.383 167.5,160C 168.793,159.51 170.127,159.343 171.5,159.5C 171.169,152.137 171.503,144.803 172.5,137.5C 173.167,136.833 173.833,136.167 174.5,135.5C 178.961,120.481 181.627,105.148 182.5,89.5C 183.303,86.7558 184.303,84.0891 185.5,81.5C 184.638,79.913 183.971,78.2464 183.5,76.5C 185.448,71.6582 186.781,66.6582 187.5,61.5C 186.645,56.9283 186.645,52.2616 187.5,47.5C 188.833,47.5 190.167,47.5 191.5,47.5C 191.054,41.9786 191.554,36.6452 193,31.5C 193.171,38.6787 193.671,45.6787 194.5,52.5 Z"/></g>
<g><path style="opacity:1" fill="#ac4c4e" d="M 179.5,21.5 C 178.85,23.4352 178.517,25.4352 178.5,27.5C 177.325,27.281 176.325,27.6143 175.5,28.5C 173.454,31.1345 172.287,34.1345 172,37.5C 170.989,38.3366 169.822,38.67 168.5,38.5C 168.455,41.3208 167.455,43.6541 165.5,45.5C 164.167,46.1667 162.833,46.8333 161.5,47.5C 166.516,38.1279 172.516,29.4613 179.5,21.5 Z"/></g>
<g><path style="opacity:0.393" fill="#c9494c" d="M 224.5,39.5 C 223.178,39.67 222.011,39.3366 221,38.5C 220.5,214.833 220.333,391.166 220.5,567.5C 228.65,568.493 236.983,568.826 245.5,568.5C 237.016,569.493 228.349,569.826 219.5,569.5C 219.333,390.833 219.5,212.166 220,33.5C 222.102,35.0948 223.602,37.0948 224.5,39.5 Z"/></g>
<g><path style="opacity:1" fill="#df5d5e" d="M 225.5,41.5 C 229.237,45.3021 232.237,49.6355 234.5,54.5C 231.54,52.3787 228.707,50.0454 226,47.5C 225.51,46.2068 225.343,44.8734 225.5,43.5C 225.5,42.8333 225.5,42.1667 225.5,41.5 Z"/></g>
<g><path style="opacity:0.997" fill="#e53437" d="M 224.5,39.5 C 225.338,39.8417 225.672,40.5084 225.5,41.5C 225.5,42.1667 225.5,42.8333 225.5,43.5C 224.265,43.2786 223.265,42.6119 222.5,41.5C 222.167,42.6667 221.833,43.8333 221.5,45C 222.163,216.861 222.83,388.694 223.5,560.5C 221.914,562.173 221.247,564.173 221.5,566.5C 228.5,566.5 235.5,566.5 242.5,566.5C 235.352,567.492 228.019,567.825 220.5,567.5C 220.333,391.166 220.5,214.833 221,38.5C 222.011,39.3366 223.178,39.67 224.5,39.5 Z"/></g>
<g><path style="opacity:1" fill="#eb3236" d="M 225.5,43.5 C 225.343,44.8734 225.51,46.2068 226,47.5C 228.707,50.0454 231.54,52.3787 234.5,54.5C 234.995,56.4817 235.495,58.4817 236,60.5C 237.972,62.8543 240.139,64.8543 242.5,66.5C 242.231,68.4286 242.731,70.0953 244,71.5C 244.167,154 244.333,236.5 244.5,319C 244.5,401.836 243.833,484.336 242.5,566.5C 235.5,566.5 228.5,566.5 221.5,566.5C 221.247,564.173 221.914,562.173 223.5,560.5C 222.83,388.694 222.163,216.861 221.5,45C 221.833,43.8333 222.167,42.6667 222.5,41.5C 223.265,42.6119 224.265,43.2786 225.5,43.5 Z"/></g>
<g><path style="opacity:0.961" fill="#d75a5a" d="M 234.5,54.5 C 237.551,58.2229 240.218,62.2229 242.5,66.5C 240.139,64.8543 237.972,62.8543 236,60.5C 235.495,58.4817 234.995,56.4817 234.5,54.5 Z"/></g>
<g><path style="opacity:1" fill="#ab3335" d="M 165.5,45.5 C 164.335,48.6933 162.669,51.6933 160.5,54.5C 160.833,55.5 161.5,56.1667 162.5,56.5C 169.557,54.0906 170.89,55.5906 166.5,61C 164.1,61.1858 161.766,61.6858 159.5,62.5C 160.32,64.1112 161.654,64.7778 163.5,64.5C 163.827,69.544 163.494,74.544 162.5,79.5C 160.353,86.6671 159.02,94.0005 158.5,101.5C 155.453,104.697 154.786,108.364 156.5,112.5C 154.31,118.638 153.31,124.971 153.5,131.5C 152.5,131.5 151.5,131.5 150.5,131.5C 150.511,133.547 150.844,135.547 151.5,137.5C 149.943,146.727 148.943,156.06 148.5,165.5C 147.499,168.173 145.999,170.507 144,172.5C 143.97,178.315 143.136,183.981 141.5,189.5C 142.362,191.087 143.029,192.754 143.5,194.5C 142.966,197.902 141.299,199.402 138.5,199C 139.116,200.4 139.449,201.9 139.5,203.5C 138.297,212.218 136.963,220.884 135.5,229.5C 136.156,231.453 136.489,233.453 136.5,235.5C 135.5,235.5 134.5,235.5 133.5,235.5C 133.797,244.219 133.297,252.886 132,261.5C 130.216,264.76 128.716,268.093 127.5,271.5C 128.5,271.5 129.5,271.5 130.5,271.5C 129.532,275.151 128.532,278.818 127.5,282.5C 127.944,286.163 128.278,289.829 128.5,293.5C 126.857,293.48 125.524,294.147 124.5,295.5C 123.833,298.167 123.167,300.833 122.5,303.5C 120.736,319.048 118.736,334.548 116.5,350C 117.79,355.613 116.29,360.446 112,364.5C 111.667,372.5 111.333,380.5 111,388.5C 110.167,389.5 109.333,390.5 108.5,391.5C 104.687,412.005 102.02,432.672 100.5,453.5C 99.4986,456.173 97.9986,458.507 96,460.5C 95.502,477.825 93.002,494.825 88.5,511.5C 86.5,528.167 84.5,544.833 82.5,561.5C 80.244,562.421 79.244,564.088 79.5,566.5C 76.059,566.699 72.7256,566.199 69.5,565C 70.3757,563.415 71.7091,562.415 73.5,562C 72.2203,559.106 71.5536,555.939 71.5,552.5C 71.9427,544.063 73.9427,536.063 77.5,528.5C 74.73,524.571 75.0633,520.904 78.5,517.5C 79.1667,513.5 79.8333,509.5 80.5,505.5C 81.1667,504.833 81.8333,504.167 82.5,503.5C 86.1552,485.03 88.1552,466.363 88.5,447.5C 89.4735,440.903 91.8068,434.903 95.5,429.5C 95.1667,428.167 94.8333,426.833 94.5,425.5C 95.2743,417.195 95.7743,408.861 96,400.5C 96.8333,399.5 97.6667,398.5 98.5,397.5C 100.169,392.155 101.835,386.822 103.5,381.5C 103.167,380.167 102.833,378.833 102.5,377.5C 103.281,363.459 104.615,349.459 106.5,335.5C 109.011,332.15 110.677,328.484 111.5,324.5C 110.574,321.53 109.908,318.53 109.5,315.5C 110.5,315.5 111.5,315.5 112.5,315.5C 112.343,316.873 112.51,318.207 113,319.5C 112.908,308.493 114.741,297.827 118.5,287.5C 119.855,270.084 121.855,252.751 124.5,235.5C 125.333,234.5 126.167,233.5 127,232.5C 128.289,221.386 130.123,210.386 132.5,199.5C 134.274,186.212 135.607,172.878 136.5,159.5C 137.612,154.609 139.779,150.275 143,146.5C 143.168,138.147 143.668,129.813 144.5,121.5C 147.937,118.096 148.27,114.429 145.5,110.5C 150.027,101.051 152.027,91.0513 151.5,80.5C 147.085,80.2914 146.585,78.9581 150,76.5C 151.337,77.7649 152.837,78.2649 154.5,78C 154.043,77.586 153.709,77.086 153.5,76.5C 154.552,72.7301 155.885,69.0634 157.5,65.5C 157.081,64.3279 156.415,63.3279 155.5,62.5C 156.127,61.5832 156.461,60.5832 156.5,59.5C 158.156,55.5423 159.823,51.5423 161.5,47.5C 162.833,46.8333 164.167,46.1667 165.5,45.5 Z"/></g>
<g><path style="opacity:1" fill="#a24d4f" d="M 161.5,47.5 C 159.823,51.5423 158.156,55.5423 156.5,59.5C 155.504,59.4142 154.671,59.7476 154,60.5C 152.333,63.5 150.667,66.5 149,69.5C 147.549,71.4641 145.716,72.7974 143.5,73.5C 147.708,66.1283 152.208,58.795 157,51.5C 158.371,49.9586 159.871,48.6253 161.5,47.5 Z"/></g>
<g><path style="opacity:1" fill="#c33235" d="M 194.5,128.5 C 194.5,154.833 194.5,181.167 194.5,207.5C 193.4,181.003 192.566,154.337 192,127.5C 192.023,141.051 190.356,154.384 187,167.5C 186.667,166.167 186.333,164.833 186,163.5C 186.257,173.7 184.757,183.533 181.5,193C 181.96,194.301 182.294,195.634 182.5,197C 180.542,207.075 179.209,217.242 178.5,227.5C 177.833,228.167 177.167,228.833 176.5,229.5C 175.833,234.167 175.167,238.833 174.5,243.5C 173.833,244.833 173.167,246.167 172.5,247.5C 169.567,268.006 166.9,288.672 164.5,309.5C 161.811,313.043 161.144,316.876 162.5,321C 162.07,322.434 161.236,323.601 160,324.5C 159.83,330.196 159.33,335.862 158.5,341.5C 157.808,342.025 157.308,342.692 157,343.5C 152.951,368.752 149.451,394.085 146.5,419.5C 144.011,427.426 141.844,435.426 140,443.5C 137.007,462.776 134.507,482.109 132.5,501.5C 130.065,513.071 127.399,524.571 124.5,536C 125.784,537.297 125.617,538.464 124,539.5C 123.667,543.5 123.333,547.5 123,551.5C 122.667,548.833 122.333,546.167 122,543.5C 122.058,549.384 121.225,555.05 119.5,560.5C 121.274,561.187 122.941,562.02 124.5,563C 122.641,563.684 120.974,564.684 119.5,566C 122.365,566.183 125.031,566.683 127.5,567.5C 121.5,567.5 115.5,567.5 109.5,567.5C 109.5,566.833 109.167,566.5 108.5,566.5C 110.687,564.256 113.021,562.922 115.5,562.5C 113.604,561.534 111.604,561.201 109.5,561.5C 111.955,555.658 112.622,549.658 111.5,543.5C 112.833,543.5 114.167,543.5 115.5,543.5C 115.187,535.337 116.187,527.337 118.5,519.5C 120.049,521.838 121.049,521.338 121.5,518C 121.389,516.278 120.889,516.112 120,517.5C 118.457,504.596 120.291,492.263 125.5,480.5C 124.383,479.051 123.716,477.384 123.5,475.5C 125.563,471.736 127.229,467.736 128.5,463.5C 129.329,458.198 129.829,452.864 130,447.5C 130.739,449.221 131.573,450.887 132.5,452.5C 133.661,448.205 133.828,443.871 133,439.5C 132.172,450.136 131.672,450.136 131.5,439.5C 133.167,426.167 134.833,412.833 136.5,399.5C 139.203,394.146 141.87,388.812 144.5,383.5C 142.833,383.5 141.167,383.5 139.5,383.5C 139.187,380.753 139.52,378.086 140.5,375.5C 143.652,372.7 144.318,369.367 142.5,365.5C 143.822,360.923 144.656,356.256 145,351.5C 149.085,345.86 149.919,339.86 147.5,333.5C 148.697,330.911 149.697,328.244 150.5,325.5C 151.405,316.825 152.405,308.158 153.5,299.5C 154.25,295.581 155.583,291.915 157.5,288.5C 154.73,284.571 155.063,280.904 158.5,277.5C 159.332,269.187 159.832,260.853 160,252.5C 161.999,250.507 163.499,248.173 164.5,245.5C 166.389,226.213 168.722,206.88 171.5,187.5C 171.613,185.026 172.613,183.026 174.5,181.5C 175.328,176.868 175.828,172.202 176,167.5C 177.67,162.306 179.17,162.306 180.5,167.5C 181.48,164.914 181.813,162.247 181.5,159.5C 179.023,159.949 177.023,159.283 175.5,157.5C 178.888,153.391 181.221,148.725 182.5,143.5C 183.178,126.075 184.845,108.741 187.5,91.5C 188.384,88.2882 189.717,85.2882 191.5,82.5C 190.833,80.8333 190.167,79.1667 189.5,77.5C 189.833,76.8333 190.167,76.1667 190.5,75.5C 191.281,76.7287 191.781,78.062 192,79.5C 193.407,93.0556 193.574,106.556 192.5,120C 193.128,122.939 193.795,125.772 194.5,128.5 Z"/></g>
<g><path style="opacity:0.545" fill="#d84f4c" d="M 242.5,66.5 C 244.173,67.343 245.34,68.6763 246,70.5C 246.833,236.667 246.666,402.667 245.5,568.5C 236.983,568.826 228.65,568.493 220.5,567.5C 228.019,567.825 235.352,567.492 242.5,566.5C 243.833,484.336 244.5,401.836 244.5,319C 244.333,236.5 244.167,154 244,71.5C 242.731,70.0953 242.231,68.4286 242.5,66.5 Z"/></g>
<g><path style="opacity:0.914" fill="#9c5152" d="M 143.5,73.5 C 142.372,76.4383 141.205,79.4383 140,82.5C 138.961,83.7101 137.794,84.7101 136.5,85.5C 134.192,88.8153 131.859,92.1486 129.5,95.5C 128.571,96.6888 128.238,98.0222 128.5,99.5C 125.848,103.26 123.015,106.927 120,110.5C 119.333,111.167 118.667,111.833 118,112.5C 117.23,111.402 116.397,111.402 115.5,112.5C 123.841,100.652 132.008,88.6518 140,76.5C 141.039,75.2899 142.206,74.2899 143.5,73.5 Z"/></g>
<g><path style="opacity:1" fill="#9f3336" d="M 109.5,286.5 C 109.5,265.5 109.5,244.5 109.5,223.5C 111.312,214.219 112.145,204.552 112,194.5C 112.368,193.09 113.201,192.09 114.5,191.5C 115.167,184.833 115.833,178.167 116.5,171.5C 118.953,162.358 120.12,153.025 120,143.5C 120.774,136.091 122.607,129.091 125.5,122.5C 125.103,121.014 124.77,119.514 124.5,118C 126.39,114.048 127.557,109.882 128,105.5C 129.152,103.351 130.652,101.518 132.5,100C 131.207,99.51 129.873,99.3433 128.5,99.5C 128.238,98.0222 128.571,96.6888 129.5,95.5C 131.859,92.1486 134.192,88.8153 136.5,85.5C 135.708,86.9669 135.708,88.3002 136.5,89.5C 137.833,87.8333 139.167,86.1667 140.5,84.5C 141.451,83.6744 142.451,83.5078 143.5,84C 142.433,86.9336 140.766,89.4336 138.5,91.5C 139.263,92.7193 140.263,93.7193 141.5,94.5C 140.635,95.5827 139.635,95.7494 138.5,95C 137.377,93.9563 136.044,93.2896 134.5,93C 135.696,92.3457 135.696,91.8457 134.5,91.5C 132.889,92.3202 132.222,93.6536 132.5,95.5C 136.412,95.6799 138.079,97.8465 137.5,102C 135.405,117.784 133.738,133.617 132.5,149.5C 131.663,151.844 130.329,153.844 128.5,155.5C 127.833,160.167 127.167,164.833 126.5,169.5C 125.833,170.167 125.167,170.833 124.5,171.5C 122.01,201.095 118.177,230.429 113,259.5C 112.732,247.808 112.066,236.141 111,224.5C 110.832,245.337 110.332,266.004 109.5,286.5 Z"/></g>
<g><path style="opacity:1" fill="#983336" d="M 128.5,99.5 C 129.873,99.3433 131.207,99.51 132.5,100C 130.652,101.518 129.152,103.351 128,105.5C 127.557,109.882 126.39,114.048 124.5,118C 124.77,119.514 125.103,121.014 125.5,122.5C 122.607,129.091 120.774,136.091 120,143.5C 120.12,153.025 118.953,162.358 116.5,171.5C 115.833,178.167 115.167,184.833 114.5,191.5C 113.201,192.09 112.368,193.09 112,194.5C 112.145,204.552 111.312,214.219 109.5,223.5C 109.333,190.165 109.5,156.832 110,123.5C 112.398,120.037 114.232,116.37 115.5,112.5C 116.397,111.402 117.23,111.402 118,112.5C 118.667,111.833 119.333,111.167 120,110.5C 123.015,106.927 125.848,103.26 128.5,99.5 Z"/></g>
<g><path style="opacity:0.334" fill="#d0697d" d="M 277.5,113.5 C 275.529,112.177 273.529,110.844 271.5,109.5C 270.5,176.83 270.167,244.163 270.5,311.5C 270.167,311.5 269.833,311.5 269.5,311.5C 269.831,243.596 269.498,175.762 268.5,108C 269.275,106.77 270.275,106.437 271.5,107C 273.899,108.98 275.899,111.147 277.5,113.5 Z"/></g>
<g><path style="opacity:0.282" fill="#f0b9be" d="M 278.5,113.5 C 280.914,114.911 282.581,116.911 283.5,119.5C 281.086,118.089 279.419,116.089 278.5,113.5 Z"/></g>
<g><path style="opacity:1" fill="#ef6278" d="M 284.5,125.5 C 285.473,124.209 286.473,124.209 287.5,125.5C 288.667,271.832 288.833,418.166 288,564.5C 287.667,564.167 287.333,563.833 287,563.5C 286.517,564.448 286.351,565.448 286.5,566.5C 281.5,566.5 276.5,566.5 271.5,566.5C 271.675,564.379 271.341,562.379 270.5,560.5C 271.309,558.708 271.809,556.708 272,554.5C 272.828,471.478 272.661,388.478 271.5,305.5C 272.326,246.522 272.826,187.522 273,128.5C 273.956,127.421 274.789,126.255 275.5,125C 274,124.167 272.833,123 272,121.5C 271.788,118.668 271.621,116.002 271.5,113.5C 272.365,112.417 273.365,112.251 274.5,113C 273.663,114.011 273.33,115.178 273.5,116.5C 275.167,116.5 276.833,116.5 278.5,116.5C 279.422,119.126 280.422,121.793 281.5,124.5C 282.325,125.386 283.325,125.719 284.5,125.5 Z"/></g>
<g><path style="opacity:1" fill="#ca3235" d="M 194.5,207.5 C 194.5,212.833 194.5,218.167 194.5,223.5C 194.5,242.167 194.5,260.833 194.5,279.5C 193.337,253.005 192.503,226.339 192,199.5C 191.667,209.167 191.333,218.833 191,228.5C 188.913,231.673 187.079,235.006 185.5,238.5C 186.544,239.623 187.21,240.956 187.5,242.5C 185.908,246.719 184.741,251.052 184,255.5C 182.824,271.268 180.99,286.935 178.5,302.5C 178.833,303.167 179.167,303.833 179.5,304.5C 178.248,306.001 177.248,307.668 176.5,309.5C 175.477,314.261 174.143,318.928 172.5,323.5C 168.677,349.415 165.344,375.415 162.5,401.5C 161.752,403.332 160.752,404.999 159.5,406.5C 160.589,409.109 160.255,411.609 158.5,414C 159.459,416.12 159.626,418.287 159,420.5C 157.08,423.339 155.413,426.339 154,429.5C 152.332,447.513 150.498,465.513 148.5,483.5C 147.203,487.75 145.536,491.75 143.5,495.5C 144.978,495.238 146.311,495.571 147.5,496.5C 140.686,506.71 138.686,517.71 141.5,529.5C 141.167,530.167 140.833,530.833 140.5,531.5C 139.749,530.624 139.249,529.624 139,528.5C 138.667,528.833 138.333,529.167 138,529.5C 138.164,534.155 138.164,538.821 138,543.5C 136.403,547.79 134.903,552.124 133.5,556.5C 133.709,557.994 134.376,559.161 135.5,560C 132.942,561.38 132.942,562.88 135.5,564.5C 133.234,565.314 130.9,565.814 128.5,566C 132.152,566.499 135.818,566.665 139.5,566.5C 146.167,566.5 152.833,566.5 159.5,566.5C 159.5,566.833 159.5,567.167 159.5,567.5C 148.833,567.5 138.167,567.5 127.5,567.5C 125.031,566.683 122.365,566.183 119.5,566C 120.974,564.684 122.641,563.684 124.5,563C 122.941,562.02 121.274,561.187 119.5,560.5C 121.225,555.05 122.058,549.384 122,543.5C 122.333,546.167 122.667,548.833 123,551.5C 123.333,547.5 123.667,543.5 124,539.5C 125.617,538.464 125.784,537.297 124.5,536C 127.399,524.571 130.065,513.071 132.5,501.5C 134.507,482.109 137.007,462.776 140,443.5C 141.844,435.426 144.011,427.426 146.5,419.5C 149.451,394.085 152.951,368.752 157,343.5C 157.308,342.692 157.808,342.025 158.5,341.5C 159.33,335.862 159.83,330.196 160,324.5C 161.236,323.601 162.07,322.434 162.5,321C 161.144,316.876 161.811,313.043 164.5,309.5C 166.9,288.672 169.567,268.006 172.5,247.5C 173.167,246.167 173.833,244.833 174.5,243.5C 175.167,238.833 175.833,234.167 176.5,229.5C 177.167,228.833 177.833,228.167 178.5,227.5C 179.209,217.242 180.542,207.075 182.5,197C 182.294,195.634 181.96,194.301 181.5,193C 184.757,183.533 186.257,173.7 186,163.5C 186.333,164.833 186.667,166.167 187,167.5C 190.356,154.384 192.023,141.051 192,127.5C 192.566,154.337 193.4,181.003 194.5,207.5 Z"/></g>
<g><path style="opacity:0.633" fill="#a94240" d="M 193.5,-0.5 C 194.167,-0.5 194.833,-0.5 195.5,-0.5C 195.5,74.1667 195.5,148.833 195.5,223.5C 195.167,223.5 194.833,223.5 194.5,223.5C 194.5,218.167 194.5,212.833 194.5,207.5C 194.5,181.167 194.5,154.833 194.5,128.5C 194.5,103.167 194.5,77.8333 194.5,52.5C 194.833,36.1531 194.499,19.8197 193.5,3.5C 189.221,9.09209 185.221,14.7588 181.5,20.5C 180.833,20.8333 180.167,21.1667 179.5,21.5C 183.776,13.896 188.443,6.56271 193.5,-0.5 Z"/></g>
<g><path style="opacity:0.961" fill="#9d4c4f" d="M 115.5,112.5 C 114.232,116.37 112.398,120.037 110,123.5C 109.5,156.832 109.333,190.165 109.5,223.5C 109.5,244.5 109.5,265.5 109.5,286.5C 109.831,294.86 109.498,303.193 108.5,311.5C 107.274,313.278 105.607,314.278 103.5,314.5C 104.458,313.038 105.624,311.705 107,310.5C 107.333,248.5 107.667,186.5 108,124.5C 109.762,119.964 112.262,115.964 115.5,112.5 Z"/></g>
<g><path style="opacity:1" fill="#d13236" d="M 194.5,279.5 C 194.5,298.167 194.5,316.833 194.5,335.5C 193.504,319.675 193.17,303.675 193.5,287.5C 191.5,287.5 189.5,287.5 187.5,287.5C 188.204,297.471 186.87,307.137 183.5,316.5C 183.971,318.246 184.638,319.913 185.5,321.5C 184.056,324.055 182.889,326.721 182,329.5C 181.832,338.186 181.332,346.852 180.5,355.5C 179.779,359.342 178.113,362.676 175.5,365.5C 175.919,366.672 176.585,367.672 177.5,368.5C 175.63,373.261 174.963,378.261 175.5,383.5C 174.167,383.5 172.833,383.5 171.5,383.5C 170.227,399.155 168.727,414.821 167,430.5C 166,431.167 165,431.833 164,432.5C 163.452,440.196 162.618,447.862 161.5,455.5C 161.601,458.7 162.268,461.7 163.5,464.5C 162.137,465.893 161.304,467.559 161,469.5C 160.667,469.167 160.333,468.833 160,468.5C 159.566,476.968 157.4,484.968 153.5,492.5C 153.971,494.246 154.638,495.913 155.5,497.5C 154.303,500.089 153.303,502.756 152.5,505.5C 151.833,514.167 151.167,522.833 150.5,531.5C 148.109,541.208 145.943,550.874 144,560.5C 142.933,561.191 141.766,561.691 140.5,562C 142.426,562.422 143.426,563.589 143.5,565.5C 141.901,565.232 140.568,565.566 139.5,566.5C 135.818,566.665 132.152,566.499 128.5,566C 130.9,565.814 133.234,565.314 135.5,564.5C 132.942,562.88 132.942,561.38 135.5,560C 134.376,559.161 133.709,557.994 133.5,556.5C 134.903,552.124 136.403,547.79 138,543.5C 138.164,538.821 138.164,534.155 138,529.5C 138.333,529.167 138.667,528.833 139,528.5C 139.249,529.624 139.749,530.624 140.5,531.5C 140.833,530.833 141.167,530.167 141.5,529.5C 138.686,517.71 140.686,506.71 147.5,496.5C 146.311,495.571 144.978,495.238 143.5,495.5C 145.536,491.75 147.203,487.75 148.5,483.5C 150.498,465.513 152.332,447.513 154,429.5C 155.413,426.339 157.08,423.339 159,420.5C 159.626,418.287 159.459,416.12 158.5,414C 160.255,411.609 160.589,409.109 159.5,406.5C 160.752,404.999 161.752,403.332 162.5,401.5C 165.344,375.415 168.677,349.415 172.5,323.5C 174.143,318.928 175.477,314.261 176.5,309.5C 177.248,307.668 178.248,306.001 179.5,304.5C 179.167,303.833 178.833,303.167 178.5,302.5C 180.99,286.935 182.824,271.268 184,255.5C 184.741,251.052 185.908,246.719 187.5,242.5C 187.21,240.956 186.544,239.623 185.5,238.5C 187.079,235.006 188.913,231.673 191,228.5C 191.333,218.833 191.667,209.167 192,199.5C 192.503,226.339 193.337,253.005 194.5,279.5 Z"/></g>
<g><path style="opacity:1" fill="#d73235" d="M 194.5,335.5 C 194.5,354.167 194.5,372.833 194.5,391.5C 192.925,381.039 191.925,370.372 191.5,359.5C 192.392,351.509 192.558,343.509 192,335.5C 192.649,344.788 190.816,353.454 186.5,361.5C 185.597,368.254 184.263,374.921 182.5,381.5C 181.833,390.167 181.167,398.833 180.5,407.5C 179.5,409.5 178.5,411.5 177.5,413.5C 180.377,417.186 180.044,420.52 176.5,423.5C 175.52,426.086 175.187,428.753 175.5,431.5C 174.178,431.33 173.011,431.663 172,432.5C 171.452,440.196 170.618,447.862 169.5,455.5C 169.68,458.956 170.347,462.289 171.5,465.5C 168.636,472.538 166.969,479.872 166.5,487.5C 165.881,490.032 164.881,492.365 163.5,494.5C 164.617,495.949 165.284,497.616 165.5,499.5C 164.726,503.049 163.393,506.382 161.5,509.5C 164.377,513.186 164.044,516.52 160.5,519.5C 159.833,524.833 159.167,530.167 158.5,535.5C 157.833,536.167 157.167,536.833 156.5,537.5C 155.616,545.976 153.616,554.143 150.5,562C 153.029,563.062 155.696,563.895 158.5,564.5C 153.544,565.494 148.544,565.827 143.5,565.5C 143.426,563.589 142.426,562.422 140.5,562C 141.766,561.691 142.933,561.191 144,560.5C 145.943,550.874 148.109,541.208 150.5,531.5C 151.167,522.833 151.833,514.167 152.5,505.5C 153.303,502.756 154.303,500.089 155.5,497.5C 154.638,495.913 153.971,494.246 153.5,492.5C 157.4,484.968 159.566,476.968 160,468.5C 160.333,468.833 160.667,469.167 161,469.5C 161.304,467.559 162.137,465.893 163.5,464.5C 162.268,461.7 161.601,458.7 161.5,455.5C 162.618,447.862 163.452,440.196 164,432.5C 165,431.833 166,431.167 167,430.5C 168.727,414.821 170.227,399.155 171.5,383.5C 172.833,383.5 174.167,383.5 175.5,383.5C 174.963,378.261 175.63,373.261 177.5,368.5C 176.585,367.672 175.919,366.672 175.5,365.5C 178.113,362.676 179.779,359.342 180.5,355.5C 181.332,346.852 181.832,338.186 182,329.5C 182.889,326.721 184.056,324.055 185.5,321.5C 184.638,319.913 183.971,318.246 183.5,316.5C 186.87,307.137 188.204,297.471 187.5,287.5C 189.5,287.5 191.5,287.5 193.5,287.5C 193.17,303.675 193.504,319.675 194.5,335.5 Z"/></g>
<g><path style="opacity:1" fill="#9f3336" d="M 102.5,316.5 C 103.495,323.218 102.161,329.551 98.5,335.5C 97.8563,343.5 96.523,351.333 94.5,359C 94.9574,359.414 95.2907,359.914 95.5,360.5C 94.5,361.5 93.5,362.5 92.5,363.5C 91.4586,375.421 90.1253,387.254 88.5,399C 89.0585,399.725 89.3918,400.558 89.5,401.5C 88.192,404.73 87.192,408.064 86.5,411.5C 85.9547,420.958 84.6214,430.292 82.5,439.5C 81.8333,440.167 81.1667,440.833 80.5,441.5C 78.9388,448.863 78.6054,456.196 79.5,463.5C 78.1667,463.5 76.8333,463.5 75.5,463.5C 74.8333,474.167 74.1667,484.833 73.5,495.5C 72.5,495.5 71.5,495.5 70.5,495.5C 72.1885,506.379 70.5219,516.713 65.5,526.5C 68.27,530.429 67.9367,534.096 64.5,537.5C 63.6735,541.459 63.1735,545.459 63,549.5C 62.513,552.637 61.3464,555.47 59.5,558C 59.4733,560.64 60.8066,561.973 63.5,562C 61.8333,563 60.1667,564 58.5,565C 61.9913,565.738 65.3246,566.571 68.5,567.5C 65.5,567.5 62.5,567.5 59.5,567.5C 56.0381,566.518 52.3714,566.185 48.5,566.5C 48.5,565.5 48.5,564.5 48.5,563.5C 55.0565,562.605 55.0565,561.605 48.5,560.5C 49.325,559.614 50.325,559.281 51.5,559.5C 52.6185,555.142 53.9518,550.808 55.5,546.5C 55.0291,544.754 54.3624,543.087 53.5,541.5C 56.0073,539.192 56.674,536.525 55.5,533.5C 56.1667,532.167 56.8333,530.833 57.5,529.5C 56.6668,524.808 57.0001,520.141 58.5,515.5C 60.0259,520.627 61.0259,520.627 61.5,515.5C 60.8333,512.833 60.1667,510.167 59.5,507.5C 60.1638,503.524 60.4971,499.524 60.5,495.5C 61.5,495.5 62.5,495.5 63.5,495.5C 63.5,490.167 63.5,484.833 63.5,479.5C 64.8333,479.5 66.1667,479.5 67.5,479.5C 67.9807,464.692 69.6474,450.025 72.5,435.5C 73.9501,438.141 74.6168,437.808 74.5,434.5C 72.6648,428.18 73.3315,422.18 76.5,416.5C 74.7983,411.775 75.4649,407.442 78.5,403.5C 79.4967,396.866 79.83,390.2 79.5,383.5C 80.8333,383.5 82.1667,383.5 83.5,383.5C 83.3337,376.825 83.5004,370.158 84,363.5C 84.6245,360.257 85.7912,357.257 87.5,354.5C 87.0291,352.754 86.3624,351.087 85.5,349.5C 86.7588,345.626 88.0922,341.793 89.5,338C 89.3552,337.228 89.0219,336.561 88.5,336C 83.5357,335.58 83.369,334.747 88,333.5C 91.5199,336.069 92.3532,335.069 90.5,330.5C 92.6824,329.177 93.3491,327.51 92.5,325.5C 95.3418,324.996 96.6751,323.329 96.5,320.5C 98.1274,318.536 100.127,317.203 102.5,316.5 Z"/></g>
<g><path style="opacity:1" fill="#a53235" d="M 156.5,59.5 C 156.461,60.5832 156.127,61.5832 155.5,62.5C 156.415,63.3279 157.081,64.3279 157.5,65.5C 155.885,69.0634 154.552,72.7301 153.5,76.5C 153.709,77.086 154.043,77.586 154.5,78C 152.837,78.2649 151.337,77.7649 150,76.5C 146.585,78.9581 147.085,80.2914 151.5,80.5C 152.027,91.0513 150.027,101.051 145.5,110.5C 148.27,114.429 147.937,118.096 144.5,121.5C 143.668,129.813 143.168,138.147 143,146.5C 139.779,150.275 137.612,154.609 136.5,159.5C 135.607,172.878 134.274,186.212 132.5,199.5C 130.123,210.386 128.289,221.386 127,232.5C 126.167,233.5 125.333,234.5 124.5,235.5C 121.855,252.751 119.855,270.084 118.5,287.5C 114.741,297.827 112.908,308.493 113,319.5C 112.51,318.207 112.343,316.873 112.5,315.5C 111.5,315.5 110.5,315.5 109.5,315.5C 109.908,318.53 110.574,321.53 111.5,324.5C 110.677,328.484 109.011,332.15 106.5,335.5C 104.615,349.459 103.281,363.459 102.5,377.5C 102.833,378.833 103.167,380.167 103.5,381.5C 101.835,386.822 100.169,392.155 98.5,397.5C 97.6667,398.5 96.8333,399.5 96,400.5C 95.7743,408.861 95.2743,417.195 94.5,425.5C 94.8333,426.833 95.1667,428.167 95.5,429.5C 91.8068,434.903 89.4735,440.903 88.5,447.5C 88.1552,466.363 86.1552,485.03 82.5,503.5C 81.8333,504.167 81.1667,504.833 80.5,505.5C 79.8333,509.5 79.1667,513.5 78.5,517.5C 75.0633,520.904 74.73,524.571 77.5,528.5C 73.9427,536.063 71.9427,544.063 71.5,552.5C 71.5536,555.939 72.2203,559.106 73.5,562C 71.7091,562.415 70.3757,563.415 69.5,565C 72.7256,566.199 76.059,566.699 79.5,566.5C 83.0419,566.187 86.3752,566.521 89.5,567.5C 82.5,567.5 75.5,567.5 68.5,567.5C 65.3246,566.571 61.9913,565.738 58.5,565C 60.1667,564 61.8333,563 63.5,562C 60.8066,561.973 59.4733,560.64 59.5,558C 61.3464,555.47 62.513,552.637 63,549.5C 63.1735,545.459 63.6735,541.459 64.5,537.5C 67.9367,534.096 68.27,530.429 65.5,526.5C 70.5219,516.713 72.1885,506.379 70.5,495.5C 71.5,495.5 72.5,495.5 73.5,495.5C 74.1667,484.833 74.8333,474.167 75.5,463.5C 76.8333,463.5 78.1667,463.5 79.5,463.5C 78.6054,456.196 78.9388,448.863 80.5,441.5C 81.1667,440.833 81.8333,440.167 82.5,439.5C 84.6214,430.292 85.9547,420.958 86.5,411.5C 87.192,408.064 88.192,404.73 89.5,401.5C 89.3918,400.558 89.0585,399.725 88.5,399C 90.1253,387.254 91.4586,375.421 92.5,363.5C 93.5,362.5 94.5,361.5 95.5,360.5C 95.2907,359.914 94.9574,359.414 94.5,359C 96.523,351.333 97.8563,343.5 98.5,335.5C 102.161,329.551 103.495,323.218 102.5,316.5C 102.833,315.833 103.167,315.167 103.5,314.5C 105.607,314.278 107.274,313.278 108.5,311.5C 109.498,303.193 109.831,294.86 109.5,286.5C 110.332,266.004 110.832,245.337 111,224.5C 112.066,236.141 112.732,247.808 113,259.5C 118.177,230.429 122.01,201.095 124.5,171.5C 125.167,170.833 125.833,170.167 126.5,169.5C 127.167,164.833 127.833,160.167 128.5,155.5C 130.329,153.844 131.663,151.844 132.5,149.5C 133.738,133.617 135.405,117.784 137.5,102C 138.079,97.8465 136.412,95.6799 132.5,95.5C 132.222,93.6536 132.889,92.3202 134.5,91.5C 135.696,91.8457 135.696,92.3457 134.5,93C 136.044,93.2896 137.377,93.9563 138.5,95C 139.635,95.7494 140.635,95.5827 141.5,94.5C 140.263,93.7193 139.263,92.7193 138.5,91.5C 140.766,89.4336 142.433,86.9336 143.5,84C 142.451,83.5078 141.451,83.6744 140.5,84.5C 139.167,86.1667 137.833,87.8333 136.5,89.5C 135.708,88.3002 135.708,86.9669 136.5,85.5C 137.794,84.7101 138.961,83.7101 140,82.5C 141.205,79.4383 142.372,76.4383 143.5,73.5C 145.716,72.7974 147.549,71.4641 149,69.5C 150.667,66.5 152.333,63.5 154,60.5C 154.671,59.7476 155.504,59.4142 156.5,59.5 Z"/></g>
<g><path style="opacity:1" fill="#e96379" d="M 277.5,113.5 C 277.833,113.5 278.167,113.5 278.5,113.5C 279.419,116.089 281.086,118.089 283.5,119.5C 283.833,119.5 284.167,119.5 284.5,119.5C 284.5,121.5 284.5,123.5 284.5,125.5C 283.325,125.719 282.325,125.386 281.5,124.5C 280.422,121.793 279.422,119.126 278.5,116.5C 276.833,116.5 275.167,116.5 273.5,116.5C 273.33,115.178 273.663,114.011 274.5,113C 273.365,112.251 272.365,112.417 271.5,113.5C 271.621,116.002 271.788,118.668 272,121.5C 272.833,123 274,124.167 275.5,125C 274.789,126.255 273.956,127.421 273,128.5C 272.826,187.522 272.326,246.522 271.5,305.5C 272.661,388.478 272.828,471.478 272,554.5C 271.809,556.708 271.309,558.708 270.5,560.5C 271.807,477.342 271.807,394.342 270.5,311.5C 270.167,244.163 270.5,176.83 271.5,109.5C 273.529,110.844 275.529,112.177 277.5,113.5 Z"/></g>
<g><path style="opacity:1" fill="#983235" d="M 96.5,320.5 C 96.6751,323.329 95.3418,324.996 92.5,325.5C 93.3491,327.51 92.6824,329.177 90.5,330.5C 92.3532,335.069 91.5199,336.069 88,333.5C 83.369,334.747 83.5357,335.58 88.5,336C 89.0219,336.561 89.3552,337.228 89.5,338C 88.0922,341.793 86.7588,345.626 85.5,349.5C 86.3624,351.087 87.0291,352.754 87.5,354.5C 85.7912,357.257 84.6245,360.257 84,363.5C 83.5004,370.158 83.3337,376.825 83.5,383.5C 82.1667,383.5 80.8333,383.5 79.5,383.5C 79.83,390.2 79.4967,396.866 78.5,403.5C 75.4649,407.442 74.7983,411.775 76.5,416.5C 73.3315,422.18 72.6648,428.18 74.5,434.5C 74.6168,437.808 73.9501,438.141 72.5,435.5C 69.6474,450.025 67.9807,464.692 67.5,479.5C 66.1667,479.5 64.8333,479.5 63.5,479.5C 63.5,484.833 63.5,490.167 63.5,495.5C 62.5,495.5 61.5,495.5 60.5,495.5C 60.4971,499.524 60.1638,503.524 59.5,507.5C 60.1667,510.167 60.8333,512.833 61.5,515.5C 61.0259,520.627 60.0259,520.627 58.5,515.5C 57.0001,520.141 56.6668,524.808 57.5,529.5C 56.8333,530.833 56.1667,532.167 55.5,533.5C 56.674,536.525 56.0073,539.192 53.5,541.5C 54.3624,543.087 55.0291,544.754 55.5,546.5C 53.9518,550.808 52.6185,555.142 51.5,559.5C 50.325,559.281 49.325,559.614 48.5,560.5C 55.0565,561.605 55.0565,562.605 48.5,563.5C 48.5,564.5 48.5,565.5 48.5,566.5C 52.3714,566.185 56.0381,566.518 59.5,567.5C 55.1667,567.5 50.8333,567.5 46.5,567.5C 43.5,566.907 40.5,566.074 37.5,565C 39.0139,563.561 39.3473,562.061 38.5,560.5C 40.3938,555.74 41.5605,550.74 42,545.5C 43.0437,546.623 43.7104,547.956 44,549.5C 44.7811,548.271 45.2811,546.938 45.5,545.5C 44.3732,542.623 43.7065,539.623 43.5,536.5C 44.6182,529.892 45.6182,523.226 46.5,516.5C 48.1047,517.587 48.7713,516.921 48.5,514.5C 47.1215,505.451 48.7881,496.951 53.5,489C 52.4535,487.32 51.7868,485.486 51.5,483.5C 53.6528,474.28 55.1528,464.947 56,455.5C 56.9734,453.608 57.6401,451.608 58,449.5C 59.2433,450.336 60.4099,450.003 61.5,448.5C 60.3112,447.571 58.9778,447.238 57.5,447.5C 60.5009,431.552 63.5009,415.552 66.5,399.5C 67.4948,394.208 67.8282,388.875 67.5,383.5C 68.8333,383.5 70.1667,383.5 71.5,383.5C 72.5026,376.823 72.5026,370.156 71.5,363.5C 71.8704,360.429 72.5371,357.429 73.5,354.5C 71.1008,351.238 71.9341,348.571 76,346.5C 76.3333,346.833 76.6667,347.167 77,347.5C 77.6423,344.723 78.4756,342.056 79.5,339.5C 79.6102,337.626 78.9436,336.126 77.5,335C 78.056,334.617 78.3893,334.117 78.5,333.5C 79.4584,333.047 80.2917,332.381 81,331.5C 84.3774,332.374 86.8774,331.041 88.5,327.5C 89.325,326.614 90.325,326.281 91.5,326.5C 91.8749,323.467 93.5416,321.467 96.5,320.5 Z"/></g>
<g><path style="opacity:1" fill="#dd3335" d="M 194.5,391.5 C 194.5,415.167 194.5,438.833 194.5,462.5C 193.773,441.655 192.94,420.655 192,399.5C 191.75,403.424 190.25,406.758 187.5,409.5C 186.325,412.483 186.325,415.483 187.5,418.5C 186.5,421.5 185.5,424.5 184.5,427.5C 182.573,444.789 180.573,462.122 178.5,479.5C 177.03,484.243 175.364,488.909 173.5,493.5C 174.167,495.167 174.833,496.833 175.5,498.5C 173.042,501.753 171.375,505.42 170.5,509.5C 171.566,514.34 170.9,519.007 168.5,523.5C 167.833,531.5 167.167,539.5 166.5,547.5C 164.912,551.075 164.078,554.741 164,558.5C 164.75,559.126 165.584,559.626 166.5,560C 164.299,561.043 161.966,561.877 159.5,562.5C 160.025,563.192 160.692,563.692 161.5,564C 160.619,564.708 159.953,565.542 159.5,566.5C 152.833,566.5 146.167,566.5 139.5,566.5C 140.568,565.566 141.901,565.232 143.5,565.5C 148.544,565.827 153.544,565.494 158.5,564.5C 155.696,563.895 153.029,563.062 150.5,562C 153.616,554.143 155.616,545.976 156.5,537.5C 157.167,536.833 157.833,536.167 158.5,535.5C 159.167,530.167 159.833,524.833 160.5,519.5C 164.044,516.52 164.377,513.186 161.5,509.5C 163.393,506.382 164.726,503.049 165.5,499.5C 165.284,497.616 164.617,495.949 163.5,494.5C 164.881,492.365 165.881,490.032 166.5,487.5C 166.969,479.872 168.636,472.538 171.5,465.5C 170.347,462.289 169.68,458.956 169.5,455.5C 170.618,447.862 171.452,440.196 172,432.5C 173.011,431.663 174.178,431.33 175.5,431.5C 175.187,428.753 175.52,426.086 176.5,423.5C 180.044,420.52 180.377,417.186 177.5,413.5C 178.5,411.5 179.5,409.5 180.5,407.5C 181.167,398.833 181.833,390.167 182.5,381.5C 184.263,374.921 185.597,368.254 186.5,361.5C 190.816,353.454 192.649,344.788 192,335.5C 192.558,343.509 192.392,351.509 191.5,359.5C 191.925,370.372 192.925,381.039 194.5,391.5 Z"/></g>
<g><path style="opacity:1" fill="#923334" d="M 78.5,333.5 C 78.3893,334.117 78.056,334.617 77.5,335C 78.9436,336.126 79.6102,337.626 79.5,339.5C 78.4756,342.056 77.6423,344.723 77,347.5C 76.6667,347.167 76.3333,346.833 76,346.5C 71.9341,348.571 71.1008,351.238 73.5,354.5C 72.5371,357.429 71.8704,360.429 71.5,363.5C 72.5026,370.156 72.5026,376.823 71.5,383.5C 70.1667,383.5 68.8333,383.5 67.5,383.5C 67.8282,388.875 67.4948,394.208 66.5,399.5C 63.5009,415.552 60.5009,431.552 57.5,447.5C 58.9778,447.238 60.3112,447.571 61.5,448.5C 60.4099,450.003 59.2433,450.336 58,449.5C 57.6401,451.608 56.9734,453.608 56,455.5C 55.1528,464.947 53.6528,474.28 51.5,483.5C 51.7868,485.486 52.4535,487.32 53.5,489C 48.7881,496.951 47.1215,505.451 48.5,514.5C 48.7713,516.921 48.1047,517.587 46.5,516.5C 45.6182,523.226 44.6182,529.892 43.5,536.5C 43.7065,539.623 44.3732,542.623 45.5,545.5C 45.2811,546.938 44.7811,548.271 44,549.5C 43.7104,547.956 43.0437,546.623 42,545.5C 41.5605,550.74 40.3938,555.74 38.5,560.5C 39.3473,562.061 39.0139,563.561 37.5,565C 40.5,566.074 43.5,566.907 46.5,567.5C 41.0217,567.851 35.6884,567.184 30.5,565.5C 32.1142,562.843 31.4475,561.01 28.5,560C 29.448,559.517 30.448,559.351 31.5,559.5C 30.8316,553.77 31.8316,548.437 34.5,543.5C 37.6591,516.029 41.9924,488.862 47.5,462C 47.3463,459.621 46.6797,457.454 45.5,455.5C 46.3914,454.41 47.3914,454.41 48.5,455.5C 53.1339,428.481 57.3005,401.148 61,373.5C 61.4186,372.328 62.0853,371.328 63,370.5C 62.963,363.588 63.963,356.922 66,350.5C 68.1238,349.378 69.9571,347.878 71.5,346C 67.915,345.253 64.7484,346.086 62,348.5C 61.5,348 61,347.5 60.5,347C 62.087,346.138 63.7536,345.471 65.5,345C 66.2524,344.329 66.5858,343.496 66.5,342.5C 68.785,340.882 70.785,338.882 72.5,336.5C 74.5336,335.441 76.5336,334.441 78.5,333.5 Z"/></g>
<g><path style="opacity:1" fill="#964c4d" d="M 103.5,314.5 C 103.167,315.167 102.833,315.833 102.5,316.5C 100.127,317.203 98.1274,318.536 96.5,320.5C 93.5416,321.467 91.8749,323.467 91.5,326.5C 90.325,326.281 89.325,326.614 88.5,327.5C 86.8774,331.041 84.3774,332.374 81,331.5C 80.2917,332.381 79.4584,333.047 78.5,333.5C 76.5336,334.441 74.5336,335.441 72.5,336.5C 70.785,338.882 68.785,340.882 66.5,342.5C 63.1667,344.167 59.8333,345.833 56.5,347.5C 55.8333,347.5 55.1667,347.5 54.5,347.5C 69.7863,337.178 84.7863,326.345 99.5,315C 100.793,314.51 102.127,314.343 103.5,314.5 Z"/></g>
<g><path style="opacity:1" fill="#8c3434" d="M 66.5,342.5 C 66.5858,343.496 66.2524,344.329 65.5,345C 63.7536,345.471 62.087,346.138 60.5,347C 61,347.5 61.5,348 62,348.5C 64.7484,346.086 67.915,345.253 71.5,346C 69.9571,347.878 68.1238,349.378 66,350.5C 63.963,356.922 62.963,363.588 63,370.5C 62.0853,371.328 61.4186,372.328 61,373.5C 57.3005,401.148 53.1339,428.481 48.5,455.5C 47.3914,454.41 46.3914,454.41 45.5,455.5C 46.6797,457.454 47.3463,459.621 47.5,462C 41.9924,488.862 37.6591,516.029 34.5,543.5C 31.8316,548.437 30.8316,553.77 31.5,559.5C 30.448,559.351 29.448,559.517 28.5,560C 31.4475,561.01 32.1142,562.843 30.5,565.5C 35.6884,567.184 41.0217,567.851 46.5,567.5C 50.8333,567.5 55.1667,567.5 59.5,567.5C 62.5,567.5 65.5,567.5 68.5,567.5C 75.5,567.5 82.5,567.5 89.5,567.5C 91.7354,567.205 93.7354,567.539 95.5,568.5C 73.8333,568.5 52.1667,568.5 30.5,568.5C 29.0813,567.549 27.4147,567.216 25.5,567.5C 23.369,566.686 21.0356,566.186 18.5,566C 21.1768,565.751 23.5101,564.751 25.5,563C 22.9109,561.803 20.2442,560.803 17.5,560C 18.7932,559.51 20.1266,559.343 21.5,559.5C 25.0709,541.702 27.4042,523.702 28.5,505.5C 29.1667,504.833 29.8333,504.167 30.5,503.5C 31.2136,500.973 31.8803,498.473 32.5,496C 31.1941,490.554 31.1941,485.054 32.5,479.5C 35.0568,473.712 37.0568,467.712 38.5,461.5C 35.7462,461.216 33.0795,460.549 30.5,459.5C 30.8627,458.817 31.1961,458.15 31.5,457.5C 31.33,456.178 31.6634,455.011 32.5,454C 36.9184,452.202 41.0851,450.702 45,449.5C 45.2109,443.782 45.7109,438.115 46.5,432.5C 45.5523,408.482 45.219,384.482 45.5,360.5C 46.1076,357.366 47.7742,356.699 50.5,358.5C 52.0293,358.471 53.196,357.804 54,356.5C 54.623,353.293 55.4563,350.293 56.5,347.5C 59.8333,345.833 63.1667,344.167 66.5,342.5 Z"/></g>
<g><path style="opacity:0.744" fill="#d97281" d="M 284.5,119.5 C 286.836,121.004 288.669,123.004 290,125.5C 290.5,198.166 290.667,270.833 290.5,343.5C 289.667,417.666 289.167,491.999 289,566.5C 288.5,567 288,567.5 287.5,568C 281.215,569.05 275.215,568.55 269.5,566.5C 269.5,481.5 269.5,396.5 269.5,311.5C 269.833,311.5 270.167,311.5 270.5,311.5C 271.807,394.342 271.807,477.342 270.5,560.5C 271.341,562.379 271.675,564.379 271.5,566.5C 276.5,566.5 281.5,566.5 286.5,566.5C 286.351,565.448 286.517,564.448 287,563.5C 287.333,563.833 287.667,564.167 288,564.5C 288.833,418.166 288.667,271.832 287.5,125.5C 286.473,124.209 285.473,124.209 284.5,125.5C 284.5,123.5 284.5,121.5 284.5,119.5 Z"/></g>
<g><path style="opacity:1" fill="#f28885" d="M 323.5,343.5 C 323.343,344.873 323.51,346.207 324,347.5C 326,348.833 328,350.167 330,351.5C 329.775,354.825 331.108,357.158 334,358.5C 334.5,428.166 334.667,497.833 334.5,567.5C 326.869,568.564 319.202,568.731 311.5,568C 309.984,566.103 309.317,563.936 309.5,561.5C 309.5,557.167 309.5,552.833 309.5,548.5C 310.499,478.002 310.833,407.335 310.5,336.5C 314.271,339.558 318.605,341.891 323.5,343.5 Z"/></g>
<g><path style="opacity:0.306" fill="#e9aba8" d="M 323.5,343.5 C 318.605,341.891 314.271,339.558 310.5,336.5C 310.833,407.335 310.499,478.002 309.5,548.5C 309.83,477.459 309.497,406.459 308.5,335.5C 308.865,334.098 309.699,333.098 311,332.5C 315.34,336.009 319.506,339.675 323.5,343.5 Z"/></g>
<g><path style="opacity:0.857" fill="#dd9996" d="M 323.5,343.5 C 328.447,347.062 332.614,351.396 336,356.5C 336.667,427.167 336.667,497.833 336,568.5C 327.466,569.837 318.966,570.337 310.5,570C 309.833,569.667 309.167,569.333 308.5,569C 308.485,566.442 308.818,563.942 309.5,561.5C 309.317,563.936 309.984,566.103 311.5,568C 319.202,568.731 326.869,568.564 334.5,567.5C 334.667,497.833 334.5,428.166 334,358.5C 331.108,357.158 329.775,354.825 330,351.5C 328,350.167 326,348.833 324,347.5C 323.51,346.207 323.343,344.873 323.5,343.5 Z"/></g>
<g><path style="opacity:1" fill="#e33336" d="M 194.5,462.5 C 194.5,497.5 194.5,532.5 194.5,567.5C 182.833,567.5 171.167,567.5 159.5,567.5C 159.5,567.167 159.5,566.833 159.5,566.5C 159.953,565.542 160.619,564.708 161.5,564C 160.692,563.692 160.025,563.192 159.5,562.5C 161.966,561.877 164.299,561.043 166.5,560C 165.584,559.626 164.75,559.126 164,558.5C 164.078,554.741 164.912,551.075 166.5,547.5C 167.167,539.5 167.833,531.5 168.5,523.5C 170.9,519.007 171.566,514.34 170.5,509.5C 171.375,505.42 173.042,501.753 175.5,498.5C 174.833,496.833 174.167,495.167 173.5,493.5C 175.364,488.909 177.03,484.243 178.5,479.5C 180.573,462.122 182.573,444.789 184.5,427.5C 185.5,424.5 186.5,421.5 187.5,418.5C 186.325,415.483 186.325,412.483 187.5,409.5C 190.25,406.758 191.75,403.424 192,399.5C 192.94,420.655 193.773,441.655 194.5,462.5 Z"/></g>
<g><path style="opacity:1" fill="#833a3b" d="M 54.5,347.5 C 55.1667,347.5 55.8333,347.5 56.5,347.5C 55.4563,350.293 54.623,353.293 54,356.5C 53.196,357.804 52.0293,358.471 50.5,358.5C 47.7742,356.699 46.1076,357.366 45.5,360.5C 45.219,384.482 45.5523,408.482 46.5,432.5C 45.7109,438.115 45.2109,443.782 45,449.5C 41.0851,450.702 36.9184,452.202 32.5,454C 31.6634,455.011 31.33,456.178 31.5,457.5C 30.5041,457.414 29.6708,457.748 29,458.5C 27.7754,462.905 26.2754,467.238 24.5,471.5C 23.0825,480.165 22.7491,488.832 23.5,497.5C 21.9698,501.09 20.6365,504.757 19.5,508.5C 20.4207,514.817 20.4207,521.15 19.5,527.5C 18.5,527.5 17.5,527.5 16.5,527.5C 15.9694,532.72 15.3027,537.887 14.5,543C 15.7881,545.628 15.1214,547.795 12.5,549.5C 11.4025,552.753 10.7358,556.086 10.5,559.5C 11.9778,559.238 13.3112,559.571 14.5,560.5C 14.3333,560.833 14.1667,561.167 14,561.5C 11.2883,559.837 9.12168,560.837 7.5,564.5C 13.2448,566.942 19.2448,567.942 25.5,567.5C 27.4147,567.216 29.0813,567.549 30.5,568.5C 20.1667,568.5 9.83333,568.5 -0.5,568.5C -0.5,566.167 -0.5,563.833 -0.5,561.5C 2.77561,560.766 3.44228,558.933 1.5,556C 2.47637,553.882 3.3097,551.715 4,549.5C 4.70204,540.072 5.8687,530.739 7.5,521.5C 6.66887,519.527 6.50221,517.527 7,515.5C 7.30762,516.308 7.80762,516.975 8.5,517.5C 9.16667,508.833 9.83333,500.167 10.5,491.5C 11.1499,488.035 12.6499,485.035 15,482.5C 14.9894,476.823 15.8227,471.323 17.5,466C 16.4267,464.584 16.4267,463.25 17.5,462C 20.6572,460.422 23.9906,459.422 27.5,459C 25.6241,457.983 23.6241,457.149 21.5,456.5C 23.6651,455.293 25.6651,453.96 27.5,452.5C 31.8782,449.982 36.5448,447.982 41.5,446.5C 42.3332,416.172 42.8332,385.839 43,355.5C 46.4556,352.198 50.289,349.531 54.5,347.5 Z"/></g>
<g><path style="opacity:1" fill="#863435" d="M 31.5,457.5 C 31.1961,458.15 30.8627,458.817 30.5,459.5C 33.0795,460.549 35.7462,461.216 38.5,461.5C 37.0568,467.712 35.0568,473.712 32.5,479.5C 31.1941,485.054 31.1941,490.554 32.5,496C 31.8803,498.473 31.2136,500.973 30.5,503.5C 29.8333,504.167 29.1667,504.833 28.5,505.5C 27.4042,523.702 25.0709,541.702 21.5,559.5C 20.1266,559.343 18.7932,559.51 17.5,560C 20.2442,560.803 22.9109,561.803 25.5,563C 23.5101,564.751 21.1768,565.751 18.5,566C 21.0356,566.186 23.369,566.686 25.5,567.5C 19.2448,567.942 13.2448,566.942 7.5,564.5C 9.12168,560.837 11.2883,559.837 14,561.5C 14.1667,561.167 14.3333,560.833 14.5,560.5C 13.3112,559.571 11.9778,559.238 10.5,559.5C 10.7358,556.086 11.4025,552.753 12.5,549.5C 15.1214,547.795 15.7881,545.628 14.5,543C 15.3027,537.887 15.9694,532.72 16.5,527.5C 17.5,527.5 18.5,527.5 19.5,527.5C 20.4207,521.15 20.4207,514.817 19.5,508.5C 20.6365,504.757 21.9698,501.09 23.5,497.5C 22.7491,488.832 23.0825,480.165 24.5,471.5C 26.2754,467.238 27.7754,462.905 29,458.5C 29.6708,457.748 30.5041,457.414 31.5,457.5 Z"/></g>
<g><path style="opacity:1" fill="#7a3536" d="M 27.5,452.5 C 25.6651,453.96 23.6651,455.293 21.5,456.5C 23.6241,457.149 25.6241,457.983 27.5,459C 23.9906,459.422 20.6572,460.422 17.5,462C 16.4267,463.25 16.4267,464.584 17.5,466C 15.8227,471.323 14.9894,476.823 15,482.5C 12.6499,485.035 11.1499,488.035 10.5,491.5C 9.83333,500.167 9.16667,508.833 8.5,517.5C 7.80762,516.975 7.30762,516.308 7,515.5C 6.50221,517.527 6.66887,519.527 7.5,521.5C 5.8687,530.739 4.70204,540.072 4,549.5C 3.3097,551.715 2.47637,553.882 1.5,556C 3.44228,558.933 2.77561,560.766 -0.5,561.5C -0.5,527.833 -0.5,494.167 -0.5,460.5C 9.02573,458.398 18.3591,455.731 27.5,452.5 Z"/></g>
<g><path style="opacity:1" fill="#ea3236" d="M 191.5,464.5 C 193.221,498.317 193.887,532.317 193.5,566.5C 185.826,566.666 178.159,566.5 170.5,566C 177.167,565 177.167,564 170.5,563C 172.594,561.648 174.927,561.148 177.5,561.5C 177.334,555.824 177.501,550.157 178,544.5C 179.011,543.663 180.178,543.33 181.5,543.5C 183.777,526.29 185.443,508.957 186.5,491.5C 190.083,482.952 191.75,473.952 191.5,464.5 Z"/></g>
<g><path style="opacity:0.277" fill="#f3dbd2" d="M 381.5,461.5 C 381.5,497.5 381.5,533.5 381.5,569.5C 372.234,569.709 362.567,569.709 352.5,569.5C 352.333,526.832 352.5,484.165 353,441.5C 354.073,440.72 355.24,440.887 356.5,442C 364.471,449.158 372.804,455.658 381.5,461.5 Z"/></g>
<g><path style="opacity:1" fill="#fbd2c2" d="M 355.5,444.5 C 362.296,450.599 369.629,456.266 377.5,461.5C 378.829,496.733 378.829,531.9 377.5,567C 372.5,567.5 367.5,568 362.5,568.5C 359.869,568.679 357.535,568.013 355.5,566.5C 356.167,565.5 356.833,564.5 357.5,563.5C 356.469,562.3 355.635,560.966 355,559.5C 354.173,521.095 354.34,482.762 355.5,444.5 Z"/></g>
<g><path style="opacity:0.016" fill="#c89fa0" d="M 290.5,343.5 C 290.667,418.501 290.5,493.501 290,568.5C 283.256,569.479 276.422,569.812 269.5,569.5C 269.5,568.5 269.5,567.5 269.5,566.5C 275.215,568.55 281.215,569.05 287.5,568C 288,567.5 288.5,567 289,566.5C 289.167,491.999 289.667,417.666 290.5,343.5 Z"/></g>
<g><path style="opacity:0.353" fill="#e09d9e" d="M 195.5,-0.5 C 195.833,-0.5 196.167,-0.5 196.5,-0.5C 196.5,189.5 196.5,379.5 196.5,569.5C 130.833,569.5 65.1667,569.5 -0.5,569.5C -0.5,569.167 -0.5,568.833 -0.5,568.5C 9.83333,568.5 20.1667,568.5 30.5,568.5C 52.1667,568.5 73.8333,568.5 95.5,568.5C 128.833,568.5 162.167,568.5 195.5,568.5C 195.5,453.5 195.5,338.5 195.5,223.5C 195.5,148.833 195.5,74.1667 195.5,-0.5 Z"/></g>
<g><path style="opacity:0.008" fill="#a98b83" d="M 376.5,576.5 C 377.999,575.506 379.666,575.506 381.5,576.5C 381.5,577.167 381.5,577.833 381.5,578.5C 379.678,578.169 378.011,577.502 376.5,576.5 Z"/></g>
<g><path style="opacity:0.952" fill="#454343" d="M 124.5,576.5 C 127.125,577.441 127.125,578.607 124.5,580C 121.183,580.498 117.85,580.665 114.5,580.5C 114.172,591.679 114.505,602.679 115.5,613.5C 115.369,614.376 115.702,615.043 116.5,615.5C 118.225,616.015 119.892,616.682 121.5,617.5C 121.291,618.086 120.957,618.586 120.5,619C 114.509,619.499 108.509,619.666 102.5,619.5C 102.33,618.178 102.663,617.011 103.5,616C 105.101,615.727 106.601,615.227 108,614.5C 108.5,603.505 108.667,592.505 108.5,581.5C 105.428,581.183 102.428,581.516 99.5,582.5C 98.0905,583.569 97.0905,584.903 96.5,586.5C 94.6921,585.082 94.0254,583.082 94.5,580.5C 93.2086,579.527 93.2086,578.527 94.5,577.5C 104.478,576.501 114.478,576.168 124.5,576.5 Z"/></g>
<g><path style="opacity:0.938" fill="#474546" d="M 160.5,595.5 C 157.663,597.261 155.33,596.761 153.5,594C 154.252,593.329 154.586,592.496 154.5,591.5C 156.103,584.26 153.103,580.76 145.5,581C 144.859,583.578 144.525,586.245 144.5,589C 144.525,591.929 145.191,594.429 146.5,596.5C 148.761,597.409 150.928,597.742 153,597.5C 153.309,598.766 153.809,599.933 154.5,601C 153,601.833 151.833,603 151,604.5C 150.517,603.552 150.351,602.552 150.5,601.5C 149.5,601.5 148.5,601.5 147.5,601.5C 147.5,601.167 147.5,600.833 147.5,600.5C 146.432,599.566 145.099,599.232 143.5,599.5C 143.179,604.695 143.513,609.695 144.5,614.5C 145.997,615.306 147.664,615.972 149.5,616.5C 150.711,617.274 150.711,618.107 149.5,619C 143.175,619.5 136.842,619.666 130.5,619.5C 130.5,618.5 130.5,617.5 130.5,616.5C 132.903,616.607 134.736,615.607 136,613.5C 136.667,603.167 136.667,592.833 136,582.5C 135.072,579.965 133.238,578.965 130.5,579.5C 130.5,578.5 130.5,577.5 130.5,576.5C 140.278,576.144 149.944,576.977 159.5,579C 164.432,584.269 164.765,589.769 160.5,595.5 Z M 154.5,591.5 C 152.293,594.067 149.627,595.733 146.5,596.5C 145.191,594.429 144.525,591.929 144.5,589C 144.525,586.245 144.859,583.578 145.5,581C 153.103,580.76 156.103,584.26 154.5,591.5 Z"/></g>
<g><path style="opacity:0.939" fill="#434242" d="M 344.5,581.5 C 343.18,592.738 343.18,603.404 344.5,613.5C 345.282,614.938 346.949,615.938 349.5,616.5C 347.085,617.814 344.252,618.481 341,618.5C 338.167,618.167 335.333,617.833 332.5,617.5C 333.602,616.824 334.602,616.158 335.5,615.5C 336.643,604.243 336.81,592.909 336,581.5C 334.4,580.134 332.567,579.134 330.5,578.5C 330.709,577.914 331.043,577.414 331.5,577C 337.825,576.5 344.158,576.334 350.5,576.5C 350.5,577.5 350.5,578.5 350.5,579.5C 348.142,579.253 346.142,579.919 344.5,581.5 Z"/></g>
<g><path style="opacity:0.929" fill="#7f7c7c" d="M 124.5,576.5 C 126.144,576.286 127.644,576.62 129,577.5C 129.226,580.095 129.726,582.595 130.5,585C 129.692,586.706 128.359,587.539 126.5,587.5C 126.714,585.856 126.38,584.356 125.5,583C 122.312,581.684 118.978,581.184 115.5,581.5C 115.5,592.167 115.5,602.833 115.5,613.5C 114.505,602.679 114.172,591.679 114.5,580.5C 117.85,580.665 121.183,580.498 124.5,580C 127.125,578.607 127.125,577.441 124.5,576.5 Z"/></g>
<g><path style="opacity:0.09" fill="#787174" d="M 230.5,576.5 C 225.579,576.862 220.913,577.862 216.5,579.5C 214.451,579.294 214.117,578.461 215.5,577C 220.489,576.501 225.489,576.334 230.5,576.5 Z"/></g>
<g><path style="opacity:0.786" fill="#5f5f5f" d="M 294.5,577.5 C 300.31,576.51 306.31,576.177 312.5,576.5C 312.5,577.5 312.5,578.5 312.5,579.5C 310.708,579.366 309.042,579.699 307.5,580.5C 307.414,579.504 307.748,578.671 308.5,578C 303.845,577.501 299.179,577.334 294.5,577.5 Z"/></g>
<g><path style="opacity:0.92" fill="#3a3939" d="M 230.5,576.5 C 231.167,576.833 231.833,577.167 232.5,577.5C 233.058,578.79 234.058,579.623 235.5,580C 234.263,580.232 233.263,580.732 232.5,581.5C 231.167,581.5 229.833,581.5 228.5,581.5C 228.5,586.5 228.5,591.5 228.5,596.5C 229.609,597.29 230.942,597.79 232.5,598C 233.774,598.977 233.774,599.811 232.5,600.5C 232.167,600.5 231.833,600.5 231.5,600.5C 230.432,599.566 229.099,599.232 227.5,599.5C 227.183,603.702 227.517,607.702 228.5,611.5C 229.08,613.749 230.413,615.415 232.5,616.5C 230.257,617.812 227.59,618.478 224.5,618.5C 221.833,618.167 219.167,617.833 216.5,617.5C 217.991,616.756 219.491,616.09 221,615.5C 221.167,609.5 221.333,603.5 221.5,597.5C 221.496,591.128 220.829,585.128 219.5,579.5C 218.5,579.5 217.5,579.5 216.5,579.5C 220.913,577.862 225.579,576.862 230.5,576.5 Z"/></g>
<g><path style="opacity:0.128" fill="#b3b3b3" d="M 94.5,580.5 C 94.0254,583.082 94.6921,585.082 96.5,586.5C 95.791,587.404 94.791,587.737 93.5,587.5C 93.1984,584.941 93.5318,582.607 94.5,580.5 Z"/></g>
<g><path style="opacity:0.962" fill="#474646" d="M 376.5,576.5 C 378.011,577.502 379.678,578.169 381.5,578.5C 381.5,581.5 381.5,584.5 381.5,587.5C 380.001,588.678 379.001,590.345 378.5,592.5C 376.17,590.425 375.003,587.758 375,584.5C 369.401,577.777 364.235,577.943 359.5,585C 360.126,585.75 360.626,586.584 361,587.5C 364.812,590.312 368.646,592.979 372.5,595.5C 372.973,596.906 373.973,597.573 375.5,597.5C 377.772,598.441 379.772,599.774 381.5,601.5C 381.5,606.5 381.5,611.5 381.5,616.5C 380.778,616.082 380.278,615.416 380,614.5C 378.457,616.378 376.624,617.878 374.5,619C 367.411,619.152 360.411,619.319 353.5,619.5C 353.334,614.821 353.501,610.155 354,605.5C 354.414,605.043 354.914,604.709 355.5,604.5C 357.317,606.416 358.484,608.749 359,611.5C 364.409,616.743 369.742,616.743 375,611.5C 374.817,607.154 372.65,604.154 368.5,602.5C 367.341,600.75 365.674,599.75 363.5,599.5C 354.635,596.436 351.635,590.436 354.5,581.5C 360.574,575.015 367.408,574.015 375,578.5C 375.717,577.956 376.217,577.289 376.5,576.5 Z"/></g>
<g><path style="opacity:0.9" fill="#4a4949" d="M 2.5,577.5 C 6.31121,576.355 10.3112,576.188 14.5,577C 18.8393,584.512 22.506,592.346 25.5,600.5C 27.7896,608.437 29.4562,608.77 30.5,601.5C 33.6928,593.781 37.3595,586.448 41.5,579.5C 40.4639,581.391 40.4639,583.224 41.5,585C 40.5,585.833 39.5,586.667 38.5,587.5C 39.6119,588.265 40.2786,589.265 40.5,590.5C 40.5,590.833 40.5,591.167 40.5,591.5C 40.5,592.167 40.5,592.833 40.5,593.5C 35.756,601.986 31.256,610.653 27,619.5C 21.7548,610.672 17.2548,601.339 13.5,591.5C 13.5,591.167 13.5,590.833 13.5,590.5C 15.9856,589.538 15.9856,588.705 13.5,588C 16.1667,587.333 16.1667,586.667 13.5,586C 14.5,585.667 15.5,585.333 16.5,585C 14.5229,582.957 13.5229,580.457 13.5,577.5C 9.83333,577.5 6.16667,577.5 2.5,577.5 Z"/></g>
<g><path style="opacity:0.067" fill="#bfbfbf" d="M 219.5,579.5 C 220.829,585.128 221.496,591.128 221.5,597.5C 221.333,603.5 221.167,609.5 221,615.5C 219.491,616.09 217.991,616.756 216.5,617.5C 219.167,617.833 221.833,618.167 224.5,618.5C 227.59,618.478 230.257,617.812 232.5,616.5C 233.507,616.452 233.84,617.452 233.5,619.5C 227.491,619.666 221.491,619.499 215.5,619C 215.043,618.586 214.709,618.086 214.5,617.5C 215.991,615.988 217.824,614.988 220,614.5C 220.811,602.757 220.644,591.091 219.5,579.5 Z"/></g>
<g><path style="opacity:0.914" fill="#4f4e4f" d="M 232.5,577.5 C 245.952,576.933 250.618,582.933 246.5,595.5C 242.599,599.958 237.932,601.624 232.5,600.5C 233.774,599.811 233.774,598.977 232.5,598C 230.942,597.79 229.609,597.29 228.5,596.5C 237.157,596.853 240.324,592.853 238,584.5C 236.512,582.84 234.679,581.84 232.5,581.5C 233.263,580.732 234.263,580.232 235.5,580C 234.058,579.623 233.058,578.79 232.5,577.5 Z"/></g>
<g><path style="opacity:0.927" fill="#4a4949" d="M 267.5,575.5 C 288.999,577.466 296.166,588.8 289,609.5C 282.967,618.739 274.467,621.906 263.5,619C 249.344,610.214 246.177,598.38 254,583.5C 257.887,579.646 262.387,576.979 267.5,575.5 Z M 258.5,596.5 C 259.828,594.556 260.161,592.556 259.5,590.5C 262.335,580.915 268.335,578.082 277.5,582C 279.81,583.637 281.31,585.804 282,588.5C 282.667,594.833 282.667,601.167 282,607.5C 279.11,613.861 274.277,616.361 267.5,615C 264.667,613.5 262.5,611.333 261,608.5C 260.057,604.504 259.224,600.504 258.5,596.5 Z"/></g>
<g><path style="opacity:0.98" fill="#474546" d="M 210.5,609.5 C 207.211,611.189 205.211,610.189 204.5,606.5C 206.386,597.933 205.052,589.933 200.5,582.5C 192.218,577.716 186.051,579.716 182,588.5C 180.925,592.77 180.425,597.103 180.5,601.5C 180.769,603.429 180.269,605.095 179,606.5C 178.213,605.289 177.546,604.289 177,603.5C 175.923,604.429 174.756,605.096 173.5,605.5C 168.891,588.094 175.557,578.094 193.5,575.5C 206.592,576.757 213.258,583.923 213.5,597C 213.382,601.492 212.382,605.659 210.5,609.5 Z"/></g>
<g><path style="opacity:0.03" fill="#d0d0d0" d="M 85.5,589.5 C 86.4872,594.305 86.8205,599.305 86.5,604.5C 85.1667,604.5 83.8333,604.5 82.5,604.5C 82.7709,602.62 82.1042,601.287 80.5,600.5C 80.8966,599.475 81.5632,599.308 82.5,600C 83.0712,601.205 83.7379,602.372 84.5,603.5C 85.4933,598.88 85.8266,594.214 85.5,589.5 Z"/></g>
<g><path style="opacity:0.047" fill="#c7c7c7" d="M 259.5,590.5 C 260.161,592.556 259.828,594.556 258.5,596.5C 258.205,594.265 258.539,592.265 259.5,590.5 Z"/></g>
<g><path style="opacity:0.247" fill="#999999" d="M 344.5,581.5 C 344.558,592.376 344.558,603.043 344.5,613.5C 343.18,603.404 343.18,592.738 344.5,581.5 Z"/></g>
<g><path style="opacity:0.047" fill="#c9c9c9" d="M 372.5,595.5 C 374.027,595.427 375.027,596.094 375.5,597.5C 373.973,597.573 372.973,596.906 372.5,595.5 Z"/></g>
<g><path style="opacity:0.063" fill="#e4e4e4" d="M 13.5,590.5 C 13.5,590.833 13.5,591.167 13.5,591.5C 12.8826,591.389 12.3826,591.056 12,590.5C 11.5003,597.826 11.3337,605.159 11.5,612.5C 10.3431,604.01 10.1764,595.343 11,586.5C 12.0946,587.693 12.928,589.027 13.5,590.5 Z"/></g>
<g><path style="opacity:0.948" fill="#424141" d="M 54.5,577.5 C 54.5,578.167 54.5,578.833 54.5,579.5C 53.1667,579.5 51.8333,579.5 50.5,579.5C 49.9782,590.328 49.8115,601.328 50,612.5C 50.2492,613.624 50.7492,614.624 51.5,615.5C 55.01,616.769 58.51,616.103 62,613.5C 62.6667,603.167 62.6667,592.833 62,582.5C 61.6258,581.584 61.1258,580.75 60.5,580C 58.9419,579.79 57.6085,579.29 56.5,578.5C 58.1667,577.833 59.8333,577.167 61.5,576.5C 70.5062,576.334 79.5062,576.5 88.5,577C 89.1667,579.667 89.8333,582.333 90.5,585C 88.0942,588.318 86.5942,587.818 86,583.5C 85.0975,582.299 83.9308,581.465 82.5,581C 78.1794,580.501 73.8461,580.334 69.5,580.5C 69.5,585.167 69.5,589.833 69.5,594.5C 72.7479,595.132 75.9145,595.132 79,594.5C 81.633,593.911 82.7997,592.244 82.5,589.5C 83.5,589.5 84.5,589.5 85.5,589.5C 85.8266,594.214 85.4933,598.88 84.5,603.5C 83.7379,602.372 83.0712,601.205 82.5,600C 81.5632,599.308 80.8966,599.475 80.5,600.5C 77.1691,598.702 73.5025,598.036 69.5,598.5C 69.5,603.833 69.5,609.167 69.5,614.5C 74.1785,614.666 78.8452,614.499 83.5,614C 85.3231,613.003 86.9897,611.836 88.5,610.5C 89.1174,610.389 89.6174,610.056 90,609.5C 90.49,610.793 90.6567,612.127 90.5,613.5C 90.5,613.833 90.5,614.167 90.5,614.5C 89.6091,615.261 88.9424,616.261 88.5,617.5C 77.8541,618.499 67.1874,618.832 56.5,618.5C 56.1667,617.167 55.8333,617.167 55.5,618.5C 49.0738,619.12 43.0738,618.453 37.5,616.5C 39.0174,616.489 40.1841,615.823 41,614.5C 41.8213,607.321 41.6546,600.321 40.5,593.5C 40.5,592.833 40.5,592.167 40.5,591.5C 41.8333,591.167 41.8333,590.833 40.5,590.5C 40.2786,589.265 39.6119,588.265 38.5,587.5C 39.5,586.667 40.5,585.833 41.5,585C 40.4639,583.224 40.4639,581.391 41.5,579.5C 41.4142,578.504 41.7476,577.671 42.5,577C 46.6888,576.188 50.6888,576.355 54.5,577.5 Z M 56.5,578.5 C 57.6085,579.29 58.9419,579.79 60.5,580C 61.1258,580.75 61.6258,581.584 62,582.5C 62.6667,592.833 62.6667,603.167 62,613.5C 58.51,616.103 55.01,616.769 51.5,615.5C 50.7492,614.624 50.2492,613.624 50,612.5C 49.8115,601.328 49.9782,590.328 50.5,579.5C 51.8333,579.5 53.1667,579.5 54.5,579.5C 55.1667,579.167 55.8333,578.833 56.5,578.5 Z"/></g>
<g><path style="opacity:0.008" fill="#9b9797" d="M 61.5,576.5 C 59.8333,577.167 58.1667,577.833 56.5,578.5C 55.8333,578.833 55.1667,579.167 54.5,579.5C 54.5,578.833 54.5,578.167 54.5,577.5C 56.717,576.631 59.0504,576.298 61.5,576.5 Z"/></g>
<g><path style="opacity:0.803" fill="#504f4f" d="M 2.5,577.5 C 6.16667,577.5 9.83333,577.5 13.5,577.5C 13.5229,580.457 14.5229,582.957 16.5,585C 15.5,585.333 14.5,585.667 13.5,586C 16.1667,586.667 16.1667,587.333 13.5,588C 15.9856,588.705 15.9856,589.538 13.5,590.5C 12.928,589.027 12.0946,587.693 11,586.5C 10.1764,595.343 10.3431,604.01 11.5,612.5C 11.4142,613.496 11.7476,614.329 12.5,615C 14.1012,615.273 15.6012,615.773 17,616.5C 17.6172,617.449 17.4506,618.282 16.5,619C 11.5111,619.499 6.51108,619.666 1.5,619.5C 1.33003,618.178 1.66337,617.011 2.5,616C 4.10119,615.727 5.60119,615.227 7,614.5C 7.66667,603.5 7.66667,592.5 7,581.5C 5.40018,580.134 3.56685,579.134 1.5,578.5C 1.62358,577.893 1.95691,577.56 2.5,577.5 Z"/></g>
<g><path style="opacity:0.035" fill="#d5d5d5" d="M 147.5,600.5 C 146.5,600.5 145.5,600.5 144.5,600.5C 144.5,605.167 144.5,609.833 144.5,614.5C 143.513,609.695 143.179,604.695 143.5,599.5C 145.099,599.232 146.432,599.566 147.5,600.5 Z"/></g>
<g><path style="opacity:0.067" fill="#c3c3c3" d="M 363.5,599.5 C 365.674,599.75 367.341,600.75 368.5,602.5C 366.326,602.25 364.659,601.25 363.5,599.5 Z"/></g>
<g><path style="opacity:0.955" fill="#525252" d="M 154.5,591.5 C 154.586,592.496 154.252,593.329 153.5,594C 155.33,596.761 157.663,597.261 160.5,595.5C 158.727,596.892 156.727,598.059 154.5,599C 157.719,602.552 160.552,606.385 163,610.5C 165.69,613.008 168.69,615.008 172,616.5C 172.617,617.449 172.451,618.282 171.5,619C 167.833,619.667 164.167,619.667 160.5,619C 156.021,613.178 151.688,607.345 147.5,601.5C 148.5,601.5 149.5,601.5 150.5,601.5C 150.351,602.552 150.517,603.552 151,604.5C 151.833,603 153,601.833 154.5,601C 153.809,599.933 153.309,598.766 153,597.5C 150.928,597.742 148.761,597.409 146.5,596.5C 149.627,595.733 152.293,594.067 154.5,591.5 Z"/></g>
<g><path style="opacity:0.004" fill="#cecece" d="M 25.5,600.5 C 26.7124,601.23 27.7124,602.23 28.5,603.5C 29.1818,602.757 29.8485,602.091 30.5,601.5C 29.4562,608.77 27.7896,608.437 25.5,600.5 Z"/></g>
<g><path style="opacity:0.969" fill="#525152" d="M 180.5,601.5 C 181.67,604.851 183.17,608.185 185,611.5C 188.854,615.671 193.354,616.504 198.5,614C 201.11,611.925 203.11,609.425 204.5,606.5C 205.211,610.189 207.211,611.189 210.5,609.5C 204.743,618.816 196.41,621.983 185.5,619C 179.527,616.197 175.527,611.697 173.5,605.5C 174.756,605.096 175.923,604.429 177,603.5C 177.546,604.289 178.213,605.289 179,606.5C 180.269,605.095 180.769,603.429 180.5,601.5 Z"/></g>
<g><path style="opacity:0.435" fill="#939393" d="M 231.5,600.5 C 230.5,600.5 229.5,600.5 228.5,600.5C 228.5,604.167 228.5,607.833 228.5,611.5C 227.517,607.702 227.183,603.702 227.5,599.5C 229.099,599.232 230.432,599.566 231.5,600.5 Z"/></g>
<g><path style="opacity:0.975" fill="#474747" d="M 294.5,577.5 C 299.179,577.334 303.845,577.501 308.5,578C 307.748,578.671 307.414,579.504 307.5,580.5C 306.191,591.439 306.191,602.439 307.5,613.5C 316.87,616.714 323.87,614.048 328.5,605.5C 330.127,610.36 329.461,614.86 326.5,619C 315.505,619.5 304.505,619.667 293.5,619.5C 293.351,618.448 293.517,617.448 294,616.5C 296.026,616.085 297.526,615.085 298.5,613.5C 299.659,603.008 299.825,592.341 299,581.5C 297.4,580.134 295.567,579.134 293.5,578.5C 293.624,577.893 293.957,577.56 294.5,577.5 Z"/></g>
<g><path style="opacity:0.108" fill="#a8a8a8" d="M 90.5,613.5 C 90.6567,612.127 90.49,610.793 90,609.5C 89.6174,610.056 89.1174,610.389 88.5,610.5C 88.7218,607.924 90.0551,607.09 92.5,608C 91.8906,609.948 91.224,611.782 90.5,613.5 Z"/></g>
<g><path style="opacity:0.004" fill="#fefffe" d="M 298.5,613.5 C 297.833,612.167 297.833,612.167 298.5,613.5 Z"/></g>
<g><path style="opacity:0.039" fill="#e0e0e0" d="M 37.5,616.5 C 43.0738,618.453 49.0738,619.12 55.5,618.5C 49.3554,619.49 43.0221,619.823 36.5,619.5C 36.2627,618.209 36.596,617.209 37.5,616.5 Z"/></g>
<g><path style="opacity:0.039" fill="#dcdcdc" d="M 90.5,614.5 C 90.5792,615.93 90.2458,617.264 89.5,618.5C 78.3404,619.824 67.3404,619.824 56.5,618.5C 67.1874,618.832 77.8541,618.499 88.5,617.5C 88.9424,616.261 89.6091,615.261 90.5,614.5 Z"/></g>
<g><path style="opacity:0.039" fill="#cccccc" d="M 335.5,615.5 C 334.602,616.158 333.602,616.824 332.5,617.5C 335.333,617.833 338.167,618.167 341,618.5C 344.252,618.481 347.085,617.814 349.5,616.5C 350.404,617.209 350.737,618.209 350.5,619.5C 344.158,619.666 337.825,619.5 331.5,619C 330.167,618 330.167,617 331.5,616C 332.793,615.51 334.127,615.343 335.5,615.5 Z"/></g>
<g><path style="opacity:0.906" fill="#696969" d="M 236.5,631.5 C 236.015,626.841 237.848,625.508 242,627.5C 242.864,633.163 241.03,634.496 236.5,631.5 Z"/></g>
<g><path style="opacity:0.004" fill="#fefffe" d="M 236.5,631.5 C 236.5,631.833 236.5,632.167 236.5,632.5C 235.83,632.019 235.83,631.685 236.5,631.5 Z"/></g>
<g><path style="opacity:0.004" fill="#fefffe" d="M 236.5,632.5 C 237.833,633.167 237.833,633.167 236.5,632.5 Z"/></g>
<g><path style="opacity:0.663" fill="#494948" d="M 229.5,635.5 C 229.5,637.167 229.5,638.833 229.5,640.5C 228.833,642.833 228.167,645.167 227.5,647.5C 228.675,647.281 229.675,647.614 230.5,648.5C 229.74,650.36 228.74,652.027 227.5,653.5C 225.5,653.5 223.5,653.5 221.5,653.5C 221.363,649.821 222.029,646.321 223.5,643C 223.167,642.833 222.833,642.667 222.5,642.5C 219.233,646.137 216.899,649.804 215.5,653.5C 213.833,653.5 212.167,653.5 210.5,653.5C 211.059,651.321 211.726,649.154 212.5,647C 212.167,646.5 211.833,646 211.5,645.5C 210.575,646.641 209.741,646.641 209,645.5C 208.433,648.168 207.933,650.834 207.5,653.5C 205.5,653.5 203.5,653.5 201.5,653.5C 200.5,650.833 199.5,650.833 198.5,653.5C 196.5,653.5 194.5,653.5 192.5,653.5C 192.158,652.662 191.492,652.328 190.5,652.5C 193.314,651.551 195.647,649.384 197.5,646C 196.975,645.308 196.308,644.808 195.5,644.5C 194.395,646.611 192.729,647.945 190.5,648.5C 192.604,646.628 193.937,644.295 194.5,641.5C 195.598,640.399 195.765,639.066 195,637.5C 194,640.167 193,640.167 192,637.5C 190.887,638.76 190.72,639.927 191.5,641C 188.291,642.583 187.124,645.083 188,648.5C 188.671,649.252 189.504,649.586 190.5,649.5C 189.432,650.434 188.099,650.768 186.5,650.5C 186.5,648.833 186.5,647.167 186.5,645.5C 185.5,645.5 184.5,645.5 183.5,645.5C 183.5,647.833 183.5,650.167 183.5,652.5C 182.671,649.186 182.338,645.852 182.5,642.5C 178.494,640.63 175.494,641.63 173.5,645.5C 171.868,645.175 170.868,644.175 170.5,642.5C 171.718,640.276 171.718,638.943 170.5,638.5C 169.391,638.443 168.391,638.11 167.5,637.5C 167.5,637.167 167.5,636.833 167.5,636.5C 168.222,636.082 168.722,635.416 169,634.5C 171.081,635.333 173.248,635.333 175.5,634.5C 175.351,635.552 175.517,636.552 176,637.5C 176.419,636.328 177.085,635.328 178,634.5C 179.626,634.854 181.459,634.854 183.5,634.5C 183.729,636.433 184.562,638.1 186,639.5C 187.794,637.033 190.128,635.367 193,634.5C 195.362,635.629 197.695,635.629 200,634.5C 200.945,634.905 201.612,635.572 202,636.5C 204.607,635.73 207.273,635.063 210,634.5C 212.113,634.727 214.28,634.727 216.5,634.5C 218.029,634.529 219.196,635.196 220,636.5C 221.931,636.179 224.098,635.512 226.5,634.5C 227.584,634.685 228.584,635.018 229.5,635.5 Z M 194.5,641.5 C 193.937,644.295 192.604,646.628 190.5,648.5C 190.5,648.833 190.5,649.167 190.5,649.5C 189.504,649.586 188.671,649.252 188,648.5C 187.124,645.083 188.291,642.583 191.5,641C 190.72,639.927 190.887,638.76 192,637.5C 193,640.167 194,640.167 195,637.5C 195.765,639.066 195.598,640.399 194.5,641.5 Z M 201.5,638.5 C 202.552,638.351 203.552,638.517 204.5,639C 203.253,640.458 203.253,641.958 204.5,643.5C 203.703,649.033 201.703,649.7 198.5,645.5C 199.885,644.449 200.885,643.116 201.5,641.5C 200.209,640.473 200.209,639.473 201.5,638.5 Z"/></g>
<g><path style="opacity:0.004" fill="#000000" d="M 229.5,635.5 C 230.5,635.5 231.5,635.5 232.5,635.5C 232.167,636.167 231.833,636.833 231.5,637.5C 231.068,638.71 230.401,639.71 229.5,640.5C 229.5,638.833 229.5,637.167 229.5,635.5 Z"/></g>
<g><path style="opacity:0.908" fill="#585858" d="M 142.5,653.5 C 138.167,653.5 133.833,653.5 129.5,653.5C 122.454,643.957 123.454,635.124 132.5,627C 135.302,625.455 138.302,624.622 141.5,624.5C 144.427,625.296 147.26,625.296 150,624.5C 150.667,627.833 150.667,631.167 150,634.5C 149.586,634.957 149.086,635.291 148.5,635.5C 145.723,626.518 140.89,625.184 134,631.5C 132.227,635.152 131.06,638.985 130.5,643C 130.793,649.622 134.126,651.956 140.5,650C 142.344,648.818 144.177,647.651 146,646.5C 146.5,646.833 147,647.167 147.5,647.5C 145.815,649.571 144.148,651.571 142.5,653.5 Z"/></g>
<g><path style="opacity:0.869" fill="#363636" d="M 156.5,640.5 C 157.167,640.5 157.5,640.833 157.5,641.5C 157.167,641.5 156.833,641.5 156.5,641.5C 155.624,641.369 154.957,641.702 154.5,642.5C 154.414,644.565 154.414,646.565 154.5,648.5C 154.5,650.167 154.5,651.833 154.5,653.5C 153.833,653.5 153.167,653.5 152.5,653.5C 152.027,652.094 151.027,651.427 149.5,651.5C 149.253,648.061 149.586,644.728 150.5,641.5C 152.371,641.141 153.871,640.141 155,638.5C 155.278,639.416 155.778,640.082 156.5,640.5 Z"/></g>
<g><path style="opacity:0.243" fill="#595959" d="M 167.5,636.5 C 167.5,636.833 167.5,637.167 167.5,637.5C 167.327,640.179 166.327,642.513 164.5,644.5C 163.167,645.833 161.833,645.833 160.5,644.5C 158.289,645.66 156.289,646.993 154.5,648.5C 154.414,646.565 154.414,644.565 154.5,642.5C 154.957,641.702 155.624,641.369 156.5,641.5C 156.833,642.833 157.167,642.833 157.5,641.5C 161.795,641.721 162.462,640.388 159.5,637.5C 158.145,638.188 157.145,639.188 156.5,640.5C 155.778,640.082 155.278,639.416 155,638.5C 153.871,640.141 152.371,641.141 150.5,641.5C 154.712,634.762 160.379,633.095 167.5,636.5 Z M 157.5,641.5 C 157.5,640.833 157.167,640.5 156.5,640.5C 157.145,639.188 158.145,638.188 159.5,637.5C 162.462,640.388 161.795,641.721 157.5,641.5 Z"/></g>
<g><path style="opacity:0.884" fill="#4f4f4f" d="M 237.5,653.5 C 235.5,653.5 233.5,653.5 231.5,653.5C 231.196,652.85 230.863,652.183 230.5,651.5C 231.881,648.439 232.881,645.439 233.5,642.5C 232.972,640.664 232.306,638.997 231.5,637.5C 231.833,636.833 232.167,636.167 232.5,635.5C 234.734,635.62 236.901,635.287 239,634.5C 240.301,635.098 241.135,636.098 241.5,637.5C 239.698,639.729 238.365,642.229 237.5,645C 238.765,646.656 240.099,648.323 241.5,650C 239.676,650.66 238.343,651.827 237.5,653.5 Z"/></g>
<g><path style="opacity:0.73" fill="#676767" d="M 173.5,645.5 C 172.986,647.366 172.32,649.2 171.5,651C 171.743,651.902 172.077,652.735 172.5,653.5C 170.833,653.5 169.167,653.5 167.5,653.5C 166.912,651.795 166.579,650.128 166.5,648.5C 168.697,645.513 170.031,642.18 170.5,638.5C 171.718,638.943 171.718,640.276 170.5,642.5C 170.868,644.175 171.868,645.175 173.5,645.5 Z"/></g>
<g><path style="opacity:0.959" fill="#363535" d="M 190.5,652.5 C 190.5,652.833 190.5,653.167 190.5,653.5C 188.167,653.5 185.833,653.5 183.5,653.5C 183.5,653.167 183.5,652.833 183.5,652.5C 183.5,650.167 183.5,647.833 183.5,645.5C 184.5,645.5 185.5,645.5 186.5,645.5C 186.5,647.167 186.5,648.833 186.5,650.5C 188.099,650.768 189.432,650.434 190.5,649.5C 190.5,649.167 190.5,648.833 190.5,648.5C 192.729,647.945 194.395,646.611 195.5,644.5C 196.308,644.808 196.975,645.308 197.5,646C 195.647,649.384 193.314,651.551 190.5,652.5 Z"/></g>
<g><path style="opacity:0.819" fill="#525252" d="M 253.5,653.5 C 250.5,653.5 247.5,653.5 244.5,653.5C 240.191,644.944 242.524,638.777 251.5,635C 257.493,633.332 259.993,635.498 259,641.5C 257.506,642.747 256.006,642.747 254.5,641.5C 253.67,639.865 253.503,638.198 254,636.5C 249.326,639.203 247.326,643.203 248,648.5C 248.388,649.428 249.055,650.095 250,650.5C 252.437,649.2 254.937,648.2 257.5,647.5C 257.649,648.552 257.483,649.552 257,650.5C 255.482,651.163 254.315,652.163 253.5,653.5 Z"/></g>
<g><path style="opacity:0.797" fill="#606060" d="M 161.5,653.5 C 159.167,653.5 156.833,653.5 154.5,653.5C 154.5,651.833 154.5,650.167 154.5,648.5C 155.482,649.141 156.482,649.807 157.5,650.5C 159.828,649.783 161.995,648.783 164,647.5C 164.5,647.833 165,648.167 165.5,648.5C 164.143,650.186 162.81,651.852 161.5,653.5 Z"/></g>
<g><path style="opacity:0.145" fill="#c2c2c2" d="M 149.5,651.5 C 151.027,651.427 152.027,652.094 152.5,653.5C 151.833,653.5 151.167,653.5 150.5,653.5C 150.167,652.833 149.833,652.167 149.5,651.5 Z"/></g>
</svg>
