<?xml version="1.0" encoding="UTF-8"?>
<!DOCTYPE svg PUBLIC "-//W3C//DTD SVG 1.1//EN" "http://www.w3.org/Graphics/SVG/1.1/DTD/svg11.dtd">
<svg xmlns="http://www.w3.org/2000/svg" version="1.1" width="500px" height="500px" style="shape-rendering:geometricPrecision; text-rendering:geometricPrecision; image-rendering:optimizeQuality; fill-rule:evenodd; clip-rule:evenodd" xmlns:xlink="http://www.w3.org/1999/xlink">
<g><path style="opacity:0.698" fill="#d66168" d="M 203.5,128.5 C 203.5,128.833 203.5,129.167 203.5,129.5C 201.545,128.677 199.545,128.51 197.5,129C 198.056,129.383 198.389,129.883 198.5,130.5C 197.5,130.5 196.5,130.5 195.5,130.5C 195.5,130.167 195.5,129.833 195.5,129.5C 195.5,129.167 195.5,128.833 195.5,128.5C 196.158,127.602 196.824,126.602 197.5,125.5C 199.527,126.513 201.527,127.513 203.5,128.5 Z"/></g>
<g><path style="opacity:0.435" fill="#e44f52" d="M 303.5,127.5 C 301.494,128.485 299.827,129.818 298.5,131.5C 298.167,131.5 297.833,131.5 297.5,131.5C 296.167,131.5 294.833,131.5 293.5,131.5C 294.551,130.778 295.218,129.778 295.5,128.5C 297.352,127.039 299.518,126.039 302,125.5C 303.03,125.836 303.53,126.503 303.5,127.5 Z"/></g>
<g><path style="opacity:0.651" fill="#dd5a5d" d="M 307.5,130.5 C 306.778,130.082 306.278,129.416 306,128.5C 305.601,128.728 305.435,129.062 305.5,129.5C 304.508,129.328 303.842,129.662 303.5,130.5C 301.708,130.366 300.042,130.699 298.5,131.5C 299.827,129.818 301.494,128.485 303.5,127.5C 305.315,126.37 307.315,125.704 309.5,125.5C 309.608,127.514 308.942,129.18 307.5,130.5 Z"/></g>
<g><path style="opacity:0.675" fill="#ce6265" d="M 203.5,128.5 C 206.557,129.633 209.557,130.633 212.5,131.5C 211.209,131.263 210.209,131.596 209.5,132.5C 208.167,132.167 206.833,131.833 205.5,131.5C 204.5,131.167 203.833,130.5 203.5,129.5C 203.5,129.167 203.5,128.833 203.5,128.5 Z"/></g>
<g><path style="opacity:0.506" fill="#dc5b64" d="M 195.5,128.5 C 195.5,128.833 195.5,129.167 195.5,129.5C 194.167,129.833 194.167,130.167 195.5,130.5C 196.306,131.728 197.306,132.728 198.5,133.5C 197.833,133.5 197.5,133.833 197.5,134.5C 196.209,134.263 195.209,134.596 194.5,135.5C 194.5,135.833 194.5,136.167 194.5,136.5C 191.733,135.362 191.066,133.528 192.5,131C 189.665,129.56 189.165,127.727 191,125.5C 192.652,126.399 194.152,127.399 195.5,128.5 Z"/></g>
<g><path style="opacity:0.729" fill="#cd5e5a" d="M 295.5,128.5 C 295.218,129.778 294.551,130.778 293.5,131.5C 292.167,131.833 290.833,132.167 289.5,132.5C 288.791,131.596 287.791,131.263 286.5,131.5C 289.341,130.331 292.341,129.331 295.5,128.5 Z"/></g>
<g><path style="opacity:0.882" fill="#df4f53" d="M 203.5,129.5 C 203.833,130.5 204.5,131.167 205.5,131.5C 205.5,131.833 205.5,132.167 205.5,132.5C 205.5,133.167 205.167,133.5 204.5,133.5C 202.25,132.87 200.25,131.87 198.5,130.5C 198.389,129.883 198.056,129.383 197.5,129C 199.545,128.51 201.545,128.677 203.5,129.5 Z"/></g>
<g><path style="opacity:0.486" fill="#f05757" d="M 307.5,130.5 C 307.768,132.099 307.434,133.432 306.5,134.5C 306.167,134.5 305.833,134.5 305.5,134.5C 305.167,133.167 304.833,133.167 304.5,134.5C 304.167,134.5 303.833,134.5 303.5,134.5C 303.5,133.5 303.5,132.5 303.5,131.5C 303.5,131.167 303.5,130.833 303.5,130.5C 304.492,130.672 305.158,130.338 305.5,129.5C 305.435,129.062 305.601,128.728 306,128.5C 306.278,129.416 306.778,130.082 307.5,130.5 Z"/></g>
<g><path style="opacity:0.078" fill="#d65c5b" d="M 212.5,131.5 C 214.421,132.363 216.421,133.029 218.5,133.5C 218.5,134.167 218.5,134.833 218.5,135.5C 217.833,135.5 217.167,135.5 216.5,135.5C 216.158,134.662 215.492,134.328 214.5,134.5C 213.5,133.167 212.5,133.167 211.5,134.5C 210.833,133.833 210.167,133.167 209.5,132.5C 210.209,131.596 211.209,131.263 212.5,131.5 Z"/></g>
<g><path style="opacity:0.671" fill="#c2595a" d="M 284.5,132.5 C 284.5,133.167 284.5,133.833 284.5,134.5C 275.953,135.34 268.953,139.007 263.5,145.5C 262.508,145.672 261.842,145.338 261.5,144.5C 264.472,142.461 267.138,139.961 269.5,137C 274.418,135.194 279.418,133.694 284.5,132.5 Z"/></g>
<g><path style="opacity:0.604" fill="#e14c4e" d="M 286.5,131.5 C 287.791,131.263 288.791,131.596 289.5,132.5C 287.833,133.5 286.5,134.833 285.5,136.5C 285.5,136.833 285.5,137.167 285.5,137.5C 283.833,137.5 282.167,137.5 280.5,137.5C 281.833,136.5 283.167,135.5 284.5,134.5C 284.5,133.833 284.5,133.167 284.5,132.5C 284.842,131.662 285.508,131.328 286.5,131.5 Z"/></g>
<g><path style="opacity:0.173" fill="#dc5b5b" d="M 293.5,131.5 C 294.833,131.5 296.167,131.5 297.5,131.5C 296.571,132.315 295.571,133.148 294.5,134C 295.094,134.464 295.761,134.631 296.5,134.5C 297.167,134.5 297.5,134.833 297.5,135.5C 295.401,136.612 293.067,137.279 290.5,137.5C 290.672,136.508 290.338,135.842 289.5,135.5C 291.297,134.607 292.63,133.274 293.5,131.5 Z"/></g>
<g><path style="opacity:0.639" fill="#d24946" d="M 303.5,131.5 C 303.5,132.5 303.5,133.5 303.5,134.5C 301.5,134.833 299.5,135.167 297.5,135.5C 297.5,134.833 297.167,134.5 296.5,134.5C 298.649,133.264 300.982,132.264 303.5,131.5 Z"/></g>
<g><path style="opacity:0.353" fill="#d25351" d="M 205.5,132.5 C 207.216,134.025 209.216,135.025 211.5,135.5C 211.842,136.338 212.508,136.672 213.5,136.5C 213.5,136.833 213.5,137.167 213.5,137.5C 212.833,137.5 212.5,137.833 212.5,138.5C 211.5,138.5 210.5,138.5 209.5,138.5C 205.409,137.476 201.409,136.143 197.5,134.5C 197.5,133.833 197.833,133.5 198.5,133.5C 200.691,134.291 202.691,134.291 204.5,133.5C 205.167,133.5 205.5,133.167 205.5,132.5 Z"/></g>
<g><path style="opacity:0.545" fill="#c2595c" d="M 218.5,133.5 C 225.981,134.15 231.647,137.65 235.5,144C 236.094,144.464 236.761,144.631 237.5,144.5C 237.5,145.167 237.5,145.833 237.5,146.5C 234.101,144.612 231.101,142.112 228.5,139C 225.101,137.923 221.767,136.756 218.5,135.5C 218.5,134.833 218.5,134.167 218.5,133.5 Z"/></g>
<g><path style="opacity:0.663" fill="#e57478" d="M 254.5,141.5 C 253.662,141.842 253.328,142.508 253.5,143.5C 252.753,140.85 251.753,138.184 250.5,135.5C 250.511,136.441 250.011,137.108 249,137.5C 246.816,134.543 245.649,134.877 245.5,138.5C 244.5,138.5 243.5,138.5 242.5,138.5C 242.5,137.167 242.5,135.833 242.5,134.5C 250.149,130.657 254.149,132.99 254.5,141.5 Z"/></g>
<g><path style="opacity:0.667" fill="#ea5b61" d="M 304.5,134.5 C 304.833,134.5 305.167,134.5 305.5,134.5C 305.833,134.5 306.167,134.5 306.5,134.5C 305.952,136.626 305.285,138.626 304.5,140.5C 303.833,140.5 303.167,140.5 302.5,140.5C 302.5,140.167 302.5,139.833 302.5,139.5C 303.167,139.5 303.5,139.167 303.5,138.5C 302.833,137.833 302.167,137.167 301.5,136.5C 302.5,135.833 303.5,135.167 304.5,134.5 Z"/></g>
<g><path style="opacity:0.563" fill="#da5451" d="M 301.5,136.5 C 302.167,137.167 302.833,137.833 303.5,138.5C 302.833,138.5 302.5,138.833 302.5,139.5C 301.5,139.5 300.5,139.5 299.5,139.5C 295.862,139.566 292.195,139.233 288.5,138.5C 292.924,138.348 297.257,137.681 301.5,136.5 Z"/></g>
<g><path style="opacity:0.82" fill="#df5862" d="M 194.5,135.5 C 197.157,135.935 199.491,136.935 201.5,138.5C 199.5,138.167 197.5,137.833 195.5,137.5C 195.5,138.5 195.5,139.5 195.5,140.5C 195.167,140.5 194.833,140.5 194.5,140.5C 193.314,139.295 193.314,137.961 194.5,136.5C 194.5,136.167 194.5,135.833 194.5,135.5 Z"/></g>
<g><path style="opacity:1" fill="#e21e21" d="M 220.5,137.5 C 221.995,137.989 223.329,138.655 224.5,139.5C 224.5,141.167 224.5,142.833 224.5,144.5C 220.574,144.862 217.908,143.195 216.5,139.5C 217.949,138.828 219.282,138.161 220.5,137.5 Z"/></g>
<g><path style="opacity:0.478" fill="#e67c7f" d="M 242.5,134.5 C 242.5,135.833 242.5,137.167 242.5,138.5C 243.5,138.5 244.5,138.5 245.5,138.5C 247.28,139.99 247.946,141.99 247.5,144.5C 246.609,145.11 245.609,145.443 244.5,145.5C 245.038,143.883 245.371,142.216 245.5,140.5C 244.167,140.5 242.833,140.5 241.5,140.5C 241.579,139.07 241.246,137.736 240.5,136.5C 240.855,135.478 241.522,134.811 242.5,134.5 Z"/></g>
<g><path style="opacity:1" fill="#e24a45" d="M 289.5,135.5 C 290.338,135.842 290.672,136.508 290.5,137.5C 289.508,137.328 288.842,137.662 288.5,138.5C 292.195,139.233 295.862,139.566 299.5,139.5C 298.833,139.5 298.5,139.833 298.5,140.5C 296.901,140.232 295.568,140.566 294.5,141.5C 293.209,141.263 292.209,141.596 291.5,142.5C 291.5,142.833 291.5,143.167 291.5,143.5C 290.209,143.263 289.209,143.596 288.5,144.5C 287.347,143.687 287.347,142.687 288.5,141.5C 286.833,140.334 285.166,140.334 283.5,141.5C 283.881,140.069 284.881,139.236 286.5,139C 285.944,138.617 285.611,138.117 285.5,137.5C 285.5,137.167 285.5,136.833 285.5,136.5C 286.833,136.167 288.167,135.833 289.5,135.5 Z"/></g>
<g><path style="opacity:0.58" fill="#e25654" d="M 201.5,138.5 C 204.167,138.5 206.833,138.5 209.5,138.5C 209.5,139.167 209.833,139.5 210.5,139.5C 210.167,140.5 209.5,141.167 208.5,141.5C 206.5,141.5 204.5,141.5 202.5,141.5C 201.5,141.5 200.5,141.5 199.5,141.5C 199.611,140.883 199.944,140.383 200.5,140C 198.934,139.235 197.601,139.402 196.5,140.5C 196.167,140.5 195.833,140.5 195.5,140.5C 195.5,139.5 195.5,138.5 195.5,137.5C 197.5,137.833 199.5,138.167 201.5,138.5 Z"/></g>
<g><path style="opacity:0.804" fill="#e94141" d="M 214.5,134.5 C 214.842,135.338 215.508,135.672 216.5,135.5C 217.287,137.104 218.62,137.771 220.5,137.5C 219.282,138.161 217.949,138.828 216.5,139.5C 217.908,143.195 220.574,144.862 224.5,144.5C 224.5,142.833 224.5,141.167 224.5,139.5C 226.842,140.211 227.175,141.544 225.5,143.5C 225.179,145.048 224.179,145.715 222.5,145.5C 221.833,145.5 221.167,145.5 220.5,145.5C 219.508,145.328 218.842,145.662 218.5,146.5C 217.833,146.5 217.167,146.5 216.5,146.5C 216.5,146.167 216.5,145.833 216.5,145.5C 216.5,145.167 216.5,144.833 216.5,144.5C 216.881,142.058 216.214,141.391 214.5,142.5C 213.575,141.643 212.908,140.643 212.5,139.5C 213.833,139.167 213.833,138.833 212.5,138.5C 212.5,137.833 212.833,137.5 213.5,137.5C 214.833,137.167 214.833,136.833 213.5,136.5C 213.158,135.662 212.492,135.328 211.5,135.5C 211.5,135.167 211.5,134.833 211.5,134.5C 212.5,133.167 213.5,133.167 214.5,134.5 Z"/></g>
<g><path style="opacity:0.722" fill="#d8575d" d="M 294.5,141.5 C 295.568,140.566 296.901,140.232 298.5,140.5C 299.833,140.5 301.167,140.5 302.5,140.5C 303.167,140.5 303.833,140.5 304.5,140.5C 302.104,141.829 300.771,143.496 300.5,145.5C 299.833,145.5 299.5,145.167 299.5,144.5C 300.332,143.671 299.999,142.838 298.5,142C 297.207,141.51 295.873,141.343 294.5,141.5 Z"/></g>
<g><path style="opacity:1" fill="#e71b22" d="M 278.5,138.5 C 283.39,138.639 283.723,140.139 279.5,143C 277.866,143.494 276.199,143.66 274.5,143.5C 274.5,142.167 274.5,140.833 274.5,139.5C 275.959,139.567 277.292,139.234 278.5,138.5 Z"/></g>
<g><path style="opacity:0.608" fill="#eb5650" d="M 288.5,144.5 C 289.5,144.5 290.5,144.5 291.5,144.5C 291.5,144.833 291.5,145.167 291.5,145.5C 290.5,145.5 289.5,145.5 288.5,145.5C 286.883,144.962 285.216,144.629 283.5,144.5C 283.5,143.5 283.5,142.5 283.5,141.5C 285.166,140.334 286.833,140.334 288.5,141.5C 287.347,142.687 287.347,143.687 288.5,144.5 Z"/></g>
<g><path style="opacity:0.482" fill="#f2534e" d="M 210.5,139.5 C 211.167,139.5 211.833,139.5 212.5,139.5C 212.908,140.643 213.575,141.643 214.5,142.5C 216.214,141.391 216.881,142.058 216.5,144.5C 215.833,144.5 215.167,144.5 214.5,144.5C 213.5,144.5 212.5,144.5 211.5,144.5C 210.833,143.167 210.167,143.167 209.5,144.5C 209.167,144.5 208.833,144.5 208.5,144.5C 207.833,143.833 207.167,143.167 206.5,142.5C 207.492,142.672 208.158,142.338 208.5,141.5C 209.5,141.167 210.167,140.5 210.5,139.5 Z"/></g>
<g><path style="opacity:0.875" fill="#eb3537" d="M 278.5,138.5 C 278.5,138.167 278.5,137.833 278.5,137.5C 279.167,137.5 279.833,137.5 280.5,137.5C 282.167,137.5 283.833,137.5 285.5,137.5C 285.611,138.117 285.944,138.617 286.5,139C 284.881,139.236 283.881,140.069 283.5,141.5C 282.078,142.925 280.411,143.925 278.5,144.5C 278.167,144.5 277.833,144.5 277.5,144.5C 277.167,144.5 276.833,144.5 276.5,144.5C 275.508,144.672 274.842,144.338 274.5,143.5C 276.199,143.66 277.866,143.494 279.5,143C 283.723,140.139 283.39,138.639 278.5,138.5 Z"/></g>
<g><path style="opacity:0.718" fill="#db585c" d="M 194.5,140.5 C 194.833,140.5 195.167,140.5 195.5,140.5C 195.833,140.5 196.167,140.5 196.5,140.5C 197.609,140.557 198.609,140.89 199.5,141.5C 200.5,141.5 201.5,141.5 202.5,141.5C 201.602,142.158 200.602,142.824 199.5,143.5C 199.863,144.183 200.196,144.85 200.5,145.5C 200.833,146.167 201.167,146.833 201.5,147.5C 200.417,147.461 199.417,147.127 198.5,146.5C 198.025,143.799 196.692,141.799 194.5,140.5 Z"/></g>
<g><path style="opacity:0.671" fill="#db5057" d="M 206.5,142.5 C 207.167,143.167 207.833,143.833 208.5,144.5C 205.966,144.259 204.3,145.259 203.5,147.5C 203.5,148.167 203.167,148.5 202.5,148.5C 201.833,148.5 201.5,148.167 201.5,147.5C 201.167,146.833 200.833,146.167 200.5,145.5C 202.5,144.5 204.5,143.5 206.5,142.5 Z"/></g>
<g><path style="opacity:0.745" fill="#de3f42" d="M 278.5,137.5 C 278.5,137.833 278.5,138.167 278.5,138.5C 277.292,139.234 275.959,139.567 274.5,139.5C 274.5,140.833 274.5,142.167 274.5,143.5C 274.842,144.338 275.508,144.672 276.5,144.5C 276.5,145.167 276.5,145.833 276.5,146.5C 275.833,146.5 275.5,146.833 275.5,147.5C 274.833,147.5 274.5,147.833 274.5,148.5C 273.833,148.5 273.5,148.833 273.5,149.5C 273.167,149.5 272.833,149.5 272.5,149.5C 271.957,149.44 271.624,149.107 271.5,148.5C 273.005,147.158 273.672,145.492 273.5,143.5C 272.069,139.333 273.735,137.333 278.5,137.5 Z"/></g>
<g><path style="opacity:0.271" fill="#d05c5b" d="M 291.5,142.5 C 294.33,142.694 296.996,143.361 299.5,144.5C 299.5,145.167 299.833,145.5 300.5,145.5C 298.858,146.803 297.191,148.136 295.5,149.5C 295.5,148.833 295.5,148.167 295.5,147.5C 295.611,146.883 295.944,146.383 296.5,146C 294.975,144.991 293.308,144.491 291.5,144.5C 291.5,144.167 291.5,143.833 291.5,143.5C 291.5,143.167 291.5,142.833 291.5,142.5 Z"/></g>
<g><path style="opacity:0.29" fill="#ec5656" d="M 220.5,145.5 C 221.167,145.5 221.833,145.5 222.5,145.5C 223.11,146.391 223.443,147.391 223.5,148.5C 223.5,148.833 223.5,149.167 223.5,149.5C 221.15,150.11 221.483,150.444 224.5,150.5C 224.5,150.833 224.5,151.167 224.5,151.5C 223.833,151.5 223.5,151.833 223.5,152.5C 223.5,152.833 223.5,153.167 223.5,153.5C 222.833,153.5 222.5,153.833 222.5,154.5C 221.5,154.5 220.5,154.5 219.5,154.5C 219.5,153.167 219.5,151.833 219.5,150.5C 219.5,149.833 219.167,149.5 218.5,149.5C 218.167,148.833 217.833,148.167 217.5,147.5C 218.167,147.5 218.5,147.167 218.5,146.5C 219.492,146.672 220.158,146.338 220.5,145.5 Z"/></g>
<g><path style="opacity:0.318" fill="#e07879" d="M 254.5,141.5 C 255.448,145.471 257.781,146.471 261.5,144.5C 261.842,145.338 262.508,145.672 263.5,145.5C 261.485,146.924 259.152,147.59 256.5,147.5C 255.469,146.751 254.302,146.085 253,145.5C 251.989,146.337 250.822,146.67 249.5,146.5C 246.135,146.604 242.802,146.937 239.5,147.5C 238.508,147.672 237.842,147.338 237.5,146.5C 237.5,145.833 237.5,145.167 237.5,144.5C 239.717,145.369 242.05,145.702 244.5,145.5C 245.609,145.443 246.609,145.11 247.5,144.5C 249.68,145.794 251.68,145.461 253.5,143.5C 253.328,142.508 253.662,141.842 254.5,141.5 Z"/></g>
<g><path style="opacity:0.361" fill="#ef4f49" d="M 283.5,141.5 C 283.5,142.5 283.5,143.5 283.5,144.5C 283.5,145.167 283.833,145.5 284.5,145.5C 284.5,146.167 284.167,146.5 283.5,146.5C 282.833,146.5 282.167,146.5 281.5,146.5C 280.833,145.167 280.167,145.167 279.5,146.5C 278.5,146.5 277.5,146.5 276.5,146.5C 276.5,145.833 276.5,145.167 276.5,144.5C 276.833,144.5 277.167,144.5 277.5,144.5C 277.833,145.833 278.167,145.833 278.5,144.5C 280.411,143.925 282.078,142.925 283.5,141.5 Z"/></g>
<g><path style="opacity:0.125" fill="#ea4b4c" d="M 225.5,143.5 C 226.492,143.328 227.158,143.662 227.5,144.5C 226.167,144.833 226.167,145.167 227.5,145.5C 227.768,147.099 227.434,148.432 226.5,149.5C 225.833,149.5 225.5,149.833 225.5,150.5C 225.167,150.5 224.833,150.5 224.5,150.5C 221.483,150.444 221.15,150.11 223.5,149.5C 224.833,149.167 224.833,148.833 223.5,148.5C 223.443,147.391 223.11,146.391 222.5,145.5C 224.179,145.715 225.179,145.048 225.5,143.5 Z"/></g>
<g><path style="opacity:0.882" fill="#dd6465" d="M 239.5,147.5 C 242.802,146.937 246.135,146.604 249.5,146.5C 249.66,148.153 250.326,149.486 251.5,150.5C 250.434,151.692 249.601,151.359 249,149.5C 246.684,150.367 244.684,149.701 243,147.5C 242.014,148.171 240.847,148.171 239.5,147.5 Z"/></g>
<g><path style="opacity:0.757" fill="#e3625f" d="M 256.5,147.5 C 256.631,148.376 256.298,149.043 255.5,149.5C 253.963,150.198 252.63,150.531 251.5,150.5C 250.326,149.486 249.66,148.153 249.5,146.5C 250.822,146.67 251.989,146.337 253,145.5C 254.302,146.085 255.469,146.751 256.5,147.5 Z"/></g>
<g><path style="opacity:0.149" fill="#d45a5c" d="M 209.5,144.5 C 210.167,144.5 210.833,144.5 211.5,144.5C 212.5,144.5 213.5,144.5 214.5,144.5C 214.5,144.833 214.5,145.167 214.5,145.5C 211.821,145.673 209.487,146.673 207.5,148.5C 208.689,149.429 210.022,149.762 211.5,149.5C 211.5,150.167 211.5,150.833 211.5,151.5C 208.236,151.969 205.236,150.969 202.5,148.5C 203.167,148.5 203.5,148.167 203.5,147.5C 204.117,147.611 204.617,147.944 205,148.5C 206.397,146.93 207.897,145.596 209.5,144.5 Z"/></g>
<g><path style="opacity:0.039" fill="#e2524f" d="M 276.5,146.5 C 277.5,146.5 278.5,146.5 279.5,146.5C 280.167,146.5 280.833,146.5 281.5,146.5C 281.5,146.833 281.5,147.167 281.5,147.5C 281.5,147.833 281.5,148.167 281.5,148.5C 280.761,148.369 280.094,148.536 279.5,149C 280.252,149.671 280.586,150.504 280.5,151.5C 279.833,151.5 279.167,151.5 278.5,151.5C 278.167,150.167 277.833,150.167 277.5,151.5C 277.167,151.5 276.833,151.5 276.5,151.5C 276.167,151.5 275.833,151.5 275.5,151.5C 275.5,150.833 275.167,150.5 274.5,150.5C 274.5,149.833 274.167,149.5 273.5,149.5C 273.5,148.833 273.833,148.5 274.5,148.5C 275.167,148.5 275.5,148.167 275.5,147.5C 275.5,146.833 275.833,146.5 276.5,146.5 Z"/></g>
<g><path style="opacity:0.686" fill="#d55653" d="M 284.5,145.5 C 286.127,147.464 288.127,148.797 290.5,149.5C 290.842,150.338 291.508,150.672 292.5,150.5C 288.861,151.223 285.194,152.223 281.5,153.5C 281.5,153.167 281.5,152.833 281.5,152.5C 282.833,151.167 282.833,149.833 281.5,148.5C 281.5,148.167 281.5,147.833 281.5,147.5C 282.167,147.5 282.833,147.5 283.5,147.5C 283.5,147.167 283.5,146.833 283.5,146.5C 284.167,146.5 284.5,146.167 284.5,145.5 Z M 283.5,147.5 C 285.76,148.238 285.927,149.238 284,150.5C 283.517,149.552 283.351,148.552 283.5,147.5 Z"/></g>
<g><path style="opacity:0.682" fill="#d4544e" d="M 288.5,145.5 C 289.5,145.5 290.5,145.5 291.5,145.5C 292.605,146.6 293.938,147.267 295.5,147.5C 295.5,148.167 295.5,148.833 295.5,149.5C 294.391,149.557 293.391,149.89 292.5,150.5C 291.508,150.672 290.842,150.338 290.5,149.5C 291.043,149.44 291.376,149.107 291.5,148.5C 290.66,147.265 289.66,146.265 288.5,145.5 Z"/></g>
<g><path style="opacity:0.694" fill="#e05b5e" d="M 214.5,145.5 C 215.167,145.5 215.833,145.5 216.5,145.5C 216.5,145.833 216.5,146.167 216.5,146.5C 216.5,147.167 216.833,147.5 217.5,147.5C 217.833,148.167 218.167,148.833 218.5,149.5C 217.427,150.251 217.26,151.251 218,152.5C 218.278,151.584 218.778,150.918 219.5,150.5C 219.5,151.833 219.5,153.167 219.5,154.5C 216.86,153.552 214.193,152.552 211.5,151.5C 211.5,150.833 211.5,150.167 211.5,149.5C 212.488,148.205 213.488,146.872 214.5,145.5 Z"/></g>
<g><path style="opacity:0.71" fill="#dd5856" d="M 227.5,144.5 C 228.82,146.463 230.154,148.463 231.5,150.5C 228.66,150.704 225.993,152.038 223.5,154.5C 223.5,154.167 223.5,153.833 223.5,153.5C 223.5,153.167 223.5,152.833 223.5,152.5C 224.167,152.5 224.5,152.167 224.5,151.5C 225.167,151.5 225.5,151.167 225.5,150.5C 226.167,150.5 226.5,150.167 226.5,149.5C 227.434,148.432 227.768,147.099 227.5,145.5C 227.5,145.167 227.5,144.833 227.5,144.5 Z"/></g>
<g><path style="opacity:0.651" fill="#e55d5d" d="M 273.5,143.5 C 273.672,145.492 273.005,147.158 271.5,148.5C 271.624,149.107 271.957,149.44 272.5,149.5C 272.5,150.167 272.833,150.5 273.5,150.5C 273.5,151.833 272.833,152.5 271.5,152.5C 269.86,152.446 268.194,152.446 266.5,152.5C 268.213,151.184 269.379,148.85 270,145.5C 271.113,144.695 272.279,144.028 273.5,143.5 Z"/></g>
<g><path style="opacity:0.333" fill="#e2524f" d="M 273.5,150.5 C 273.833,150.5 274.167,150.5 274.5,150.5C 275.167,150.5 275.5,150.833 275.5,151.5C 275.833,152.833 276.167,152.833 276.5,151.5C 276.833,151.5 277.167,151.5 277.5,151.5C 277.833,151.5 278.167,151.5 278.5,151.5C 279.167,151.5 279.833,151.5 280.5,151.5C 280.5,152.167 280.833,152.5 281.5,152.5C 281.5,152.833 281.5,153.167 281.5,153.5C 279.537,154.82 277.537,156.154 275.5,157.5C 274.833,157.5 274.167,157.5 273.5,157.5C 273.672,156.508 273.338,155.842 272.5,155.5C 272.5,155.167 272.5,154.833 272.5,154.5C 272.167,153.833 271.833,153.167 271.5,152.5C 272.833,152.5 273.5,151.833 273.5,150.5 Z"/></g>
<g><path style="opacity:0.941" fill="#de6a6a" d="M 257.5,153.5 C 256.081,154.451 254.415,154.784 252.5,154.5C 250.265,154.795 248.265,154.461 246.5,153.5C 249.691,153.797 253.024,153.13 256.5,151.5C 257.298,151.957 257.631,152.624 257.5,153.5 Z"/></g>
<g><path style="opacity:0.98" fill="#e74441" d="M 271.5,152.5 C 271.833,153.167 272.167,153.833 272.5,154.5C 271.833,154.5 271.5,154.833 271.5,155.5C 270.167,155.5 268.833,155.5 267.5,155.5C 266.596,154.791 266.263,153.791 266.5,152.5C 268.194,152.446 269.86,152.446 271.5,152.5 Z"/></g>
<g><path style="opacity:0.802" fill="#e36163" d="M 238.5,156.5 C 237.09,157.828 235.924,157.495 235,155.5C 234.768,156.737 234.268,157.737 233.5,158.5C 232.609,157.89 231.609,157.557 230.5,157.5C 228.257,159.373 228.09,161.373 230,163.5C 230.422,161.574 231.589,160.574 233.5,160.5C 233.5,160.833 233.5,161.167 233.5,161.5C 232.833,161.5 232.5,161.833 232.5,162.5C 231.167,163.167 231.167,163.833 232.5,164.5C 231.791,165.404 230.791,165.737 229.5,165.5C 226.954,161.279 223.621,157.612 219.5,154.5C 220.5,154.5 221.5,154.5 222.5,154.5C 222.833,154.5 223.167,154.5 223.5,154.5C 223.685,156.196 224.519,157.529 226,158.5C 226.464,157.906 226.631,157.239 226.5,156.5C 227.167,156.5 227.5,156.167 227.5,155.5C 228.167,155.5 228.5,155.167 228.5,154.5C 229.5,154.5 230.5,154.5 231.5,154.5C 231.5,153.5 231.5,152.5 231.5,151.5C 232.117,151.389 232.617,151.056 233,150.5C 233.667,151.833 234.333,153.167 235,154.5C 235.333,154.167 235.667,153.833 236,153.5C 236.333,154.5 236.667,155.5 237,156.5C 237.69,155.262 238.19,155.262 238.5,156.5 Z"/></g>
<g><path style="opacity:0.851" fill="#ed6c69" d="M 246.5,153.5 C 248.265,154.461 250.265,154.795 252.5,154.5C 252.5,155.167 252.5,155.833 252.5,156.5C 249.482,156.704 246.482,157.037 243.5,157.5C 243.414,156.504 243.748,155.671 244.5,155C 242.505,154.387 240.838,154.887 239.5,156.5C 239.414,155.504 239.748,154.671 240.5,154C 242.548,152.759 244.548,152.592 246.5,153.5 Z"/></g>
<g><path style="opacity:0.41" fill="#ef5d58" d="M 257.5,153.5 C 259.048,153.821 259.715,154.821 259.5,156.5C 258.833,156.833 258.167,157.167 257.5,157.5C 256.081,156.549 254.415,156.216 252.5,156.5C 252.5,155.833 252.5,155.167 252.5,154.5C 254.415,154.784 256.081,154.451 257.5,153.5 Z"/></g>
<g><path style="opacity:0.659" fill="#e05d5f" d="M 267.5,156.5 C 267.5,156.167 267.5,155.833 267.5,155.5C 268.833,155.5 270.167,155.5 271.5,155.5C 271.833,155.5 272.167,155.5 272.5,155.5C 272.328,156.492 272.662,157.158 273.5,157.5C 274.167,157.5 274.833,157.5 275.5,157.5C 273.902,159.698 272.569,162.031 271.5,164.5C 271.167,164.5 270.833,164.5 270.5,164.5C 270.567,163.041 270.234,161.708 269.5,160.5C 269.938,160.565 270.272,160.399 270.5,160C 269.837,158.482 268.837,157.315 267.5,156.5 Z"/></g>
<g><path style="opacity:0.855" fill="#ef5654" d="M 231.5,150.5 C 231.5,150.833 231.5,151.167 231.5,151.5C 231.5,152.5 231.5,153.5 231.5,154.5C 230.5,154.5 229.5,154.5 228.5,154.5C 227.833,154.5 227.5,154.833 227.5,155.5C 226.833,155.5 226.5,155.833 226.5,156.5C 226.631,157.239 226.464,157.906 226,158.5C 224.519,157.529 223.685,156.196 223.5,154.5C 225.993,152.038 228.66,150.704 231.5,150.5 Z"/></g>
<g><path style="opacity:0.294" fill="#d66462" d="M 252.5,156.5 C 254.415,156.216 256.081,156.549 257.5,157.5C 257.5,157.833 257.5,158.167 257.5,158.5C 257.5,158.833 257.5,159.167 257.5,159.5C 257.167,159.5 256.833,159.5 256.5,159.5C 255.739,158.609 254.739,157.942 253.5,157.5C 251.958,158.747 250.458,158.747 249,157.5C 248.583,158.756 247.75,159.423 246.5,159.5C 245.432,158.566 244.099,158.232 242.5,158.5C 242.5,157.833 242.833,157.5 243.5,157.5C 246.482,157.037 249.482,156.704 252.5,156.5 Z"/></g>
<g><path style="opacity:0.459" fill="#f17274" d="M 230.5,157.5 C 231.609,157.557 232.609,157.89 233.5,158.5C 233.5,159.167 233.5,159.833 233.5,160.5C 231.589,160.574 230.422,161.574 230,163.5C 228.09,161.373 228.257,159.373 230.5,157.5 Z"/></g>
<g><path style="opacity:0.398" fill="#f05451" d="M 238.5,156.5 C 238.833,156.5 239.167,156.5 239.5,156.5C 240.942,157.82 241.608,159.486 241.5,161.5C 241.5,162.167 241.167,162.5 240.5,162.5C 240.167,163.167 239.833,163.833 239.5,164.5C 238.508,164.672 237.842,164.338 237.5,163.5C 238.833,163.167 238.833,162.833 237.5,162.5C 237.5,161.833 237.167,161.5 236.5,161.5C 236.5,160.833 236.167,160.5 235.5,160.5C 235.062,159.494 234.396,159.494 233.5,160.5C 233.5,159.833 233.5,159.167 233.5,158.5C 234.268,157.737 234.768,156.737 235,155.5C 235.924,157.495 237.09,157.828 238.5,156.5 Z"/></g>
<g><path style="opacity:0.129" fill="#ea5152" d="M 266.5,152.5 C 266.263,153.791 266.596,154.791 267.5,155.5C 267.5,155.833 267.5,156.167 267.5,156.5C 267.229,158.38 267.896,159.713 269.5,160.5C 270.234,161.708 270.567,163.041 270.5,164.5C 269.833,164.5 269.167,164.5 268.5,164.5C 268.068,163.29 267.401,162.29 266.5,161.5C 265.833,161.5 265.167,161.5 264.5,161.5C 263.58,160.933 263.246,161.599 263.5,163.5C 262.167,163.5 260.833,163.5 259.5,163.5C 259.167,162.833 258.833,162.167 258.5,161.5C 259.833,161.167 259.833,160.833 258.5,160.5C 260.031,159.075 259.698,158.409 257.5,158.5C 257.5,158.167 257.5,157.833 257.5,157.5C 258.167,157.167 258.833,156.833 259.5,156.5C 261.852,154.318 264.186,152.985 266.5,152.5 Z"/></g>
<g><path style="opacity:0.463" fill="#e95c5c" d="M 243.5,157.5 C 242.833,157.5 242.5,157.833 242.5,158.5C 242.328,159.492 242.662,160.158 243.5,160.5C 243.5,160.833 243.5,161.167 243.5,161.5C 242.833,161.5 242.167,161.5 241.5,161.5C 241.608,159.486 240.942,157.82 239.5,156.5C 240.838,154.887 242.505,154.387 244.5,155C 243.748,155.671 243.414,156.504 243.5,157.5 Z"/></g>
<g><path style="opacity:0.961" fill="#ce5e5f" d="M 256.5,159.5 C 256.5,160.167 256.833,160.5 257.5,160.5C 257.737,161.791 257.404,162.791 256.5,163.5C 255.167,160.833 253.833,160.833 252.5,163.5C 251.517,167.298 251.183,171.298 251.5,175.5C 251.167,175.5 250.833,175.5 250.5,175.5C 250.334,170.821 250.501,166.155 251,161.5C 252.444,159.845 254.278,159.178 256.5,159.5 Z M 256.5,163.5 C 255.167,163.5 253.833,163.5 252.5,163.5C 253.833,160.833 255.167,160.833 256.5,163.5 Z"/></g>
<g><path style="opacity:0.159" fill="#da4949" d="M 241.5,161.5 C 242.167,161.5 242.833,161.5 243.5,161.5C 241.969,162.925 242.302,163.591 244.5,163.5C 245.9,164.1 246.9,165.1 247.5,166.5C 245.167,165.833 242.833,165.167 240.5,164.5C 240.167,164.5 239.833,164.5 239.5,164.5C 239.833,163.833 240.167,163.167 240.5,162.5C 241.167,162.5 241.5,162.167 241.5,161.5 Z"/></g>
<g><path style="opacity:1" fill="#d94546" d="M 257.5,158.5 C 259.698,158.409 260.031,159.075 258.5,160.5C 258.5,160.833 258.5,161.167 258.5,161.5C 258.833,162.167 259.167,162.833 259.5,163.5C 257.858,165.081 255.858,165.747 253.5,165.5C 252.497,168.384 252.164,172.051 252.5,176.5C 252.167,176.5 251.833,176.5 251.5,176.5C 251.5,176.167 251.5,175.833 251.5,175.5C 251.183,171.298 251.517,167.298 252.5,163.5C 253.833,163.5 255.167,163.5 256.5,163.5C 257.404,162.791 257.737,161.791 257.5,160.5C 257.5,160.167 257.5,159.833 257.5,159.5C 257.5,159.167 257.5,158.833 257.5,158.5 Z"/></g>
<g><path style="opacity:0.786" fill="#df6b70" d="M 235.5,160.5 C 235.5,161.167 235.5,161.833 235.5,162.5C 234.167,163.5 234.167,164.5 235.5,165.5C 236.167,165.5 236.5,165.833 236.5,166.5C 234.795,167.088 233.128,167.421 231.5,167.5C 230.478,167.145 229.811,166.478 229.5,165.5C 230.791,165.737 231.791,165.404 232.5,164.5C 232.5,163.833 232.5,163.167 232.5,162.5C 233.167,162.5 233.5,162.167 233.5,161.5C 233.5,161.167 233.5,160.833 233.5,160.5C 234.396,159.494 235.062,159.494 235.5,160.5 Z"/></g>
<g><path style="opacity:0.718" fill="#d45d5b" d="M 246.5,159.5 C 247.469,160.309 248.302,161.309 249,162.5C 249.498,165.482 249.665,168.482 249.5,171.5C 248.691,169.972 248.024,168.306 247.5,166.5C 246.9,165.1 245.9,164.1 244.5,163.5C 245.552,163.649 246.552,163.483 247.5,163C 246.255,162.209 244.922,161.709 243.5,161.5C 243.5,161.167 243.5,160.833 243.5,160.5C 244.209,159.596 245.209,159.263 246.5,159.5 Z"/></g>
<g><path style="opacity:0.776" fill="#d0646a" d="M 264.5,161.5 C 265.167,161.5 265.833,161.5 266.5,161.5C 266.285,163.179 266.952,164.179 268.5,164.5C 269.167,164.5 269.833,164.5 270.5,164.5C 270.833,164.5 271.167,164.5 271.5,164.5C 267.61,167.1 263.61,167.1 259.5,164.5C 259.5,164.167 259.5,163.833 259.5,163.5C 260.833,163.5 262.167,163.5 263.5,163.5C 263.897,164.525 264.563,164.692 265.5,164C 264.748,163.329 264.414,162.496 264.5,161.5 Z"/></g>
<g><path style="opacity:0.961" fill="#f46465" d="M 259.5,163.5 C 259.5,163.833 259.5,164.167 259.5,164.5C 259.5,164.833 259.5,165.167 259.5,165.5C 258.221,166.968 256.554,167.635 254.5,167.5C 254.232,169.099 254.566,170.432 255.5,171.5C 255.5,172.833 254.833,173.5 253.5,173.5C 253.5,170.833 253.5,168.167 253.5,165.5C 255.858,165.747 257.858,165.081 259.5,163.5 Z"/></g>
<g><path style="opacity:0.561" fill="#f36a67" d="M 240.5,166.5 C 242.435,167.15 244.435,167.483 246.5,167.5C 246.5,168.833 246.5,170.167 246.5,171.5C 245.022,171.238 243.689,171.571 242.5,172.5C 244.278,173.726 245.278,175.393 245.5,177.5C 243.833,176.833 242.167,176.167 240.5,175.5C 240.5,172.5 240.5,169.5 240.5,166.5 Z"/></g>
<g><path style="opacity:0.82" fill="#eb5d5b" d="M 240.5,164.5 C 242.833,165.167 245.167,165.833 247.5,166.5C 248.024,168.306 248.691,169.972 249.5,171.5C 249.5,172.833 249.5,174.167 249.5,175.5C 248.022,174.552 247.022,173.219 246.5,171.5C 246.5,170.167 246.5,168.833 246.5,167.5C 244.435,167.483 242.435,167.15 240.5,166.5C 240.5,165.833 240.5,165.167 240.5,164.5 Z"/></g>
<g><path style="opacity:0.965" fill="#e96f70" d="M 259.5,165.5 C 259.5,168.167 259.5,170.833 259.5,173.5C 259.167,173.5 258.833,173.5 258.5,173.5C 257.71,172.599 256.71,171.932 255.5,171.5C 254.566,170.432 254.232,169.099 254.5,167.5C 256.554,167.635 258.221,166.968 259.5,165.5 Z"/></g>
<g><path style="opacity:0.29" fill="#d86767" d="M 236.5,161.5 C 237.167,161.5 237.5,161.833 237.5,162.5C 237.5,162.833 237.5,163.167 237.5,163.5C 237.842,164.338 238.508,164.672 239.5,164.5C 239.833,164.5 240.167,164.5 240.5,164.5C 240.5,165.167 240.5,165.833 240.5,166.5C 240.5,169.5 240.5,172.5 240.5,175.5C 239.883,175.389 239.383,175.056 239,174.5C 238.814,177.036 238.314,179.369 237.5,181.5C 237.522,177.407 238.189,173.407 239.5,169.5C 239.333,168.167 239.167,166.833 239,165.5C 238.329,166.252 237.496,166.586 236.5,166.5C 236.5,165.833 236.167,165.5 235.5,165.5C 236.833,164.5 236.833,163.5 235.5,162.5C 236.167,162.5 236.5,162.167 236.5,161.5 Z"/></g>
<g><path style="opacity:0.835" fill="#f06665" d="M 255.5,171.5 C 256.71,171.932 257.71,172.599 258.5,173.5C 257.833,174.833 257.167,176.167 256.5,177.5C 255.5,177.5 254.5,177.5 253.5,177.5C 253.5,176.167 253.5,174.833 253.5,173.5C 254.833,173.5 255.5,172.833 255.5,171.5 Z"/></g>
<g><path style="opacity:0.998" fill="#ef595a" d="M 246.5,171.5 C 247.022,173.219 248.022,174.552 249.5,175.5C 249.833,176.833 250.167,176.833 250.5,175.5C 250.833,175.5 251.167,175.5 251.5,175.5C 251.5,175.833 251.5,176.167 251.5,176.5C 251.5,178.167 251.5,179.833 251.5,181.5C 248.234,181.567 246.734,179.901 247,176.5C 246.617,177.056 246.117,177.389 245.5,177.5C 245.278,175.393 244.278,173.726 242.5,172.5C 243.689,171.571 245.022,171.238 246.5,171.5 Z"/></g>
<g><path style="opacity:0.508" fill="#e05758" d="M 261.5,181.5 C 257.153,181.058 256.82,180.225 260.5,179C 259.437,177.812 258.103,177.312 256.5,177.5C 257.167,176.167 257.833,174.833 258.5,173.5C 258.833,173.5 259.167,173.5 259.5,173.5C 260.117,173.389 260.617,173.056 261,172.5C 261.498,175.482 261.665,178.482 261.5,181.5 Z"/></g>
<g><path style="opacity:0.678" fill="#eb4f51" d="M 240.5,175.5 C 242.167,176.167 243.833,176.833 245.5,177.5C 245.351,181.123 244.184,181.457 242,178.5C 240.189,179.424 240.355,180.257 242.5,181C 241.142,181.934 239.808,182.768 238.5,183.5C 238.5,183.833 238.5,184.167 238.5,184.5C 237.833,184.5 237.167,184.5 236.5,184.5C 236.557,183.391 236.89,182.391 237.5,181.5C 238.314,179.369 238.814,177.036 239,174.5C 239.383,175.056 239.883,175.389 240.5,175.5 Z"/></g>
<g><path style="opacity:0.965" fill="#f4585a" d="M 253.5,177.5 C 254.5,177.5 255.5,177.5 256.5,177.5C 258.103,177.312 259.437,177.812 260.5,179C 256.82,180.225 257.153,181.058 261.5,181.5C 261.5,181.833 261.5,182.167 261.5,182.5C 259.833,182.5 258.167,182.5 256.5,182.5C 256.5,181.833 256.167,181.5 255.5,181.5C 254.655,180.329 253.989,178.995 253.5,177.5 Z"/></g>
<g><path style="opacity:0.62" fill="#f65152" d="M 253.5,165.5 C 253.5,168.167 253.5,170.833 253.5,173.5C 253.5,174.833 253.5,176.167 253.5,177.5C 253.989,178.995 254.655,180.329 255.5,181.5C 256.167,181.5 256.5,181.833 256.5,182.5C 258.167,182.5 259.833,182.5 261.5,182.5C 261.5,183.5 261.5,184.5 261.5,185.5C 260.833,185.5 260.167,185.5 259.5,185.5C 257.898,183.926 255.898,183.259 253.5,183.5C 253.5,183.167 253.5,182.833 253.5,182.5C 252.85,180.565 252.517,178.565 252.5,176.5C 252.164,172.051 252.497,168.384 253.5,165.5 Z"/></g>
<g><path style="opacity:0.38" fill="#ed4346" d="M 251.5,176.5 C 251.833,176.5 252.167,176.5 252.5,176.5C 252.517,178.565 252.85,180.565 253.5,182.5C 248.482,182.613 243.482,182.947 238.5,183.5C 239.808,182.768 241.142,181.934 242.5,181C 240.355,180.257 240.189,179.424 242,178.5C 244.184,181.457 245.351,181.123 245.5,177.5C 246.117,177.389 246.617,177.056 247,176.5C 246.734,179.901 248.234,181.567 251.5,181.5C 251.5,179.833 251.5,178.167 251.5,176.5 Z"/></g>
<g><path style="opacity:1" fill="#e61a21" d="M 246.5,184.5 C 248.607,183.532 250.941,183.198 253.5,183.5C 255.898,183.259 257.898,183.926 259.5,185.5C 257.194,185.007 254.861,184.674 252.5,184.5C 251.761,184.369 251.094,184.536 250.5,185C 251.252,185.671 251.586,186.504 251.5,187.5C 250.078,186.075 248.411,185.075 246.5,184.5 Z"/></g>
<g><path style="opacity:1" fill="#ea1d28" d="M 252.5,184.5 C 253.684,185.688 253.684,186.855 252.5,188C 253.448,188.483 254.448,188.649 255.5,188.5C 252.687,190.284 249.687,190.617 246.5,189.5C 246.5,189.167 246.5,188.833 246.5,188.5C 248.415,188.784 250.081,188.451 251.5,187.5C 251.586,186.504 251.252,185.671 250.5,185C 251.094,184.536 251.761,184.369 252.5,184.5 Z"/></g>
<g><path style="opacity:1" fill="#ed1922" d="M 252.5,184.5 C 254.861,184.674 257.194,185.007 259.5,185.5C 260.167,185.5 260.833,185.5 261.5,185.5C 261.5,186.5 261.5,187.5 261.5,188.5C 261.5,189.833 260.833,190.5 259.5,190.5C 258.817,188.824 257.483,188.157 255.5,188.5C 254.448,188.649 253.448,188.483 252.5,188C 253.684,186.855 253.684,185.688 252.5,184.5 Z"/></g>
<g><path style="opacity:1" fill="#e31d25" d="M 253.5,182.5 C 253.5,182.833 253.5,183.167 253.5,183.5C 250.941,183.198 248.607,183.532 246.5,184.5C 244.5,184.5 242.5,184.5 240.5,184.5C 240.5,185.5 240.5,186.5 240.5,187.5C 238.952,187.179 238.285,186.179 238.5,184.5C 238.5,184.167 238.5,183.833 238.5,183.5C 243.482,182.947 248.482,182.613 253.5,182.5 Z"/></g>
<g><path style="opacity:1" fill="#ee1b21" d="M 246.5,184.5 C 248.411,185.075 250.078,186.075 251.5,187.5C 250.081,188.451 248.415,188.784 246.5,188.5C 244.379,188.675 242.379,188.341 240.5,187.5C 240.5,186.5 240.5,185.5 240.5,184.5C 242.5,184.5 244.5,184.5 246.5,184.5 Z"/></g>
<g><path style="opacity:1" fill="#dc1f27" d="M 235.5,182.5 C 235.343,183.873 235.51,185.207 236,186.5C 236.464,185.906 236.631,185.239 236.5,184.5C 237.167,184.5 237.833,184.5 238.5,184.5C 238.285,186.179 238.952,187.179 240.5,187.5C 242.379,188.341 244.379,188.675 246.5,188.5C 246.5,188.833 246.5,189.167 246.5,189.5C 244.833,189.5 243.167,189.5 241.5,189.5C 239.833,190.5 238.5,191.833 237.5,193.5C 237.093,192.238 236.76,190.905 236.5,189.5C 235.52,192.086 235.187,194.753 235.5,197.5C 235.167,197.5 234.833,197.5 234.5,197.5C 234.179,192.305 234.513,187.305 235.5,182.5 Z"/></g>
<g><path style="opacity:0.49" fill="#be3339" d="M 255.5,188.5 C 257.483,188.157 258.817,188.824 259.5,190.5C 258.883,190.389 258.383,190.056 258,189.5C 252.396,192.144 246.896,192.144 241.5,189.5C 243.167,189.5 244.833,189.5 246.5,189.5C 249.687,190.617 252.687,190.284 255.5,188.5 Z"/></g>
<g><path style="opacity:1" fill="#c64245" d="M 263.5,197.5 C 263.632,194.43 263.299,191.43 262.5,188.5C 262.737,187.209 262.404,186.209 261.5,185.5C 261.5,184.5 261.5,183.5 261.5,182.5C 262.151,181.909 262.818,181.243 263.5,180.5C 264.816,186.32 264.816,191.987 263.5,197.5 Z"/></g>
<g><path style="opacity:0.318" fill="#c53140" d="M 235.5,182.5 C 234.513,187.305 234.179,192.305 234.5,197.5C 233.184,191.987 233.184,186.32 234.5,180.5C 235.298,180.957 235.631,181.624 235.5,182.5 Z"/></g>
<g><path style="opacity:1" fill="#e91821" d="M 237.5,193.5 C 239.834,194.124 242.167,194.957 244.5,196C 242.256,196.05 240.589,196.883 239.5,198.5C 238.833,198.5 238.5,198.833 238.5,199.5C 238.631,200.239 238.464,200.906 238,201.5C 237.392,199.934 236.558,198.6 235.5,197.5C 235.187,194.753 235.52,192.086 236.5,189.5C 236.76,190.905 237.093,192.238 237.5,193.5 Z"/></g>
<g><path style="opacity:1" fill="#e41d24" d="M 261.5,188.5 C 261.833,188.5 262.167,188.5 262.5,188.5C 263.299,191.43 263.632,194.43 263.5,197.5C 263.34,199.153 262.674,200.486 261.5,201.5C 260.566,200.432 260.232,199.099 260.5,197.5C 258.167,197.5 255.833,197.5 253.5,197.5C 252.167,198.167 250.833,198.833 249.5,199.5C 249.944,197.887 250.944,196.72 252.5,196C 250.866,195.506 249.199,195.34 247.5,195.5C 251.5,194.833 255.5,194.167 259.5,193.5C 260.625,192.652 260.625,191.652 259.5,190.5C 260.833,190.5 261.5,189.833 261.5,188.5 Z"/></g>
<g><path style="opacity:0.99" fill="#d32e37" d="M 237.5,193.5 C 244.833,193.5 252.167,193.5 259.5,193.5C 255.5,194.167 251.5,194.833 247.5,195.5C 245.302,195.409 244.969,196.075 246.5,197.5C 245.833,197.5 245.5,197.833 245.5,198.5C 243.5,198.5 241.5,198.5 239.5,198.5C 240.589,196.883 242.256,196.05 244.5,196C 242.167,194.957 239.834,194.124 237.5,193.5 Z"/></g>
<g><path style="opacity:0.875" fill="#e71a1e" d="M 247.5,195.5 C 249.199,195.34 250.866,195.506 252.5,196C 250.944,196.72 249.944,197.887 249.5,199.5C 249.167,199.5 248.833,199.5 248.5,199.5C 247.167,199.5 246.5,198.833 246.5,197.5C 244.969,196.075 245.302,195.409 247.5,195.5 Z"/></g>
<g><path style="opacity:0.31" fill="#c7292e" d="M 253.5,198.5 C 253.5,198.167 253.5,197.833 253.5,197.5C 255.833,197.5 258.167,197.5 260.5,197.5C 260.232,199.099 260.566,200.432 261.5,201.5C 261.737,202.791 261.404,203.791 260.5,204.5C 260.5,203.167 259.833,202.5 258.5,202.5C 258.33,201.178 258.663,200.011 259.5,199C 257.527,198.505 255.527,198.338 253.5,198.5 Z"/></g>
<g><path style="opacity:1" fill="#d02429" d="M 253.5,197.5 C 253.5,197.833 253.5,198.167 253.5,198.5C 253.7,201.333 253.7,204.333 253.5,207.5C 252.883,207.389 252.383,207.056 252,206.5C 251.503,208.81 251.337,211.143 251.5,213.5C 251.167,213.5 250.833,213.5 250.5,213.5C 250.717,208.77 250.383,204.103 249.5,199.5C 250.833,198.833 252.167,198.167 253.5,197.5 Z"/></g>
<g><path style="opacity:1" fill="#d41e28" d="M 258.5,202.5 C 259.833,202.5 260.5,203.167 260.5,204.5C 259.99,207.539 259.323,210.539 258.5,213.5C 257.883,213.611 257.383,213.944 257,214.5C 256.809,212.292 256.309,210.292 255.5,208.5C 256.13,206.25 257.13,204.25 258.5,202.5 Z"/></g>
<g><path style="opacity:1" fill="#cc2128" d="M 234.5,197.5 C 234.833,197.5 235.167,197.5 235.5,197.5C 236.558,198.6 237.392,199.934 238,201.5C 238.464,200.906 238.631,200.239 238.5,199.5C 240.897,202.309 242.23,205.642 242.5,209.5C 241.778,209.082 241.278,208.416 241,207.5C 240.503,210.146 240.336,212.813 240.5,215.5C 239.748,209.187 237.748,203.187 234.5,197.5 Z"/></g>
<g><path style="opacity:0.945" fill="#ca2c34" d="M 246.5,197.5 C 246.5,198.833 247.167,199.5 248.5,199.5C 248.5,204.833 248.5,210.167 248.5,215.5C 247.852,213.502 247.019,211.502 246,209.5C 245.506,211.134 245.34,212.801 245.5,214.5C 244.243,209.297 244.243,203.964 245.5,198.5C 245.5,197.833 245.833,197.5 246.5,197.5 Z"/></g>
<g><path style="opacity:0.522" fill="#d52326" d="M 253.5,207.5 C 254.116,211.143 253.783,214.81 252.5,218.5C 251.983,216.81 251.65,215.143 251.5,213.5C 251.337,211.143 251.503,208.81 252,206.5C 252.383,207.056 252.883,207.389 253.5,207.5 Z"/></g>
<g><path style="opacity:1" fill="#d61a1b" d="M 248.5,215.5 C 248.771,217.38 248.104,218.713 246.5,219.5C 245.962,217.883 245.629,216.216 245.5,214.5C 245.34,212.801 245.506,211.134 246,209.5C 247.019,211.502 247.852,213.502 248.5,215.5 Z"/></g>
<g><path style="opacity:1" fill="#e91621" d="M 250.5,213.5 C 250.833,213.5 251.167,213.5 251.5,213.5C 251.65,215.143 251.983,216.81 252.5,218.5C 252.389,219.117 252.056,219.617 251.5,220C 249.527,220.495 247.527,220.662 245.5,220.5C 244.167,220.167 244.167,219.833 245.5,219.5C 245.833,219.5 246.167,219.5 246.5,219.5C 248.104,218.713 248.771,217.38 248.5,215.5C 249.167,214.833 249.833,214.167 250.5,213.5 Z"/></g>
<g><path style="opacity:1" fill="#d12830" d="M 255.5,208.5 C 256.309,210.292 256.809,212.292 257,214.5C 257.383,213.944 257.883,213.611 258.5,213.5C 258.5,215.5 258.5,217.5 258.5,219.5C 257.167,218.833 255.833,218.167 254.5,217.5C 254.963,214.518 255.296,211.518 255.5,208.5 Z"/></g>
<g><path style="opacity:0.851" fill="#df1b22" d="M 242.5,209.5 C 243.011,212.963 244.011,216.296 245.5,219.5C 244.167,219.833 244.167,220.167 245.5,220.5C 244.167,221.167 242.833,221.833 241.5,222.5C 241.5,223.167 241.167,223.5 240.5,223.5C 239.646,222.368 239.646,221.035 240.5,219.5C 240.5,218.167 240.5,216.833 240.5,215.5C 240.336,212.813 240.503,210.146 241,207.5C 241.278,208.416 241.778,209.082 242.5,209.5 Z"/></g>
<g><path style="opacity:1" fill="#e41a21" d="M 254.5,217.5 C 255.833,218.167 257.167,218.833 258.5,219.5C 259.575,221.856 259.575,224.189 258.5,226.5C 257.702,226.043 257.369,225.376 257.5,224.5C 257.672,223.508 257.338,222.842 256.5,222.5C 255.791,221.596 254.791,221.263 253.5,221.5C 253.5,220.5 253.5,219.5 253.5,218.5C 254.167,218.5 254.5,218.167 254.5,217.5 Z"/></g>
<g><path style="opacity:1" fill="#d8232c" d="M 252.5,218.5 C 252.833,218.5 253.167,218.5 253.5,218.5C 253.5,219.5 253.5,220.5 253.5,221.5C 254.791,221.263 255.791,221.596 256.5,222.5C 251.5,222.5 246.5,222.5 241.5,222.5C 242.833,221.833 244.167,221.167 245.5,220.5C 247.527,220.662 249.527,220.495 251.5,220C 252.056,219.617 252.389,219.117 252.5,218.5 Z"/></g>
<g><path style="opacity:0.745" fill="#c92b31" d="M 240.5,219.5 C 239.646,221.035 239.646,222.368 240.5,223.5C 245.64,224.488 250.974,224.821 256.5,224.5C 255.791,225.404 254.791,225.737 253.5,225.5C 248.821,225.334 244.155,225.501 239.5,226C 240.044,226.717 240.711,227.217 241.5,227.5C 242.479,230.625 242.813,233.958 242.5,237.5C 242.5,242.5 242.5,247.5 242.5,252.5C 241.833,244.657 241.167,236.657 240.5,228.5C 236.512,225.462 236.512,222.462 240.5,219.5 Z"/></g>
<g><path style="opacity:1" fill="#d41e24" d="M 253.5,225.5 C 254.167,226.167 254.833,226.833 255.5,227.5C 255.125,231.442 254.125,235.109 252.5,238.5C 253.414,235.272 253.747,231.939 253.5,228.5C 250.5,228.5 247.5,228.5 244.5,228.5C 243.947,226.448 242.947,226.115 241.5,227.5C 240.711,227.217 240.044,226.717 239.5,226C 244.155,225.501 248.821,225.334 253.5,225.5 Z"/></g>
<g><path style="opacity:1" fill="#d22228" d="M 258.5,219.5 C 262.82,223.548 262.154,226.548 256.5,228.5C 256.5,227.833 256.167,227.5 255.5,227.5C 254.833,226.833 254.167,226.167 253.5,225.5C 254.791,225.737 255.791,225.404 256.5,224.5C 256.833,224.5 257.167,224.5 257.5,224.5C 257.369,225.376 257.702,226.043 258.5,226.5C 259.575,224.189 259.575,221.856 258.5,219.5 Z"/></g>
<g><path style="opacity:1" fill="#ee151f" d="M 241.5,227.5 C 242.947,226.115 243.947,226.448 244.5,228.5C 244.5,228.833 244.5,229.167 244.5,229.5C 244.5,231.167 244.5,232.833 244.5,234.5C 243.833,235.5 243.167,236.5 242.5,237.5C 242.813,233.958 242.479,230.625 241.5,227.5 Z"/></g>
<g><path style="opacity:1" fill="#e3181f" d="M 255.5,227.5 C 256.167,227.5 256.5,227.833 256.5,228.5C 256.5,231.5 256.5,234.5 256.5,237.5C 255.533,238.806 254.199,239.473 252.5,239.5C 252.5,239.167 252.5,238.833 252.5,238.5C 254.125,235.109 255.125,231.442 255.5,227.5 Z"/></g>
<g><path style="opacity:1" fill="#cd2a2e" d="M 256.5,237.5 C 256.216,254.006 255.55,270.34 254.5,286.5C 254.5,285.5 254.5,284.5 254.5,283.5C 254.5,278.167 254.5,272.833 254.5,267.5C 255.069,263.671 254.402,260.337 252.5,257.5C 252.5,251.5 252.5,245.5 252.5,239.5C 254.199,239.473 255.533,238.806 256.5,237.5 Z"/></g>
<g><path style="opacity:1" fill="#ea1720" d="M 244.5,234.5 C 245.128,241.913 244.461,248.913 242.5,255.5C 242.5,254.5 242.5,253.5 242.5,252.5C 242.5,247.5 242.5,242.5 242.5,237.5C 243.167,236.5 243.833,235.5 244.5,234.5 Z"/></g>
<g><path style="opacity:0.927" fill="#c62629" d="M 244.5,229.5 C 245.495,241.655 245.829,253.989 245.5,266.5C 243.825,269.507 243.159,272.84 243.5,276.5C 243.5,281.167 243.5,285.833 243.5,290.5C 242.505,279.012 242.172,267.345 242.5,255.5C 244.461,248.913 245.128,241.913 244.5,234.5C 244.5,232.833 244.5,231.167 244.5,229.5 Z"/></g>
<g><path style="opacity:1" fill="#dc191d" d="M 252.5,257.5 C 254.402,260.337 255.069,263.671 254.5,267.5C 253.833,266.167 253.167,264.833 252.5,263.5C 252.5,261.5 252.5,259.5 252.5,257.5 Z"/></g>
<g><path style="opacity:0.965" fill="#d71f25" d="M 245.5,266.5 C 245.833,267.167 246.167,267.833 246.5,268.5C 245.677,271.977 245.177,275.644 245,279.5C 244.768,278.263 244.268,277.263 243.5,276.5C 243.159,272.84 243.825,269.507 245.5,266.5 Z"/></g>
<g><path style="opacity:0.986" fill="#ea161c" d="M 252.5,263.5 C 253.167,264.833 253.833,266.167 254.5,267.5C 254.5,272.833 254.5,278.167 254.5,283.5C 253.686,285.631 253.186,287.964 253,290.5C 252.5,282.841 252.334,275.174 252.5,267.5C 252.5,266.167 252.5,264.833 252.5,263.5 Z"/></g>
<g><path style="opacity:0.998" fill="#ce292e" d="M 246.5,268.5 C 246.5,276.167 246.5,283.833 246.5,291.5C 245.5,291.5 244.5,291.5 243.5,291.5C 243.5,291.167 243.5,290.833 243.5,290.5C 243.5,285.833 243.5,281.167 243.5,276.5C 244.268,277.263 244.768,278.263 245,279.5C 245.177,275.644 245.677,271.977 246.5,268.5 Z"/></g>
<g><path style="opacity:0.802" fill="#dc242b" d="M 252.5,267.5 C 252.334,275.174 252.5,282.841 253,290.5C 253.186,287.964 253.686,285.631 254.5,283.5C 254.5,284.5 254.5,285.5 254.5,286.5C 254.156,289.62 254.823,292.453 256.5,295C 256.361,296.301 255.695,297.134 254.5,297.5C 254.672,296.508 254.338,295.842 253.5,295.5C 251.052,294.527 248.385,294.194 245.5,294.5C 246.167,293.5 246.833,292.5 247.5,291.5C 248.833,291.5 250.167,291.5 251.5,291.5C 251.174,283.316 251.508,275.316 252.5,267.5 Z"/></g>
<g><path style="opacity:0.286" fill="#eb1c21" d="M 243.5,291.5 C 244.5,291.5 245.5,291.5 246.5,291.5C 246.833,291.5 247.167,291.5 247.5,291.5C 246.833,292.5 246.167,293.5 245.5,294.5C 244.443,295.206 244.776,295.539 246.5,295.5C 246.5,296.167 246.5,296.833 246.5,297.5C 245.883,297.611 245.383,297.944 245,298.5C 243.798,296.323 243.298,293.989 243.5,291.5 Z"/></g>
<g><path style="opacity:1" fill="#d4242a" d="M 243.5,291.5 C 243.298,293.989 243.798,296.323 245,298.5C 245.383,297.944 245.883,297.611 246.5,297.5C 246.5,300.833 246.5,304.167 246.5,307.5C 245.686,305.369 245.186,303.036 245,300.5C 244.819,303.695 244.319,306.695 243.5,309.5C 244.012,304.415 243.345,299.581 241.5,295C 241.808,293.541 242.475,292.374 243.5,291.5 Z"/></g>
<g><path style="opacity:0.867" fill="#df1b1c" d="M 246.5,295.5 C 248.833,295.5 251.167,295.5 253.5,295.5C 254.338,295.842 254.672,296.508 254.5,297.5C 253.5,297.5 252.5,297.5 251.5,297.5C 249.833,297.5 248.167,297.5 246.5,297.5C 246.5,296.833 246.5,296.167 246.5,295.5 Z"/></g>
<g><path style="opacity:0.984" fill="#d3282c" d="M 251.5,297.5 C 252.5,297.5 253.5,297.5 254.5,297.5C 254.666,301.514 254.499,305.514 254,309.5C 253.617,310.056 253.117,310.389 252.5,310.5C 251.791,309.596 250.791,309.263 249.5,309.5C 250.167,305.5 250.833,301.5 251.5,297.5 Z"/></g>
<g><path style="opacity:1" fill="#dc1c22" d="M 246.5,307.5 C 246.973,308.906 247.973,309.573 249.5,309.5C 250.791,309.263 251.791,309.596 252.5,310.5C 249.29,314.35 246.29,314.016 243.5,309.5C 244.319,306.695 244.819,303.695 245,300.5C 245.186,303.036 245.686,305.369 246.5,307.5 Z"/></g>
<g><path style="opacity:0.6" fill="#c01c26" d="M 193.5,322.5 C 190.833,322.5 188.167,322.5 185.5,322.5C 181.037,322.106 178.037,322.439 176.5,323.5C 176.5,323.833 176.5,324.167 176.5,324.5C 175.5,324.5 174.5,324.5 173.5,324.5C 173.5,323.5 173.5,322.5 173.5,321.5C 180.354,321.176 187.021,321.509 193.5,322.5 Z"/></g>
<g><path style="opacity:0.557" fill="#be1c2c" d="M 226.5,324.5 C 226.03,323.307 225.03,322.64 223.5,322.5C 221.024,322.233 220.357,322.899 221.5,324.5C 219.952,324.179 219.285,323.179 219.5,321.5C 222.898,321.18 226.232,321.513 229.5,322.5C 228.995,323.919 227.995,324.585 226.5,324.5 Z"/></g>
<g><path style="opacity:0.6" fill="#bc1d27" d="M 256.5,323.5 C 254.274,321.82 252.607,322.153 251.5,324.5C 249.833,324.5 248.167,324.5 246.5,324.5C 246.5,327.5 246.5,330.5 246.5,333.5C 246.167,333.5 245.833,333.5 245.5,333.5C 245.211,329.894 245.544,326.394 246.5,323C 243.5,322.333 240.5,322.333 237.5,323C 238.056,323.383 238.389,323.883 238.5,324.5C 237.005,324.585 236.005,323.919 235.5,322.5C 239,322.167 242.5,321.833 246,321.5C 249.902,321.512 253.402,322.179 256.5,323.5 Z"/></g>
<g><path style="opacity:1" fill="#c8141f" d="M 355.5,322.5 C 356.283,324.343 356.95,326.343 357.5,328.5C 356.311,329.429 354.978,329.762 353.5,329.5C 353.166,325.352 350.833,323.685 346.5,324.5C 346.5,326.167 346.5,327.833 346.5,329.5C 346.167,329.5 345.833,329.5 345.5,329.5C 345.795,327.265 345.461,325.265 344.5,323.5C 347.866,321.221 351.532,320.888 355.5,322.5 Z"/></g>
<g><path style="opacity:1" fill="#df0415" d="M 185.5,322.5 C 185.167,323.167 184.833,323.833 184.5,324.5C 183.833,324.5 183.5,324.833 183.5,325.5C 182.566,326.568 182.232,327.901 182.5,329.5C 181.624,329.631 180.957,329.298 180.5,328.5C 181.309,326.929 181.643,325.262 181.5,323.5C 180.5,323.5 179.5,323.5 178.5,323.5C 177.833,323.5 177.167,323.5 176.5,323.5C 178.037,322.439 181.037,322.106 185.5,322.5 Z"/></g>
<g><path style="opacity:1" fill="#cd1922" d="M 185.5,322.5 C 188.167,322.5 190.833,322.5 193.5,322.5C 194.219,324.764 194.552,327.097 194.5,329.5C 191.891,329.17 190.224,327.67 189.5,325C 187.866,324.506 186.199,324.34 184.5,324.5C 184.833,323.833 185.167,323.167 185.5,322.5 Z"/></g>
<g><path style="opacity:0.631" fill="#c11925" d="M 330.5,328.5 C 330.5,326.5 330.5,324.5 330.5,322.5C 329.167,322.5 327.833,322.5 326.5,322.5C 326.629,324.216 326.962,325.883 327.5,327.5C 324.623,324.821 324.956,322.488 328.5,320.5C 330.455,321.28 331.455,322.78 331.5,325C 331.486,326.385 331.152,327.551 330.5,328.5 Z"/></g>
<g><path style="opacity:0.953" fill="#ba1c28" d="M 355.5,322.5 C 351.532,320.888 347.866,321.221 344.5,323.5C 343.833,323.5 343.167,323.5 342.5,323.5C 346.578,319.988 350.912,319.654 355.5,322.5 Z"/></g>
<g><path style="opacity:0.725" fill="#c3162b" d="M 151.5,324.5 C 150.666,323.252 149.333,322.585 147.5,322.5C 145.667,322.585 144.334,323.252 143.5,324.5C 141.952,324.179 141.285,323.179 141.5,321.5C 145.167,321.5 148.833,321.5 152.5,321.5C 152.737,322.791 152.404,323.791 151.5,324.5 Z"/></g>
<g><path style="opacity:0.78" fill="#c01c26" d="M 279.5,321.5 C 279.5,321.833 279.5,322.167 279.5,322.5C 277.473,322.338 275.473,322.505 273.5,323C 274.056,323.383 274.389,323.883 274.5,324.5C 273.833,332.167 273.167,339.833 272.5,347.5C 272.5,339.833 272.5,332.167 272.5,324.5C 271.5,324.5 270.5,324.5 269.5,324.5C 269.611,323.883 269.944,323.383 270.5,323C 268.866,322.506 267.199,322.34 265.5,322.5C 265.025,325.082 265.692,327.082 267.5,328.5C 266.399,329.598 265.066,329.765 263.5,329C 264.435,326.619 264.768,324.119 264.5,321.5C 269.5,321.5 274.5,321.5 279.5,321.5 Z"/></g>
<g><path style="opacity:1" fill="#d80c17" d="M 151.5,324.5 C 151.167,324.5 150.833,324.5 150.5,324.5C 150.565,324.062 150.399,323.728 150,323.5C 149.29,324.973 148.124,325.64 146.5,325.5C 146.5,328.167 146.5,330.833 146.5,333.5C 144.928,330.785 143.928,327.785 143.5,324.5C 144.334,323.252 145.667,322.585 147.5,322.5C 149.333,322.585 150.666,323.252 151.5,324.5 Z"/></g>
<g><path style="opacity:1" fill="#d7101c" d="M 214.5,327.5 C 212.856,327.714 211.356,327.38 210,326.5C 209.517,327.448 209.351,328.448 209.5,329.5C 208.662,329.842 208.328,330.508 208.5,331.5C 207.191,337.41 207.191,342.744 208.5,347.5C 209.167,347.5 209.5,347.833 209.5,348.5C 209.03,349.693 208.03,350.36 206.5,350.5C 204.024,350.767 203.357,350.101 204.5,348.5C 205.492,340.684 205.826,332.684 205.5,324.5C 204.5,324.5 203.5,324.5 202.5,324.5C 202.5,323.5 202.5,322.5 202.5,321.5C 205.898,321.18 209.232,321.513 212.5,322.5C 213.456,324.075 214.123,325.742 214.5,327.5 Z"/></g>
<g><path style="opacity:1" fill="#e20416" d="M 279.5,322.5 C 280.239,322.369 280.906,322.536 281.5,323C 280.584,323.278 279.918,323.778 279.5,324.5C 279.833,325.167 280.167,325.833 280.5,326.5C 278.692,327.918 278.025,329.918 278.5,332.5C 277.834,329.642 277.167,326.642 276.5,323.5C 275.817,323.863 275.15,324.196 274.5,324.5C 274.389,323.883 274.056,323.383 273.5,323C 275.473,322.505 277.473,322.338 279.5,322.5 Z"/></g>
<g><path style="opacity:1" fill="#d8121d" d="M 330.5,328.5 C 329.713,332.37 328.047,333.036 325.5,330.5C 326.5,329.667 327.5,328.833 328.5,328C 328.272,327.601 327.938,327.435 327.5,327.5C 326.962,325.883 326.629,324.216 326.5,322.5C 327.833,322.5 329.167,322.5 330.5,322.5C 330.5,324.5 330.5,326.5 330.5,328.5 Z"/></g>
<g><path style="opacity:1" fill="#d5111d" d="M 256.5,323.5 C 256.833,325.5 257.167,327.5 257.5,329.5C 256.448,329.649 255.448,329.483 254.5,329C 253.947,327.122 252.947,325.622 251.5,324.5C 252.607,322.153 254.274,321.82 256.5,323.5 Z"/></g>
<g><path style="opacity:1" fill="#d21523" d="M 279.5,322.5 C 279.5,322.167 279.5,321.833 279.5,321.5C 282.187,321.336 284.854,321.503 287.5,322C 288.435,324.381 288.768,326.881 288.5,329.5C 285.891,329.17 284.224,327.67 283.5,325C 282.207,324.51 280.873,324.343 279.5,324.5C 279.918,323.778 280.584,323.278 281.5,323C 280.906,322.536 280.239,322.369 279.5,322.5 Z"/></g>
<g><path style="opacity:1" fill="#db0919" d="M 312.5,331.5 C 312.5,331.833 312.5,332.167 312.5,332.5C 312.737,333.791 312.404,334.791 311.5,335.5C 311.179,333.952 310.179,333.285 308.5,333.5C 308.5,335.167 308.5,336.833 308.5,338.5C 307.205,336.021 306.205,333.354 305.5,330.5C 305.5,330.167 305.5,329.833 305.5,329.5C 306.756,329.539 307.756,329.039 308.5,328C 307.773,326.601 307.273,325.101 307,323.5C 306.329,324.252 305.496,324.586 304.5,324.5C 305.287,322.896 306.62,322.229 308.5,322.5C 308.343,323.873 308.51,325.207 309,326.5C 309.902,328.431 311.069,330.097 312.5,331.5 Z"/></g>
<g><path style="opacity:1" fill="#e70214" d="M 150.5,324.5 C 150.5,325.167 150.5,325.833 150.5,326.5C 150.662,328.527 150.495,330.527 150,332.5C 148.989,333.337 147.822,333.67 146.5,333.5C 146.5,330.833 146.5,328.167 146.5,325.5C 148.124,325.64 149.29,324.973 150,323.5C 150.399,323.728 150.565,324.062 150.5,324.5 Z"/></g>
<g><path style="opacity:1" fill="#cc1220" d="M 158.5,345.5 C 158.843,343.517 158.176,342.183 156.5,341.5C 158.157,336.195 159.823,330.861 161.5,325.5C 160.147,324.476 159.48,323.143 159.5,321.5C 162.167,321.5 164.833,321.5 167.5,321.5C 164.122,329.295 161.122,337.295 158.5,345.5 Z"/></g>
<g><path style="opacity:0.839" fill="#d70e17" d="M 269.5,324.5 C 268.326,325.514 267.66,326.847 267.5,328.5C 265.692,327.082 265.025,325.082 265.5,322.5C 267.199,322.34 268.866,322.506 270.5,323C 269.944,323.383 269.611,323.883 269.5,324.5 Z"/></g>
<g><path style="opacity:0.941" fill="#e3010f" d="M 305.5,329.5 C 304.549,328.081 304.216,326.415 304.5,324.5C 305.496,324.586 306.329,324.252 307,323.5C 307.273,325.101 307.773,326.601 308.5,328C 307.756,329.039 306.756,329.539 305.5,329.5 Z"/></g>
<g><path style="opacity:1" fill="#bb1824" d="M 312.5,331.5 C 311.069,330.097 309.902,328.431 309,326.5C 308.51,325.207 308.343,323.873 308.5,322.5C 306.62,322.229 305.287,322.896 304.5,324.5C 304.167,324.5 303.833,324.5 303.5,324.5C 303.794,321.354 305.461,320.187 308.5,321C 310.326,324.312 311.66,327.812 312.5,331.5 Z"/></g>
<g><path style="opacity:1" fill="#e60112" d="M 178.5,323.5 C 179.5,323.5 180.5,323.5 181.5,323.5C 181.643,325.262 181.309,326.929 180.5,328.5C 180.957,329.298 181.624,329.631 182.5,329.5C 182.5,330.833 182.5,332.167 182.5,333.5C 181.325,333.281 180.325,333.614 179.5,334.5C 180.548,335.548 181.548,336.548 182.5,337.5C 182.5,338.833 182.5,340.167 182.5,341.5C 181.298,340.595 179.964,340.595 178.5,341.5C 178.5,335.5 178.5,329.5 178.5,323.5 Z"/></g>
<g><path style="opacity:0.537" fill="#af1f2c" d="M 222.5,325.5 C 223.486,329.97 223.819,334.637 223.5,339.5C 223.289,341.424 222.623,341.757 221.5,340.5C 222.487,335.695 222.821,330.695 222.5,325.5 Z"/></g>
<g><path style="opacity:1" fill="#d20b19" d="M 226.5,324.5 C 226.5,324.833 226.5,325.167 226.5,325.5C 225.833,331.167 225.167,336.833 224.5,342.5C 224.737,341.209 224.404,340.209 223.5,339.5C 223.819,334.637 223.486,329.97 222.5,325.5C 222.5,324.833 222.167,324.5 221.5,324.5C 220.357,322.899 221.024,322.233 223.5,322.5C 225.03,322.64 226.03,323.307 226.5,324.5 Z"/></g>
<g><path style="opacity:1" fill="#d10d1b" d="M 342.5,323.5 C 343.167,323.5 343.833,323.5 344.5,323.5C 345.461,325.265 345.795,327.265 345.5,329.5C 344.061,328.491 342.728,328.824 341.5,330.5C 342.246,331.736 342.579,333.07 342.5,334.5C 340.286,333.608 339.286,331.942 339.5,329.5C 339.467,326.898 340.467,324.898 342.5,323.5 Z"/></g>
<g><path style="opacity:1" fill="#e80112" d="M 214.5,327.5 C 214.205,329.735 214.539,331.735 215.5,333.5C 215.649,334.552 215.483,335.552 215,336.5C 213.26,335.284 212.26,333.618 212,331.5C 211.329,330.748 210.496,330.414 209.5,330.5C 209.5,330.167 209.5,329.833 209.5,329.5C 209.351,328.448 209.517,327.448 210,326.5C 211.356,327.38 212.856,327.714 214.5,327.5 Z"/></g>
<g><path style="opacity:1" fill="#d10b1b" d="M 274.5,324.5 C 274.5,328.5 274.5,332.5 274.5,336.5C 274.5,339.167 274.5,341.833 274.5,344.5C 274.747,346.858 274.081,348.858 272.5,350.5C 270.302,350.591 269.969,349.925 271.5,348.5C 272.167,348.5 272.5,348.167 272.5,347.5C 273.167,339.833 273.833,332.167 274.5,324.5 Z"/></g>
<g><path style="opacity:1" fill="#dc0815" d="M 345.5,329.5 C 345.833,329.5 346.167,329.5 346.5,329.5C 347.833,330.167 348.833,331.167 349.5,332.5C 347.973,332.427 346.973,333.094 346.5,334.5C 345.167,334.5 343.833,334.5 342.5,334.5C 342.579,333.07 342.246,331.736 341.5,330.5C 342.728,328.824 344.061,328.491 345.5,329.5 Z"/></g>
<g><path style="opacity:1" fill="#d70b1b" d="M 214.5,327.5 C 216.341,329.849 217.674,332.515 218.5,335.5C 217.222,335.218 216.222,334.551 215.5,333.5C 214.539,331.735 214.205,329.735 214.5,327.5 Z"/></g>
<g><path style="opacity:1" fill="#e60013" d="M 278.5,332.5 C 278.5,333.833 278.5,335.167 278.5,336.5C 277.167,335.167 275.833,335.167 274.5,336.5C 274.5,332.5 274.5,328.5 274.5,324.5C 275.15,324.196 275.817,323.863 276.5,323.5C 277.167,326.642 277.834,329.642 278.5,332.5 Z"/></g>
<g><path style="opacity:1" fill="#c41723" d="M 303.5,324.5 C 303.833,324.5 304.167,324.5 304.5,324.5C 304.216,326.415 304.549,328.081 305.5,329.5C 305.5,329.833 305.5,330.167 305.5,330.5C 304.5,333.167 303.5,335.833 302.5,338.5C 302.657,337.127 302.49,335.793 302,334.5C 301.722,335.416 301.222,336.082 300.5,336.5C 301.09,332.397 302.09,328.397 303.5,324.5 Z"/></g>
<g><path style="opacity:0.775" fill="#d61523" d="M 183.5,325.5 C 183.5,328.5 183.5,331.5 183.5,334.5C 185.292,334.634 186.958,334.301 188.5,333.5C 188.03,334.693 187.03,335.36 185.5,335.5C 183.97,335.36 182.97,334.693 182.5,333.5C 182.5,332.167 182.5,330.833 182.5,329.5C 182.232,327.901 182.566,326.568 183.5,325.5 Z"/></g>
<g><path style="opacity:1" fill="#e40216" d="M 240.5,329.5 C 243.205,329.38 243.872,330.38 242.5,332.5C 242.957,333.298 243.624,333.631 244.5,333.5C 244.5,334.167 244.833,334.5 245.5,334.5C 245.5,335.5 245.5,336.5 245.5,337.5C 244.833,337.5 244.5,337.833 244.5,338.5C 243.167,337.833 241.833,337.167 240.5,336.5C 240.5,334.167 240.5,331.833 240.5,329.5 Z"/></g>
<g><path style="opacity:1" fill="#d10f1d" d="M 150.5,326.5 C 152.538,330.94 154.204,335.607 155.5,340.5C 153.883,338.879 152.716,336.879 152,334.5C 150.842,334.998 150.009,335.831 149.5,337C 150.161,339.464 150.661,341.964 151,344.5C 152.461,343.117 153.294,343.451 153.5,345.5C 152.596,346.209 152.263,347.209 152.5,348.5C 152.167,348.5 151.833,348.5 151.5,348.5C 149.261,343.784 147.595,338.784 146.5,333.5C 147.822,333.67 148.989,333.337 150,332.5C 150.495,330.527 150.662,328.527 150.5,326.5 Z"/></g>
<g><path style="opacity:1" fill="#d30f1b" d="M 245.5,333.5 C 245.5,333.833 245.5,334.167 245.5,334.5C 244.833,334.5 244.5,334.167 244.5,333.5C 244.5,330.167 244.5,326.833 244.5,323.5C 243.167,323.5 241.833,323.5 240.5,323.5C 240.5,325.5 240.5,327.5 240.5,329.5C 240.5,331.833 240.5,334.167 240.5,336.5C 240.5,339.833 240.5,343.167 240.5,346.5C 240.167,346.5 239.833,346.5 239.5,346.5C 239.797,339.08 239.464,331.746 238.5,324.5C 238.389,323.883 238.056,323.383 237.5,323C 240.5,322.333 243.5,322.333 246.5,323C 245.544,326.394 245.211,329.894 245.5,333.5 Z"/></g>
<g><path style="opacity:1" fill="#e50212" d="M 244.5,333.5 C 243.624,333.631 242.957,333.298 242.5,332.5C 243.872,330.38 243.205,329.38 240.5,329.5C 240.5,327.5 240.5,325.5 240.5,323.5C 241.833,323.5 243.167,323.5 244.5,323.5C 244.5,326.833 244.5,330.167 244.5,333.5 Z"/></g>
<g><path style="opacity:0.969" fill="#c82128" d="M 280.5,326.5 C 280.795,333.588 280.462,340.588 279.5,347.5C 278.833,347.5 278.5,347.167 278.5,346.5C 278.5,343.167 278.5,339.833 278.5,336.5C 278.5,335.167 278.5,333.833 278.5,332.5C 278.025,329.918 278.692,327.918 280.5,326.5 Z"/></g>
<g><path style="opacity:1" fill="#d00f1e" d="M 342.5,334.5 C 343.833,334.5 345.167,334.5 346.5,334.5C 347.5,335.833 348.5,337.167 349.5,338.5C 351.385,340.053 352.385,342.053 352.5,344.5C 352.343,345.873 352.51,347.207 353,348.5C 354.011,347.663 355.178,347.33 356.5,347.5C 356.5,349.5 355.5,350.5 353.5,350.5C 351.517,350.843 350.183,350.176 349.5,348.5C 351.441,346.989 351.941,344.989 351,342.5C 347.997,339.933 345.164,337.266 342.5,334.5 Z"/></g>
<g><path style="opacity:0.986" fill="#db0615" d="M 183.5,337.5 C 183.167,337.5 182.833,337.5 182.5,337.5C 181.548,336.548 180.548,335.548 179.5,334.5C 180.325,333.614 181.325,333.281 182.5,333.5C 182.97,334.693 183.97,335.36 185.5,335.5C 187.03,335.36 188.03,334.693 188.5,333.5C 188.5,333.167 188.5,332.833 188.5,332.5C 189.117,332.389 189.617,332.056 190,331.5C 190.667,334.5 190.667,337.5 190,340.5C 189.074,336.625 186.908,335.625 183.5,337.5 Z"/></g>
<g><path style="opacity:0.463" fill="#c8232f" d="M 183.5,337.5 C 186.908,335.625 189.074,336.625 190,340.5C 190.667,337.5 190.667,334.5 190,331.5C 189.617,332.056 189.117,332.389 188.5,332.5C 188.821,330.952 189.821,330.285 191.5,330.5C 191.5,334.167 191.5,337.833 191.5,341.5C 190.5,341.5 189.5,341.5 188.5,341.5C 188.616,338.09 186.95,336.756 183.5,337.5 Z"/></g>
<g><path style="opacity:1" fill="#c91a26" d="M 251.5,330.5 C 251.552,332.903 251.219,335.236 250.5,337.5C 249.167,337.5 247.833,337.5 246.5,337.5C 246.5,340.833 246.5,344.167 246.5,347.5C 245.521,344.375 245.187,341.042 245.5,337.5C 245.5,336.5 245.5,335.5 245.5,334.5C 245.5,334.167 245.5,333.833 245.5,333.5C 245.833,333.5 246.167,333.5 246.5,333.5C 247.568,334.434 248.901,334.768 250.5,334.5C 250.232,332.901 250.566,331.568 251.5,330.5 Z"/></g>
<g><path style="opacity:1" fill="#e60113" d="M 349.5,332.5 C 350.16,334.344 351.16,336.01 352.5,337.5C 352.333,338.167 352.167,338.833 352,339.5C 351.329,338.748 350.496,338.414 349.5,338.5C 348.5,337.167 347.5,335.833 346.5,334.5C 346.973,333.094 347.973,332.427 349.5,332.5 Z"/></g>
<g><path style="opacity:1" fill="#cd111e" d="M 209.5,330.5 C 210.496,330.414 211.329,330.748 212,331.5C 212.26,333.618 213.26,335.284 215,336.5C 215.483,335.552 215.649,334.552 215.5,333.5C 216.222,334.551 217.222,335.218 218.5,335.5C 219.89,336.899 220.89,338.566 221.5,340.5C 219.657,339.754 218.324,338.421 217.5,336.5C 216.692,336.808 216.025,337.308 215.5,338C 217.964,341.477 219.631,345.31 220.5,349.5C 216.596,343.366 212.929,337.032 209.5,330.5 Z"/></g>
<g><path style="opacity:1" fill="#cf101f" d="M 312.5,332.5 C 314.204,335.939 315.538,339.605 316.5,343.5C 315.022,342.552 314.022,341.219 313.5,339.5C 312.833,339.5 312.167,339.5 311.5,339.5C 311.5,338.167 311.5,336.833 311.5,335.5C 312.404,334.791 312.737,333.791 312.5,332.5 Z"/></g>
<g><path style="opacity:1" fill="#e40213" d="M 311.5,335.5 C 311.5,336.833 311.5,338.167 311.5,339.5C 310.662,339.842 310.328,340.508 310.5,341.5C 309.5,341.167 308.833,340.5 308.5,339.5C 308.5,339.167 308.5,338.833 308.5,338.5C 308.5,336.833 308.5,335.167 308.5,333.5C 310.179,333.285 311.179,333.952 311.5,335.5 Z"/></g>
<g><path style="opacity:1" fill="#c6171f" d="M 176.5,323.5 C 177.167,323.5 177.833,323.5 178.5,323.5C 178.5,329.5 178.5,335.5 178.5,341.5C 178.5,342.167 178.5,342.833 178.5,343.5C 178.768,345.099 178.434,346.432 177.5,347.5C 177.167,347.5 176.833,347.5 176.5,347.5C 176.5,339.833 176.5,332.167 176.5,324.5C 176.5,324.167 176.5,323.833 176.5,323.5 Z"/></g>
<g><path style="opacity:0.991" fill="#d40e1c" d="M 208.5,331.5 C 209.833,336.833 209.833,342.167 208.5,347.5C 207.191,342.744 207.191,337.41 208.5,331.5 Z"/></g>
<g><path style="opacity:1" fill="#cb1822" d="M 251.5,330.5 C 252.5,330.5 253.5,330.5 254.5,330.5C 254.5,334.167 254.5,337.833 254.5,341.5C 253.167,341.5 251.833,341.5 250.5,341.5C 250.5,340.167 250.5,338.833 250.5,337.5C 251.219,335.236 251.552,332.903 251.5,330.5 Z"/></g>
<g><path style="opacity:1" fill="#e60114" d="M 278.5,336.5 C 278.5,339.833 278.5,343.167 278.5,346.5C 277.85,346.804 277.183,347.137 276.5,347.5C 275.824,346.398 275.158,345.398 274.5,344.5C 274.5,341.833 274.5,339.167 274.5,336.5C 275.833,335.167 277.167,335.167 278.5,336.5 Z"/></g>
<g><path style="opacity:1" fill="#d60c1b" d="M 349.5,332.5 C 357.001,335.278 359.334,340.278 356.5,347.5C 356.5,344.833 356.5,342.167 356.5,339.5C 355.5,339.5 354.5,339.5 353.5,339.5C 353.784,341.415 353.451,343.081 352.5,344.5C 352.385,342.053 351.385,340.053 349.5,338.5C 350.496,338.414 351.329,338.748 352,339.5C 352.167,338.833 352.333,338.167 352.5,337.5C 351.16,336.01 350.16,334.344 349.5,332.5 Z"/></g>
<g><path style="opacity:1" fill="#e60316" d="M 155.5,340.5 C 155.461,342.224 155.794,342.557 156.5,341.5C 158.176,342.183 158.843,343.517 158.5,345.5C 158.167,345.5 157.833,345.5 157.5,345.5C 156.368,344.646 155.035,344.646 153.5,345.5C 153.294,343.451 152.461,343.117 151,344.5C 150.661,341.964 150.161,339.464 149.5,337C 150.009,335.831 150.842,334.998 152,334.5C 152.716,336.879 153.883,338.879 155.5,340.5 Z"/></g>
<g><path style="opacity:1" fill="#e00312" d="M 182.5,341.5 C 182.5,343.5 182.5,345.5 182.5,347.5C 181.167,346.167 179.833,344.833 178.5,343.5C 178.5,342.833 178.5,342.167 178.5,341.5C 179.964,340.595 181.298,340.595 182.5,341.5 Z"/></g>
<g><path style="opacity:1" fill="#e60211" d="M 311.5,339.5 C 312.167,339.5 312.833,339.5 313.5,339.5C 313.5,342.167 313.5,344.833 313.5,347.5C 313.565,347.938 313.399,348.272 313,348.5C 312.764,346.881 311.931,345.881 310.5,345.5C 310.5,344.167 310.5,342.833 310.5,341.5C 310.328,340.508 310.662,339.842 311.5,339.5 Z"/></g>
<g><path style="opacity:1" fill="#d0121e" d="M 302.5,338.5 C 302.5,339.167 302.833,339.5 303.5,339.5C 303.218,340.778 302.551,341.778 301.5,342.5C 301.737,343.791 301.404,344.791 300.5,345.5C 300.631,344.624 300.298,343.957 299.5,343.5C 298.824,344.602 298.158,345.602 297.5,346.5C 297.723,342.838 298.723,339.505 300.5,336.5C 301.222,336.082 301.722,335.416 302,334.5C 302.49,335.793 302.657,337.127 302.5,338.5 Z"/></g>
<g><path style="opacity:1" fill="#cb1524" d="M 303.5,339.5 C 305.167,339.5 306.833,339.5 308.5,339.5C 308.833,340.5 309.5,341.167 310.5,341.5C 310.5,342.833 310.5,344.167 310.5,345.5C 309.596,344.791 309.263,343.791 309.5,342.5C 306.833,342.5 304.167,342.5 301.5,342.5C 302.551,341.778 303.218,340.778 303.5,339.5 Z"/></g>
<g><path style="opacity:1" fill="#e20217" d="M 313.5,339.5 C 314.022,341.219 315.022,342.552 316.5,343.5C 316.5,343.833 316.5,344.167 316.5,344.5C 316.5,345.5 316.5,346.5 316.5,347.5C 315.5,347.5 314.5,347.5 313.5,347.5C 313.5,344.833 313.5,342.167 313.5,339.5 Z"/></g>
<g><path style="opacity:1" fill="#e00315" d="M 221.5,340.5 C 222.623,341.757 223.289,341.424 223.5,339.5C 224.404,340.209 224.737,341.209 224.5,342.5C 224.5,344.833 224.5,347.167 224.5,349.5C 219.25,338.593 218.584,338.926 222.5,350.5C 221.833,350.5 221.167,350.5 220.5,350.5C 220.5,350.167 220.5,349.833 220.5,349.5C 219.631,345.31 217.964,341.477 215.5,338C 216.025,337.308 216.692,336.808 217.5,336.5C 218.324,338.421 219.657,339.754 221.5,340.5 Z"/></g>
<g><path style="opacity:1" fill="#e60111" d="M 224.5,349.5 C 224.158,350.338 223.492,350.672 222.5,350.5C 218.584,338.926 219.25,338.593 224.5,349.5 Z"/></g>
<g><path style="opacity:1" fill="#e20112" d="M 240.5,336.5 C 241.833,337.167 243.167,337.833 244.5,338.5C 244.928,342.426 243.761,345.759 241,348.5C 240.536,347.906 240.369,347.239 240.5,346.5C 240.5,343.167 240.5,339.833 240.5,336.5 Z"/></g>
<g><path style="opacity:1" fill="#e40112" d="M 356.5,347.5 C 355.178,347.33 354.011,347.663 353,348.5C 352.51,347.207 352.343,345.873 352.5,344.5C 353.451,343.081 353.784,341.415 353.5,339.5C 354.5,339.5 355.5,339.5 356.5,339.5C 356.5,342.167 356.5,344.833 356.5,347.5 Z"/></g>
<g><path style="opacity:1" fill="#b91f28" d="M 226.5,325.5 C 226.666,334.173 226.5,342.84 226,351.5C 223.765,352.98 221.932,352.647 220.5,350.5C 221.167,350.5 221.833,350.5 222.5,350.5C 223.492,350.672 224.158,350.338 224.5,349.5C 224.5,347.167 224.5,344.833 224.5,342.5C 225.167,336.833 225.833,331.167 226.5,325.5 Z"/></g>
<g><path style="opacity:1" fill="#e50311" d="M 178.5,343.5 C 179.833,344.833 181.167,346.167 182.5,347.5C 182.209,348.649 181.376,349.316 180,349.5C 178.624,349.316 177.791,348.649 177.5,347.5C 178.434,346.432 178.768,345.099 178.5,343.5 Z"/></g>
<g><path style="opacity:1" fill="#d41522" d="M 194.5,350.5 C 190.833,350.5 187.167,350.5 183.5,350.5C 183.833,349.833 184.167,349.167 184.5,348.5C 188.445,349.427 191.112,348.094 192.5,344.5C 193.325,343.614 194.325,343.281 195.5,343.5C 195.552,345.903 195.219,348.236 194.5,350.5 Z"/></g>
<g><path style="opacity:1" fill="#d8091d" d="M 300.5,345.5 C 299.199,346.884 299.199,348.384 300.5,350C 298.537,350.844 297.204,350.344 296.5,348.5C 296.328,347.508 296.662,346.842 297.5,346.5C 298.158,345.602 298.824,344.602 299.5,343.5C 300.298,343.957 300.631,344.624 300.5,345.5 Z"/></g>
<g><path style="opacity:1" fill="#e30214" d="M 157.5,345.5 C 156.699,347.042 156.366,348.708 156.5,350.5C 154.517,350.843 153.183,350.176 152.5,348.5C 152.263,347.209 152.596,346.209 153.5,345.5C 155.035,344.646 156.368,344.646 157.5,345.5 Z"/></g>
<g><path style="opacity:1" fill="#dc0517" d="M 245.5,337.5 C 245.187,341.042 245.521,344.375 246.5,347.5C 246.5,348.167 246.833,348.5 247.5,348.5C 247.5,349.167 247.5,349.833 247.5,350.5C 244.482,350.665 241.482,350.498 238.5,350C 239.252,349.329 239.586,348.496 239.5,347.5C 239.5,347.167 239.5,346.833 239.5,346.5C 239.833,346.5 240.167,346.5 240.5,346.5C 240.369,347.239 240.536,347.906 241,348.5C 243.761,345.759 244.928,342.426 244.5,338.5C 244.5,337.833 244.833,337.5 245.5,337.5 Z"/></g>
<g><path style="opacity:1" fill="#de0515" d="M 274.5,344.5 C 275.158,345.398 275.824,346.398 276.5,347.5C 277.183,347.137 277.85,346.804 278.5,346.5C 278.5,347.167 278.833,347.5 279.5,347.5C 280.167,347.833 280.833,348.167 281.5,348.5C 279.012,350.388 276.012,351.055 272.5,350.5C 274.081,348.858 274.747,346.858 274.5,344.5 Z"/></g>
<g><path style="opacity:1" fill="#d70b18" d="M 316.5,344.5 C 317.345,345.671 318.011,347.005 318.5,348.5C 317.486,349.765 315.986,350.431 314,350.5C 312.014,350.431 310.514,349.765 309.5,348.5C 310.404,347.791 310.737,346.791 310.5,345.5C 311.931,345.881 312.764,346.881 313,348.5C 313.399,348.272 313.565,347.938 313.5,347.5C 314.5,347.5 315.5,347.5 316.5,347.5C 316.5,346.5 316.5,345.5 316.5,344.5 Z"/></g>
<g><path style="opacity:1" fill="#d3121d" d="M 345.5,348.5 C 345.611,349.117 345.944,349.617 346.5,350C 344.527,350.495 342.527,350.662 340.5,350.5C 339.848,349.551 339.514,348.385 339.5,347C 339.309,345.027 339.976,343.527 341.5,342.5C 342.66,344.711 343.993,346.711 345.5,348.5 Z"/></g>
<g><path style="opacity:1" fill="#db0f1d" d="M 182.5,337.5 C 182.833,337.5 183.167,337.5 183.5,337.5C 183.185,341.371 183.518,345.038 184.5,348.5C 184.167,349.167 183.833,349.833 183.5,350.5C 179.988,351.055 176.988,350.388 174.5,348.5C 175.492,348.672 176.158,348.338 176.5,347.5C 176.833,347.5 177.167,347.5 177.5,347.5C 177.791,348.649 178.624,349.316 180,349.5C 181.376,349.316 182.209,348.649 182.5,347.5C 182.5,345.5 182.5,343.5 182.5,341.5C 182.5,340.167 182.5,338.833 182.5,337.5 Z"/></g>
<g><path style="opacity:1" fill="#cf101d" d="M 254.5,345.5 C 256.256,346.552 256.923,348.219 256.5,350.5C 253.5,350.5 250.5,350.5 247.5,350.5C 247.5,349.833 247.5,349.167 247.5,348.5C 249.527,348.662 251.527,348.495 253.5,348C 254.252,347.329 254.586,346.496 254.5,345.5 Z"/></g>
<g><path style="opacity:1" fill="#bf1626" d="M 157.5,345.5 C 157.833,345.5 158.167,345.5 158.5,345.5C 158.335,347.827 157.669,349.993 156.5,352C 153.074,353.238 151.408,352.071 151.5,348.5C 151.833,348.5 152.167,348.5 152.5,348.5C 153.183,350.176 154.517,350.843 156.5,350.5C 156.366,348.708 156.699,347.042 157.5,345.5 Z"/></g>
<g><path style="opacity:0.631" fill="#c22530" d="M 174.5,348.5 C 176.988,350.388 179.988,351.055 183.5,350.5C 187.167,350.5 190.833,350.5 194.5,350.5C 187.687,351.491 180.687,351.825 173.5,351.5C 173.263,350.209 173.596,349.209 174.5,348.5 Z"/></g>
<g><path style="opacity:0.667" fill="#be2531" d="M 204.5,348.5 C 203.357,350.101 204.024,350.767 206.5,350.5C 208.03,350.36 209.03,349.693 209.5,348.5C 211.048,348.821 211.715,349.821 211.5,351.5C 208.5,351.5 205.5,351.5 202.5,351.5C 202.285,349.821 202.952,348.821 204.5,348.5 Z"/></g>
<g><path style="opacity:0.631" fill="#c21f2d" d="M 239.5,347.5 C 239.586,348.496 239.252,349.329 238.5,350C 241.482,350.498 244.482,350.665 247.5,350.5C 250.5,350.5 253.5,350.5 256.5,350.5C 256.923,348.219 256.256,346.552 254.5,345.5C 254.62,344.414 255.287,343.747 256.5,343.5C 257.167,343.833 257.833,344.167 258.5,344.5C 257.626,346.747 257.292,349.08 257.5,351.5C 250.137,351.831 242.803,351.497 235.5,350.5C 236.467,349.016 237.8,348.016 239.5,347.5 Z"/></g>
<g><path style="opacity:0.639" fill="#be2733" d="M 271.5,348.5 C 269.969,349.925 270.302,350.591 272.5,350.5C 276.012,351.055 279.012,350.388 281.5,348.5C 283.048,348.821 283.715,349.821 283.5,351.5C 278.833,351.5 274.167,351.5 269.5,351.5C 269.285,349.821 269.952,348.821 271.5,348.5 Z"/></g>
<g><path style="opacity:0.663" fill="#c72530" d="M 300.5,345.5 C 301.167,347.5 301.833,349.5 302.5,351.5C 299.833,351.5 297.167,351.5 294.5,351.5C 294.285,349.821 294.952,348.821 296.5,348.5C 297.204,350.344 298.537,350.844 300.5,350C 299.199,348.384 299.199,346.884 300.5,345.5 Z"/></g>
<g><path style="opacity:0.665" fill="#c22635" d="M 309.5,348.5 C 310.514,349.765 312.014,350.431 314,350.5C 315.986,350.431 317.486,349.765 318.5,348.5C 320.048,348.821 320.715,349.821 320.5,351.5C 316.5,351.5 312.5,351.5 308.5,351.5C 308.263,350.209 308.596,349.209 309.5,348.5 Z"/></g>
<g><path style="opacity:1" fill="#bf1925" d="M 345.5,348.5 C 346.833,348.5 348.167,348.5 349.5,348.5C 350.183,350.176 351.517,350.843 353.5,350.5C 349.185,353.061 344.852,353.061 340.5,350.5C 342.527,350.662 344.527,350.495 346.5,350C 345.944,349.617 345.611,349.117 345.5,348.5 Z"/></g>
<g><path style="opacity:0.999" fill="#17070c" d="M 184.5,361.5 C 183.081,360.549 181.415,360.216 179.5,360.5C 179.5,359.167 179.5,357.833 179.5,356.5C 181.604,356.201 183.604,356.534 185.5,357.5C 184.624,358.251 183.624,358.751 182.5,359C 183.624,359.249 184.624,359.749 185.5,360.5C 185.376,361.107 185.043,361.44 184.5,361.5 Z"/></g>
<g><path style="opacity:0.878" fill="#140709" d="M 205.5,357.5 C 211.078,355.075 213.078,356.742 211.5,362.5C 210.599,361.71 209.932,360.71 209.5,359.5C 209.5,358.833 209.167,358.5 208.5,358.5C 207.609,357.89 206.609,357.557 205.5,357.5 Z"/></g>
<g><path style="opacity:0.646" fill="#0a0405" d="M 155.5,356.5 C 157.288,356.215 158.955,356.548 160.5,357.5C 153.833,359.833 153.833,362.167 160.5,364.5C 156.525,366.418 154.192,365.251 153.5,361C 153.759,359.213 154.425,357.713 155.5,356.5 Z"/></g>
<g><path style="opacity:0.879" fill="#090508" d="M 205.5,357.5 C 206.609,357.557 207.609,357.89 208.5,358.5C 209.167,358.5 209.5,358.833 209.5,359.5C 209.932,360.71 210.599,361.71 211.5,362.5C 212.404,363.209 212.737,364.209 212.5,365.5C 211.5,365.5 210.5,365.5 209.5,365.5C 209.167,361.5 208.833,361.5 208.5,365.5C 207.5,365.5 206.5,365.5 205.5,365.5C 205.5,362.833 205.5,360.167 205.5,357.5 Z"/></g>
<g><path style="opacity:0.637" fill="#0e0708" d="M 233.5,356.5 C 234.833,356.5 236.167,356.5 237.5,356.5C 238.167,359.5 238.833,362.5 239.5,365.5C 237.857,365.52 236.524,364.853 235.5,363.5C 234.476,364.853 233.143,365.52 231.5,365.5C 232.167,362.5 232.833,359.5 233.5,356.5 Z"/></g>
<g><path style="opacity:0.8" fill="#0b0708" d="M 263.5,358.5 C 262.903,358.735 262.57,359.235 262.5,360C 263.414,361.406 264.08,362.906 264.5,364.5C 264.44,365.043 264.107,365.376 263.5,365.5C 262.262,361.689 261.596,361.689 261.5,365.5C 260.5,365.5 259.5,365.5 258.5,365.5C 258.963,362.518 259.296,359.518 259.5,356.5C 261.38,356.229 262.713,356.896 263.5,358.5 Z"/></g>
<g><path style="opacity:1" fill="#14050c" d="M 313.5,361.5 C 312.508,361.328 311.842,361.662 311.5,362.5C 310.454,356.914 312.787,355.248 318.5,357.5C 317.271,358.281 315.938,358.781 314.5,359C 313.748,359.671 313.414,360.504 313.5,361.5 Z"/></g>
<g><path style="opacity:1" fill="#090808" d="M 179.5,360.5 C 181.415,360.216 183.081,360.549 184.5,361.5C 184.082,362.222 183.416,362.722 182.5,363C 183.938,363.219 185.271,363.719 186.5,364.5C 184.257,365.474 181.924,365.808 179.5,365.5C 179.5,363.833 179.5,362.167 179.5,360.5 Z"/></g>
<g><path style="opacity:0.404" fill="#1a1818" d="M 288.5,356.5 C 289.5,356.5 290.5,356.5 291.5,356.5C 291.5,359.5 291.5,362.5 291.5,365.5C 290.5,365.5 289.5,365.5 288.5,365.5C 288.5,362.5 288.5,359.5 288.5,356.5 Z"/></g>
<g><path style="opacity:0.945" fill="#0d080a" d="M 343.5,360.5 C 342.833,360.833 342.167,361.167 341.5,361.5C 341.167,360.167 340.833,360.167 340.5,361.5C 339.833,361.5 339.167,361.5 338.5,361.5C 338.191,357.657 339.691,356.324 343,357.5C 343.483,358.448 343.649,359.448 343.5,360.5 Z"/></g>
<g><path style="opacity:0.766" fill="#040405" d="M 343.5,360.5 C 344.339,361.641 345.006,362.974 345.5,364.5C 343.956,365.622 342.623,365.289 341.5,363.5C 336.75,366.51 335.75,365.843 338.5,361.5C 339.167,361.5 339.833,361.5 340.5,361.5C 340.833,361.5 341.167,361.5 341.5,361.5C 342.167,361.167 342.833,360.833 343.5,360.5 Z"/></g>
<g><path style="opacity:1" fill="#0c0809" d="M 264.5,364.5 C 264.08,362.906 263.414,361.406 262.5,360C 262.57,359.235 262.903,358.735 263.5,358.5C 263.369,359.239 263.536,359.906 264,360.5C 264.112,357.553 265.612,356.22 268.5,356.5C 268.817,359.572 268.484,362.572 267.5,365.5C 266.749,364.624 266.249,363.624 266,362.5C 265.722,363.416 265.222,364.082 264.5,364.5 Z"/></g>
<g><path style="opacity:0.839" fill="#0b0c0c" d="M 313.5,361.5 C 314.79,362.935 316.456,363.935 318.5,364.5C 316.579,365.641 314.579,365.808 312.5,365C 311.748,364.329 311.414,363.496 311.5,362.5C 311.842,361.662 312.508,361.328 313.5,361.5 Z"/></g>
<g><path style="opacity:0.5" fill="#111111" d="M 186.5,375.5 C 185.698,374.048 185.198,372.382 185,370.5C 184.503,373.146 184.336,375.813 184.5,378.5C 183.833,378.833 183.167,379.167 182.5,379.5C 182.167,378.833 181.833,378.167 181.5,377.5C 183.369,375.365 184.036,372.698 183.5,369.5C 184.5,369.5 185.5,369.5 186.5,369.5C 186.5,371.5 186.5,373.5 186.5,375.5 Z"/></g>
<g><path style="opacity:0.176" fill="#0e0e0e" d="M 196.5,370.5 C 198.265,369.539 200.265,369.205 202.5,369.5C 202.5,371.833 202.5,374.167 202.5,376.5C 201.691,374.708 201.191,372.708 201,370.5C 200.79,372.058 200.29,373.391 199.5,374.5C 199.768,372.901 199.434,371.568 198.5,370.5C 197.833,370.5 197.167,370.5 196.5,370.5 Z"/></g>
<g><path style="opacity:0.709" fill="#030303" d="M 181.5,377.5 C 181.833,378.167 182.167,378.833 182.5,379.5C 180.833,379.5 179.167,379.5 177.5,379.5C 177.18,376.102 177.513,372.768 178.5,369.5C 180.72,371.663 181.053,374.163 179.5,377C 180.094,377.464 180.761,377.631 181.5,377.5 Z"/></g>
<g><path style="opacity:0.782" fill="#080808" d="M 207.5,377.5 C 205.126,379.727 202.459,380.06 199.5,378.5C 199.5,377.167 199.5,375.833 199.5,374.5C 200.29,373.391 200.79,372.058 201,370.5C 201.191,372.708 201.691,374.708 202.5,376.5C 202.56,377.043 202.893,377.376 203.5,377.5C 204.48,374.914 204.813,372.247 204.5,369.5C 205.5,369.5 206.5,369.5 207.5,369.5C 207.5,372.167 207.5,374.833 207.5,377.5 Z"/></g>
<g><path style="opacity:0.864" fill="#070707" d="M 220.5,375.5 C 219.295,373.862 217.962,373.529 216.5,374.5C 215.475,370.582 214.475,370.582 213.5,374.5C 213.5,373.833 213.167,373.5 212.5,373.5C 211.151,372.356 210.817,372.356 211.5,373.5C 211.082,374.222 210.416,374.722 209.5,375C 210.416,375.278 211.082,375.778 211.5,376.5C 210.596,377.209 210.263,378.209 210.5,379.5C 208.821,379.715 207.821,379.048 207.5,377.5C 208.473,375.052 208.806,372.385 208.5,369.5C 211.163,369.899 213.663,369.899 216,369.5C 217.653,369.82 218.653,370.82 219,372.5C 219.483,371.552 219.649,370.552 219.5,369.5C 220.675,369.281 221.675,369.614 222.5,370.5C 221.544,372.075 220.877,373.742 220.5,375.5 Z"/></g>
<g><path style="opacity:0.765" fill="#050304" d="M 229.5,372.5 C 229.062,372.435 228.728,372.601 228.5,373C 231.493,373.427 231.993,374.594 230,376.5C 228.893,375.288 228.393,375.621 228.5,377.5C 227.833,377.5 227.5,377.833 227.5,378.5C 226.527,376.052 226.194,373.385 226.5,370.5C 227.873,370.343 229.207,370.51 230.5,371C 229.944,371.383 229.611,371.883 229.5,372.5 Z"/></g>
<g><path style="opacity:0.724" fill="#050505" d="M 246.5,371.5 C 246.5,371.833 246.5,372.167 246.5,372.5C 244.284,372.275 242.617,373.108 241.5,375C 242.078,376.417 243.078,377.25 244.5,377.5C 244.833,378.167 245.167,378.833 245.5,379.5C 243.379,379.675 241.379,379.341 239.5,378.5C 238.454,376.118 238.454,373.785 239.5,371.5C 242.057,369.024 244.391,369.024 246.5,371.5 Z"/></g>
<g><path style="opacity:0.667" fill="#060606" d="M 253.5,378.5 C 250.828,379.26 248.162,379.594 245.5,379.5C 245.167,378.833 244.833,378.167 244.5,377.5C 246.256,376.448 246.923,374.781 246.5,372.5C 246.5,372.167 246.5,371.833 246.5,371.5C 247.151,370.909 247.818,370.243 248.5,369.5C 249.48,372.086 249.813,374.753 249.5,377.5C 250.959,377.433 252.292,377.766 253.5,378.5 Z"/></g>
<g><path style="opacity:0.776" fill="#030303" d="M 255.5,376.5 C 255.557,377.609 255.89,378.609 256.5,379.5C 255.391,379.443 254.391,379.11 253.5,378.5C 253.183,375.428 253.516,372.428 254.5,369.5C 255.308,369.808 255.975,370.308 256.5,371C 256.31,372.828 255.977,374.662 255.5,376.5 Z"/></g>
<g><path style="opacity:0.645" fill="#070605" d="M 256.5,379.5 C 255.89,378.609 255.557,377.609 255.5,376.5C 256.648,377.895 257.648,377.728 258.5,376C 258.056,374.467 257.723,372.967 257.5,371.5C 257.833,370.5 258.5,369.833 259.5,369.5C 260.655,372.446 260.821,375.446 260,378.5C 258.989,379.337 257.822,379.67 256.5,379.5 Z"/></g>
<g><path style="opacity:0.76" fill="#090807" d="M 262.5,369.5 C 264.167,369.5 265.833,369.5 267.5,369.5C 267.5,370.5 267.5,371.5 267.5,372.5C 263.757,372.459 263.59,373.126 267,374.5C 267.494,376.134 267.66,377.801 267.5,379.5C 265.396,379.799 263.396,379.466 261.5,378.5C 266.639,377.803 266.805,376.47 262,374.5C 261.36,372.735 261.527,371.068 262.5,369.5 Z"/></g>
<g><path style="opacity:0.765" fill="#080506" d="M 276.5,370.5 C 278.027,370.427 279.027,371.094 279.5,372.5C 278.388,374.599 277.721,376.933 277.5,379.5C 276.167,379.5 274.833,379.5 273.5,379.5C 273.567,378.041 273.234,376.708 272.5,375.5C 273.167,374.833 273.833,374.167 274.5,373.5C 275.117,373.611 275.617,373.944 276,374.5C 276.49,373.207 276.657,371.873 276.5,370.5 Z"/></g>
<g><path style="opacity:0.822" fill="#070707" d="M 299.5,377.5 C 298.883,377.611 298.383,377.944 298,378.5C 297.802,376.618 297.302,374.952 296.5,373.5C 296.5,372.167 296.5,370.833 296.5,369.5C 297.5,369.5 298.5,369.5 299.5,369.5C 299.5,372.167 299.5,374.833 299.5,377.5 Z"/></g>
<g><path style="opacity:1" fill="#0e0c0d" d="M 276.5,370.5 C 279.287,369.523 282.287,369.19 285.5,369.5C 285.5,370.5 285.5,371.5 285.5,372.5C 284.448,372.351 283.448,372.517 282.5,373C 283.737,373.232 284.737,373.732 285.5,374.5C 283.114,374.259 281.114,374.925 279.5,376.5C 279.5,375.167 279.5,373.833 279.5,372.5C 279.027,371.094 278.027,370.427 276.5,370.5 Z"/></g>
<g><path style="opacity:0.348" fill="#101010" d="M 313.5,373.5 C 312.033,370.742 311.367,371.075 311.5,374.5C 310.208,370.561 311.875,368.895 316.5,369.5C 316.5,370.5 316.5,371.5 316.5,372.5C 315.209,372.263 314.209,372.596 313.5,373.5 Z"/></g>
<g><path style="opacity:0.145" fill="#0d0d0d" d="M 320.5,373.5 C 319.778,373.082 319.278,372.416 319,371.5C 318.617,372.056 318.117,372.389 317.5,372.5C 317.414,371.504 317.748,370.671 318.5,370C 320.134,369.506 321.801,369.34 323.5,369.5C 323.5,370.5 323.5,371.5 323.5,372.5C 322.209,372.263 321.209,372.596 320.5,373.5 Z"/></g>
<g><path style="opacity:0.818" fill="#050505" d="M 194.5,370.5 C 194.938,371.506 195.604,371.506 196.5,370.5C 197.167,370.5 197.833,370.5 198.5,370.5C 198.249,372.17 197.582,373.67 196.5,375C 197.636,376.145 198.636,377.312 199.5,378.5C 197.847,379.799 196.347,379.466 195,377.5C 193.624,380.125 192.458,380.125 191.5,377.5C 193.805,375.955 194.138,373.955 192.5,371.5C 192.842,370.662 193.508,370.328 194.5,370.5 Z"/></g>
<g><path style="opacity:0.9" fill="#0a0a09" d="M 291.5,369.5 C 292.833,369.5 294.167,369.5 295.5,369.5C 295.5,370.5 295.5,371.5 295.5,372.5C 294.167,372.5 292.833,372.5 291.5,372.5C 290.843,375.841 292.176,377.841 295.5,378.5C 290.039,380.208 287.872,378.208 289,372.5C 290.045,371.627 290.878,370.627 291.5,369.5 Z"/></g>
<g><path style="opacity:0.711" fill="#020202" d="M 220.5,375.5 C 220.5,376.833 220.5,378.167 220.5,379.5C 219.5,379.5 218.5,379.5 217.5,379.5C 217.634,377.708 217.301,376.042 216.5,374.5C 217.962,373.529 219.295,373.862 220.5,375.5 Z"/></g>
<g><path style="opacity:0.764" fill="#060505" d="M 239.5,371.5 C 238.163,372.315 237.163,373.482 236.5,375C 237.636,376.145 238.636,377.312 239.5,378.5C 237.847,379.799 236.347,379.466 235,377.5C 232.894,379.291 230.394,379.958 227.5,379.5C 227.5,379.167 227.5,378.833 227.5,378.5C 227.5,377.833 227.833,377.5 228.5,377.5C 229.822,377.33 230.989,377.663 232,378.5C 234.066,375.914 233.9,373.581 231.5,371.5C 232.348,370.375 233.348,370.375 234.5,371.5C 235.531,370.645 236.697,369.978 238,369.5C 239.03,369.836 239.53,370.503 239.5,371.5 Z"/></g>
<g><path style="opacity:0.89" fill="#090909" d="M 313.5,373.5 C 315.833,373.833 317.167,375.167 317.5,377.5C 316.778,378.551 315.778,379.218 314.5,379.5C 313.5,378.833 312.5,378.167 311.5,377.5C 312.552,377.649 313.552,377.483 314.5,377C 313.429,376.148 312.429,375.315 311.5,374.5C 311.367,371.075 312.033,370.742 313.5,373.5 Z"/></g>
<g><path style="opacity:0.7" fill="#080808" d="M 320.5,373.5 C 323.244,374.072 324.077,375.738 323,378.5C 320.661,380.078 318.828,379.745 317.5,377.5C 318.873,377.657 320.207,377.49 321.5,377C 319.249,376.252 317.916,374.752 317.5,372.5C 318.117,372.389 318.617,372.056 319,371.5C 319.278,372.416 319.778,373.082 320.5,373.5 Z"/></g>
<g><path style="opacity:0.824" fill="#090909" d="M 308.5,373.5 C 307.833,373.833 307.167,374.167 306.5,374.5C 305.167,374.833 305.167,375.167 306.5,375.5C 306.833,376.167 307.167,376.833 307.5,377.5C 305.989,378.502 304.322,379.169 302.5,379.5C 303.506,378.604 303.506,377.938 302.5,377.5C 303.475,374.933 304.142,372.267 304.5,369.5C 307.5,369.167 308.833,370.5 308.5,373.5 Z"/></g>
<g><path style="opacity:0.739" fill="#070707" d="M 186.5,375.5 C 186.5,376.833 187.167,377.5 188.5,377.5C 189.506,377.938 189.506,378.604 188.5,379.5C 186.901,379.768 185.568,379.434 184.5,378.5C 184.336,375.813 184.503,373.146 185,370.5C 185.198,372.382 185.698,374.048 186.5,375.5 Z"/></g>
<g><path style="opacity:0.693" fill="#0d0d0d" d="M 194.5,370.5 C 193.508,370.328 192.842,370.662 192.5,371.5C 191.539,373.265 191.205,375.265 191.5,377.5C 190.778,378.551 189.778,379.218 188.5,379.5C 189.506,378.604 189.506,377.938 188.5,377.5C 188.5,374.833 188.5,372.167 188.5,369.5C 190.735,369.205 192.735,369.539 194.5,370.5 Z"/></g>
<g><path style="opacity:0.63" fill="#040404" d="M 211.5,373.5 C 211.833,373.5 212.167,373.5 212.5,373.5C 213.167,373.5 213.5,373.833 213.5,374.5C 214.153,375.807 214.82,377.14 215.5,378.5C 213.463,379.602 212.13,378.935 211.5,376.5C 211.082,375.778 210.416,375.278 209.5,375C 210.416,374.722 211.082,374.222 211.5,373.5 Z"/></g>
<g><path style="opacity:0.665" fill="#0f0d0e" d="M 234.5,371.5 C 233.348,370.375 232.348,370.375 231.5,371.5C 231.158,372.338 230.492,372.672 229.5,372.5C 229.611,371.883 229.944,371.383 230.5,371C 229.207,370.51 227.873,370.343 226.5,370.5C 226.194,373.385 226.527,376.052 227.5,378.5C 227.5,378.833 227.5,379.167 227.5,379.5C 225.598,376.663 224.931,373.329 225.5,369.5C 229.012,368.945 232.012,369.612 234.5,371.5 Z"/></g>
<g><path style="opacity:0.976" fill="#0b0a09" d="M 274.5,373.5 C 273.833,374.167 273.167,374.833 272.5,375.5C 272.649,374.448 272.483,373.448 272,372.5C 271.503,374.81 271.337,377.143 271.5,379.5C 270.5,379.5 269.5,379.5 268.5,379.5C 268.5,376.167 268.5,372.833 268.5,369.5C 270.5,369.5 272.5,369.5 274.5,369.5C 274.5,370.833 274.5,372.167 274.5,373.5 Z"/></g>
<g><path style="opacity:1" fill="#080607" d="M 285.5,374.5 C 284.781,376.317 283.781,376.984 282.5,376.5C 283.833,377.167 285.167,377.833 286.5,378.5C 284.257,379.474 281.924,379.808 279.5,379.5C 279.5,378.5 279.5,377.5 279.5,376.5C 281.114,374.925 283.114,374.259 285.5,374.5 Z"/></g>
<g><path style="opacity:0.514" fill="#0d0d0c" d="M 296.5,373.5 C 297.302,374.952 297.802,376.618 298,378.5C 298.383,377.944 298.883,377.611 299.5,377.5C 300.5,377.5 301.5,377.5 302.5,377.5C 303.506,377.938 303.506,378.604 302.5,379.5C 300.5,379.5 298.5,379.5 296.5,379.5C 296.5,377.5 296.5,375.5 296.5,373.5 Z"/></g>
<g><path style="opacity:1" fill="#030303" d="M 308.5,373.5 C 309.022,375.219 310.022,376.552 311.5,377.5C 312.5,378.167 313.5,378.833 314.5,379.5C 311.612,380.01 309.279,379.344 307.5,377.5C 307.167,376.833 306.833,376.167 306.5,375.5C 306.5,375.167 306.5,374.833 306.5,374.5C 307.167,374.167 307.833,373.833 308.5,373.5 Z"/></g>
</svg>
