<?xml version="1.0" encoding="UTF-8"?>
<svg version="1.1" xmlns="http://www.w3.org/2000/svg" width="594" height="420">
<path d="M0 0 C3.58828367 1.19609456 3.79113539 1.8934932 5.5 5.125 C6.10328125 6.24261719 6.10328125 6.24261719 6.71875 7.3828125 C7.67647458 9.33914016 8.56696818 11.32863698 9.421875 13.33203125 C11.06630296 17.15410515 12.87127009 20.85237608 14.75 24.5625 C15.09998047 25.25867432 15.44996094 25.95484863 15.81054688 26.67211914 C17.46799969 29.9686669 19.13230265 33.26172915 20.796875 36.5546875 C24.36481383 43.64146508 27.81198647 50.77158125 31.16015625 57.96459961 C33.3609459 62.68504332 35.65410618 67.34982467 38 72 C34.64047644 73.11984119 32.33089543 73.028066 28.80078125 72.87890625 C27.59228516 72.83056641 26.38378906 72.78222656 25.13867188 72.73242188 C23.87603516 72.67634766 22.61339844 72.62027344 21.3125 72.5625 C20.03826172 72.51029297 18.76402344 72.45808594 17.45117188 72.40429688 C14.30057275 72.27449691 11.15025542 72.13788997 8 72 C6.02 67.71 4.04 63.42 2 59 C1.34 59 0.68 59 0 59 C-0.42667969 59.85464844 -0.85335937 60.70929688 -1.29296875 61.58984375 C-2.39554343 63.79247006 -3.50203995 65.99313957 -4.61328125 68.19140625 C-8.57761645 76.05628275 -12.36191907 83.97756513 -16 92 C-7.28842026 97.89312747 5.91956914 97.0711421 16.046875 95.5390625 C22.26241506 93.85651185 29.39919314 90.60080686 34 86 C36.59359322 85.91148471 39.16039691 85.88474055 41.75390625 85.90234375 C42.52935287 85.9037587 43.3047995 85.90517365 44.10374451 85.90663147 C46.59003494 85.91224655 49.0762366 85.92480154 51.5625 85.9375 C53.24413933 85.94251306 54.92578006 85.9470763 56.60742188 85.95117188 C60.73831566 85.96222087 64.86914276 85.97949555 69 86 C63.55067715 99.82621502 51.50072878 110.84442296 38 117 C32.75983377 118.99291693 27.40690726 120.53193604 22 122 C21.113125 122.24878906 20.22625 122.49757813 19.3125 122.75390625 C3.57456952 126.55546716 -13.07924516 123.49712021 -28 118 C-28.33 118.66 -28.66 119.32 -29 120 C-29.66 120 -30.32 120 -31 120 C-31.27255615 120.8770459 -31.5451123 121.7540918 -31.82592773 122.65771484 C-32.92779852 125.79446074 -34.21724099 128.55079259 -35.78515625 131.4765625 C-36.31560547 132.476875 -36.84605469 133.4771875 -37.39257812 134.5078125 C-37.94365234 135.53648437 -38.49472656 136.56515625 -39.0625 137.625 C-40.16153777 139.67755835 -41.25675747 141.73216687 -42.34765625 143.7890625 C-42.83242432 144.69350098 -43.31719238 145.59793945 -43.81665039 146.52978516 C-44.86212258 148.7121841 -45.52835071 150.63727479 -46 153 C-46.66 153 -47.32 153 -48 153 C-48 153.66 -48 154.32 -48 155 C-57.24 155 -66.48 155 -76 155 C-75.1262323 149.75739382 -73.83250571 146.14503446 -71.4375 141.5625 C-70.90286133 140.51642578 -70.90286133 140.51642578 -70.35742188 139.44921875 C-67.63388561 134.14574215 -64.82125405 128.88963022 -61.99951172 123.63793945 C-56.92684144 114.17265761 -52.17981625 104.55520138 -47.64208984 94.82299805 C-44.63066579 88.3681992 -41.56174389 82.07247254 -37.9375 75.9375 C-34.49713631 70.09024156 -31.75161988 64.10556158 -29.06787109 57.88037109 C-26.46895118 51.90878774 -23.53041773 46.1929397 -20.42822266 40.4699707 C-17.58097801 35.18493301 -14.97226914 29.81617326 -12.4375 24.375 C-8.5752468 16.08784856 -4.39678206 8.0148425 0 0 Z " fill="#07639B" transform="translate(132,141)"/>
<path d="M0 0 C1.01835937 0.62261719 2.03671875 1.24523437 3.0859375 1.88671875 C14.59562792 9.57495028 23.69270522 21.86945777 28 35 C25.3770471 37.6229529 18.25795103 36.27440674 14.69921875 36.29516602 C12.6399471 36.31237509 10.58228297 36.35624432 8.5234375 36.40039062 C7.22921875 36.40876953 5.935 36.41714844 4.6015625 36.42578125 C3.40869629 36.44036377 2.21583008 36.45494629 0.98681641 36.4699707 C-2 36 -2 36 -3.91259766 34.09838867 C-5 32 -5 32 -5 30 C-5.83337891 29.61521484 -5.83337891 29.61521484 -6.68359375 29.22265625 C-10.24731653 27.34163563 -13.39998907 24.91669963 -16.66015625 22.55859375 C-18.99411708 20.85599119 -18.99411708 20.85599119 -22 20 C-22 19.34 -22 18.68 -22 18 C-23.39567835 17.68680856 -24.79155082 17.37448212 -26.1875 17.0625 C-26.96480469 16.88847656 -27.74210937 16.71445313 -28.54296875 16.53515625 C-29.35378906 16.35855469 -30.16460937 16.18195313 -31 16 C-31.79019531 15.81953125 -32.58039063 15.6390625 -33.39453125 15.453125 C-47.94916431 12.92188447 -61.04190239 16.68606718 -73 25 C-82.80882747 31.92387821 -88.46505336 42.94443761 -91.6484375 54.31640625 C-92.04693187 57.35824662 -91.95479159 60.22042963 -91.83178711 63.27954102 C-91.52176912 72.17011648 -92.47411283 78.20886089 -97 86 C-97.78476762 87.47853777 -98.5628591 88.9606294 -99.3359375 90.4453125 C-101.52602046 94.64748275 -103.75458564 98.82714935 -106 103 C-109.82763672 102.23291016 -109.82763672 102.23291016 -111.37890625 100.13671875 C-121.396803 79.40661557 -121.25108196 55.80108556 -114.25390625 34.1640625 C-106.90059446 15.60897666 -90.91004711 1.18915253 -73.26171875 -7.3203125 C-49.35556132 -17.35866787 -21.35607906 -13.87895067 0 0 Z " fill="#0773B1" transform="translate(179,125)"/>
<path d="M0 0 C1.20850616 0.00328812 2.41701233 0.00657623 3.66213989 0.00996399 C6.20547913 0.02035642 8.74879517 0.04025773 11.29199219 0.0690918 C15.20260515 0.11336381 19.11260436 0.13055913 23.0234375 0.14257812 C25.49480062 0.15599411 27.96615612 0.17091484 30.4375 0.1875 C31.61343719 0.19488693 32.78937439 0.20227386 34.00094604 0.20988464 C35.07941803 0.22271988 36.15789001 0.23555511 37.26904297 0.2487793 C38.22277802 0.2586235 39.17651306 0.26846771 40.15914917 0.27861023 C42.3203125 0.42578125 42.3203125 0.42578125 43.3203125 1.42578125 C43.453125 3.23828125 43.453125 3.23828125 43.4453125 5.42578125 C43.44917969 6.50859375 43.44917969 6.50859375 43.453125 7.61328125 C43.3203125 9.42578125 43.3203125 9.42578125 42.3203125 10.42578125 C40.781791 10.53277613 39.2384836 10.5719941 37.69628906 10.58349609 C36.71146545 10.59375824 35.72664185 10.60402039 34.7119751 10.61459351 C33.10271149 10.6255455 33.10271149 10.6255455 31.4609375 10.63671875 C29.20832614 10.66479312 26.95572207 10.69345762 24.703125 10.72265625 C21.13704677 10.7639053 17.57110382 10.8007754 14.00488281 10.82714844 C10.57327802 10.85475358 7.14230081 10.90063535 3.7109375 10.94921875 C2.64619202 10.95247162 1.58144653 10.95572449 0.48443604 10.95907593 C-6.70178207 10.91535131 -6.70178207 10.91535131 -12.6796875 14.42578125 C-14.6596875 17.39578125 -16.6396875 20.36578125 -18.6796875 23.42578125 C1.4503125 23.42578125 21.5803125 23.42578125 42.3203125 23.42578125 C43.44287381 25.67090387 43.45445012 26.94034774 43.4453125 29.42578125 C43.44917969 30.47765625 43.44917969 30.47765625 43.453125 31.55078125 C43.3203125 33.42578125 43.3203125 33.42578125 42.3203125 35.42578125 C22.5203125 35.75578125 2.7203125 36.08578125 -17.6796875 36.42578125 C-14.32443941 43.28160076 -14.32443941 43.28160076 -8.6796875 46.42578125 C-4.80884138 46.86494884 -0.96309998 46.89069043 2.9296875 46.90234375 C4.05223938 46.91792328 5.17479126 46.93350281 6.33135986 46.94955444 C9.91100398 46.99703768 13.49045293 47.02483676 17.0703125 47.05078125 C20.664318 47.0872248 24.25821168 47.12776983 27.85211182 47.1734314 C30.08784447 47.20074257 32.32365954 47.22205675 34.55950928 47.23696899 C36.06677582 47.25236221 36.06677582 47.25236221 37.60449219 47.26806641 C38.49320007 47.27456207 39.38190796 47.28105774 40.29754639 47.28775024 C42.3203125 47.42578125 42.3203125 47.42578125 43.3203125 48.42578125 C43.55911847 55.94816931 43.55911847 55.94816931 42.3203125 58.42578125 C35.4194009 58.52798436 28.51868758 58.59758073 21.6171875 58.64550781 C19.27401435 58.66550736 16.93089036 58.69271602 14.58789062 58.72753906 C11.20169879 58.7765725 7.81617209 58.79886746 4.4296875 58.81640625 C3.39793396 58.83705139 2.36618042 58.85769653 1.30316162 58.87896729 C-6.31398402 58.88126831 -12.60394284 57.19673656 -19.6796875 54.42578125 C-19.6796875 53.76578125 -19.6796875 53.10578125 -19.6796875 52.42578125 C-20.6696875 52.09578125 -21.6596875 51.76578125 -22.6796875 51.42578125 C-28.86845321 45.04361661 -30.24591816 37.58507474 -30.1796875 29.05078125 C-30.17541748 28.21659668 -30.17114746 27.38241211 -30.16674805 26.52294922 C-29.93829915 18.2455111 -27.54971929 12.90003026 -22.3046875 6.55078125 C-14.75641691 0.44027649 -9.59162182 -0.14429638 0 0 Z " fill="#334346" transform="translate(411.6796875,168.57421875)"/>
<path d="M0 0 C1.33519067 0.01120734 2.67040621 0.01974026 4.00563049 0.02572632 C7.49972085 0.04850538 10.99228614 0.10732745 14.48577881 0.1739502 C18.05866876 0.23561315 21.63180808 0.26279203 25.20507812 0.29296875 C32.20114262 0.35708654 39.19620098 0.45932875 46.19140625 0.5859375 C46.19140625 3.8859375 46.19140625 7.1859375 46.19140625 10.5859375 C17.97640625 11.0809375 17.97640625 11.0809375 -10.80859375 11.5859375 C-13.05313834 15.15570719 -13.05313834 15.15570719 -12.55859375 17.6484375 C-11.78373714 19.85823042 -11.78373714 19.85823042 -9.80859375 22.5859375 C-7.76453123 23.03367591 -7.76453123 23.03367591 -5.37817383 22.95483398 C-4.45994339 22.96171738 -3.54171295 22.96860077 -2.59565735 22.97569275 C-1.59987167 22.96953445 -0.604086 22.96337616 0.421875 22.95703125 C2.52539218 22.97442287 4.62890776 22.99200715 6.73242188 23.00976562 C10.05252109 23.01981836 13.37251319 23.0234408 16.69262695 23.02172852 C19.89436752 23.02530961 23.09528193 23.052706 26.296875 23.08203125 C27.28253952 23.07384872 28.26820404 23.0656662 29.28373718 23.05723572 C35.45897325 23.12358742 39.1374303 23.97147887 44.19140625 27.5859375 C45.71484375 29.4375 45.71484375 29.4375 46.56640625 31.2109375 C47.43139744 33.00745766 48.29970064 34.80252629 49.19140625 36.5859375 C49.83657018 42.67777385 49.09506943 47.20878346 46.19140625 52.5859375 C42.47076417 56.83035969 37.8137737 58.3522108 32.31420898 58.84237671 C28.92525035 58.93227894 25.55000967 58.92325077 22.16015625 58.87890625 C20.31266785 58.87253899 20.31266785 58.87253899 18.42785645 58.86604309 C14.51547881 58.84932499 10.60362676 58.81168412 6.69140625 58.7734375 C4.02995546 58.75668202 1.3685096 58.74469505 -1.29296875 58.73242188 C-7.79837788 58.69944374 -14.30339687 58.64770773 -20.80859375 58.5859375 C-20.80859375 54.9559375 -20.80859375 51.3259375 -20.80859375 47.5859375 C-19.12789795 47.5765918 -17.44720215 47.56724609 -15.71557617 47.55761719 C-10.16334718 47.52210031 -4.61149688 47.46830969 0.94044971 47.40203476 C4.30675523 47.36252005 7.67279764 47.33035181 11.03930664 47.31494141 C14.9094546 47.2935869 18.77859035 47.24697234 22.6484375 47.1953125 C23.85788528 47.19408386 25.06733307 47.19285522 26.31343079 47.19158936 C27.99483406 47.16201141 27.99483406 47.16201141 29.71020508 47.13183594 C31.1924633 47.11851227 31.1924633 47.11851227 32.70466614 47.10491943 C35.32232904 46.79628484 35.32232904 46.79628484 37.04960632 44.7197876 C38.44100266 42.590921 38.44100266 42.590921 37.94140625 39.8984375 C37.40519667 37.64823781 37.40519667 37.64823781 36.19140625 36.5859375 C34.81675655 36.47943082 33.43682673 36.43976224 32.05810547 36.42822266 C31.179841 36.41796051 30.30157654 36.40769836 29.396698 36.39712524 C28.4394986 36.38982391 27.48229919 36.38252258 26.49609375 36.375 C24.48046086 36.34691513 22.46483597 36.31825057 20.44921875 36.2890625 C17.2630245 36.24789973 14.07697715 36.21102527 10.890625 36.18457031 C7.82129688 36.15685845 4.75265513 36.11096661 1.68359375 36.0625 C0.73853973 36.05924713 -0.20651428 36.05599426 -1.1802063 36.05264282 C-6.82634829 35.94838627 -10.77941738 35.18198825 -15.80859375 32.5859375 C-16.46859375 32.2559375 -17.12859375 31.9259375 -17.80859375 31.5859375 C-17.80859375 30.9259375 -17.80859375 30.2659375 -17.80859375 29.5859375 C-18.46859375 29.5859375 -19.12859375 29.5859375 -19.80859375 29.5859375 C-23.20369774 23.75060252 -24.81739249 19.35749906 -23.80859375 12.5859375 C-19.84894821 0.70700089 -11.23074689 -0.27249953 0 0 Z " fill="#334247" transform="translate(488.80859375,168.4140625)"/>
<path d="M0 0 C16.23069818 -0.16043524 16.23069818 -0.16043524 23.16796875 -0.1953125 C27.89520302 -0.21919167 32.62212633 -0.24739076 37.34912109 -0.30175781 C41.16169001 -0.34533152 44.97392532 -0.36916124 48.78672409 -0.37950897 C50.23876571 -0.38687981 51.69078979 -0.40127356 53.14268875 -0.42292023 C55.18227333 -0.45210976 57.22049289 -0.45594986 59.26025391 -0.45410156 C60.99899277 -0.46742523 60.99899277 -0.46742523 62.77285767 -0.48101807 C68.09349837 0.31204404 71.12782198 2.84495344 74.3125 7.0625 C77.49871215 12.6088693 77.62332011 17.73168225 77 24 C75.23720114 29.41934736 71.42052875 32.68460344 67 36 C67.34786708 37.97536745 67.34786708 37.97536745 68 40 C68.66 40.33 69.32 40.66 70 41 C70.93518276 42.66996922 71.86764198 44.34156819 72.78125 46.0234375 C74.48518412 48.78686912 76.60524022 51.06693766 78.828125 53.421875 C80 55 80 55 80 58 C68.56953429 59.22105865 68.56953429 59.22105865 64.80078125 56.2890625 C61 51.19067797 61 51.19067797 61 48 C60.34 48 59.68 48 59 48 C59 47.01 59 46.02 59 45 C58.34 45 57.68 45 57 45 C56.49629883 44.02659668 55.99259766 43.05319336 55.47363281 42.05029297 C53.41210339 38.91565097 53.41210339 38.91565097 51.01989746 38.42486572 C48.47255603 38.20854927 45.97836905 38.16942475 43.421875 38.1953125 C42.4953009 38.18160614 41.56872681 38.16789978 40.61407471 38.15377808 C37.65889135 38.11643102 34.70538616 38.12019606 31.75 38.125 C29.74476534 38.10687651 27.73955297 38.08607492 25.734375 38.0625 C20.82193314 38.00556773 15.91389926 38.00424344 11 38 C11 44.6 11 51.2 11 58 C7.37 58 3.74 58 0 58 C0 38.86 0 19.72 0 0 Z M11 10 C11 15.61 11 21.22 11 27 C17.72604977 27.0742768 24.4518596 27.12866276 31.17822266 27.16479492 C33.46537435 27.17986116 35.75249725 27.20031797 38.03955078 27.22631836 C41.33112707 27.26279606 44.62232062 27.27974834 47.9140625 27.29296875 C49.44252304 27.31619453 49.44252304 27.31619453 51.00186157 27.33988953 C56.40576773 27.34116431 60.36931283 27.13818328 65 24 C66.53540791 20.66185869 66.32013015 17.10590417 65.3125 13.625 C63.69220834 11.61892461 62.38455926 10.9769865 60 10 C57.61813077 9.71300084 57.61813077 9.71300084 55.04785156 9.77294922 C54.06713684 9.77310028 53.08642212 9.77325134 52.07598877 9.77340698 C51.02481873 9.78372955 49.97364868 9.79405212 48.890625 9.8046875 C47.26770538 9.80893234 47.26770538 9.80893234 45.61199951 9.81326294 C42.15788696 9.82445391 38.70403412 9.8495568 35.25 9.875 C32.90755583 9.88503119 30.56510759 9.8941568 28.22265625 9.90234375 C22.48167083 9.92438975 16.74087944 9.95891245 11 10 Z " fill="#27383C" transform="translate(221,169)"/>
<path d="M0 0 C1.51400391 0.01740234 1.51400391 0.01740234 3.05859375 0.03515625 C4.07050781 0.04417969 5.08242188 0.05320313 6.125 0.0625 C7.29869141 0.07990234 7.29869141 0.07990234 8.49609375 0.09765625 C8.51067627 1.19231201 8.52525879 2.28696777 8.5402832 3.41479492 C8.59838114 7.4872253 8.67561302 11.5591094 8.75854492 15.63110352 C8.79174029 17.3914298 8.81978899 19.15186113 8.8425293 20.91235352 C8.87617495 23.4472315 8.92849435 25.98115148 8.984375 28.515625 C8.99076492 29.29914841 8.99715485 30.08267181 9.0037384 30.88993835 C9.16596818 36.95805827 10.58707407 39.88242373 14.45800781 44.37426758 C19.17885577 47.05222207 23.76710576 46.6812507 29.10546875 46.671875 C30.22802063 46.68603958 31.35057251 46.70020416 32.50714111 46.71479797 C36.08688995 46.75669342 39.66613419 46.77194341 43.24609375 46.78515625 C46.84010163 46.81416725 50.43398026 46.84863833 54.02789307 46.88764954 C56.26363281 46.91022108 58.49945302 46.92598894 60.73529053 46.93449402 C61.74013489 46.94152847 62.74497925 46.94856293 63.78027344 46.95581055 C64.66898132 46.95929001 65.55768921 46.96276947 66.47332764 46.96635437 C68.49609375 47.09765625 68.49609375 47.09765625 69.49609375 48.09765625 C69.59399945 49.59503749 69.62584239 51.09708517 69.62109375 52.59765625 C69.62496094 53.8196875 69.62496094 53.8196875 69.62890625 55.06640625 C69.49609375 57.09765625 69.49609375 57.09765625 68.49609375 58.09765625 C66.98416086 58.20648335 65.46721223 58.24669615 63.95141602 58.25878906 C62.98273087 58.26839661 62.01404572 58.27800415 61.01600647 58.28790283 C59.43027077 58.29427765 59.43027077 58.29427765 57.8125 58.30078125 C56.18549416 58.30933136 56.18549416 58.30933136 54.52561951 58.3180542 C52.21964499 58.32752666 49.91365679 58.33404704 47.60766602 58.33789062 C44.1047328 58.34752929 40.60240302 58.37850376 37.09960938 58.41015625 C34.8580764 58.41669282 32.61653922 58.42194072 30.375 58.42578125 C29.33606094 58.43812805 28.29712189 58.45047485 27.22669983 58.4631958 C19.47998991 58.43987848 11.48611582 57.68784287 5.12109375 52.84765625 C-4.10082398 43.18659958 -3.81943075 31.36907032 -3.7097168 18.72631836 C-3.69118088 16.50818669 -3.68920955 14.29046753 -3.68945312 12.07226562 C-3.64792588 0.1422748 -3.64792588 0.1422748 0 0 Z " fill="#303F43" transform="translate(311.50390625,168.90234375)"/>
<path d="M0 0 C6.92379219 -0.06880471 13.8464022 -0.12855952 20.77026367 -0.16479492 C23.12642431 -0.17989747 25.48255677 -0.20038091 27.83862305 -0.22631836 C31.22191312 -0.26263656 34.60483208 -0.27971167 37.98828125 -0.29296875 C39.57277824 -0.31619453 39.57277824 -0.31619453 41.18928528 -0.33988953 C42.66047066 -0.34022942 42.66047066 -0.34022942 44.16137695 -0.34057617 C45.45710381 -0.35056892 45.45710381 -0.35056892 46.77900696 -0.36076355 C49.48034668 0.07802437 50.37935309 0.82975586 52 3 C52 3.66 52 4.32 52 5 C52.66 5 53.32 5 54 5 C56.13456603 10.22251532 56.27189646 14.77342723 56.1875 20.3125 C56.18685547 21.13556641 56.18621094 21.95863281 56.18554688 22.80664062 C56.14063798 28.85936202 56.14063798 28.85936202 55 30 C53.33382885 30.04063832 51.66611905 30.042721 50 30 C48.20321695 26.40643391 49.00972119 21.91308226 49.12695312 17.94140625 C49.22921494 12.64927712 49.22921494 12.64927712 47 8 C43.95786733 6.47893366 40.71952428 6.62570662 37.375 6.4375 C36.66859375 6.39431641 35.9621875 6.35113281 35.234375 6.30664062 C33.48981463 6.20055249 31.74493303 6.09977111 30 6 C30.05329468 6.98395752 30.05329468 6.98395752 30.10766602 7.98779297 C30.26493583 10.94992662 30.4138205 13.91242329 30.5625 16.875 C30.61857422 17.90753906 30.67464844 18.94007813 30.73242188 20.00390625 C30.78076172 20.99003906 30.82910156 21.97617188 30.87890625 22.9921875 C30.9260376 23.90339355 30.97316895 24.81459961 31.02172852 25.75341797 C31 28 31 28 30 30 C28.02 30 26.04 30 24 30 C22.7736243 27.54724859 22.88584686 25.9494219 22.90234375 23.2109375 C22.90556641 22.26992188 22.90878906 21.32890625 22.91210938 20.359375 C22.92048828 19.37453125 22.92886719 18.3896875 22.9375 17.375 C22.94201172 16.38242188 22.94652344 15.38984375 22.95117188 14.3671875 C22.96297839 11.91143278 22.98091418 9.45570894 23 7 C17.72 6.67 12.44 6.34 7 6 C7 13.92 7 21.84 7 30 C4.69 30 2.38 30 0 30 C0 20.1 0 10.2 0 0 Z " fill="#2F3E42" transform="translate(385,234)"/>
<path d="M0 0 C1.33519067 0.01120734 2.67040621 0.01974026 4.00563049 0.02572632 C7.49972085 0.04850538 10.99228614 0.10732745 14.48577881 0.1739502 C18.05866876 0.23561315 21.63180808 0.26279203 25.20507812 0.29296875 C32.20114262 0.35708654 39.19620098 0.45932875 46.19140625 0.5859375 C46.19140625 3.8859375 46.19140625 7.1859375 46.19140625 10.5859375 C17.97640625 11.0809375 17.97640625 11.0809375 -10.80859375 11.5859375 C-11.46859375 12.9059375 -12.12859375 14.2259375 -12.80859375 15.5859375 C-14.45403155 17.27356601 -16.12147952 18.9399724 -17.80859375 20.5859375 C-18.36546875 21.3490625 -18.92234375 22.1121875 -19.49609375 22.8984375 C-19.92921875 23.4553125 -20.36234375 24.0121875 -20.80859375 24.5859375 C-21.46859375 24.5859375 -22.12859375 24.5859375 -22.80859375 24.5859375 C-24.51833055 19.4567271 -24.4547697 14.52446534 -22.74609375 9.3984375 C-16.48855056 0.31490706 -10.7671998 -0.26125216 0 0 Z " fill="#213135" transform="translate(488.80859375,168.4140625)"/>
<path d="M0 0 C4.06236402 -0.08729047 8.12448589 -0.14048992 12.1875 -0.1875 C13.91323242 -0.22520508 13.91323242 -0.22520508 15.67382812 -0.26367188 C17.34155273 -0.27817383 17.34155273 -0.27817383 19.04296875 -0.29296875 C20.06414795 -0.3086792 21.08532715 -0.32438965 22.13745117 -0.34057617 C25.51296387 0.06103067 27.31338916 0.93474253 30 3 C32.17112056 6.08669262 32.23656993 8.70870609 32.1953125 12.421875 C32.18886719 13.44667969 32.18242187 14.47148437 32.17578125 15.52734375 C32.15902344 16.59082031 32.14226562 17.65429688 32.125 18.75 C32.11597656 19.82894531 32.10695313 20.90789062 32.09765625 22.01953125 C32.07411305 24.67991278 32.04122799 27.33984336 32 30 C27.67671196 30.0744013 23.35376745 30.12871968 19.0300293 30.16479492 C17.56056218 30.17984066 16.09113966 30.20028238 14.62182617 30.22631836 C12.5042823 30.26288955 10.38733435 30.27976801 8.26953125 30.29296875 C6.99698486 30.3086792 5.72443848 30.32438965 4.41333008 30.34057617 C0.75777451 29.97583116 -1.10074358 29.2096128 -4 27 C-5.84438013 23.31123973 -5.48788734 19.02669687 -5 15 C-3.11484777 12.42362529 -1.80665143 11.40332572 1 10 C2.81341842 9.91528636 4.62994161 9.89278917 6.4453125 9.90234375 C7.52167969 9.90556641 8.59804688 9.90878906 9.70703125 9.91210938 C10.83496094 9.92048828 11.96289062 9.92886719 13.125 9.9375 C14.26066406 9.94201172 15.39632813 9.94652344 16.56640625 9.95117188 C19.37765638 9.96298385 22.1888023 9.97945493 25 10 C24.67 9.34 24.34 8.68 24 8 C16.08 7.67 8.16 7.34 0 7 C0 4.69 0 2.38 0 0 Z M0 19 C0.66 20.65 1.32 22.3 2 24 C9.92 24 17.84 24 26 24 C26 22.02 26 20.04 26 18 C23.65472696 15.65472696 17.8366726 16.81458141 14.6875 16.8125 C13.72392578 16.80025391 12.76035156 16.78800781 11.76757812 16.77539062 C10.83751953 16.77345703 9.90746094 16.77152344 8.94921875 16.76953125 C8.09674561 16.76542236 7.24427246 16.76131348 6.3659668 16.75708008 C3.82279653 17.01819394 2.19379688 17.72110354 0 19 Z " fill="#667173" transform="translate(346,234)"/>
<path d="M0 0 C1.94616211 -0.0309375 1.94616211 -0.0309375 3.93164062 -0.0625 C5.17751953 -0.06765625 6.42339844 -0.0728125 7.70703125 -0.078125 C8.85276611 -0.0874707 9.99850098 -0.09681641 11.17895508 -0.10644531 C14.51244981 0.28849929 15.83373891 0.89930859 18.1875 3.25 C20.08087756 7.53067971 20.39795301 9.53679814 19.0625 14.0625 C17.10380893 17.39227482 16.65456057 18.00428229 13.1875 19.25 C10.34667969 19.47705078 10.34667969 19.47705078 7.109375 19.4453125 C5.36914062 19.43564453 5.36914062 19.43564453 3.59375 19.42578125 C2.3871875 19.40902344 1.180625 19.39226562 -0.0625 19.375 C-1.89554687 19.36146484 -1.89554687 19.36146484 -3.765625 19.34765625 C-6.78144782 19.32409513 -9.79687492 19.29119706 -12.8125 19.25 C-12.4825 20.57 -12.1525 21.89 -11.8125 23.25 C-1.5825 23.58 8.6475 23.91 19.1875 24.25 C19.1875 26.23 19.1875 28.21 19.1875 30.25 C14.88254985 30.34935088 10.57821817 30.42169268 6.27246094 30.46972656 C4.80977748 30.48976332 3.34717334 30.51700104 1.88476562 30.55175781 C-0.2254601 30.60063225 -2.33462136 30.62304659 -4.4453125 30.640625 C-5.71262207 30.66157227 -6.97993164 30.68251953 -8.28564453 30.70410156 C-12.44147028 30.1690167 -14.57768736 28.86140251 -17.8125 26.25 C-19.42532972 23.02434056 -19.08037069 19.54059192 -19.125 16 C-19.15400391 15.24847656 -19.18300781 14.49695313 -19.21289062 13.72265625 C-19.27321204 8.40509149 -18.26956644 5.50688488 -14.8125 1.25 C-12.05779316 -1.50470684 -3.71125782 0.01461845 0 0 Z M-12.8125 8.25 C-13.06280977 10.83380177 -13.06280977 10.83380177 -12.8125 13.25 C-9.04181168 13.336985 -5.27138068 13.39038579 -1.5 13.4375 C0.1077832 13.47520508 0.1077832 13.47520508 1.74804688 13.51367188 C2.77607422 13.52333984 3.80410156 13.53300781 4.86328125 13.54296875 C5.81114502 13.5586792 6.75900879 13.57438965 7.7355957 13.59057617 C10.58521408 13.19475643 11.43726105 12.47175281 13.1875 10.25 C12.8575 9.26 12.5275 8.27 12.1875 7.25 C8.54852049 5.43051024 4.25590712 6.06529547 0.25 6.0625 C-0.66974609 6.05025391 -1.58949219 6.03800781 -2.53710938 6.02539062 C-3.42076172 6.02345703 -4.30441406 6.02152344 -5.21484375 6.01953125 C-6.02429443 6.01542236 -6.83374512 6.01131348 -7.66772461 6.00708008 C-10.11027907 6.11807683 -10.11027907 6.11807683 -12.8125 8.25 Z " fill="#253538" transform="translate(282.8125,233.75)"/>
<path d="M0 0 C4.41632177 -0.14509751 8.83203193 -0.23400818 13.25 -0.3125 C14.50425781 -0.35439453 15.75851563 -0.39628906 17.05078125 -0.43945312 C18.85869141 -0.46362305 18.85869141 -0.46362305 20.703125 -0.48828125 C22.36843262 -0.52755737 22.36843262 -0.52755737 24.06738281 -0.56762695 C27 0 27 0 29.26196289 2.29003906 C30.64938794 4.45332296 31.9620561 6.54975892 33.10546875 8.84765625 C33.62077148 9.87922852 33.62077148 9.87922852 34.14648438 10.93164062 C34.66178711 11.98641602 34.66178711 11.98641602 35.1875 13.0625 C35.54263672 13.76955078 35.89777344 14.47660156 36.26367188 15.20507812 C37.91506906 18.54234188 39.08546466 21.34185865 40 25 C30.43 25 20.86 25 11 25 C7.75 18.5 7.75 18.5 6.69799805 16.3894043 C5.36450011 13.71458404 4.02396349 11.04606239 2.64453125 8.39453125 C0 3.30595668 0 3.30595668 0 0 Z " fill="#058FCC" transform="translate(171,271)"/>
<path d="M0 0 C1.0236264 0.00636726 1.0236264 0.00636726 2.06793213 0.01286316 C4.23840504 0.02959903 6.40793479 0.06723916 8.578125 0.10546875 C10.05337197 0.12052229 11.52863355 0.13420953 13.00390625 0.14648438 C16.61228344 0.17948498 20.2201121 0.23123108 23.828125 0.29296875 C23.828125 2.27296875 23.828125 4.25296875 23.828125 6.29296875 C14.588125 6.29296875 5.348125 6.29296875 -4.171875 6.29296875 C-4.171875 7.61296875 -4.171875 8.93296875 -4.171875 10.29296875 C-3.21933838 10.31484253 -3.21933838 10.31484253 -2.24755859 10.3371582 C0.65325581 10.41201964 3.55296706 10.50855301 6.453125 10.60546875 C7.45214844 10.62802734 8.45117188 10.65058594 9.48046875 10.67382812 C14.92806448 10.87225049 19.18290167 11.12850432 23.828125 14.29296875 C26.27333615 17.96078547 26.55050259 21.02750108 25.828125 25.29296875 C23.95797406 27.72416498 22.54674155 28.93366048 19.828125 30.29296875 C17.58893346 30.39068563 15.3467905 30.42374249 13.10546875 30.42578125 C12.44478897 30.42673798 11.78410919 30.4276947 11.10340881 30.42868042 C9.70720321 30.42936091 8.31099444 30.42751575 6.91479492 30.42333984 C4.77059886 30.41798118 2.62661147 30.42329354 0.48242188 30.4296875 C-0.8723963 30.42902686 -2.22721434 30.427746 -3.58203125 30.42578125 C-4.82090088 30.42465332 -6.05977051 30.42352539 -7.33618164 30.42236328 C-10.171875 30.29296875 -10.171875 30.29296875 -11.171875 29.29296875 C-11.171875 27.64296875 -11.171875 25.99296875 -11.171875 24.29296875 C-1.601875 23.96296875 7.968125 23.63296875 17.828125 23.29296875 C17.828125 21.97296875 17.828125 20.65296875 17.828125 19.29296875 C16.73141479 19.29466064 16.73141479 19.29466064 15.61254883 19.29638672 C12.28764366 19.28425299 8.9650222 19.22658071 5.640625 19.16796875 C4.49013672 19.17054688 3.33964844 19.173125 2.15429688 19.17578125 C-6.09451942 18.98450435 -6.09451942 18.98450435 -9.08618164 17.06420898 C-11.08919779 14.84331221 -12.08967528 12.78381848 -12.58203125 9.84375 C-12.46730469 9.10511719 -12.35257812 8.36648437 -12.234375 7.60546875 C-12.14285156 6.85910156 -12.05132812 6.11273438 -11.95703125 5.34375 C-9.84049949 -0.1845046 -5.27036565 -0.06479958 0 0 Z " fill="#2A383B" transform="translate(512.171875,233.70703125)"/>
<path d="M0 0 C3.58828367 1.19609456 3.79113539 1.8934932 5.5 5.125 C5.9021875 5.87007812 6.304375 6.61515625 6.71875 7.3828125 C7.67647458 9.33914016 8.56696818 11.32863698 9.421875 13.33203125 C11.06630296 17.15410515 12.87127009 20.85237608 14.75 24.5625 C15.09998047 25.25867432 15.44996094 25.95484863 15.81054688 26.67211914 C17.46799969 29.9686669 19.13230265 33.26172915 20.796875 36.5546875 C24.36481383 43.64146508 27.81198647 50.77158125 31.16015625 57.96459961 C33.3609459 62.68504332 35.65410618 67.34982467 38 72 C34.64047644 73.11984119 32.33089543 73.028066 28.80078125 72.87890625 C27.59228516 72.83056641 26.38378906 72.78222656 25.13867188 72.73242188 C23.87603516 72.67634766 22.61339844 72.62027344 21.3125 72.5625 C20.03826172 72.51029297 18.76402344 72.45808594 17.45117188 72.40429688 C14.30057275 72.27449691 11.15025542 72.13788997 8 72 C6.02 67.71 4.04 63.42 2 59 C1.34 59 0.68 59 0 59 C-0.41894531 59.83789062 -0.83789062 60.67578125 -1.26953125 61.5390625 C-4.1796875 67.359375 -7.08984375 73.1796875 -10 79 C-10.33 79 -10.66 79 -11 79 C-11 76.69 -11 74.38 -11 72 C-10.01 72 -9.02 72 -8 72 C-8.2475 70.948125 -8.495 69.89625 -8.75 68.8125 C-9 65 -9 65 -7.1875 62.0625 C-5 60 -5 60 -3 60 C-2.67 58.02 -2.34 56.04 -2 54 C-0.02 53.505 -0.02 53.505 2 53 C2.061875 53.61875 2.12375 54.2375 2.1875 54.875 C2.82565844 57.25342272 2.82565844 57.25342272 5.4375 58.25 C7.87491227 59.09363292 7.87491227 59.09363292 10 59 C10 59.99 10 60.98 10 62 C10.99 62.33 11.98 62.66 13 63 C12.67 64.98 12.34 66.96 12 69 C17.61 69.33 23.22 69.66 29 70 C28.67 68.68 28.34 67.36 28 66 C28.99 65.67 29.98 65.34 31 65 C31 64.01 31 63.02 31 62 C30.01 62.33 29.02 62.66 28 63 C28 61.02 28 59.04 28 57 C25.9254644 55.7763932 25.9254644 55.7763932 23 56 C23 53 23 53 24 50 C23.01 49.67 22.02 49.34 21 49 C21.33 48.01 21.66 47.02 22 46 C21.34 46 20.68 46 20 46 C19.67 44.35 19.34 42.7 19 41 C18.34 41 17.68 41 17 41 C16.505 37.535 16.505 37.535 16 34 C15.01 34 14.02 34 13 34 C12.8046875 31.94921875 12.609375 29.8984375 12.4140625 27.84765625 C12.20910156 26.93306641 12.20910156 26.93306641 12 26 C11.34 25.67 10.68 25.34 10 25 C6.63989928 22.37035596 5.44658511 18.92644531 4 15 C4 13.68 4 12.36 4 11 C2.16299211 10.22757731 2.16299211 10.22757731 0 10 C-3.6304625 12.23413077 -4.03836236 16.08476103 -5 20 C-5.309375 21.2065625 -5.309375 21.2065625 -5.625 22.4375 C-5.74875 22.953125 -5.8725 23.46875 -6 24 C-6.66 24 -7.32 24 -8 24 C-7.87625 25.11375 -7.87625 25.11375 -7.75 26.25 C-8.07344522 29.80789745 -9.37803642 30.69585019 -12 33 C-12.33 33.66 -12.66 34.32 -13 35 C-13.66 35 -14.32 35 -15 35 C-15 35.66 -15 36.32 -15 37 C-14.01 37.33 -13.02 37.66 -12 38 C-12.495 40.475 -12.495 40.475 -13 43 C-13.99 43 -14.98 43 -16 43 C-16.66 43.825 -17.32 44.65 -18 45.5 C-18.66 46.325 -19.32 47.15 -20 48 C-20.99 48 -21.98 48 -23 48 C-21.68976187 43.84086358 -20.13234805 39.96327416 -18.2421875 36.03515625 C-17.70231201 34.91149658 -17.16243652 33.78783691 -16.60620117 32.63012695 C-15.74925659 30.86415161 -15.74925659 30.86415161 -14.875 29.0625 C-14.58509186 28.46239105 -14.29518372 27.8622821 -13.99649048 27.24398804 C-9.54965335 18.04120006 -4.95660705 8.93986225 0 0 Z M0 6 C0.99 7.485 0.99 7.485 2 9 C2 8.01 2 7.02 2 6 C1.34 6 0.68 6 0 6 Z " fill="#28A6DA" transform="translate(132,141)"/>
<path d="M0 0 C0 1.98 0 3.96 0 6 C-1.32 6 -2.64 6 -4 6 C-4.33 7.65 -4.66 9.3 -5 11 C-5.66 11 -6.32 11 -7 11 C-7.28875 11.5775 -7.5775 12.155 -7.875 12.75 C-8.56281558 14.12563117 -9.28470219 15.48566845 -10.0625 16.8125 C-11.3467688 19.80912721 -11.62818874 22.77763576 -12 26 C-11.34 26 -10.68 26 -10 26 C-10.33 26.99 -10.66 27.98 -11 29 C-12.65 29.33 -14.3 29.66 -16 30 C-17.39171419 35.47987463 -18.11763175 40.35367593 -18 46 C-18.495 46.495 -18.495 46.495 -19 47 C-18.96126352 49.89033721 -18.8532463 52.74146852 -18.6875 55.625 C-18.65205078 56.42035156 -18.61660156 57.21570313 -18.58007812 58.03515625 C-18.30866741 62.96915994 -17.43771078 67.24675211 -16 72 C-16 73.32 -16 74.64 -16 76 C-11.0276578 74.50829734 -6.58154261 72.39542583 -2 70 C-2.05220703 69.00419922 -2.05220703 69.00419922 -2.10546875 67.98828125 C-2.38394794 58.90455531 -2.38394794 58.90455531 1 55 C1.66 55 2.32 55 3 55 C2.505 50.05 2.505 50.05 2 45 C1.01 45 0.02 45 -1 45 C-0.67 43.35 -0.34 41.7 0 40 C-0.66 40 -1.32 40 -2 40 C-1.67 37.69 -1.34 35.38 -1 33 C1.64 32.67 4.28 32.34 7 32 C6.79375 30.72125 6.5875 29.4425 6.375 28.125 C6.0234375 25.9453125 6.0234375 25.9453125 6 24 C6.66 23.34 7.32 22.68 8 22 C10.15303543 25.22955315 10.17522299 26.09219432 9.55859375 29.75390625 C9 32 9 32 8.03515625 34.71484375 C5.64046427 41.47281792 4.80452719 47.04032946 5.0625 54.125 C5.28323974 62.02257738 4.011356 67.09460634 0 74 C-0.78476762 75.47853777 -1.5628591 76.9606294 -2.3359375 78.4453125 C-4.52602046 82.64748275 -6.75458564 86.82714935 -9 91 C-12.82763672 90.23291016 -12.82763672 90.23291016 -14.37890625 88.13671875 C-24.4070917 67.3853251 -24.21826243 43.83791654 -17.265625 22.17578125 C-15.19372166 16.97683861 -12.22287832 12.54824177 -9 8 C-8.51917969 7.27296875 -8.03835937 6.5459375 -7.54296875 5.796875 C-3.64303862 0 -3.64303862 0 0 0 Z " fill="#293662" transform="translate(82,137)"/>
<path d="M0 0 C1.03770035 -0.00315216 2.0754007 -0.00630432 3.14454651 -0.009552 C4.83051186 -0.00651566 4.83051186 -0.00651566 6.55053711 -0.00341797 C7.69952988 -0.00437469 8.84852264 -0.00533142 10.03233337 -0.00631714 C12.46426447 -0.00699852 14.89619738 -0.00514714 17.328125 -0.00097656 C21.06571504 0.00437711 24.80318518 -0.00092551 28.54077148 -0.00732422 C30.89819363 -0.00666353 33.25561569 -0.00538255 35.61303711 -0.00341797 C36.73903824 -0.0054422 37.86503937 -0.00746643 39.02516174 -0.009552 C40.57698402 -0.00482376 40.57698402 -0.00482376 42.16015625 0 C43.07567764 0.00079559 43.99119904 0.00159119 44.9344635 0.00241089 C47.01538086 0.12939453 47.01538086 0.12939453 48.01538086 1.12939453 C48.14819336 2.94189453 48.14819336 2.94189453 48.14038086 5.12939453 C48.14424805 6.21220703 48.14424805 6.21220703 48.14819336 7.31689453 C48.01538086 9.12939453 48.01538086 9.12939453 47.01538086 10.12939453 C45.38863308 10.22279887 43.75784035 10.24684624 42.12841797 10.24291992 C41.0874144 10.24284439 40.04641083 10.24276886 38.97386169 10.24269104 C37.84158646 10.23752975 36.70931122 10.23236847 35.54272461 10.22705078 C34.38994522 10.22563583 33.23716583 10.22422089 32.04945374 10.22276306 C28.35057022 10.21714458 24.65174622 10.20458895 20.95288086 10.19189453 C18.45223069 10.18688191 15.95157957 10.18231859 13.45092773 10.17822266 C7.30572498 10.16716915 1.16055717 10.15041305 -4.98461914 10.12939453 C-5.08774414 9.49001953 -5.19086914 8.85064453 -5.29711914 8.19189453 C-5.52399414 7.51126953 -5.75086914 6.83064453 -5.98461914 6.12939453 C-6.97461914 5.79939453 -7.96461914 5.46939453 -8.98461914 5.12939453 C-6.80364792 0.30010111 -5.16876808 0.00448779 0 0 Z " fill="#1F3034" transform="translate(406.984619140625,168.87060546875)"/>
<path d="M0 0 C0.99457718 0.00212242 0.99457718 0.00212242 2.00924683 0.00428772 C4.12860613 0.00988871 6.24786009 0.02244125 8.3671875 0.03515625 C9.80338389 0.04017113 11.23958194 0.04473406 12.67578125 0.04882812 C16.19795095 0.05985843 19.72005895 0.07712366 23.2421875 0.09765625 C23.2421875 2.07765625 23.2421875 4.05765625 23.2421875 6.09765625 C22.43998779 6.11223877 21.63778809 6.12682129 20.8112793 6.1418457 C17.18359051 6.21622344 13.55683246 6.31291868 9.9296875 6.41015625 C8.03573242 6.44399414 8.03573242 6.44399414 6.10351562 6.47851562 C4.89501953 6.51396484 3.68652344 6.54941406 2.44140625 6.5859375 C1.32596436 6.61212158 0.21052246 6.63830566 -0.9387207 6.6652832 C-3.75845683 6.87282993 -3.75845683 6.87282993 -5.62036133 8.48120117 C-7.20421579 10.73204908 -7.15717959 12.36854206 -7.1328125 15.09765625 C-7.14054688 15.96390625 -7.14828125 16.83015625 -7.15625 17.72265625 C-6.66542556 20.64835487 -6.12439532 21.33970307 -3.7578125 23.09765625 C-0.85693595 23.60430242 -0.85693595 23.60430242 2.44140625 23.609375 C4.25415039 23.66254883 4.25415039 23.66254883 6.10351562 23.71679688 C7.9974707 23.75063477 7.9974707 23.75063477 9.9296875 23.78515625 C11.84104492 23.83639648 11.84104492 23.83639648 13.79101562 23.88867188 C16.94131853 23.97126409 20.09133907 24.0403796 23.2421875 24.09765625 C23.2421875 26.07765625 23.2421875 28.05765625 23.2421875 30.09765625 C18.70064272 30.18501088 14.15931518 30.23816872 9.6171875 30.28515625 C7.68939453 30.32286133 7.68939453 30.32286133 5.72265625 30.36132812 C3.85673828 30.37583008 3.85673828 30.37583008 1.953125 30.390625 C0.24068604 30.41419067 0.24068604 30.41419067 -1.50634766 30.43823242 C-5.90333272 29.97766821 -9.1746307 28.40787567 -12.5703125 25.59765625 C-15.74813742 21.58356162 -15.1998634 16.20685974 -15.18359375 11.34765625 C-14.56066824 6.59284872 -12.48149778 3.99171217 -8.7578125 1.09765625 C-5.8358356 -0.3633322 -3.25887775 -0.01369276 0 0 Z " fill="#394649" transform="translate(235.7578125,233.90234375)"/>
<path d="M0 0 C1.2463623 0.01047363 2.49272461 0.02094727 3.77685547 0.03173828 C4.77143265 0.03598312 4.77143265 0.03598312 5.78610229 0.04031372 C7.9055988 0.05151643 10.02467401 0.07662027 12.14404297 0.10205078 C13.58023479 0.11208051 15.01643322 0.12120637 16.45263672 0.12939453 C19.97490925 0.15145578 23.496935 0.18598585 27.01904297 0.22705078 C27.01904297 2.20705078 27.01904297 4.18705078 27.01904297 6.22705078 C13.65404297 6.72205078 13.65404297 6.72205078 0.01904297 7.22705078 C0.01904297 7.88705078 0.01904297 8.54705078 0.01904297 9.22705078 C-0.47595703 9.61892578 -0.97095703 10.01080078 -1.48095703 10.41455078 C-3.30587338 12.28123852 -3.30587338 12.28123852 -3.35595703 15.66455078 C-2.95633044 19.46100342 -2.66058493 20.61726518 0.01904297 23.22705078 C2.91282024 23.87108266 2.91282024 23.87108266 6.21826172 23.83642578 C8.03100586 23.88476562 8.03100586 23.88476562 9.88037109 23.93408203 C11.77432617 23.95535156 11.77432617 23.95535156 13.70654297 23.97705078 C14.98078125 24.00669922 16.25501953 24.03634766 17.56787109 24.06689453 C20.71832589 24.13769127 23.86803637 24.19034125 27.01904297 24.22705078 C27.01904297 26.20705078 27.01904297 28.18705078 27.01904297 30.22705078 C22.62322357 30.25612662 18.22742898 30.27387518 13.83154297 30.28955078 C12.58566406 30.29792969 11.33978516 30.30630859 10.05615234 30.31494141 C8.25307617 30.31977539 8.25307617 30.31977539 6.41357422 30.32470703 C5.30860596 30.32994385 4.2036377 30.33518066 3.06518555 30.34057617 C0.2233067 30.2346634 -2.24985881 30.01463298 -4.98095703 29.22705078 C-9.36518365 24.47747194 -10.22376555 21.21768072 -10.35595703 14.91455078 C-10.40494141 13.59841797 -10.45392578 12.28228516 -10.50439453 10.92626953 C-9.86133239 6.38164377 -8.4599069 5.09483378 -4.98095703 2.22705078 C-2.98095703 0.22705078 -2.98095703 0.22705078 0 0 Z " fill="#475557" transform="translate(468.98095703125,233.77294921875)"/>
<path d="M0 0 C4.4966976 1.28760063 7.71924243 2.99007807 11.4375 5.8125 C12.32308594 6.47894531 13.20867187 7.14539063 14.12109375 7.83203125 C15.07113281 8.54746094 16.02117187 9.26289063 17 10 C17.55091309 10.35199463 18.10182617 10.70398926 18.66943359 11.06665039 C23.90691424 14.47894839 27.1832791 18.73097175 30.75 23.8125 C31.31332031 24.58142578 31.87664062 25.35035156 32.45703125 26.14257812 C35.87966529 30.93669318 38.18474116 35.39442956 40 41 C37.3770471 43.6229529 30.25795103 42.27440674 26.69921875 42.29516602 C24.6399471 42.31237509 22.58228297 42.35624432 20.5234375 42.40039062 C19.22921875 42.40876953 17.935 42.41714844 16.6015625 42.42578125 C15.40869629 42.44036377 14.21583008 42.45494629 12.98681641 42.4699707 C10 42 10 42 8.08740234 40.09838867 C7 38 7 38 7 36 C6.44441406 35.74347656 5.88882813 35.48695313 5.31640625 35.22265625 C1.75268347 33.34163563 -1.39998907 30.91669963 -4.66015625 28.55859375 C-6.99411708 26.85599119 -6.99411708 26.85599119 -10 26 C-10 25.34 -10 24.68 -10 24 C-16.98533796 22.43098141 -16.98533796 22.43098141 -24 21 C-24 20.67 -24 20.34 -24 20 C-15.585 19.505 -15.585 19.505 -7 19 C-7 20.32 -7 21.64 -7 23 C-5.88625 23.433125 -5.88625 23.433125 -4.75 23.875 C-0.20150993 25.73574594 2.1206666 26.94275748 5 31 C5.66 31.33 6.32 31.66 7 32 C7.474375 32.825 7.94875 33.65 8.4375 34.5 C9.81319541 37.29155483 9.81319541 37.29155483 13 38 C13 38.66 13 39.32 13 40 C20.26 40 27.52 40 35 40 C34.34 38.35 33.68 36.7 33 35 C33 34.01 33 33.02 33 32 C31.35 32.66 29.7 33.32 28 34 C26.875 32.3125 26.875 32.3125 26 30 C26.875 27.25 26.875 27.25 28 25 C25.69 24.67 23.38 24.34 21 24 C19.50178941 20.62902617 19 18.79557881 19 15 C18.443125 15.37125 17.88625 15.7425 17.3125 16.125 C15 17 15 17 12.25 16.125 C11.5075 15.75375 10.765 15.3825 10 15 C10.33 13.35 10.66 11.7 11 10 C10.01 9.38125 9.02 8.7625 8 8.125 C7.01 7.42375 6.02 6.7225 5 6 C5 5.34 5 4.68 5 4 C4.34 4 3.68 4 3 4 C3 3.34 3 2.68 3 2 C2.01 2 1.02 2 0 2 C0 1.34 0 0.68 0 0 Z " fill="#20A5DE" transform="translate(167,119)"/>
<path d="M0 0 C1.73540039 0.01450195 1.73540039 0.01450195 3.50585938 0.02929688 C4.70404297 0.05443359 5.90222656 0.07957031 7.13671875 0.10546875 C8.96299805 0.12577148 8.96299805 0.12577148 10.82617188 0.14648438 C13.8259722 0.18177614 16.8248685 0.23108394 19.82421875 0.29296875 C19.82421875 2.27296875 19.82421875 4.25296875 19.82421875 6.29296875 C18.85597168 6.32269775 18.85597168 6.32269775 17.86816406 6.35302734 C14.93644654 6.44843203 12.00542643 6.55804846 9.07421875 6.66796875 C7.55054688 6.714375 7.55054688 6.714375 5.99609375 6.76171875 C5.01640625 6.80039063 4.03671875 6.8390625 3.02734375 6.87890625 C1.67624512 6.9260376 1.67624512 6.9260376 0.29785156 6.97412109 C-2.2999126 7.3089691 -3.96969228 7.89726715 -6.17578125 9.29296875 C-7.32232607 11.58605838 -7.37307242 13.09206531 -7.4921875 15.64453125 C-7.53408203 16.4953125 -7.57597656 17.34609375 -7.61914062 18.22265625 C-7.65845703 19.11210937 -7.69777344 20.0015625 -7.73828125 20.91796875 C-7.80305664 22.26375 -7.80305664 22.26375 -7.86914062 23.63671875 C-7.97534986 25.85531158 -8.07739319 28.07401755 -8.17578125 30.29296875 C-10.15578125 30.29296875 -12.13578125 30.29296875 -14.17578125 30.29296875 C-14.26319249 26.73062447 -14.31631021 23.16855767 -14.36328125 19.60546875 C-14.38841797 18.59806641 -14.41355469 17.59066406 -14.43945312 16.55273438 C-14.53416865 6.98646639 -14.53416865 6.98646639 -11.17578125 3.29296875 C-7.32870354 0.51902324 -4.7127063 -0.06964591 0 0 Z " fill="#3C494C" transform="translate(323.17578125,233.70703125)"/>
<path d="M0 0 C2 1.0625 2 1.0625 4 3 C4.1875 6.5 4.1875 6.5 4 10 C4.33 10.99 4.66 11.98 5 13 C13.58 13 22.16 13 31 13 C31 13.33 31 13.66 31 14 C22.42 14 13.84 14 5 14 C5.33 15.32 5.66 16.64 6 18 C16.23 18.33 26.46 18.66 37 19 C37 20.98 37 22.96 37 25 C32.69504985 25.09935088 28.39071817 25.17169268 24.08496094 25.21972656 C22.62227748 25.23976332 21.15967334 25.26700104 19.69726562 25.30175781 C17.5870399 25.35063225 15.47787864 25.37304659 13.3671875 25.390625 C12.09987793 25.41157227 10.83256836 25.43251953 9.52685547 25.45410156 C5.37102972 24.9190167 3.23481264 23.61140251 0 21 C-1.64072259 17.71855481 -1.14274434 14.10210004 -1.125 10.5 C-1.12886719 9.71496094 -1.13273437 8.92992187 -1.13671875 8.12109375 C-1.12665394 2.25330787 -1.12665394 2.25330787 0 0 Z " fill="#364648" transform="translate(265,239)"/>
<path d="M0 0 C0.66 0 1.32 0 2 0 C2 7.26 2 14.52 2 22 C-1.93288548 22.04593896 -5.86508642 22.0857551 -9.7980957 22.10986328 C-11.79319618 22.12485495 -13.78820946 22.15026731 -15.78320312 22.17578125 C-17.03681641 22.18222656 -18.29042969 22.18867188 -19.58203125 22.1953125 C-20.73936768 22.20578613 -21.8967041 22.21625977 -23.08911133 22.22705078 C-26 22 -26 22 -29 20 C-28.505 18.515 -28.505 18.515 -28 17 C-19.75 17 -11.5 17 -3 17 C-3.33 14.36 -3.66 11.72 -4 9 C-11.92 9 -19.84 9 -28 9 C-28.33 7.68 -28.66 6.36 -29 5 C-27.02966797 5.01740234 -27.02966797 5.01740234 -25.01953125 5.03515625 C-23.28385559 5.04453828 -21.54817839 5.05363804 -19.8125 5.0625 C-18.51602539 5.07506836 -18.51602539 5.07506836 -17.19335938 5.08789062 C-12.96005062 5.1041102 -9.14995855 4.92313707 -5 4 C-4.67 4.33 -4.34 4.66 -4 5 C-3.34 4.67 -2.68 4.34 -2 4 C-2 3.34 -2 2.68 -2 2 C-1.34 2 -0.68 2 0 2 C0 1.34 0 0.68 0 0 Z " fill="#203134" transform="translate(375,241)"/>
<path d="M0 0 C1.0236264 0.00636726 1.0236264 0.00636726 2.06793213 0.01286316 C4.23840504 0.02959903 6.40793479 0.06723916 8.578125 0.10546875 C10.05337197 0.12052229 11.52863355 0.13420953 13.00390625 0.14648438 C16.61228344 0.17948498 20.2201121 0.23123108 23.828125 0.29296875 C23.828125 2.27296875 23.828125 4.25296875 23.828125 6.29296875 C14.588125 6.29296875 5.348125 6.29296875 -4.171875 6.29296875 C-4.171875 7.61296875 -4.171875 8.93296875 -4.171875 10.29296875 C3.088125 10.62296875 10.348125 10.95296875 17.828125 11.29296875 C17.828125 11.62296875 17.828125 11.95296875 17.828125 12.29296875 C17.18262695 12.30231445 16.53712891 12.31166016 15.87207031 12.32128906 C12.93998556 12.37505976 10.00948492 12.45869215 7.078125 12.54296875 C5.55445313 12.56423828 5.55445313 12.56423828 4 12.5859375 C-1.854021 12.6628841 -1.854021 12.6628841 -6.875 15.33984375 C-7.30296875 15.984375 -7.7309375 16.62890625 -8.171875 17.29296875 C-10.54296318 15.06558289 -12.08198006 13.38509669 -12.35546875 10.0625 C-11.89212118 4.01926464 -11.89212118 4.01926464 -9.57324219 1.6809082 C-6.27151026 -0.22742303 -3.7983916 -0.04670154 0 0 Z " fill="#5E696C" transform="translate(512.171875,233.70703125)"/>
<path d="M0 0 C2.64 0 5.28 0 8 0 C7.67 0.66 7.34 1.32 7 2 C7.433125 2.433125 7.86625 2.86625 8.3125 3.3125 C9.875 4.875 11.4375 6.4375 13 8 C13.804375 8.78375 14.60875 9.5675 15.4375 10.375 C19.3167007 14.34881535 22.13057446 18.2176241 25 23 C19.06 23 13.12 23 7 23 C3.36239493 15.81572999 1.34106808 11.03896945 2 3 C1.34 3 0.68 3 0 3 C0 2.01 0 1.02 0 0 Z " fill="#015487" transform="translate(174,272)"/>
<path d="M0 0 C0 1.98 0 3.96 0 6 C-1.32 6 -2.64 6 -4 6 C-4.33 7.65 -4.66 9.3 -5 11 C-5.66 11 -6.32 11 -7 11 C-7.28875 11.5775 -7.5775 12.155 -7.875 12.75 C-8.56281558 14.12563117 -9.28470219 15.48566845 -10.0625 16.8125 C-11.3467688 19.80912721 -11.62818874 22.77763576 -12 26 C-11.34 26 -10.68 26 -10 26 C-10.33 26.99 -10.66 27.98 -11 29 C-12.65 29.33 -14.3 29.66 -16 30 C-17.39171419 35.47987463 -18.11763175 40.35367593 -18 46 C-18.495 46.495 -18.495 46.495 -19 47 C-18.96126352 49.89033721 -18.8532463 52.74146852 -18.6875 55.625 C-18.65205078 56.42035156 -18.61660156 57.21570313 -18.58007812 58.03515625 C-18.30865187 62.96944256 -17.45390631 67.25057274 -16 72 C-15.73957864 73.80575185 -15.52444952 75.61919753 -15.375 77.4375 C-15.30023438 78.30246094 -15.22546875 79.16742188 -15.1484375 80.05859375 C-15.09945312 80.69925781 -15.05046875 81.33992188 -15 82 C-15.99 82.495 -15.99 82.495 -17 83 C-23.11054297 61.17257208 -25.69224557 36.83834721 -14.359375 15.98046875 C-12.64702054 13.25931416 -10.85859086 10.62291024 -9 8 C-8.51917969 7.27296875 -8.03835937 6.5459375 -7.54296875 5.796875 C-3.64303862 0 -3.64303862 0 0 0 Z " fill="#434E6B" transform="translate(82,137)"/>
<path d="M0 0 C0.99457718 0.00212242 0.99457718 0.00212242 2.00924683 0.00428772 C4.12860613 0.00988871 6.24786009 0.02244125 8.3671875 0.03515625 C9.80338389 0.04017113 11.23958194 0.04473406 12.67578125 0.04882812 C16.19795095 0.05985843 19.72005895 0.07712366 23.2421875 0.09765625 C23.2421875 2.07765625 23.2421875 4.05765625 23.2421875 6.09765625 C22.43998779 6.11223877 21.63778809 6.12682129 20.8112793 6.1418457 C17.18359051 6.21622344 13.55683246 6.31291868 9.9296875 6.41015625 C8.03573242 6.44399414 8.03573242 6.44399414 6.10351562 6.47851562 C4.89501953 6.51396484 3.68652344 6.54941406 2.44140625 6.5859375 C1.32596436 6.61212158 0.21052246 6.63830566 -0.9387207 6.6652832 C-4.06095914 7.14415081 -4.78356663 7.75574652 -6.7578125 10.09765625 C-7.4178125 10.09765625 -8.0778125 10.09765625 -8.7578125 10.09765625 C-8.7578125 12.40765625 -8.7578125 14.71765625 -8.7578125 17.09765625 C-9.4178125 16.10765625 -10.0778125 15.11765625 -10.7578125 14.09765625 C-11.4178125 15.08765625 -12.0778125 16.07765625 -12.7578125 17.09765625 C-14.30764511 15.54782364 -14.03914211 14.06097247 -14.1328125 11.91015625 C-14.11000257 8.33469922 -13.67273811 6.36577221 -11.3828125 3.59765625 C-7.40357596 -0.19209284 -5.42092277 -0.02277699 0 0 Z " fill="#2C3A3E" transform="translate(235.7578125,233.90234375)"/>
<path d="M0 0 C2.0625 0.4375 2.0625 0.4375 4 1 C4 1.99 4 2.98 4 4 C7.3863251 5.50930183 7.3863251 5.50930183 11 6 C11 6.99 11 7.98 11 9 C11.99 9.33 12.98 9.66 14 10 C13.67 11.98 13.34 13.96 13 16 C18.61 16.33 24.22 16.66 30 17 C29.505 15.02 29.505 15.02 29 13 C29.66 12.67 30.32 12.34 31 12 C31.66 12.33 32.32 12.66 33 13 C33 12.34 33 11.68 33 11 C33.99 11.33 34.98 11.66 36 12 C37.6875 15.5625 37.6875 15.5625 39 19 C35.64047644 20.11984119 33.33089543 20.028066 29.80078125 19.87890625 C28.59228516 19.83056641 27.38378906 19.78222656 26.13867188 19.73242188 C24.87603516 19.67634766 23.61339844 19.62027344 22.3125 19.5625 C21.03826172 19.51029297 19.76402344 19.45808594 18.45117188 19.40429688 C15.30057275 19.27449691 12.15025542 19.13788997 9 19 C7.02 14.71 5.04 10.42 3 6 C2.34 6 1.68 6 1 6 C0.58105469 6.83789062 0.16210938 7.67578125 -0.26953125 8.5390625 C-3.1796875 14.359375 -6.08984375 20.1796875 -9 26 C-9.33 26 -9.66 26 -10 26 C-10 23.69 -10 21.38 -10 19 C-9.01 19 -8.02 19 -7 19 C-7.2475 17.948125 -7.495 16.89625 -7.75 15.8125 C-8 12 -8 12 -6.1875 9.0625 C-4 7 -4 7 -2 7 C-1.855625 6.030625 -1.71125 5.06125 -1.5625 4.0625 C-1 1 -1 1 0 0 Z " fill="#258CB8" transform="translate(131,194)"/>
<path d="M0 0 C4.06236402 -0.08729047 8.12448589 -0.14048992 12.1875 -0.1875 C13.91323242 -0.22520508 13.91323242 -0.22520508 15.67382812 -0.26367188 C17.34155273 -0.27817383 17.34155273 -0.27817383 19.04296875 -0.29296875 C20.06414795 -0.3086792 21.08532715 -0.32438965 22.13745117 -0.34057617 C25.46387669 0.05519045 27.32541907 1.01302286 30 3 C30.8125 5.1875 30.8125 5.1875 31 7 C30.34 7 29.68 7 29 7 C29 7.66 29 8.32 29 9 C28.34 9 27.68 9 27 9 C27 10.32 27 11.64 27 13 C26.01 13 25.02 13 24 13 C24 11.35 24 9.7 24 8 C16.08 7.67 8.16 7.34 0 7 C0 4.69 0 2.38 0 0 Z " fill="#525E62" transform="translate(346,234)"/>
<path d="M0 0 C2.31 0 4.62 0 7 0 C7 9.9 7 19.8 7 30 C4.69 30 2.38 30 0 30 C0 20.1 0 10.2 0 0 Z " fill="#3D494E" transform="translate(447,234)"/>
<path d="M0 0 C0 1.32 0 2.64 0 4 C0.7425 4.28875 1.485 4.5775 2.25 4.875 C6.79849007 6.73574594 9.1206666 7.94275748 12 12 C12.66 12.33 13.32 12.66 14 13 C14.474375 13.825 14.94875 14.65 15.4375 15.5 C16.81319541 18.29155483 16.81319541 18.29155483 20 19 C20 19.66 20 20.32 20 21 C27.92 20.67 35.84 20.34 44 20 C43.34 19.01 42.68 18.02 42 17 C42.33 15.68 42.66 14.36 43 13 C44.32 15.97 45.64 18.94 47 22 C44.3770471 24.6229529 37.25795103 23.27440674 33.69921875 23.29516602 C31.6399471 23.31237509 29.58228297 23.35624432 27.5234375 23.40039062 C26.22921875 23.40876953 24.935 23.41714844 23.6015625 23.42578125 C21.81226318 23.44765503 21.81226318 23.44765503 19.98681641 23.4699707 C17 23 17 23 15.08740234 21.09838867 C14 19 14 19 14 17 C13.44441406 16.74347656 12.88882813 16.48695313 12.31640625 16.22265625 C8.75268347 14.34163563 5.60001093 11.91669963 2.33984375 9.55859375 C0.00588292 7.85599119 0.00588292 7.85599119 -3 7 C-3 6.34 -3 5.68 -3 5 C-9.98533796 3.43098141 -9.98533796 3.43098141 -17 2 C-17 1.67 -17 1.34 -17 1 C-5.47835991 -0.14806378 -5.47835991 -0.14806378 0 0 Z " fill="#35A9DE" transform="translate(160,138)"/>
<path d="M0 0 C0.66 0.33 1.32 0.66 2 1 C1.84402344 1.55429688 1.68804687 2.10859375 1.52734375 2.6796875 C1.33269531 3.40414062 1.13804688 4.12859375 0.9375 4.875 C0.74027344 5.59429687 0.54304688 6.31359375 0.33984375 7.0546875 C-0.21132607 9.07273593 -0.21132607 9.07273593 1 11 C-1 14 -1 14 -3.5625 14.9375 C-6.13600046 15.72945935 -6.13600046 15.72945935 -6.8125 17.875 C-6.99203393 19.90971782 -7 21.95737692 -7 24 C-7.0625 26.375 -7.0625 26.375 -8 29 C-9.73159001 30.6082089 -11.55934316 32.04708619 -13.41015625 33.515625 C-15.23697109 34.98734179 -15.23697109 34.98734179 -15.9375 37.75 C-15.97684093 39.16627355 -16 40.58318016 -16 42 C-16.31478446 43.33783393 -16.64587656 44.67203709 -17 46 C-18.65 46 -20.3 46 -22 46 C-21.5033118 40.96395887 -20.46065126 37.43634534 -17.9375 33.0625 C-17.31101562 31.94488281 -16.68453125 30.82726562 -16.0390625 29.67578125 C-15.70680664 29.08361816 -15.37455078 28.49145508 -15.03222656 27.88134766 C-13.20391683 24.54904993 -11.50797122 21.15131229 -9.8125 17.75 C-9.47323486 17.07195312 -9.13396973 16.39390625 -8.78442383 15.6953125 C-6.96090381 12.02402471 -5.23739418 8.33274512 -3.625 4.5625 C-2 1 -2 1 0 0 Z " fill="#2C3D67" transform="translate(87,233)"/>
<path d="M0 0 C0.125 2.625 0.125 2.625 0 5 C-4.25414623 5.02465622 -8.50825498 5.04283899 -12.76245117 5.05493164 C-14.21070073 5.05997101 -15.65894517 5.06680253 -17.10717773 5.07543945 C-19.18474588 5.08752247 -21.26224697 5.09323211 -23.33984375 5.09765625 C-24.59144287 5.10289307 -25.84304199 5.10812988 -27.13256836 5.11352539 C-30 5 -30 5 -31 4 C-31.04063832 2.33382885 -31.042721 0.66611905 -31 -1 C-26.90707083 -1.19222407 -22.81379909 -1.3709507 -18.71972656 -1.53710938 C-17.32666167 -1.59555965 -15.9337472 -1.65771628 -14.54101562 -1.72363281 C-12.54079773 -1.81766015 -10.53992068 -1.89732059 -8.5390625 -1.9765625 C-7.33459473 -2.02893066 -6.13012695 -2.08129883 -4.88916016 -2.13525391 C-2 -2 -2 -2 0 0 Z " fill="#384649" transform="translate(532,259)"/>
<path d="M0 0 C1.16781006 0.00523682 2.33562012 0.01047363 3.53881836 0.01586914 C4.79887695 0.0190918 6.05893555 0.02231445 7.35717773 0.02563477 C8.6976732 0.03399136 10.03816799 0.04245632 11.37866211 0.05102539 C12.72306153 0.05603879 14.06746271 0.06060197 15.41186523 0.06469727 C18.71334151 0.07653051 22.01473014 0.09301568 25.31616211 0.11352539 C25.31616211 2.09352539 25.31616211 4.07352539 25.31616211 6.11352539 C20.87867576 6.14249362 16.44121364 6.16031327 12.00366211 6.17602539 C10.74102539 6.1844043 9.47838867 6.1927832 8.17749023 6.20141602 C6.36474609 6.20625 6.36474609 6.20625 4.51538086 6.21118164 C3.39993896 6.21641846 2.28449707 6.22165527 1.13525391 6.22705078 C-1.68383789 6.11352539 -1.68383789 6.11352539 -4.68383789 5.11352539 C-3.56320494 0.1507223 -3.56320494 0.1507223 0 0 Z " fill="#1F3034" transform="translate(470.683837890625,233.886474609375)"/>
<path d="M0 0 C0.33 0 0.66 0 1 0 C1.33 1.65 1.66 3.3 2 5 C2.99 4.67 3.98 4.34 5 4 C5.66 4.33 6.32 4.66 7 5 C7 12.92 7 20.84 7 29 C4.69 29 2.38 29 0 29 C0 19.43 0 9.86 0 0 Z " fill="#596869" transform="translate(385,235)"/>
<path d="M0 0 C1.47583955 0.0001591 2.95168467 0.00585225 4.42749023 0.01586914 C5.20293686 0.01728409 5.97838348 0.01869904 6.77732849 0.02015686 C9.26361893 0.02577194 11.74982059 0.03832693 14.23608398 0.05102539 C15.91772331 0.05603845 17.59936405 0.06060169 19.28100586 0.06469727 C23.41189965 0.07574626 27.54272674 0.09302094 31.67358398 0.11352539 C29.01839698 6.92862323 25.68731134 14.01923391 18.67358398 17.11352539 C18.67358398 15.79352539 18.67358398 14.47352539 18.67358398 13.11352539 C19.66358398 13.11352539 20.65358398 13.11352539 21.67358398 13.11352539 C22.00358398 11.46352539 22.33358398 9.81352539 22.67358398 8.11352539 C23.66358398 7.78352539 24.65358398 7.45352539 25.67358398 7.11352539 C25.67358398 6.45352539 25.67358398 5.79352539 25.67358398 5.11352539 C24.68358398 5.11352539 23.69358398 5.11352539 22.67358398 5.11352539 C22.17858398 4.12352539 22.17858398 4.12352539 21.67358398 3.11352539 C21.04194336 3.12512695 20.41030273 3.13672852 19.75952148 3.14868164 C12.02393479 3.22670629 4.38123992 2.74364033 -3.32641602 2.11352539 C-3.32641602 3.10352539 -3.32641602 4.09352539 -3.32641602 5.11352539 C-10.29070173 8.46173968 -10.29070173 8.46173968 -14.32641602 7.11352539 C-13.61614258 6.69200195 -12.90586914 6.27047852 -12.17407227 5.83618164 C-11.2549707 5.28833008 -10.33586914 4.74047852 -9.38891602 4.17602539 C-8.47239258 3.63075195 -7.55586914 3.08547852 -6.61157227 2.52368164 C-2.66959167 0.091109 -2.66959167 0.091109 0 0 Z " fill="#66B0CF" transform="translate(169.326416015625,226.886474609375)"/>
<path d="M0 0 C1.5625 1.0625 1.5625 1.0625 3 3 C2.92259233 6.56075297 2.22829524 9.36022101 1.03125 12.71484375 C-1.63770175 20.27369638 -2.3754084 26.62942293 -1.85180664 34.5559082 C-1.57741121 40.43797234 -3.05113959 43.90284871 -6 49 C-6.33 49 -6.66 49 -7 49 C-7 47.35 -7 45.7 -7 44 C-6.01 43.505 -6.01 43.505 -5 43 C-5 36.4 -5 29.8 -5 23 C-5.99 23 -6.98 23 -8 23 C-7.67 21.35 -7.34 19.7 -7 18 C-7.66 18 -8.32 18 -9 18 C-8.67 15.69 -8.34 13.38 -8 11 C-5.36 10.67 -2.72 10.34 0 10 C-0.185625 8.72125 -0.37125 7.4425 -0.5625 6.125 C-1.125 2.25 -1.125 2.25 0 0 Z " fill="#0C4270" transform="translate(89,159)"/>
<path d="M0 0 C1.8560083 0.0002417 1.8560083 0.0002417 3.74951172 0.00048828 C25.26888004 0.26888004 25.26888004 0.26888004 31.375 6.375 C28.075 6.375 24.775 6.375 21.375 6.375 C21.375 5.715 21.375 5.055 21.375 4.375 C20.611875 4.375 19.84875 4.375 19.0625 4.375 C13.375 4.375 13.375 4.375 10.375 2.375 C7.4163963 2.15165443 4.58241981 2.05061326 1.625 2.0625 C0.83867187 2.04638672 0.05234375 2.03027344 -0.7578125 2.01367188 C-6.19782822 2.00915359 -9.72026952 3.07942048 -14.625 5.375 C-17.28515625 5.81640625 -17.28515625 5.81640625 -19.6875 5.9375 C-22.79407217 6.15906129 -25.00268637 6.50089546 -28 7.5 C-30.86391827 8.45463942 -31.83055007 8.21928062 -34.625 7.375 C-32.81686125 6.57342242 -31.00319627 5.78430825 -29.1875 5 C-28.17816406 4.55914062 -27.16882813 4.11828125 -26.12890625 3.6640625 C-17.437771 0.46665488 -9.22930792 -0.01115399 0 0 Z " fill="#52B3DB" transform="translate(135.625,112.625)"/>
<path d="M0 0 C1.16337891 0.00322266 2.32675781 0.00644531 3.52539062 0.00976562 C4.74033203 0.01814453 5.95527344 0.02652344 7.20703125 0.03515625 C8.43357422 0.03966797 9.66011719 0.04417969 10.92382812 0.04882812 C13.95577793 0.0606256 16.98763031 0.07708704 20.01953125 0.09765625 C20.51453125 2.07765625 20.51453125 2.07765625 21.01953125 4.09765625 C20.2423877 4.11223877 19.46524414 4.12682129 18.66455078 4.1418457 C15.15736437 4.21612603 11.65115115 4.31285214 8.14453125 4.41015625 C6.92121094 4.43271484 5.69789063 4.45527344 4.4375 4.47851562 C2.68759766 4.53168945 2.68759766 4.53168945 0.90234375 4.5859375 C-0.17644043 4.61212158 -1.25522461 4.63830566 -2.36669922 4.6652832 C-3.22924316 4.80796631 -4.09178711 4.95064941 -4.98046875 5.09765625 C-5.97046875 6.58265625 -5.97046875 6.58265625 -6.98046875 8.09765625 C-10.10546875 8.78515625 -10.10546875 8.78515625 -12.98046875 9.09765625 C-12.65046875 7.44765625 -12.32046875 5.79765625 -11.98046875 4.09765625 C-10.99046875 3.76765625 -10.00046875 3.43765625 -8.98046875 3.09765625 C-8.98046875 2.43765625 -8.98046875 1.77765625 -8.98046875 1.09765625 C-5.74295197 0.01848399 -3.40295104 -0.01659976 0 0 Z " fill="#213133" transform="translate(513.98046875,234.90234375)"/>
<path d="M0 0 C2 1 2 1 2.61669922 2.79418945 C3.00121306 5.00698087 3.1293291 7.04841794 3.1328125 9.29296875 C3.13410156 10.08767578 3.13539063 10.88238281 3.13671875 11.70117188 C3.13285156 12.52166016 3.12898438 13.34214844 3.125 14.1875 C3.12886719 15.01958984 3.13273437 15.85167969 3.13671875 16.70898438 C3.12667092 22.87332908 3.12667092 22.87332908 2 24 C0.33382885 24.04063832 -1.33388095 24.042721 -3 24 C-4.7680198 20.4639604 -4.18464913 16.39428745 -4.1875 12.5 C-4.20586914 11.17935547 -4.20586914 11.17935547 -4.22460938 9.83203125 C-4.22654297 8.99027344 -4.22847656 8.14851562 -4.23046875 7.28125 C-4.23457764 6.50845703 -4.23868652 5.73566406 -4.24291992 4.93945312 C-4 3 -4 3 -2 1 C-1.34 0.67 -0.68 0.34 0 0 Z " fill="#495557" transform="translate(438,240)"/>
<path d="M0 0 C2 1.0625 2 1.0625 4 3 C4.1875 6.5 4.1875 6.5 4 10 C4.33 10.99 4.66 11.98 5 13 C13.58 13 22.16 13 31 13 C31 13.33 31 13.66 31 14 C22.42 14 13.84 14 5 14 C5.33 15.65 5.66 17.3 6 19 C5.34 19.99 4.68 20.98 4 22 C2.0625 21.625 2.0625 21.625 0 21 C-1.64072259 17.71855481 -1.14274434 14.10210004 -1.125 10.5 C-1.12886719 9.71496094 -1.13273437 8.92992187 -1.13671875 8.12109375 C-1.12665394 2.25330787 -1.12665394 2.25330787 0 0 Z " fill="#3A494C" transform="translate(265,239)"/>
<path d="M0 0 C0.4625789 9.78268711 0.4625789 9.78268711 -1.1875 14.125 C-3.39548758 16.40912508 -4.87525593 16.74664237 -8 17 C-8.33 14.69 -8.66 12.38 -9 10 C-9.99 10.66 -10.98 11.32 -12 12 C-11.731875 11.484375 -11.46375 10.96875 -11.1875 10.4375 C-10.21102263 8.43315171 -9.34009255 6.37772751 -8.5 4.3125 C-6.35894601 -0.4156609 -4.85841507 -0.12785303 0 0 Z " fill="#223235" transform="translate(537,206)"/>
<path d="M0 0 C0.33 0.66 0.66 1.32 1 2 C2.15786011 1.95456055 2.15786011 1.95456055 3.33911133 1.90820312 C6.83021765 1.77153405 10.32135808 1.63575644 13.8125 1.5 C15.02744141 1.45230469 16.24238281 1.40460938 17.49414062 1.35546875 C18.65751953 1.31035156 19.82089844 1.26523438 21.01953125 1.21875 C22.09307861 1.17685547 23.16662598 1.13496094 24.27270508 1.09179688 C26.18096796 1.02756746 28.09065649 1 30 1 C30.33 1.66 30.66 2.32 31 3 C30.67 3.99 30.34 4.98 30 6 C26.04907941 6.07409401 22.09842706 6.12857406 18.14697266 6.16479492 C16.14080626 6.18732251 14.13483474 6.2254357 12.12890625 6.26367188 C10.87207031 6.27333984 9.61523438 6.28300781 8.3203125 6.29296875 C6.57645264 6.31653442 6.57645264 6.31653442 4.79736328 6.34057617 C3.8742334 6.22818604 2.95110352 6.1157959 2 6 C0 3 0 3 0 0 Z " fill="#1F2F32" transform="translate(268,246)"/>
<path d="M0 0 C3.37462715 0.54723683 5.08235 1.0549 8 3 C9.34837949 6.12578881 10.34160799 8.58036681 9.5234375 11.98046875 C7.59585492 16.70207254 7.59585492 16.70207254 5 18 C4.505 15.525 4.505 15.525 4 13 C3.01 13.33 2.02 13.66 1 14 C-1.73865287 14.07051114 -4.45027588 14.09357765 -7.1875 14.0625 C-7.93708984 14.05798828 -8.68667969 14.05347656 -9.45898438 14.04882812 C-11.30602383 14.03706354 -13.15302213 14.01912865 -15 14 C-15 13.67 -15 13.34 -15 13 C-13.41058594 12.96132812 -13.41058594 12.96132812 -11.7890625 12.921875 C-10.40099999 12.8656022 -9.01298075 12.80825467 -7.625 12.75 C-6.92632812 12.73582031 -6.22765625 12.72164062 -5.5078125 12.70703125 C-3.22282354 12.63964218 -3.22282354 12.63964218 0 12 C1.56483494 10.08611659 1.56483494 10.08611659 2 8 C0.68 7.01 -0.64 6.02 -2 5 C-0.68 5 0.64 5 2 5 C1.34 3.35 0.68 1.7 0 0 Z " fill="#394649" transform="translate(293,234)"/>
<path d="M0 0 C8.91 0 17.82 0 27 0 C27 0.33 27 0.66 27 1 C22.38 1 17.76 1 13 1 C13.61875 1.9075 14.2375 2.815 14.875 3.75 C17 7 17 7 18 9.25 C18.86202768 11.16195319 18.86202768 11.16195319 20.87890625 11.82421875 C24.22874144 13.68112555 25.47341345 16.75454988 27.33984375 20.00390625 C29.41708665 22.50148535 30.83189565 22.69444679 34 23 C34 23.33 34 23.66 34 24 C31.25 24.3125 31.25 24.3125 28 24 C25.875 21.8125 25.875 21.8125 24 19 C21.85958889 16.23817921 19.75365666 13.75925538 17.25 11.3125 C15 9 15 9 15 7 C14.195625 6.731875 13.39125 6.46375 12.5625 6.1875 C11.716875 5.795625 10.87125 5.40375 10 5 C9.67 4.01 9.34 3.02 9 2 C6.03 1.505 6.03 1.505 3 1 C3 1.99 3 2.98 3 4 C3.66 4 4.32 4 5 4 C5 6.31 5 8.62 5 11 C0 3.5 0 3.5 0 0 Z " fill="#036DA2" transform="translate(171,271)"/>
<path d="M0 0 C4.78446459 1.94922631 8.03074426 5.2941099 10.5625 9.75 C11.79223587 12.17279826 11.79223587 12.17279826 14.1875 12.8125 C14.785625 12.874375 15.38375 12.93625 16 13 C16 13.99 16 14.98 16 16 C12.37 16 8.74 16 5 16 C4.15488176 14.27656245 3.32436646 12.54595947 2.5 10.8125 C2.0359375 9.84957031 1.571875 8.88664062 1.09375 7.89453125 C0.00407079 5.01077307 -0.22277524 3.04645139 0 0 Z " fill="#103361" transform="translate(176,279)"/>
<path d="M0 0 C2.475 0.495 2.475 0.495 5 1 C5 1.99 5 2.98 5 4 C5.99 4.33 6.98 4.66 8 5 C7.67 6.98 7.34 8.96 7 11 C12.61 11.33 18.22 11.66 24 12 C23.67 10.68 23.34 9.36 23 8 C23.66 7.67 24.32 7.34 25 7 C25.66 7.33 26.32 7.66 27 8 C27 7.34 27 6.68 27 6 C27.99 6.33 28.98 6.66 30 7 C31.6875 10.5625 31.6875 10.5625 33 14 C29.84419524 14 26.72884685 13.92128208 23.578125 13.78125 C22.55332031 13.73613281 21.52851563 13.69101563 20.47265625 13.64453125 C19.40917969 13.59683594 18.34570312 13.54914063 17.25 13.5 C16.17105469 13.45230469 15.09210938 13.40460938 13.98046875 13.35546875 C11.3202768 13.23776114 8.66012352 13.11924254 6 13 C5.54625 12.030625 5.0925 11.06125 4.625 10.0625 C3.34213779 6.92920418 3.34213779 6.92920418 1 6 C0.375 2.9375 0.375 2.9375 0 0 Z " fill="#2497C6" transform="translate(137,199)"/>
<path d="M0 0 C1.32 0 2.64 0 4 0 C4 0.66 4 1.32 4 2 C3.34 2 2.68 2 2 2 C2.33 2.99 2.66 3.98 3 5 C1.99609375 7.53125 1.99609375 7.53125 0.4375 10.5 C-0.11292969 11.55703125 -0.66335937 12.6140625 -1.23046875 13.703125 C-3.79577167 18.48262977 -6.36721351 23.25724987 -9 28 C-9.66 28 -10.32 28 -11 28 C-11 27.34 -11 26.68 -11 26 C-11.66 26.33 -12.32 26.66 -13 27 C-13.65772428 30.02934491 -13.65772428 30.02934491 -14 33 C-14.99 32.67 -15.98 32.34 -17 32 C-15.18328213 27.27653355 -13.66457906 24.54242643 -10 21 C-9.855625 20.34 -9.71125 19.68 -9.5625 19 C-9 17 -9 17 -6.6875 15.4375 C-2.6575905 11.78246581 -1.46416855 7.15321892 0 2 C0 1.34 0 0.68 0 0 Z " fill="#2A3A63" transform="translate(98,258)"/>
<path d="M0 0 C8.25 0 16.5 0 25 0 C25 1.32 25 2.64 25 4 C16.42 4 7.84 4 -1 4 C-0.67 2.68 -0.34 1.36 0 0 Z " fill="#1F3033" transform="translate(470,259)"/>
<path d="M0 0 C2.52201094 3.14118728 4.33247199 6.39692863 6.125 10 C6.90230469 11.546875 6.90230469 11.546875 7.6953125 13.125 C9 16 9 16 10 20 C0.43 20 -9.14 20 -19 20 C-19 19.67 -19 19.34 -19 19 C-11.74 18.67 -4.48 18.34 3 18 C3 17.34 3 16.68 3 16 C2.34 16 1.68 16 1 16 C1 15.34 1 14.68 1 14 C2.32 14.33 3.64 14.66 5 15 C4.67 14.01 4.34 13.02 4 12 C1.98491642 11.26676204 1.98491642 11.26676204 0 11 C0 10.34 0 9.68 0 9 C0.66 9 1.32 9 2 9 C1.67 8.2575 1.34 7.515 1 6.75 C0 4 0 4 0 0 Z " fill="#62B2D7" transform="translate(201,276)"/>
<path d="M0 0 C0.33 0 0.66 0 1 0 C1.33 2.64 1.66 5.28 2 8 C2.639375 7.01 3.27875 6.02 3.9375 5 C4.618125 4.01 5.29875 3.02 6 2 C6.33 2 6.66 2 7 2 C7.03738281 2.67546875 7.07476562 3.3509375 7.11328125 4.046875 C7.17902344 4.93890625 7.24476563 5.8309375 7.3125 6.75 C7.37050781 7.63171875 7.42851562 8.5134375 7.48828125 9.421875 C8.0641181 12.32303774 9.07596148 13.79225607 11 16 C9.35 16.33 7.7 16.66 6 17 C6 17.99 6 18.98 6 20 C1.125 16.375 1.125 16.375 0 13 C-0.06937062 10.77181559 -0.08457084 8.54165476 -0.0625 6.3125 C-0.05347656 5.13300781 -0.04445312 3.95351562 -0.03515625 2.73828125 C-0.02355469 1.83464844 -0.01195312 0.93101562 0 0 Z " fill="#495759" transform="translate(221,242)"/>
<path d="M0 0 C0.99 0.66 1.98 1.32 3 2 C3.2487793 4.06298828 3.2487793 4.06298828 3.07421875 6.5703125 C3.01943359 7.46621094 2.96464844 8.36210937 2.90820312 9.28515625 C2.83537109 10.22230469 2.76253906 11.15945312 2.6875 12.125 C2.62626953 13.06988281 2.56503906 14.01476562 2.50195312 14.98828125 C2.34841324 17.32681186 2.18053924 19.66342389 2 22 C0.68 22 -0.64 22 -2 22 C-2 15.4 -2 8.8 -2 2 C-1.34 2 -0.68 2 0 2 C0 1.34 0 0.68 0 0 Z " fill="#212F32" transform="translate(312,241)"/>
<path d="M0 0 C3.0916909 2.52956528 3.90931332 5.22454612 5 9 C4 10 4 10 1.22436523 10.11352539 C0.01466064 10.10828857 -1.19504395 10.10305176 -2.44140625 10.09765625 C-3.74658203 10.09443359 -5.05175781 10.09121094 -6.39648438 10.08789062 C-7.7851569 10.07953401 -9.17382877 10.07106905 -10.5625 10.0625 C-11.95507656 10.05748666 -13.34765481 10.05292347 -14.74023438 10.04882812 C-18.1601987 10.03699434 -21.58007844 10.0205088 -25 10 C-25.33 8.35 -25.66 6.7 -26 5 C-24.68 5.33 -23.36 5.66 -22 6 C-22 6.66 -22 7.32 -22 8 C-14.08 7.67 -6.16 7.34 2 7 C1.34 6.01 0.68 5.02 0 4 C0 2.68 0 1.36 0 0 Z " fill="#56B7DC" transform="translate(202,151)"/>
<path d="M0 0 C0 1.98 0 3.96 0 6 C-1.32 6 -2.64 6 -4 6 C-4.33 7.65 -4.66 9.3 -5 11 C-5.66 11 -6.32 11 -7 11 C-7.2475 11.556875 -7.495 12.11375 -7.75 12.6875 C-9.22924818 15.42410913 -10.93467439 17.67650869 -13 20 C-13.66 20 -14.32 20 -15 20 C-15 20.66 -15 21.32 -15 22 C-15.66 21.67 -16.32 21.34 -17 21 C-5.17 0 -5.17 0 0 0 Z " fill="#2F6088" transform="translate(82,137)"/>
<path d="M0 0 C2.41540259 3.94092001 3.1875 7.33476185 3.1875 11.9375 C2.1975 11.6075 1.2075 11.2775 0.1875 10.9375 C0.1875 10.2775 0.1875 9.6175 0.1875 8.9375 C-0.555 8.710625 -1.2975 8.48375 -2.0625 8.25 C-5.3550747 6.6785439 -6.78747109 4.93754284 -8.8125 1.9375 C-8.8125 1.2775 -8.8125 0.6175 -8.8125 -0.0625 C-2.3829918 -1.39692623 -2.3829918 -1.39692623 0 0 Z " fill="#059CE1" transform="translate(199.8125,273.0625)"/>
<path d="M0 0 C0.99 0 1.98 0 3 0 C3 6.93 3 13.86 3 21 C1.68 20.67 0.36 20.34 -1 20 C-1.02703562 17.41659616 -1.04685611 14.83347692 -1.0625 12.25 C-1.07087891 11.52039063 -1.07925781 10.79078125 -1.08789062 10.0390625 C-1.10391684 6.51329442 -0.95292713 3.38965084 0 0 Z " fill="#212F30" transform="translate(411,242)"/>
<path d="M0 0 C0.66 0.33 1.32 0.66 2 1 C1.84402344 1.55429688 1.68804687 2.10859375 1.52734375 2.6796875 C1.33269531 3.40414062 1.13804688 4.12859375 0.9375 4.875 C0.74027344 5.59429687 0.54304688 6.31359375 0.33984375 7.0546875 C-0.21132607 9.07273593 -0.21132607 9.07273593 1 11 C-1.21934164 14.32901247 -2.34683329 14.75023244 -6 16 C-6 16.99 -6 17.98 -6 19 C-7.32 19.33 -8.64 19.66 -10 20 C-8.60518242 15.58084238 -6.92639041 11.40147903 -5 7.1875 C-4.484375 6.04667969 -3.96875 4.90585938 -3.4375 3.73046875 C-2 1 -2 1 0 0 Z " fill="#3F5A7A" transform="translate(87,233)"/>
<path d="M0 0 C0.33 0 0.66 0 1 0 C1 1.98 1 3.96 1 6 C0.34 6 -0.32 6 -1 6 C-1.12375 6.928125 -1.2475 7.85625 -1.375 8.8125 C-2 12 -2 12 -4 15 C-4.44993413 16.84637602 -4.8634924 18.70181276 -5.25 20.5625 C-6.00390625 23.5234375 -6.00390625 23.5234375 -7 26 C-10.1875 27.6875 -10.1875 27.6875 -13 28 C-11.05611828 22.82303002 -8.51602329 17.9781125 -6.00976562 13.05859375 C-3.8381778 8.76449352 -1.85010992 4.44258369 0 0 Z " fill="#3A7094" transform="translate(102,200)"/>
<path d="M0 0 C1.32 0 2.64 0 4 0 C5.5625 2.1875 5.5625 2.1875 7 5 C8.66629524 8.02962771 10.16030688 10.16030688 12.625 12.625 C15 15 15 15 16 18 C18.00016466 19.20882096 18.00016466 19.20882096 20 20 C20 20.66 20 21.32 20 22 C16.91842009 21.68767771 15.43490171 21.50599141 13.375 19.109375 C12.92125 18.33078125 12.4675 17.5521875 12 16.75 C9.67122911 12.97619691 7.2334657 10.0632833 4 7 C0 2.35135135 0 2.35135135 0 0 Z " fill="#027CB7" transform="translate(184,272)"/>
<path d="M0 0 C2.97 0 5.94 0 9 0 C-2.58916052 5.79458026 -15.27473131 6.61656753 -28 6 C-28 5.67 -28 5.34 -28 5 C-26.41058594 4.80083984 -26.41058594 4.80083984 -24.7890625 4.59765625 C-23.40101721 4.41946125 -22.01299769 4.2410654 -20.625 4.0625 C-19.92632812 3.97548828 -19.22765625 3.88847656 -18.5078125 3.79882812 C-14.63216425 3.33681872 -14.63216425 3.33681872 -11 2 C-9.12620395 1.92966231 -7.24998898 1.9156978 -5.375 1.9375 C-3.87066406 1.95103516 -3.87066406 1.95103516 -2.3359375 1.96484375 C-1.56507813 1.97644531 -0.79421875 1.98804688 0 2 C0 1.34 0 0.68 0 0 Z " fill="#3D6D8F" transform="translate(156,259)"/>
<path d="M0 0 C0.598125 0.165 1.19625 0.33 1.8125 0.5 C4.11344336 1.1114124 4.11344336 1.1114124 7 1 C7.4125 1.99 7.825 2.98 8.25 4 C9.75091776 7.54303182 11.49464855 10.91947867 13.328125 14.30078125 C13.54984375 14.86152344 13.7715625 15.42226562 14 16 C13.67 16.66 13.34 17.32 13 18 C7.4277505 14.53048616 4.94946517 12.30709319 3 6 C3 4.68 3 3.36 3 2 C2.01 2 1.02 2 0 2 C0 1.34 0 0.68 0 0 Z " fill="#3FADDC" transform="translate(133,150)"/>
<path d="M0 0 C0.62261719 0.31710937 1.24523438 0.63421875 1.88671875 0.9609375 C6.18321806 2.39490088 10.31008848 2.46383986 14.8125 2.625 C15.69615234 2.66367187 16.57980469 2.70234375 17.49023438 2.7421875 C19.65982972 2.83600784 21.82988547 2.91907326 24 3 C23.67 3.66 23.34 4.32 23 5 C15.08 5.33 7.16 5.66 -1 6 C-0.67 4.02 -0.34 2.04 0 0 Z " fill="#2A335C" transform="translate(57,290)"/>
<path d="M0 0 C0 0.66 0 1.32 0 2 C0.66386719 2.06058594 1.32773438 2.12117188 2.01171875 2.18359375 C10.78207381 3.01581722 10.78207381 3.01581722 15 4 C15 4.66 15 5.32 15 6 C16.32 6.33 17.64 6.66 19 7 C11.1352632 6.24377531 3.49767428 4.49922476 -4 2 C-4.99 2.99 -5.98 3.98 -7 5 C-7.33 4.34 -7.66 3.68 -8 3 C-7.67 2.67 -7.34 2.34 -7 2 C-7.99 1.34 -8.98 0.68 -10 0 C-5.91847062 -2.09907226 -4.08152938 -2.09907226 0 0 Z " fill="#4B6C8B" transform="translate(108,257)"/>
<path d="M0 0 C0.66 0 1.32 0 2 0 C3.46726798 3.81489674 2.43336419 6.29011622 1 10 C0.34 10 -0.32 10 -1 10 C-1 10.66 -1 11.32 -1 12 C-8.26 12 -15.52 12 -23 12 C-23 11.67 -23 11.34 -23 11 C-21.73542969 10.96261719 -20.47085938 10.92523438 -19.16796875 10.88671875 C-17.5077827 10.82106167 -15.84762778 10.75461424 -14.1875 10.6875 C-13.35412109 10.66494141 -12.52074219 10.64238281 -11.66210938 10.61914062 C-10.85966797 10.58369141 -10.05722656 10.54824219 -9.23046875 10.51171875 C-8.49207764 10.48553467 -7.75368652 10.45935059 -6.99291992 10.43237305 C-4.44973961 9.8806185 -3.5778271 9.04602855 -2 7 C-1.25613932 4.69011685 -0.57809297 2.35684056 0 0 Z " fill="#6B7499" transform="translate(85,284)"/>
<path d="M0 0 C0.33 0.66 0.66 1.32 1 2 C-1.48387097 8.74193548 -1.48387097 8.74193548 -4 10 C-4.33 8.35 -4.66 6.7 -5 5 C-5.99 5.33 -6.98 5.66 -8 6 C-10.73865287 6.07051114 -13.45027588 6.09357765 -16.1875 6.0625 C-16.93708984 6.05798828 -17.68667969 6.05347656 -18.45898438 6.04882812 C-20.30602383 6.03706354 -22.15302213 6.01912865 -24 6 C-24 5.67 -24 5.34 -24 5 C-22.44539063 4.94392578 -22.44539063 4.94392578 -20.859375 4.88671875 C-19.48954816 4.82104212 -18.11975809 4.75459536 -16.75 4.6875 C-16.06808594 4.66494141 -15.38617188 4.64238281 -14.68359375 4.61914062 C-10.47238362 4.39427018 -8.14606937 3.79650611 -5 1 C-2.25 0.3125 -2.25 0.3125 0 0 Z " fill="#525D60" transform="translate(302,242)"/>
<path d="M0 0 C0.11728126 3.66639248 0.18760891 7.3322952 0.25 11 C0.30027344 12.54494141 0.30027344 12.54494141 0.3515625 14.12109375 C0.43822357 20.92398736 -0.44301581 25.17438809 -4 31 C-4.33 31 -4.66 31 -5 31 C-5 29.35 -5 27.7 -5 26 C-4.34 25.67 -3.68 25.34 -3 25 C-3 18.4 -3 11.8 -3 5 C-3.99 5 -4.98 5 -6 5 C-5.1875 3.0625 -5.1875 3.0625 -4 1 C-1 0 -1 0 0 0 Z " fill="#405577" transform="translate(87,177)"/>
<path d="M0 0 C0.99 0.33 1.98 0.66 3 1 C3 1.99 3 2.98 3 4 C3.66 4 4.32 4 5 4 C5 6.64 5 9.28 5 12 C0.125 11.125 0.125 11.125 -1 10 C-1.0979057 8.50261876 -1.12974864 7.00057108 -1.125 5.5 C-1.12757813 4.6853125 -1.13015625 3.870625 -1.1328125 3.03125 C-1 1 -1 1 0 0 Z " fill="#223035" transform="translate(460,242)"/>
<path d="M0 0 C-0.33 0.66 -0.66 1.32 -1 2 C-3.6953125 2.5625 -3.6953125 2.5625 -7.125 3 C-10.87664785 3.51364291 -14.45937518 4.01273939 -18.0625 5.1875 C-21.0863909 6.02389536 -22.11259689 5.87553514 -25 5 C-16.44650695 0.68472423 -9.5552535 -0.69352646 0 0 Z " fill="#349FD2" transform="translate(126,115)"/>
<path d="M0 0 C0.66 0 1.32 0 2 0 C3.32983485 1.98570578 4.43978459 4.0559931 5.5859375 6.15234375 C7.27140224 8.35462226 8.30354986 8.63856094 11 9 C11 9.99 11 10.98 11 12 C7.37 12 3.74 12 0 12 C0 11.01 0 10.02 0 9 C0.99 9 1.98 9 3 9 C2.01 6.03 1.02 3.06 0 0 Z " fill="#0C3A6C" transform="translate(181,283)"/>
<path d="M0 0 C0.66 0 1.32 0 2 0 C2 3.3 2 6.6 2 10 C1.01 10.33 0.02 10.66 -1 11 C-0.67 13.31 -0.34 15.62 0 18 C-0.66 18 -1.32 18 -2 18 C-2.25034126 15.9399629 -2.47443346 13.87672534 -2.6875 11.8125 C-2.81511719 10.66394531 -2.94273438 9.51539063 -3.07421875 8.33203125 C-2.99103334 4.59744406 -2.30256035 2.90417945 0 0 Z " fill="#1B2854" transform="translate(83,192)"/>
<path d="M0 0 C0.83595703 0.00451172 1.67191406 0.00902344 2.53320312 0.01367188 C4.58466649 0.02539452 6.63609273 0.04332797 8.6875 0.0625 C8.6875 0.3925 8.6875 0.7225 8.6875 1.0625 C6.94726562 1.19205078 6.94726562 1.19205078 5.171875 1.32421875 C-3.59641457 2.07809613 -11.08420699 3.17501475 -19.125 7.0390625 C-21.3125 8.0625 -21.3125 8.0625 -23.3125 8.0625 C-22.9825 7.0725 -22.6525 6.0825 -22.3125 5.0625 C-19.41691559 3.6147078 -17.57061062 3.0625 -14.3125 3.0625 C-14.3125 2.4025 -14.3125 1.7425 -14.3125 1.0625 C-9.54157044 -0.17152862 -4.88780554 -0.05015112 0 0 Z " fill="#51A1BF" transform="translate(133.3125,137.9375)"/>
<path d="M0 0 C0 1.98 0 3.96 0 6 C-2.97 6 -5.94 6 -9 6 C-9.33 5.01 -9.66 4.02 -10 3 C-8.0130571 -0.97388579 -3.91761109 -0.08705802 0 0 Z " fill="#3F4C4E" transform="translate(259,234)"/>
<path d="M0 0 C2.475 0.495 2.475 0.495 5 1 C5 1.99 5 2.98 5 4 C5.99 4.33 6.98 4.66 8 5 C7.67 6.98 7.34 8.96 7 11 C10.63 11.33 14.26 11.66 18 12 C18 12.33 18 12.66 18 13 C14.04 13 10.08 13 6 13 C5.54625 12.030625 5.0925 11.06125 4.625 10.0625 C3.34213779 6.92920418 3.34213779 6.92920418 1 6 C0.375 2.9375 0.375 2.9375 0 0 Z " fill="#0682BB" transform="translate(137,199)"/>
<path d="M0 0 C0.66 0.33 1.32 0.66 2 1 C1.67 4.96 1.34 8.92 1 13 C0.34 12.01 -0.32 11.02 -1 10 C-1.66 10.99 -2.32 11.98 -3 13 C-4.57897833 11.42102167 -4.24543509 9.80637428 -4.3125 7.625 C-4.29187678 3.30099793 -4.29187678 3.30099793 -2 0.9375 C-1.34 0.628125 -0.68 0.31875 0 0 Z " fill="#202F31" transform="translate(226,238)"/>
<path d="M0 0 C1.32 0.66 2.64 1.32 4 2 C3.67 3.65 3.34 5.3 3 7 C2.01 7 1.02 7 0 7 C-0.66 7.825 -1.32 8.65 -2 9.5 C-2.66 10.325 -3.32 11.15 -4 12 C-4.99 12 -5.98 12 -7 12 C-5.125 6.25 -5.125 6.25 -4 4 C-3.01 4 -2.02 4 -1 4 C-0.67 2.68 -0.34 1.36 0 0 Z " fill="#1A90C2" transform="translate(116,177)"/>
<path d="M0 0 C8.91 0 17.82 0 27 0 C27 1.98 27 3.96 27 6 C25.35 6 23.7 6 22 6 C22 5.01 22 4.02 22 3 C20.38219843 1.38219843 18.54364482 1.77727853 16.30859375 1.68359375 C15.36435547 1.64169922 14.42011719 1.59980469 13.44726562 1.55664062 C12.45404297 1.51732422 11.46082031 1.47800781 10.4375 1.4375 C9.44041016 1.39431641 8.44332031 1.35113281 7.41601562 1.30664062 C4.9441585 1.20019702 2.4721969 1.09818072 0 1 C0 0.67 0 0.34 0 0 Z " fill="#2A3A3D" transform="translate(469,234)"/>
<path d="M0 0 C8.58 0 17.16 0 26 0 C26 1.98 26 3.96 26 6 C21.38 6 16.76 6 12 6 C12 5.67 12 5.34 12 5 C20.42857143 3.71428571 20.42857143 3.71428571 25 5 C23.28237607 2.8647772 22.3773485 2.06913046 19.63989258 1.56762695 C18.73392334 1.54144287 17.8279541 1.51525879 16.89453125 1.48828125 C15.91162109 1.45283203 14.92871094 1.41738281 13.91601562 1.38085938 C12.37977539 1.34702148 12.37977539 1.34702148 10.8125 1.3125 C9.25885742 1.26125977 9.25885742 1.26125977 7.67382812 1.20898438 C5.1159934 1.12647358 2.55850277 1.05733428 0 1 C0 0.67 0 0.34 0 0 Z " fill="#2E383B" transform="translate(317,234)"/>
<path d="M0 0 C1.32 0 2.64 0 4 0 C4 0.99 4 1.98 4 3 C4.515625 2.835 5.03125 2.67 5.5625 2.5 C8.81432072 1.83295985 11.68767779 1.76340556 15 2 C16.32 2.99 17.64 3.98 19 5 C6.13 4.505 6.13 4.505 -7 4 C-7 3.67 -7 3.34 -7 3 C-5.5459375 2.5359375 -5.5459375 2.5359375 -4.0625 2.0625 C-1.15934208 1.30476658 -1.15934208 1.30476658 0 0 Z " fill="#0F94CE" transform="translate(132,134)"/>
<path d="M0 0 C8.91 0 17.82 0 27 0 C27 0.33 27 0.66 27 1 C19.08 1 11.16 1 3 1 C3 1.99 3 2.98 3 4 C3.66 4 4.32 4 5 4 C5 6.31 5 8.62 5 11 C0 3.5 0 3.5 0 0 Z " fill="#5C95B0" transform="translate(171,271)"/>
<path d="M0 0 C7.59 0 15.18 0 23 0 C22.67 0.66 22.34 1.32 22 2 C17.39799456 3.11203475 12.83153806 3.12178779 8.125 3.0625 C7.09246094 3.05573242 7.09246094 3.05573242 6.0390625 3.04882812 C4.35933665 3.03716336 2.67965625 3.01923271 1 3 C0.67 2.01 0.34 1.02 0 0 Z " fill="#778285" transform="translate(347,244)"/>
<path d="M0 0 C4.875 4.5 4.875 4.5 6 9 C1.71 9 -2.58 9 -7 9 C-7.33 8.34 -7.66 7.68 -8 7 C-5.03 7.495 -5.03 7.495 -2 8 C-2 7.34 -2 6.68 -2 6 C-1.01 5.34 -0.02 4.68 1 4 C0.67 2.68 0.34 1.36 0 0 Z " fill="#616F70" transform="translate(295,218)"/>
<path d="M0 0 C0 4.86678243 -3.03987715 8.27731622 -6 12 C-8.875 14.0625 -8.875 14.0625 -11 15 C-11 13.68 -11 12.36 -11 11 C-10.01 11 -9.02 11 -8 11 C-7.979375 10.29875 -7.95875 9.5975 -7.9375 8.875 C-6.55020791 4.6206376 -3.48375828 2.64692861 0 0 Z " fill="#4C9EBF" transform="translate(199,229)"/>
<path d="M0 0 C1.94139562 2.91209343 3.57246287 5.8340201 5.1875 8.9375 C5.73792969 9.97777344 6.28835937 11.01804688 6.85546875 12.08984375 C8.02629704 15.06686448 8.20544638 16.10832227 7 19 C6.34 18.67 5.68 18.34 5 18 C5.33 17.01 5.66 16.02 6 15 C5.01 15.33 4.02 15.66 3 16 C3 14.02 3 12.04 3 10 C2.34 9.67 1.68 9.34 1 9 C0.5859375 6.93359375 0.5859375 6.93359375 0.375 4.4375 C0.30023438 3.61121094 0.22546875 2.78492188 0.1484375 1.93359375 C0.09945312 1.29550781 0.05046875 0.65742188 0 0 Z " fill="#3BA5D4" transform="translate(157,188)"/>
<path d="M0 0 C0.33 0.66 0.66 1.32 1 2 C-0.75 4.5 -0.75 4.5 -3 7 C-4.32 7 -5.64 7 -7 7 C-7.0825 7.763125 -7.165 8.52625 -7.25 9.3125 C-8.14615794 12.52373261 -9.21611025 13.29374499 -12 15 C-12.99 14.34 -13.98 13.68 -15 13 C-10.35827355 8.09717644 -5.50719921 3.90510489 0 0 Z " fill="#33799A" transform="translate(94,124)"/>
<path d="M0 0 C0.33 0 0.66 0 1 0 C1.06058594 0.98742187 1.12117188 1.97484375 1.18359375 2.9921875 C1.26738281 4.27351562 1.35117187 5.55484375 1.4375 6.875 C1.51871094 8.15117187 1.59992188 9.42734375 1.68359375 10.7421875 C1.79206027 13.88300152 1.79206027 13.88300152 3 16 C3.66 16 4.32 16 5 16 C5.33 14.68 5.66 13.36 6 12 C6.625 14.3125 6.625 14.3125 7 17 C6.34 17.99 5.68 18.98 5 20 C3.0625 19.625 3.0625 19.625 1 19 C-0.65497356 15.69005287 -0.10084335 12.00877 -0.0625 8.375 C-0.05798828 7.57320312 -0.05347656 6.77140625 -0.04882812 5.9453125 C-0.03703168 3.96350994 -0.01909605 1.98174567 0 0 Z " fill="#5C6669" transform="translate(264,241)"/>
<path d="M0 0 C0.66 0 1.32 0 2 0 C1.85892253 1.45880109 1.71197585 2.91703551 1.5625 4.375 C1.48128906 5.18710937 1.40007812 5.99921875 1.31640625 6.8359375 C1 9 1 9 0 11 C-0.66 11 -1.32 11 -2 11 C-2 10.34 -2 9.68 -2 9 C-2.99 9.495 -2.99 9.495 -4 10 C-4.65772428 13.02934491 -4.65772428 13.02934491 -5 16 C-5.99 15.67 -6.98 15.34 -8 15 C-6.18328213 10.27653355 -4.66457906 7.54242643 -1 4 C-0.2127322 1.8618034 -0.2127322 1.8618034 0 0 Z " fill="#202E5E" transform="translate(89,275)"/>
<path d="M0 0 C2 1 2 1 4 6 C11.59 6.33 19.18 6.66 27 7 C27 7.33 27 7.66 27 8 C18.42 8 9.84 8 1 8 C0.67 5.36 0.34 2.72 0 0 Z " fill="#297CA0" transform="translate(139,205)"/>
<path d="M0 0 C-0.33 2.31 -0.66 4.62 -1 7 C-0.34 7 0.32 7 1 7 C0.67 7.99 0.34 8.98 0 10 C-1.65 10.33 -3.3 10.66 -5 11 C-5 10.34 -5 9.68 -5 9 C-4.34 9 -3.68 9 -3 9 C-3.7425 8.071875 -3.7425 8.071875 -4.5 7.125 C-6 5 -6 5 -6 3 C-5.34 3 -4.68 3 -4 3 C-4 2.34 -4 1.68 -4 1 C-2 0 -2 0 0 0 Z " fill="#0A3868" transform="translate(71,156)"/>
<path d="M0 0 C0.66 0.33 1.32 0.66 2 1 C2 7 2 7 1 10 C-1.55078125 11.65234375 -1.55078125 11.65234375 -4 13 C-3.719172 11.01926635 -3.42503386 9.04041552 -3.125 7.0625 C-2.96257812 5.96035156 -2.80015625 4.85820312 -2.6328125 3.72265625 C-2.42398438 2.82417969 -2.21515625 1.92570313 -2 1 C-1.34 0.67 -0.68 0.34 0 0 Z " fill="#1D2C65" transform="translate(78,252)"/>
<path d="M0 0 C-0.33 0.66 -0.66 1.32 -1 2 C-0.01 2.33 0.98 2.66 2 3 C2 3.66 2 4.32 2 5 C2.639375 5.12375 3.27875 5.2475 3.9375 5.375 C4.9584375 5.684375 4.9584375 5.684375 6 6 C6.33 6.66 6.66 7.32 7 8 C5.02 7.34 3.04 6.68 1 6 C1 5.34 1 4.68 1 4 C-5.98533796 2.43098141 -5.98533796 2.43098141 -13 1 C-13 0.67 -13 0.34 -13 0 C-11.20909747 -0.19466332 -9.41723495 -0.38051213 -7.625 -0.5625 C-6.12839844 -0.71912109 -6.12839844 -0.71912109 -4.6015625 -0.87890625 C-2 -1 -2 -1 0 0 Z " fill="#5CB6E2" transform="translate(156,139)"/>
<path d="M0 0 C0.33 1.32 0.66 2.64 1 4 C0.34 4 -0.32 4 -1 4 C-1 4.66 -1 5.32 -1 6 C-1.66 6 -2.32 6 -3 6 C-3 7.32 -3 8.64 -3 10 C-3.99 10 -4.98 10 -6 10 C-6.36567164 3.539801 -6.36567164 3.539801 -4.6875 1.0625 C-3 0 -3 0 0 0 Z " fill="#354245" transform="translate(376,237)"/>
<path d="M0 0 C0.66 0.33 1.32 0.66 2 1 C1.84402344 1.55429688 1.68804687 2.10859375 1.52734375 2.6796875 C1.33269531 3.40414062 1.13804688 4.12859375 0.9375 4.875 C0.74027344 5.59429687 0.54304688 6.31359375 0.33984375 7.0546875 C-0.21132607 9.07273593 -0.21132607 9.07273593 1 11 C0.01 12.485 0.01 12.485 -1 14 C-1.66 13.67 -2.32 13.34 -3 13 C-3.02712066 11.56260487 -3.04645067 10.12506137 -3.0625 8.6875 C-3.07410156 7.88699219 -3.08570312 7.08648437 -3.09765625 6.26171875 C-3 4 -3 4 -2 1 C-1.34 0.67 -0.68 0.34 0 0 Z " fill="#0B3866" transform="translate(87,233)"/>
<path d="M0 0 C0.66 0.33 1.32 0.66 2 1 C2 1.99 2 2.98 2 4 C2.7425 4.28875 3.485 4.5775 4.25 4.875 C10.77142857 7.54285714 10.77142857 7.54285714 12 10 C5.76604019 9.38882747 1.08521541 7.94526076 -3 3 C-3 2.34 -3 1.68 -3 1 C-2.01 0.67 -1.02 0.34 0 0 Z " fill="#0A9CDE" transform="translate(158,138)"/>
<path d="M0 0 C1.5625 1.0625 1.5625 1.0625 3 3 C2.73913095 7.60868654 1.58042602 11.68016889 0 16 C-2 12.25 -2 12.25 -2 10 C-1.34 10 -0.68 10 0 10 C-0.185625 8.72125 -0.37125 7.4425 -0.5625 6.125 C-1.125 2.25 -1.125 2.25 0 0 Z " fill="#175080" transform="translate(89,159)"/>
<path d="M0 0 C-0.639375 0.309375 -1.27875 0.61875 -1.9375 0.9375 C-3.93610821 1.8345163 -3.93610821 1.8345163 -5 3 C-7.69654854 3.07319621 -10.36691458 3.09242537 -13.0625 3.0625 C-13.82111328 3.05798828 -14.57972656 3.05347656 -15.36132812 3.04882812 C-17.24091871 3.0370068 -19.12046899 3.01907078 -21 3 C-21 2.67 -21 2.34 -21 2 C-18.62561751 1.6616656 -16.25065041 1.32920998 -13.875 1 C-12.87726563 0.85691406 -12.87726563 0.85691406 -11.859375 0.7109375 C-7.87371019 0.16388547 -4.02140062 -0.10022182 0 0 Z " fill="#618CA4" transform="translate(149,262)"/>
<path d="M0 0 C0.66 0.33 1.32 0.66 2 1 C2 1.99 2 2.98 2 4 C2.66 4 3.32 4 4 4 C4.66 7.3 5.32 10.6 6 14 C3.77617801 11.03490401 1.85734277 8.18401617 0 5 C-0.99 5.495 -0.99 5.495 -2 6 C-1.125 1.125 -1.125 1.125 0 0 Z " fill="#61B1CF" transform="translate(133,194)"/>
<path d="M0 0 C6.26418531 1.48362284 10.91513505 5.24162156 16 9 C15.01 9.495 15.01 9.495 14 10 C12.31791365 9.02616054 10.65261839 8.02304948 9 7 C6.80869466 6.30420546 6.80869466 6.30420546 5 6 C5 5.34 5 4.68 5 4 C4.34 4 3.68 4 3 4 C3 3.34 3 2.68 3 2 C2.01 2 1.02 2 0 2 C0 1.34 0 0.68 0 0 Z " fill="#57B4DB" transform="translate(167,119)"/>
<path d="M0 0 C3 1 3 1 4.75 3.8125 C5.98589446 6.96403086 6.28222189 7.96929372 5 11 C4.01 10.67 3.02 10.34 2 10 C2 7.36 2 4.72 2 2 C1.34 2 0.68 2 0 2 C-0.33 2.66 -0.66 3.32 -1 4 C-0.67 2.68 -0.34 1.36 0 0 Z " fill="#41AFD7" transform="translate(132,141)"/>
<path d="M0 0 C2.98992688 2.60660292 4.79135317 4.25483274 5.875 8.125 C6 11 6 11 5 14 C4.01 14.33 3.02 14.66 2 15 C2.66666667 13 3.33333333 11 4 9 C3.01 8.67 2.02 8.34 1 8 C1.33 7.01 1.66 6.02 2 5 C1.34 5 0.68 5 0 5 C0 3.35 0 1.7 0 0 Z " fill="#0999DA" transform="translate(152,182)"/>
<path d="M0 0 C1.24211322 3.58832708 0.93335834 6.3443465 0 10 C-1.5 11.75 -1.5 11.75 -3 13 C-3.33 13.66 -3.66 14.32 -4 15 C-4.66 15 -5.32 15 -6 15 C-4.36041242 9.76727367 -2.61047965 4.84803364 0 0 Z " fill="#57B2D4" transform="translate(119,166)"/>
<path d="M0 0 C1.32 0.66 2.64 1.32 4 2 C4 2.66 4 3.32 4 4 C3.34 4 2.68 4 2 4 C1.67 6.31 1.34 8.62 1 11 C0.01 10.67 -0.98 10.34 -2 10 C-1.34 6.7 -0.68 3.4 0 0 Z " fill="#354D73" transform="translate(64,161)"/>
<path d="M0 0 C0.66 0.66 1.32 1.32 2 2 C1.34 2 0.68 2 0 2 C0.103125 2.7425 0.20625 3.485 0.3125 4.25 C0 7 0 7 -2.5 9.3125 C-3.7375 10.1478125 -3.7375 10.1478125 -5 11 C-4.67 8.36 -4.34 5.72 -4 3 C-3.34 3 -2.68 3 -2 3 C-2 2.34 -2 1.68 -2 1 C-1.34 0.67 -0.68 0.34 0 0 Z " fill="#079CDF" transform="translate(124,163)"/>
<path d="M0 0 C-1.28627711 1.17260611 -2.57919783 2.3379283 -3.875 3.5 C-4.59429687 4.1496875 -5.31359375 4.799375 -6.0546875 5.46875 C-8 7 -8 7 -10 7 C-9.67 5.02 -9.34 3.04 -9 1 C-2.25 -1.125 -2.25 -1.125 0 0 Z " fill="#3E87AC" transform="translate(110,147)"/>
<path d="M0 0 C3.32993034 3.82941989 5.05324525 8.37522222 7 13 C4.69 12.34 2.38 11.68 0 11 C0 10.34 0 9.68 0 9 C0.66 9 1.32 9 2 9 C1.67 8.2575 1.34 7.515 1 6.75 C0 4 0 4 0 0 Z " fill="#45B1DE" transform="translate(201,276)"/>
<path d="M0 0 C0 3.20395416 -0.74335022 5.09399739 -2 8 C-0.68 8.99 0.64 9.98 2 11 C-0.875 11.125 -0.875 11.125 -4 11 C-4.66 10.34 -5.32 9.68 -6 9 C-5.34 9 -4.68 9 -4 9 C-4.0825 8.071875 -4.165 7.14375 -4.25 6.1875 C-4 3 -4 3 -2 1.125 C-1.34 0.75375 -0.68 0.3825 0 0 Z " fill="#4A85A4" transform="translate(118,225)"/>
<path d="M0 0 C0.350625 0.515625 0.70125 1.03125 1.0625 1.5625 C-0.9175 2.5525 -0.9175 2.5525 -2.9375 3.5625 C-3.2675 2.9025 -3.5975 2.2425 -3.9375 1.5625 C-4.9275 2.5525 -5.9175 3.5425 -6.9375 4.5625 C-7.5975 2.9125 -8.2575 1.2625 -8.9375 -0.4375 C-2.41442308 -1.79134615 -2.41442308 -1.79134615 0 0 Z " fill="#19A2DD" transform="translate(199.9375,273.4375)"/>
<path d="M0 0 C0.33 0 0.66 0 1 0 C1 3.3 1 6.6 1 10 C-2 9 -2 9 -3.25 6.5625 C-4 4 -4 4 -3 2 C-2.34 2.33 -1.68 2.66 -1 3 C-0.67 2.01 -0.34 1.02 0 0 Z " fill="#495459" transform="translate(534,169)"/>
<path d="M0 0 C4.07763771 2.86536704 6.02677065 5.43041625 8 10 C6.35 9.67 4.7 9.34 3 9 C2.67 7.35 2.34 5.7 2 4 C1.34 4 0.68 4 0 4 C0 2.68 0 1.36 0 0 Z " fill="#015F93" transform="translate(190,284)"/>
<path d="M0 0 C0.66 0 1.32 0 2 0 C3.01866229 1.65532623 4.01810813 3.32260138 5 5 C5.66 5.33 6.32 5.66 7 6 C7.625 8.0625 7.625 8.0625 8 10 C5 10 5 10 3.3125 8.75 C2 7 2 7 2 3 C1.34 3 0.68 3 0 3 C0 2.01 0 1.02 0 0 Z " fill="#044679" transform="translate(174,272)"/>
<path d="M0 0 C0 0.66 0 1.32 0 2 C-1.32 2 -2.64 2 -4 2 C-5.7511573 3.4166747 -5.7511573 3.4166747 -7 5 C-7.33 4.34 -7.66 3.68 -8 3 C-7.67 2.67 -7.34 2.34 -7 2 C-7.99 1.34 -8.98 0.68 -10 0 C-5.91847062 -2.09907226 -4.08152938 -2.09907226 0 0 Z " fill="#3A587A" transform="translate(108,257)"/>
<path d="M0 0 C0.33 0.66 0.66 1.32 1 2 C1.99 2.33 2.98 2.66 4 3 C4.33 6.3 4.66 9.6 5 13 C4.01 13.495 4.01 13.495 3 14 C2.49528803 12.23050388 1.99639315 10.45934777 1.5 8.6875 C1.2215625 7.70136719 0.943125 6.71523437 0.65625 5.69921875 C0 3 0 3 0 0 Z " fill="#4F5982" transform="translate(62,206)"/>
<path d="M0 0 C0.33 0 0.66 0 1 0 C1 1.98 1 3.96 1 6 C0.34 6 -0.32 6 -1 6 C-1.12375 6.928125 -1.2475 7.85625 -1.375 8.8125 C-2 12 -2 12 -4 15 C-4.66 15 -5.32 15 -6 15 C-4 10 -2 5 0 0 Z " fill="#4D89A6" transform="translate(102,200)"/>
<path d="M0 0 C0.33 0 0.66 0 1 0 C1.33 5.28 1.66 10.56 2 16 C-1 13 -1 13 -1.25 9.125 C-1.13467389 5.99966243 -0.76049532 3.04198129 0 0 Z " fill="#2E3862" transform="translate(62,192)"/>
<path d="M0 0 C1.76462683 3.08809695 2 4.23312136 2 8 C0.21722256 10.01623639 -1.83126157 11.37344618 -4 13 C-3.27991594 8.39146203 -1.68704061 4.32762591 0 0 Z " fill="#035C8D" transform="translate(101,206)"/>
<path d="M0 0 C0.97079451 3.0202496 1.32756618 5.06038917 0 8 C-2.5625 9.75 -2.5625 9.75 -5 11 C-3.77472971 6.94718288 -2.30119506 3.55639236 0 0 Z " fill="#4E94B4" transform="translate(108,189)"/>
<path d="M0 0 C0.66 0 1.32 0 2 0 C2 3.96 2 7.92 2 12 C1.01 12.495 1.01 12.495 0 13 C-1.33106125 9.00681626 -1.13647721 5.16255487 -1 1 C-0.67 0.67 -0.34 0.34 0 0 Z " fill="#3B466D" transform="translate(62,171)"/>
<path d="M0 0 C0.99 0 1.98 0 3 0 C3.33 1.65 3.66 3.3 4 5 C6.97 5.495 6.97 5.495 10 6 C10 6.33 10 6.66 10 7 C7.69 7 5.38 7 3 7 C3 6.01 3 5.02 3 4 C2.01 4 1.02 4 0 4 C0 2.68 0 1.36 0 0 Z " fill="#06517D" transform="translate(189,288)"/>
<path d="M0 0 C0.66 0 1.32 0 2 0 C5 3.46153846 5 3.46153846 5 6 C3.35 6 1.7 6 0 6 C-1.125 2.25 -1.125 2.25 0 0 Z M-2 6 C-1.01 6.495 -1.01 6.495 0 7 C-0.99 7.495 -0.99 7.495 -2 8 C-2 7.34 -2 6.68 -2 6 Z " fill="#2C3A3E" transform="translate(475,188)"/>
<path d="M0 0 C0.66 0.99 1.32 1.98 2 3 C1.36971413 4.68076231 0.70211894 6.34795544 0 8 C0.33 8.99 0.66 9.98 1 11 C0.67 11.66 0.34 12.32 0 13 C-0.35169068 14.32860925 -0.68770276 15.66158328 -1 17 C-2.66550691 12.00347926 -2.63421165 6.94227317 -1 1.9375 C-0.67 1.298125 -0.34 0.65875 0 0 Z " fill="#5C6466" transform="translate(467,176)"/>
<path d="M0 0 C1.32 0 2.64 0 4 0 C4.33 1.98 4.66 3.96 5 6 C2.69 5.34 0.38 4.68 -2 4 C-1.34 2.68 -0.68 1.36 0 0 Z " fill="#069DE1" transform="translate(189,138)"/>
<path d="M0 0 C2.35953094 2.35953094 2.49141413 3.77895617 3 7 C1.02 7 -0.96 7 -3 7 C-3 5.35 -3 3.7 -3 2 C-2.34 2 -1.68 2 -1 2 C-0.67 1.34 -0.34 0.68 0 0 Z " fill="#1E2B5B" transform="translate(68,272)"/>
<path d="M0 0 C1.07694171 2.80004844 0.95876997 4.1911574 0.3125 7.1875 C-1 10 -1 10 -3.125 10.875 C-3.74375 10.91625 -4.3625 10.9575 -5 11 C-1.85714286 3.57142857 -1.85714286 3.57142857 0 0 Z " fill="#3F496F" transform="translate(75,255)"/>
<path d="M0 0 C0.66 0 1.32 0 2 0 C2 1.65 2 3.3 2 5 C1.34 5 0.68 5 0 5 C0 5.99 0 6.98 0 8 C-0.99 8.33 -1.98 8.66 -3 9 C-2.44271087 5.65626525 -1.64826111 2.96687001 0 0 Z " fill="#1D2B64" transform="translate(83,192)"/>
<path d="M0 0 C2.47859908 2.2008849 3.61210366 4.06372969 4.6875 7.1875 C4.93886719 7.90292969 5.19023437 8.61835938 5.44921875 9.35546875 C5.63097656 9.89816406 5.81273437 10.44085938 6 11 C5.01 11.495 5.01 11.495 4 12 C2 9 2 9 2 6 C1.34 6 0.68 6 0 6 C0 4.02 0 2.04 0 0 Z " fill="#49ACD8" transform="translate(151,176)"/>
<path d="M0 0 C0.33 0 0.66 0 1 0 C1.09765625 6.15234375 1.09765625 6.15234375 1 8 C0 9 0 9 -3.0625 9.0625 C-4.031875 9.041875 -5.00125 9.02125 -6 9 C-4.7934375 7.88625 -4.7934375 7.88625 -3.5625 6.75 C-1.23011409 4.24695171 -0.36465606 3.2819045 0 0 Z " fill="#6A7274" transform="translate(454,170)"/>
<path d="M0 0 C1.6065676 0.25620684 3.2102483 0.53055871 4.8125 0.8125 C6.15248047 1.03873047 6.15248047 1.03873047 7.51953125 1.26953125 C10 2 10 2 13 5 C8.71 4.34 4.42 3.68 0 3 C0 2.01 0 1.02 0 0 Z " fill="#05396B" transform="translate(108,256)"/>
<path d="M0 0 C2 1 2 1 4 4 C2.35 4.66 0.7 5.32 -1 6 C-1 5.34 -1 4.68 -1 4 C-1.66 4 -2.32 4 -3 4 C-2.67 3.01 -2.34 2.02 -2 1 C-1.34 0.67 -0.68 0.34 0 0 Z " fill="#0C3669" transform="translate(83,173)"/>
<path d="M0 0 C-2.97 2.475 -2.97 2.475 -6 5 C-6.66 4.67 -7.32 4.34 -8 4 C-8 3.34 -8 2.68 -8 2 C-7.34 2 -6.68 2 -6 2 C-6 1.34 -6 0.68 -6 0 C-3.50907189 -1.24546405 -2.58919267 -0.7767578 0 0 Z " fill="#3A92B0" transform="translate(188,245)"/>
<path d="M0 0 C1.98 0.66 3.96 1.32 6 2 C4.625 4 4.625 4 3 6 C2.34 6 1.68 6 1 6 C0.34 4.35 -0.32 2.7 -1 1 C-0.67 0.67 -0.34 0.34 0 0 Z " fill="#1F2C2F" transform="translate(433,237)"/>
<path d="M0 0 C0.66 0.33 1.32 0.66 2 1 C1.195625 1.886875 0.39125 2.77375 -0.4375 3.6875 C-2.7039159 6.38287032 -3.68417366 8.42063478 -4 12 C-4.33 12 -4.66 12 -5 12 C-4.64989059 3.64989059 -4.64989059 3.64989059 -1.9375 0.9375 C-1.298125 0.628125 -0.65875 0.31875 0 0 Z " fill="#5A6E6F" transform="translate(505,234)"/>
<path d="M0 0 C0 0.99 0 1.98 0 3 C-6.96428571 6.34821429 -6.96428571 6.34821429 -11 5 C-9.54462432 4.16151196 -8.08559627 3.32936066 -6.625 2.5 C-5.81289062 2.0359375 -5.00078125 1.571875 -4.1640625 1.09375 C-2 0 -2 0 0 0 Z " fill="#4C92B3" transform="translate(166,229)"/>
<path d="M0 0 C1.98 0 3.96 0 6 0 C6 0.66 6 1.32 6 2 C6.99 2.66 7.98 3.32 9 4 C8.67 4.66 8.34 5.32 8 6 C4.63408134 4.55746343 2.48952921 2.66735273 0 0 Z " fill="#5E6C6E" transform="translate(314,218)"/>
<path d="M0 0 C0.66 0.33 1.32 0.66 2 1 C1.67 2.65 1.34 4.3 1 6 C-0.98 6.33 -2.96 6.66 -5 7 C-5 6.01 -5 5.02 -5 4 C-2.5 1.8125 -2.5 1.8125 0 0 Z " fill="#0374AE" transform="translate(110,194)"/>
<path d="M0 0 C0 1.98 0 3.96 0 6 C-1.65 6.33 -3.3 6.66 -5 7 C-4.67 5.02 -4.34 3.04 -4 1 C-1 0 -1 0 0 0 Z " fill="#125B86" transform="translate(82,137)"/>
<path d="M0 0 C0.33 0.66 0.66 1.32 1 2 C-1.23407889 5.35111834 -2.26215824 6.81553956 -6.25 7.8125 C-7.61125 7.9053125 -7.61125 7.9053125 -9 8 C-6.14723863 5.06799526 -3.34920216 2.35684596 0 0 Z " fill="#589BB6" transform="translate(94,124)"/>
<path d="M0 0 C1.65 1.65 3.3 3.3 5 5 C4.67 5.66 4.34 6.32 4 7 C4.66 7.33 5.32 7.66 6 8 C5.34 8.66 4.68 9.32 4 10 C3.32845067 8.71086513 2.66291141 7.41859796 2 6.125 C1.62875 5.40570313 1.2575 4.68640625 0.875 3.9453125 C0 2 0 2 0 0 Z " fill="#5A6B88" transform="translate(176,282)"/>
<path d="M0 0 C0.66 0 1.32 0 2 0 C0.84414715 3.91211733 -0.35534962 6.8745041 -3 10 C-3 7.69 -3 5.38 -3 3 C-2.01 3 -1.02 3 0 3 C0 2.01 0 1.02 0 0 Z " fill="#5595B5" transform="translate(124,210)"/>
<path d="M0 0 C3.20148213 2.13432142 3.52206739 2.68419896 4.6875 6.125 C4.93886719 6.84945312 5.19023437 7.57390625 5.44921875 8.3203125 C5.72185547 9.15175781 5.72185547 9.15175781 6 10 C5.01 10 4.02 10 3 10 C1.5783681 6.6828589 0.60990891 3.55780196 0 0 Z " fill="#0C9CDC" transform="translate(199,149)"/>
<path d="M0 0 C3.57104439 1.87949705 5.54744301 3.17053157 7 7 C5.35 7.33 3.7 7.66 2 8 C1.34 5.36 0.68 2.72 0 0 Z " fill="#4CB4DF" transform="translate(186,131)"/>
<path d="M0 0 C1.98 0.66 3.96 1.32 6 2 C6 3.65 6 5.3 6 7 C5.34 6.67 4.68 6.34 4 6 C4 4.68 4 3.36 4 2 C2.02 2.99 2.02 2.99 0 4 C0 2.68 0 1.36 0 0 Z " fill="#049EE3" transform="translate(182,132)"/>
<path d="M0 0 C0.66 0 1.32 0 2 0 C2.66 0.99 3.32 1.98 4 3 C4.99 3.66 5.98 4.32 7 5 C2.545 5.495 2.545 5.495 -2 6 C-2 5.01 -2 4.02 -2 3 C-1.01 3 -0.02 3 1 3 C0.67 2.01 0.34 1.02 0 0 Z " fill="#2F4870" transform="translate(183,289)"/>
<path d="M0 0 C0.99 0 1.98 0 3 0 C2.1875 3.4375 2.1875 3.4375 1 7 C0.01 7.33 -0.98 7.66 -2 8 C-1.125 1.125 -1.125 1.125 0 0 Z " fill="#283360" transform="translate(62,282)"/>
<path d="M0 0 C0.66 0.33 1.32 0.66 2 1 C2 5 2 5 0.5 6.75 C0.005 7.1625 -0.49 7.575 -1 8 C-1.66 7.67 -2.32 7.34 -3 7 C-2.625 4.0625 -2.625 4.0625 -2 1 C-1.34 0.67 -0.68 0.34 0 0 Z " fill="#25355F" transform="translate(78,252)"/>
<path d="M0 0 C0 3.5595477 -0.61579539 4.44549506 -3 7 C-5.1875 7.75 -5.1875 7.75 -7 8 C-5.61918777 3.8575633 -3.40174442 2.67796901 0 0 Z " fill="#3694C2" transform="translate(199,229)"/>
<path d="M0 0 C3.317124 4.422832 3.30466674 5.71910976 3 11 C2.01 11.495 2.01 11.495 1 12 C0.67 8.04 0.34 4.08 0 0 Z " fill="#2CA2D9" transform="translate(148,170)"/>
<path d="M0 0 C0.66 0 1.32 0 2 0 C2 0.99 2 1.98 2 3 C2.66 3 3.32 3 4 3 C4 5.31 4 7.62 4 10 C0 4 0 4 0 0 Z " fill="#436A87" transform="translate(172,272)"/>
<path d="M0 0 C0.66 0.33 1.32 0.66 2 1 C2.625 3.0625 2.625 3.0625 3 5 C0.69 5 -1.62 5 -4 5 C-4 4.34 -4 3.68 -4 3 C-2.68 3 -1.36 3 0 3 C0 2.01 0 1.02 0 0 Z " fill="#034F82" transform="translate(153,256)"/>
<path d="M0 0 C1.4540625 0.0309375 1.4540625 0.0309375 2.9375 0.0625 C2.31875 0.330625 1.7 0.59875 1.0625 0.875 C-1.3620233 2.01806848 -1.3620233 2.01806848 -3.0625 5.0625 C-4.0525 5.0625 -5.0425 5.0625 -6.0625 5.0625 C-3.64893617 0.07446809 -3.64893617 0.07446809 0 0 Z " fill="#414C4F" transform="translate(272.0625,233.9375)"/>
<path d="M0 0 C1.67542976 0.28604898 3.34385343 0.61781233 5 1 C4.67 1.99 4.34 2.98 4 4 C1.9375 4.6875 1.9375 4.6875 0 5 C-0.5625 3.0625 -0.5625 3.0625 -1 1 C-0.67 0.67 -0.34 0.34 0 0 Z " fill="#1F2E32" transform="translate(253,235)"/>
<path d="M0 0 C0.66 0.33 1.32 0.66 2 1 C2 2.98 2 4.96 2 7 C1.01 7 0.02 7 -1 7 C-1.625 5.1875 -1.625 5.1875 -2 3 C-1.34 2.01 -0.68 1.02 0 0 Z " fill="#197AAA" transform="translate(125,203)"/>
<path d="M0 0 C1.65 0 3.3 0 5 0 C6.04449911 3.13349732 5.93423645 3.98968256 5 7 C4.87625 6.071875 4.87625 6.071875 4.75 5.125 C4.18741541 2.81562433 4.18741541 2.81562433 1.9375 1.75 C1.298125 1.5025 0.65875 1.255 0 1 C0 0.67 0 0.34 0 0 Z " fill="#47B2E0" transform="translate(170,152)"/>
<path d="M0 0 C2.4375 0.625 2.4375 0.625 5 2 C5.8125 5.125 5.8125 5.125 6 8 C5.01 8.495 5.01 8.495 4 9 C3.67 6.69 3.34 4.38 3 2 C2.01 2 1.02 2 0 2 C0 1.34 0 0.68 0 0 Z " fill="#059EE3" transform="translate(133,150)"/>
<path d="M0 0 C0.928125 0.0825 1.85625 0.165 2.8125 0.25 C2.8125 0.91 2.8125 1.57 2.8125 2.25 C-0.1575 2.91 -3.1275 3.57 -6.1875 4.25 C-4.36434338 1.00883268 -3.82500054 0.30000004 0 0 Z " fill="#0A527F" transform="translate(118.1875,235.75)"/>
<path d="M0 0 C2.31 0 4.62 0 7 0 C6.34 1.32 5.68 2.64 5 4 C3.0625 3.6875 3.0625 3.6875 1 3 C0.67 2.01 0.34 1.02 0 0 Z " fill="#058DCA" transform="translate(191,229)"/>
<path d="M0 0 C2 1 2 1 3.125 4.0625 C3.41375 5.031875 3.7025 6.00125 4 7 C3.01 7.33 2.02 7.66 1 8 C0.67 5.36 0.34 2.72 0 0 Z " fill="#4093BA" transform="translate(139,205)"/>
<path d="M0 0 C2.97 0 5.94 0 9 0 C5.39338934 1.80330533 2.91606575 2.46599103 -1 3 C-0.67 2.01 -0.34 1.02 0 0 Z " fill="#457C9B" transform="translate(156,259)"/>
<path d="M0 0 C0.66 0.33 1.32 0.66 2 1 C2 3.64 2 6.28 2 9 C1.67 9 1.34 9 1 9 C0.67 7.35 0.34 5.7 0 4 C-0.99 3.67 -1.98 3.34 -3 3 C-2.01 2.01 -1.02 1.02 0 0 Z " fill="#546063" transform="translate(536,250)"/>
<path d="M0 0 C0.33 0.99 0.66 1.98 1 3 C-0.32 4.32 -1.64 5.64 -3 7 C-3.66 5.68 -4.32 4.36 -5 3 C-3.35 2.67 -1.7 2.34 0 2 C0 1.34 0 0.68 0 0 Z " fill="#313D40" transform="translate(507,244)"/>
<path d="M0 0 C0.66 0.33 1.32 0.66 2 1 C1.34 3.31 0.68 5.62 0 8 C-0.33 7.01 -0.66 6.02 -1 5 C-1.66 4.67 -2.32 4.34 -3 4 C-2.67 3.01 -2.34 2.02 -2 1 C-1.34 0.67 -0.68 0.34 0 0 Z " fill="#174A71" transform="translate(87,233)"/>
<path d="M0 0 C-0.66 1.98 -1.32 3.96 -2 6 C-2.33 5.01 -2.66 4.02 -3 3 C-3.66 3 -4.32 3 -5 3 C-5 2.34 -5 1.68 -5 1 C-3 0 -3 0 0 0 Z " fill="#1F2C69" transform="translate(71,212)"/>
<path d="M0 0 C1 4 1 4 0 6 C-2.5625 6.625 -2.5625 6.625 -5 7 C-3.35 4.69 -1.7 2.38 0 0 Z " fill="#3B6F92" transform="translate(77,140)"/>
<path d="" fill="#000000" transform="translate(0,0)"/>
</svg>
