<?xml version="1.0" encoding="UTF-8"?>
<!DOCTYPE svg PUBLIC "-//W3C//DTD SVG 1.1//EN" "http://www.w3.org/Graphics/SVG/1.1/DTD/svg11.dtd">
<svg xmlns="http://www.w3.org/2000/svg" version="1.1" width="594px" height="420px" style="shape-rendering:geometricPrecision; text-rendering:geometricPrecision; image-rendering:optimizeQuality; fill-rule:evenodd; clip-rule:evenodd" xmlns:xlink="http://www.w3.org/1999/xlink">
<g><path style="opacity:0.872" fill="#525252" d="M 121.5,119.5 C 119.866,120.161 118.033,120.494 116,120.5C 112.826,120.04 109.993,119.373 107.5,118.5C 108.928,115.4 111.261,114.9 114.5,117C 115.833,117.667 115.833,118.333 114.5,119C 116.985,118.919 119.319,119.086 121.5,119.5 Z"/></g>
<g><path style="opacity:0.985" fill="#0d0b0b" d="M 107.5,118.5 C 109.993,119.373 112.826,120.04 116,120.5C 118.033,120.494 119.866,120.161 121.5,119.5C 125.231,120.062 128.897,121.229 132.5,123C 130.942,123.21 129.609,123.71 128.5,124.5C 129.038,126.117 129.371,127.784 129.5,129.5C 125.199,130.534 121.032,130.534 117,129.5C 114.365,130.811 112.031,132.478 110,134.5C 109.055,134.095 108.388,133.428 108,132.5C 106.736,134.607 104.903,135.607 102.5,135.5C 100.965,134.646 99.6316,134.646 98.5,135.5C 93.6994,137.984 89.0328,140.65 84.5,143.5C 83.2905,143.932 82.2905,144.599 81.5,145.5C 78.4797,148.516 75.1464,151.183 71.5,153.5C 70.5987,154.29 69.9321,155.29 69.5,156.5C 63.2329,163.224 58.2329,170.891 54.5,179.5C 52.0181,181.503 51.0181,184.169 51.5,187.5C 51.3173,191.9 50.6506,196.234 49.5,200.5C 49.5698,201.772 49.9032,202.938 50.5,204C 48.4366,207.565 48.4366,211.232 50.5,215C 51.3118,231.022 57.3118,245.355 68.5,258C 69.448,258.483 70.448,258.649 71.5,258.5C 71.2965,260.39 71.9632,261.89 73.5,263C 77.1018,266.441 81.1018,269.275 85.5,271.5C 86.172,272.267 87.0053,272.934 88,273.5C 88.7796,271.613 88.6129,269.946 87.5,268.5C 87.5,267.5 87.5,266.5 87.5,265.5C 96.035,266.343 103.035,263.676 108.5,257.5C 108.632,256.037 108.965,254.537 109.5,253C 109.265,249.044 108.265,245.544 106.5,242.5C 104.272,241.623 102.272,240.29 100.5,238.5C 98.9519,238.179 98.2852,237.179 98.5,235.5C 100.933,235.273 102.599,236.273 103.5,238.5C 104.209,239.404 105.209,239.737 106.5,239.5C 106.157,237.517 106.824,236.183 108.5,235.5C 108.787,238.484 110.454,239.817 113.5,239.5C 113.783,240.289 114.283,240.956 115,241.5C 116.518,240.837 117.685,239.837 118.5,238.5C 121.216,236.387 124.05,234.387 127,232.5C 126.22,230.27 125.387,227.937 124.5,225.5C 125.404,224.791 125.737,223.791 125.5,222.5C 124.448,220.744 122.781,220.077 120.5,220.5C 120.5,219.167 120.5,217.833 120.5,216.5C 122.5,216.5 124.5,216.5 126.5,216.5C 127.467,212.149 125.8,209.815 121.5,209.5C 121.5,210.833 121.5,212.167 121.5,213.5C 120.5,213.5 119.5,213.5 118.5,213.5C 118.167,213.5 117.833,213.5 117.5,213.5C 116.081,212.549 114.415,212.216 112.5,212.5C 112.5,215.167 112.5,217.833 112.5,220.5C 114.527,220.338 116.527,220.505 118.5,221C 116.942,221.21 115.609,221.71 114.5,222.5C 111.344,223.434 108.011,224.101 104.5,224.5C 104.433,225.959 104.766,227.292 105.5,228.5C 104.547,230.61 102.881,231.777 100.5,232C 94.4442,232.153 88.6109,233.319 83,235.5C 82,235.167 81,234.833 80,234.5C 80.0022,232.668 79.1688,230.835 77.5,229C 77.8198,227.347 78.8198,226.347 80.5,226C 75.7848,226.116 72.1181,224.283 69.5,220.5C 70.5826,217.862 71.9159,215.529 73.5,213.5C 75.7844,212.971 77.7844,211.971 79.5,210.5C 79.4142,209.504 79.7476,208.671 80.5,208C 87.0085,207.156 93.3418,206.323 99.5,205.5C 98.3063,204.201 97.3063,202.868 96.5,201.5C 95.8902,200.609 95.5569,199.609 95.5,198.5C 95.5,197.833 95.5,197.167 95.5,196.5C 96.5375,195.07 97.2041,193.403 97.5,191.5C 99.539,190.328 100.872,188.662 101.5,186.5C 101.281,187.675 101.614,188.675 102.5,189.5C 103.85,188.05 105.516,187.383 107.5,187.5C 106.969,184.112 108.303,182.112 111.5,181.5C 114.456,180.863 117.456,180.363 120.5,180C 121.862,177.966 122.862,175.799 123.5,173.5C 124.605,172.4 125.938,171.733 127.5,171.5C 137.223,170.553 146.556,171.887 155.5,175.5C 155.5,177.5 155.5,179.5 155.5,181.5C 157.527,181.338 159.527,181.505 161.5,182C 163.469,184.684 165.802,185.518 168.5,184.5C 172.76,184.174 174.593,185.84 174,189.5C 176.477,190.907 178.977,192.241 181.5,193.5C 181.804,194.15 182.137,194.817 182.5,195.5C 182.086,197.919 181.086,199.919 179.5,201.5C 173.5,201.833 167.5,202.167 161.5,202.5C 157.119,202.372 152.785,202.705 148.5,203.5C 148.715,205.179 148.048,206.179 146.5,206.5C 145.688,205.007 144.355,204.34 142.5,204.5C 139.92,204.724 137.586,205.391 135.5,206.5C 134.225,209.604 134.225,212.604 135.5,215.5C 136.08,217.749 137.413,219.415 139.5,220.5C 141.607,221.468 143.941,221.802 146.5,221.5C 147.217,228.129 150.05,229.129 155,224.5C 155.667,223.5 155.667,222.5 155,221.5C 153.606,219.612 152.44,217.612 151.5,215.5C 150.933,213.97 150.267,212.47 149.5,211C 154.606,211.114 159.273,210.28 163.5,208.5C 166.5,207.833 169.5,207.167 172.5,206.5C 177.179,206.334 181.845,206.501 186.5,207C 187.044,207.717 187.711,208.217 188.5,208.5C 190.85,210.213 191.85,212.547 191.5,215.5C 188.755,215.373 186.755,216.54 185.5,219C 182.793,219.395 180.127,219.895 177.5,220.5C 176.749,219.427 175.749,219.26 174.5,220C 167.846,224.892 168.846,226.392 177.5,224.5C 178.785,233.555 175.119,236.888 166.5,234.5C 158.01,233.343 149.343,233.176 140.5,234C 139.29,235.039 138.29,236.206 137.5,237.5C 134.657,238.172 132.157,239.505 130,241.5C 129.421,242.928 129.588,244.262 130.5,245.5C 127.556,247.715 125.89,250.715 125.5,254.5C 127.111,257.446 129.111,260.113 131.5,262.5C 134.335,264.413 137.668,265.413 141.5,265.5C 143.833,265.5 146.167,265.5 148.5,265.5C 150.207,266.873 151.54,268.539 152.5,270.5C 152.5,273.5 152.5,276.5 152.5,279.5C 155.872,278.551 159.205,278.551 162.5,279.5C 163.524,278.147 164.857,277.48 166.5,277.5C 168.066,276.939 169.399,277.606 170.5,279.5C 171.744,276.36 173.411,276.027 175.5,278.5C 176.386,277.675 176.719,276.675 176.5,275.5C 178.604,275.201 180.604,275.534 182.5,276.5C 178.664,281.758 174.331,286.591 169.5,291C 166.928,292.454 164.261,293.621 161.5,294.5C 158.933,294.721 156.599,295.388 154.5,296.5C 154.5,297.167 154.167,297.5 153.5,297.5C 150.848,297.41 148.515,298.076 146.5,299.5C 141.919,300.333 137.253,301.333 132.5,302.5C 129.586,302.195 126.919,302.195 124.5,302.5C 119.935,302.602 115.269,302.602 110.5,302.5C 109.779,300.618 108.779,300.285 107.5,301.5C 89.0119,298.353 72.6785,290.353 58.5,277.5C 58.1788,275.952 57.1788,275.285 55.5,275.5C 53.1066,272.397 50.9399,269.064 49,265.5C 47.3333,264.167 45.6667,262.833 44,261.5C 40.6504,254.801 37.3171,248.134 34,241.5C 33.5034,239.19 33.3367,236.857 33.5,234.5C 32.8232,230.191 31.4899,226.191 29.5,222.5C 28.6982,217.068 28.0315,211.568 27.5,206C 28.6953,199.547 29.5287,193.047 30,186.5C 30.3678,185.09 31.2011,184.09 32.5,183.5C 33.4742,181.257 33.8076,178.924 33.5,176.5C 35.2413,174.605 36.2413,172.272 36.5,169.5C 41.1946,157.819 48.1946,147.819 57.5,139.5C 57.56,140.043 57.8933,140.376 58.5,140.5C 59.3857,139.675 59.719,138.675 59.5,137.5C 65.5398,132.464 71.8732,127.797 78.5,123.5C 79.1667,124.167 79.8333,124.833 80.5,125.5C 85.256,123.533 89.756,121.2 94,118.5C 94.9454,118.905 95.6121,119.572 96,120.5C 96.6667,119.167 97.6667,118.167 99,117.5C 101.744,117.214 104.577,117.547 107.5,118.5 Z"/></g>
<g><path style="opacity:0.439" fill="#5d5d5d" d="M 121.5,119.5 C 122.91,118.172 124.076,118.505 125,120.5C 125.689,119.643 126.522,118.977 127.5,118.5C 130.941,122.027 134.941,123.027 139.5,121.5C 139.5,122.5 139.5,123.5 139.5,124.5C 135.833,125.833 132.167,125.833 128.5,124.5C 129.609,123.71 130.942,123.21 132.5,123C 128.897,121.229 125.231,120.062 121.5,119.5 Z"/></g>
<g><path style="opacity:0.051" fill="#c6c6c6" d="M 98.5,135.5 C 99.6316,134.646 100.965,134.646 102.5,135.5C 101.295,136.686 99.9613,136.686 98.5,135.5 Z"/></g>
<g><path style="opacity:0.4" fill="#989898" d="M 59.5,137.5 C 59.719,138.675 59.3857,139.675 58.5,140.5C 57.8933,140.376 57.56,140.043 57.5,139.5C 58.1667,138.833 58.8333,138.167 59.5,137.5 Z"/></g>
<g><path style="opacity:0.004" fill="#cecece" d="M 84.5,143.5 C 84.1788,145.048 83.1788,145.715 81.5,145.5C 82.2905,144.599 83.2905,143.932 84.5,143.5 Z"/></g>
<g><path style="opacity:0.965" fill="#da382c" d="M 162.5,151.5 C 151.169,149.05 140.503,150.55 130.5,156C 128.19,156.497 125.857,156.663 123.5,156.5C 127.732,153.686 132.399,151.519 137.5,150C 144.833,149.333 152.167,149.333 159.5,150C 160.737,150.232 161.737,150.732 162.5,151.5 Z"/></g>
<g><path style="opacity:1" fill="#f80503" d="M 162.5,151.5 C 162.804,152.15 163.137,152.817 163.5,153.5C 168.439,155.169 173.106,157.169 177.5,159.5C 177.5,160.833 177.5,162.167 177.5,163.5C 180.588,163.197 182.254,164.53 182.5,167.5C 184.292,167.366 185.958,167.699 187.5,168.5C 187.216,171.857 188.549,174.191 191.5,175.5C 191.421,180.756 192.921,185.423 196,189.5C 196.191,191.708 196.691,193.708 197.5,195.5C 197.5,197.167 197.5,198.833 197.5,200.5C 196.365,203.338 195.365,206.338 194.5,209.5C 194,209.833 193.5,210.167 193,210.5C 191.594,209.586 190.094,208.92 188.5,208.5C 188.586,207.504 188.252,206.671 187.5,206C 185.285,204.956 182.952,204.29 180.5,204C 183.843,200.513 184.177,197.013 181.5,193.5C 181.586,192.504 181.252,191.671 180.5,191C 178.899,190.727 177.399,190.227 176,189.5C 175.711,184.119 173.211,182.452 168.5,184.5C 167.5,184.5 166.5,184.5 165.5,184.5C 165.5,183.167 165.5,181.833 165.5,180.5C 162.833,180.5 160.167,180.5 157.5,180.5C 157.923,178.219 157.256,176.552 155.5,175.5C 155.489,173.983 154.823,172.816 153.5,172C 150.823,171.751 148.49,170.751 146.5,169C 141.824,168.537 137.157,168.704 132.5,169.5C 130.36,169.556 128.694,170.223 127.5,171.5C 125.938,171.733 124.605,172.4 123.5,173.5C 121.107,174.353 119.774,176.019 119.5,178.5C 116.833,178.5 114.167,178.5 111.5,178.5C 111.5,179.5 111.5,180.5 111.5,181.5C 108.303,182.112 106.969,184.112 107.5,187.5C 105.516,187.383 103.85,188.05 102.5,189.5C 101.614,188.675 101.281,187.675 101.5,186.5C 101.278,182.158 102.611,178.491 105.5,175.5C 109.009,173.632 111.009,170.632 111.5,166.5C 113.215,164.118 115.215,162.118 117.5,160.5C 120.878,161.109 122.878,159.776 123.5,156.5C 125.857,156.663 128.19,156.497 130.5,156C 140.503,150.55 151.169,149.05 162.5,151.5 Z"/></g>
<g><path style="opacity:0.008" fill="#e5e5e5" d="M 71.5,153.5 C 71.7148,155.179 71.0481,156.179 69.5,156.5C 69.9321,155.29 70.5987,154.29 71.5,153.5 Z"/></g>
<g><path style="opacity:0.514" fill="#de4d43" d="M 162.5,151.5 C 168.48,152.687 173.48,155.354 177.5,159.5C 173.106,157.169 168.439,155.169 163.5,153.5C 163.137,152.817 162.804,152.15 162.5,151.5 Z"/></g>
<g><path style="opacity:0.121" fill="#a5a3a4" d="M 316.5,154.5 C 323.982,153.508 331.648,153.175 339.5,153.5C 339.5,174.833 339.5,196.167 339.5,217.5C 349.833,217.5 360.167,217.5 370.5,217.5C 370.5,217.833 370.5,218.167 370.5,218.5C 359.833,218.5 349.167,218.5 338.5,218.5C 338.5,197.167 338.5,175.833 338.5,154.5C 331.167,154.5 323.833,154.5 316.5,154.5 Z"/></g>
<g><path style="opacity:0.248" fill="#bbbabb" d="M 425.5,196.5 C 424.504,182.677 424.171,168.677 424.5,154.5C 417.5,154.5 410.5,154.5 403.5,154.5C 403.5,183.167 403.5,211.833 403.5,240.5C 410.5,240.5 417.5,240.5 424.5,240.5C 424.175,233.313 424.509,226.313 425.5,219.5C 425.5,226.833 425.5,234.167 425.5,241.5C 417.833,241.5 410.167,241.5 402.5,241.5C 402.5,212.167 402.5,182.833 402.5,153.5C 410.167,153.5 417.833,153.5 425.5,153.5C 425.5,167.833 425.5,182.167 425.5,196.5 Z"/></g>
<g><path style="opacity:0.999" fill="#282425" d="M 474.5,205.5 C 474.5,204.833 474.167,204.5 473.5,204.5C 473.5,203.833 473.167,203.5 472.5,203.5C 472.5,202.833 472.167,202.5 471.5,202.5C 471.5,201.833 471.167,201.5 470.5,201.5C 470.5,201.167 470.5,200.833 470.5,200.5C 470.504,196.67 468.838,195.67 465.5,197.5C 465.167,197.5 464.833,197.5 464.5,197.5C 463.791,196.596 462.791,196.263 461.5,196.5C 458.746,196.216 456.08,195.549 453.5,194.5C 454.75,188.248 455.417,181.915 455.5,175.5C 454.833,168.5 454.666,161.5 455,154.5C 462.413,153.519 469.913,153.186 477.5,153.5C 477.833,171.179 477.5,188.846 476.5,206.5C 475.817,206.137 475.15,205.804 474.5,205.5 Z"/></g>
<g><path style="opacity:0.999" fill="#252122" d="M 564.5,172.5 C 564.5,195.167 564.5,217.833 564.5,240.5C 557.167,240.5 549.833,240.5 542.5,240.5C 542.5,233.167 542.5,225.833 542.5,218.5C 528.833,218.5 515.167,218.5 501.5,218.5C 498.833,218.833 498.833,219.167 501.5,219.5C 503.556,220.216 505.723,220.883 508,221.5C 508.5,227.825 508.666,234.158 508.5,240.5C 501.5,240.5 494.5,240.5 487.5,240.5C 487.334,230.828 487.5,221.161 488,211.5C 488.816,212.823 489.983,213.489 491.5,213.5C 491.833,214.833 492.167,214.833 492.5,213.5C 492.5,212.833 492.167,212.5 491.5,212.5C 491.5,211.833 491.167,211.5 490.5,211.5C 490.5,210.833 490.167,210.5 489.5,210.5C 489.5,209.833 489.5,209.167 489.5,208.5C 489.068,207.29 488.401,206.29 487.5,205.5C 486.355,193.576 486.189,181.576 487,169.5C 488.707,162.61 492.874,157.776 499.5,155C 516.839,153.016 534.172,153.016 551.5,155C 559.047,158.388 563.38,164.222 564.5,172.5 Z M 508.5,177.5 C 519.5,177.5 530.5,177.5 541.5,177.5C 541.5,184.167 541.5,190.833 541.5,197.5C 530.5,197.5 519.5,197.5 508.5,197.5C 508.5,190.833 508.5,184.167 508.5,177.5 Z M 494.5,215.5 C 495.473,215.987 496.473,216.487 497.5,217C 495.843,217.725 494.843,217.225 494.5,215.5 Z"/></g>
<g><path style="opacity:1" fill="#292526" d="M 232.5,154.5 C 239.833,154.5 247.167,154.5 254.5,154.5C 254.172,165.346 254.506,176.013 255.5,186.5C 265.558,187.14 275.225,186.473 284.5,184.5C 285.494,174.681 285.827,164.681 285.5,154.5C 292.5,154.5 299.5,154.5 306.5,154.5C 307.497,172.326 307.83,190.326 307.5,208.5C 287.164,208.667 266.831,208.5 246.5,208C 239.911,205.079 235.411,200.246 233,193.5C 231.281,180.369 231.115,167.369 232.5,154.5 Z"/></g>
<g><path style="opacity:0.999" fill="#252122" d="M 316.5,154.5 C 323.833,154.5 331.167,154.5 338.5,154.5C 338.5,175.833 338.5,197.167 338.5,218.5C 349.167,218.5 359.833,218.5 370.5,218.5C 371.497,197.34 371.831,176.007 371.5,154.5C 378.5,154.5 385.5,154.5 392.5,154.5C 392.667,177.502 392.5,200.502 392,223.5C 391.167,225 390,226.167 388.5,227C 389.973,227.71 390.64,228.876 390.5,230.5C 387.586,236.905 382.586,240.405 375.5,241C 361.833,241.667 348.167,241.667 334.5,241C 326.428,238.879 320.595,234.046 317,226.5C 316.5,202.502 316.333,178.502 316.5,154.5 Z"/></g>
<g><path style="opacity:0.999" fill="#231f21" d="M 425.5,196.5 C 437.322,197.495 449.322,197.828 461.5,197.5C 464.008,200.659 467.341,202.659 471.5,203.5C 471.833,203.5 472.167,203.5 472.5,203.5C 473.167,203.5 473.5,203.833 473.5,204.5C 474.167,204.5 474.5,204.833 474.5,205.5C 475.072,207.255 475.906,208.922 477,210.5C 477.5,220.494 477.666,230.494 477.5,240.5C 470.167,240.5 462.833,240.5 455.5,240.5C 455.822,234.642 455.489,228.975 454.5,223.5C 453.814,222.152 452.814,220.985 451.5,220C 442.84,219.5 434.173,219.334 425.5,219.5C 424.509,226.313 424.175,233.313 424.5,240.5C 417.5,240.5 410.5,240.5 403.5,240.5C 403.5,211.833 403.5,183.167 403.5,154.5C 410.5,154.5 417.5,154.5 424.5,154.5C 424.171,168.677 424.504,182.677 425.5,196.5 Z"/></g>
<g><path style="opacity:0.984" fill="#e34d3f" d="M 123.5,156.5 C 122.878,159.776 120.878,161.109 117.5,160.5C 118.802,158.178 120.802,156.845 123.5,156.5 Z"/></g>
<g><path style="opacity:0.2" fill="#c6c2c4" d="M 232.5,154.5 C 239.982,153.508 247.648,153.175 255.5,153.5C 255.5,164.5 255.5,175.5 255.5,186.5C 254.506,176.013 254.172,165.346 254.5,154.5C 247.167,154.5 239.833,154.5 232.5,154.5 Z"/></g>
<g><path style="opacity:1" fill="#e54331" d="M 177.5,159.5 C 182.131,161.135 185.465,164.135 187.5,168.5C 185.958,167.699 184.292,167.366 182.5,167.5C 182.254,164.53 180.588,163.197 177.5,163.5C 177.5,162.167 177.5,160.833 177.5,159.5 Z"/></g>
<g><path style="opacity:0.533" fill="#8f8d8e" d="M 306.5,154.5 C 299.5,154.5 292.5,154.5 285.5,154.5C 285.827,164.681 285.494,174.681 284.5,184.5C 284.5,174.167 284.5,163.833 284.5,153.5C 292.019,153.175 299.352,153.508 306.5,154.5 Z"/></g>
<g><path style="opacity:1" fill="#be0e0f" d="M 155.5,175.5 C 146.556,171.887 137.223,170.553 127.5,171.5C 128.694,170.223 130.36,169.556 132.5,169.5C 137.157,168.704 141.824,168.537 146.5,169C 148.49,170.751 150.823,171.751 153.5,172C 154.823,172.816 155.489,173.983 155.5,175.5 Z"/></g>
<g><path style="opacity:1" fill="#e25447" d="M 111.5,166.5 C 111.009,170.632 109.009,173.632 105.5,175.5C 106.723,171.951 108.723,168.951 111.5,166.5 Z"/></g>
<g><path style="opacity:0.049" fill="#949494" d="M 36.5,169.5 C 36.2413,172.272 35.2413,174.605 33.5,176.5C 33.7587,173.728 34.7587,171.395 36.5,169.5 Z"/></g>
<g><path style="opacity:0.784" fill="#da4b3d" d="M 187.5,168.5 C 189.588,170.336 190.921,172.669 191.5,175.5C 188.549,174.191 187.216,171.857 187.5,168.5 Z"/></g>
<g><path style="opacity:1" fill="#a11011" d="M 155.5,175.5 C 157.256,176.552 157.923,178.219 157.5,180.5C 160.167,180.5 162.833,180.5 165.5,180.5C 165.5,181.833 165.5,183.167 165.5,184.5C 166.5,184.5 167.5,184.5 168.5,184.5C 165.802,185.518 163.469,184.684 161.5,182C 159.527,181.505 157.527,181.338 155.5,181.5C 155.5,179.5 155.5,177.5 155.5,175.5 Z"/></g>
<g><path style="opacity:0.035" fill="#eaeaea" d="M 508.5,177.5 C 519.654,176.505 530.988,176.172 542.5,176.5C 542.825,183.687 542.491,190.687 541.5,197.5C 541.5,190.833 541.5,184.167 541.5,177.5C 530.5,177.5 519.5,177.5 508.5,177.5 Z"/></g>
<g><path style="opacity:0.125" fill="#a3a2a2" d="M 564.5,172.5 C 565.498,195.327 565.831,218.327 565.5,241.5C 557.5,241.5 549.5,241.5 541.5,241.5C 541.5,234.167 541.5,226.833 541.5,219.5C 528.167,219.5 514.833,219.5 501.5,219.5C 501.5,219.167 501.5,218.833 501.5,218.5C 515.167,218.5 528.833,218.5 542.5,218.5C 542.5,225.833 542.5,233.167 542.5,240.5C 549.833,240.5 557.167,240.5 564.5,240.5C 564.5,217.833 564.5,195.167 564.5,172.5 Z"/></g>
<g><path style="opacity:1" fill="#941215" d="M 123.5,173.5 C 122.862,175.799 121.862,177.966 120.5,180C 117.456,180.363 114.456,180.863 111.5,181.5C 111.5,180.5 111.5,179.5 111.5,178.5C 114.167,178.5 116.833,178.5 119.5,178.5C 119.774,176.019 121.107,174.353 123.5,173.5 Z"/></g>
<g><path style="opacity:0.063" fill="#8b8b8b" d="M 54.5,179.5 C 53.4942,182.21 52.4942,184.876 51.5,187.5C 51.0181,184.169 52.0181,181.503 54.5,179.5 Z"/></g>
<g><path style="opacity:1" fill="#a7110f" d="M 168.5,184.5 C 173.211,182.452 175.711,184.119 176,189.5C 177.399,190.227 178.899,190.727 180.5,191C 181.252,191.671 181.586,192.504 181.5,193.5C 178.977,192.241 176.477,190.907 174,189.5C 174.593,185.84 172.76,184.174 168.5,184.5 Z"/></g>
<g><path style="opacity:0.969" fill="#d73a2c" d="M 191.5,175.5 C 192.79,176.058 193.623,177.058 194,178.5C 196.11,183.991 197.277,189.658 197.5,195.5C 196.691,193.708 196.191,191.708 196,189.5C 192.921,185.423 191.421,180.756 191.5,175.5 Z"/></g>
<g><path style="opacity:0.118" fill="#a1a1a1" d="M 97.5,191.5 C 97.2041,193.403 96.5375,195.07 95.5,196.5C 95.1201,194.302 95.7868,192.635 97.5,191.5 Z"/></g>
<g><path style="opacity:0.051" fill="#e8e8e8" d="M 95.5,198.5 C 95.5569,199.609 95.8902,200.609 96.5,201.5C 94.4482,200.947 94.1148,199.947 95.5,198.5 Z"/></g>
<g><path style="opacity:0.425" fill="#686667" d="M 390.5,230.5 C 390.64,228.876 389.973,227.71 388.5,227C 390,226.167 391.167,225 392,223.5C 392.5,200.502 392.667,177.502 392.5,154.5C 385.5,154.5 378.5,154.5 371.5,154.5C 371.831,176.007 371.497,197.34 370.5,218.5C 370.5,218.167 370.5,217.833 370.5,217.5C 370.5,196.167 370.5,174.833 370.5,153.5C 378.167,153.5 385.833,153.5 393.5,153.5C 393.667,177.169 393.5,200.836 393,224.5C 392.963,226.974 392.13,228.974 390.5,230.5 Z"/></g>
<g><path style="opacity:0.943" fill="#686465" d="M 461.5,196.5 C 462.791,196.263 463.791,196.596 464.5,197.5C 464.833,198.833 465.167,198.833 465.5,197.5C 468.838,195.67 470.504,196.67 470.5,200.5C 469.167,200.833 469.167,201.167 470.5,201.5C 471.167,201.5 471.5,201.833 471.5,202.5C 471.5,202.833 471.5,203.167 471.5,203.5C 467.341,202.659 464.008,200.659 461.5,197.5C 461.5,197.167 461.5,196.833 461.5,196.5 Z"/></g>
<g><path style="opacity:1" fill="#7c0f0d" d="M 179.5,201.5 C 176.833,202.167 174.167,202.833 171.5,203.5C 168.167,203.5 164.833,203.5 161.5,203.5C 161.5,203.167 161.5,202.833 161.5,202.5C 167.5,202.167 173.5,201.833 179.5,201.5 Z"/></g>
<g><path style="opacity:1" fill="#b31011" d="M 181.5,193.5 C 184.177,197.013 183.843,200.513 180.5,204C 182.952,204.29 185.285,204.956 187.5,206C 188.252,206.671 188.586,207.504 188.5,208.5C 187.711,208.217 187.044,207.717 186.5,207C 181.845,206.501 177.179,206.334 172.5,206.5C 179.221,204.686 178.887,203.686 171.5,203.5C 174.167,202.833 176.833,202.167 179.5,201.5C 181.086,199.919 182.086,197.919 182.5,195.5C 182.137,194.817 181.804,194.15 181.5,193.5 Z"/></g>
<g><path style="opacity:1" fill="#d6110f" d="M 161.5,203.5 C 164.833,203.5 168.167,203.5 171.5,203.5C 178.887,203.686 179.221,204.686 172.5,206.5C 169.5,207.167 166.5,207.833 163.5,208.5C 159.575,208.227 155.575,208.56 151.5,209.5C 151.286,207.856 151.62,206.356 152.5,205C 155.432,204.047 158.432,203.547 161.5,203.5 Z"/></g>
<g><path style="opacity:1" fill="#6f0e10" d="M 146.5,206.5 C 147.85,207.824 147.683,208.824 146,209.5C 141.492,207.315 139.325,208.648 139.5,213.5C 140.791,213.263 141.791,213.596 142.5,214.5C 141.167,214.5 139.833,214.5 138.5,214.5C 138.5,211.833 138.5,209.167 138.5,206.5C 137.5,206.5 136.5,206.5 135.5,206.5C 137.586,205.391 139.92,204.724 142.5,204.5C 144.355,204.34 145.688,205.007 146.5,206.5 Z"/></g>
<g><path style="opacity:1" fill="#220603" d="M 161.5,202.5 C 161.5,202.833 161.5,203.167 161.5,203.5C 158.432,203.547 155.432,204.047 152.5,205C 151.62,206.356 151.286,207.856 151.5,209.5C 155.575,208.56 159.575,208.227 163.5,208.5C 159.273,210.28 154.606,211.114 149.5,211C 150.267,212.47 150.933,213.97 151.5,215.5C 150.127,215.657 148.793,215.49 147.5,215C 148.706,213.982 148.373,213.482 146.5,213.5C 145.151,213.846 143.817,214.179 142.5,214.5C 141.791,213.596 140.791,213.263 139.5,213.5C 139.325,208.648 141.492,207.315 146,209.5C 147.683,208.824 147.85,207.824 146.5,206.5C 148.048,206.179 148.715,205.179 148.5,203.5C 152.785,202.705 157.119,202.372 161.5,202.5 Z"/></g>
<g><path style="opacity:1" fill="#c13226" d="M 197.5,200.5 C 197.488,206.709 196.321,212.709 194,218.5C 192.97,220.346 191.804,222.013 190.5,223.5C 190.5,221.833 190.5,220.167 190.5,218.5C 188.319,218.284 186.653,219.117 185.5,221C 182.633,221.801 179.966,221.634 177.5,220.5C 180.127,219.895 182.793,219.395 185.5,219C 186.755,216.54 188.755,215.373 191.5,215.5C 191.85,212.547 190.85,210.213 188.5,208.5C 190.094,208.92 191.594,209.586 193,210.5C 193.5,210.167 194,209.833 194.5,209.5C 195.365,206.338 196.365,203.338 197.5,200.5 Z"/></g>
<g><path style="opacity:0.506" fill="#939393" d="M 79.5,210.5 C 77.7844,211.971 75.7844,212.971 73.5,213.5C 74.9228,211.455 76.9228,210.455 79.5,210.5 Z"/></g>
<g><path style="opacity:0.999" fill="#2d292a" d="M 283.5,210.5 C 291.5,210.5 299.5,210.5 307.5,210.5C 306.08,224.877 298.746,234.71 285.5,240C 268.542,241.41 251.542,241.91 234.5,241.5C 234.5,233.5 234.5,225.5 234.5,217.5C 249.504,217.667 264.504,217.5 279.5,217C 281.923,215.429 283.256,213.263 283.5,210.5 Z"/></g>
<g><path style="opacity:1" fill="#270905" d="M 125.5,222.5 C 121.833,222.5 118.167,222.5 114.5,222.5C 115.609,221.71 116.942,221.21 118.5,221C 116.527,220.505 114.527,220.338 112.5,220.5C 112.5,217.833 112.5,215.167 112.5,212.5C 114.415,212.216 116.081,212.549 117.5,213.5C 114.09,213.384 112.756,215.05 113.5,218.5C 115.167,218.5 116.833,218.5 118.5,218.5C 118.5,216.833 118.5,215.167 118.5,213.5C 119.5,213.5 120.5,213.5 121.5,213.5C 121.5,212.167 121.5,210.833 121.5,209.5C 125.8,209.815 127.467,212.149 126.5,216.5C 124.5,216.5 122.5,216.5 120.5,216.5C 120.5,217.833 120.5,219.167 120.5,220.5C 122.781,220.077 124.448,220.744 125.5,222.5 Z"/></g>
<g><path style="opacity:1" fill="#9d1919" d="M 117.5,213.5 C 117.833,213.5 118.167,213.5 118.5,213.5C 118.5,215.167 118.5,216.833 118.5,218.5C 116.833,218.5 115.167,218.5 113.5,218.5C 112.756,215.05 114.09,213.384 117.5,213.5 Z"/></g>
<g><path style="opacity:1" fill="#e90b07" d="M 139.5,220.5 C 137.413,219.415 136.08,217.749 135.5,215.5C 136.804,204.932 137.47,204.932 137.5,215.5C 141.347,215.381 145.014,216.047 148.5,217.5C 148.5,218.5 148.5,219.5 148.5,220.5C 145.5,220.5 142.5,220.5 139.5,220.5 Z"/></g>
<g><path style="opacity:1" fill="#ad1514" d="M 135.5,206.5 C 136.5,206.5 137.5,206.5 138.5,206.5C 138.5,209.167 138.5,211.833 138.5,214.5C 139.833,214.5 141.167,214.5 142.5,214.5C 143.817,214.179 145.151,213.846 146.5,213.5C 148.373,213.482 148.706,213.982 147.5,215C 148.793,215.49 150.127,215.657 151.5,215.5C 152.44,217.612 153.606,219.612 155,221.5C 155.667,222.5 155.667,223.5 155,224.5C 150.05,229.129 147.217,228.129 146.5,221.5C 143.941,221.802 141.607,221.468 139.5,220.5C 142.5,220.5 145.5,220.5 148.5,220.5C 148.5,219.5 148.5,218.5 148.5,217.5C 145.014,216.047 141.347,215.381 137.5,215.5C 137.47,204.932 136.804,204.932 135.5,215.5C 134.225,212.604 134.225,209.604 135.5,206.5 Z"/></g>
<g><path style="opacity:1" fill="#a61819" d="M 177.5,220.5 C 176.503,220.47 175.836,220.97 175.5,222C 176.056,223.011 176.722,223.844 177.5,224.5C 168.846,226.392 167.846,224.892 174.5,220C 175.749,219.26 176.749,219.427 177.5,220.5 Z"/></g>
<g><path style="opacity:0.533" fill="#7c7b7b" d="M 487.5,205.5 C 488.401,206.29 489.068,207.29 489.5,208.5C 488.167,209.167 488.167,209.833 489.5,210.5C 490.167,210.5 490.5,210.833 490.5,211.5C 491.167,211.5 491.5,211.833 491.5,212.5C 492.167,212.5 492.5,212.833 492.5,213.5C 492.167,213.5 491.833,213.5 491.5,213.5C 489.983,213.489 488.816,212.823 488,211.5C 487.5,221.161 487.334,230.828 487.5,240.5C 494.5,240.5 501.5,240.5 508.5,240.5C 501.352,241.492 494.019,241.825 486.5,241.5C 486.207,229.45 486.541,217.45 487.5,205.5 Z"/></g>
<g><path style="opacity:1" fill="#bd4539" d="M 114.5,222.5 C 118.167,222.5 121.833,222.5 125.5,222.5C 125.737,223.791 125.404,224.791 124.5,225.5C 123.666,224.252 122.333,223.585 120.5,223.5C 117.183,224.053 113.85,224.386 110.5,224.5C 111.063,227.374 112.063,230.04 113.5,232.5C 110.636,230.977 108.969,228.643 108.5,225.5C 107.448,225.351 106.448,225.517 105.5,226C 106.774,226.977 106.774,227.811 105.5,228.5C 104.766,227.292 104.433,225.959 104.5,224.5C 108.011,224.101 111.344,223.434 114.5,222.5 Z"/></g>
<g><path style="opacity:1" fill="#f20605" d="M 124.5,225.5 C 124.101,228.057 123.768,230.723 123.5,233.5C 119.95,234.906 116.616,234.573 113.5,232.5C 112.063,230.04 111.063,227.374 110.5,224.5C 113.85,224.386 117.183,224.053 120.5,223.5C 122.333,223.585 123.666,224.252 124.5,225.5 Z"/></g>
<g><path style="opacity:1" fill="#911a17" d="M 162.5,222.5 C 165.588,222.197 167.254,223.53 167.5,226.5C 165.833,226.5 164.167,226.5 162.5,226.5C 162.5,225.167 162.5,223.833 162.5,222.5 Z"/></g>
<g><path style="opacity:1" fill="#ed0906" d="M 190.5,223.5 C 189.175,224.953 188.342,224.619 188,222.5C 187.51,223.793 187.343,225.127 187.5,226.5C 186.5,226.5 185.5,226.5 184.5,226.5C 184.313,228.564 183.813,230.564 183,232.5C 181.989,231.663 180.822,231.33 179.5,231.5C 180.01,228.612 179.344,226.279 177.5,224.5C 176.722,223.844 176.056,223.011 175.5,222C 175.836,220.97 176.503,220.47 177.5,220.5C 179.966,221.634 182.633,221.801 185.5,221C 186.653,219.117 188.319,218.284 190.5,218.5C 190.5,220.167 190.5,221.833 190.5,223.5 Z"/></g>
<g><path style="opacity:0.867" fill="#595959" d="M 29.5,222.5 C 31.4899,226.191 32.8232,230.191 33.5,234.5C 30.6274,231.13 29.2941,227.13 29.5,222.5 Z"/></g>
<g><path style="opacity:1" fill="#ac241e" d="M 124.5,225.5 C 125.387,227.937 126.22,230.27 127,232.5C 124.05,234.387 121.216,236.387 118.5,238.5C 117.162,236.304 115.495,234.304 113.5,232.5C 116.616,234.573 119.95,234.906 123.5,233.5C 123.768,230.723 124.101,228.057 124.5,225.5 Z"/></g>
<g><path style="opacity:0.996" fill="#454243" d="M 210.5,107.5 C 212.451,107.227 213.951,107.893 215,109.5C 215.667,176.167 215.667,242.833 215,309.5C 213.333,312.167 211.667,312.167 210,309.5C 209.171,242.096 209.337,174.763 210.5,107.5 Z"/></g>
<g><path style="opacity:0.004" fill="#fcdad4" d="M 183.5,233.5 C 183.027,234.906 182.027,235.573 180.5,235.5C 180.973,234.094 181.973,233.427 183.5,233.5 Z"/></g>
<g><path style="opacity:0.133" fill="#c1c0c3" d="M 108.5,235.5 C 106.824,236.183 106.157,237.517 106.5,239.5C 105.209,239.737 104.209,239.404 103.5,238.5C 105.176,237.817 105.843,236.483 105.5,234.5C 106.791,234.263 107.791,234.596 108.5,235.5 Z"/></g>
<g><path style="opacity:1" fill="#aa0e11" d="M 166.5,234.5 C 158.826,234.334 151.159,234.5 143.5,235C 142.022,237.039 140.022,237.872 137.5,237.5C 138.29,236.206 139.29,235.039 140.5,234C 149.343,233.176 158.01,233.343 166.5,234.5 Z"/></g>
<g><path style="opacity:1" fill="#f50504" d="M 166.5,234.5 C 168.542,236.83 171.208,237.996 174.5,238C 169.61,240.921 164.61,243.421 159.5,245.5C 152.313,245.175 145.313,245.509 138.5,246.5C 137.609,245.89 136.609,245.557 135.5,245.5C 135.279,244.265 134.612,243.265 133.5,242.5C 134.953,240.815 136.286,239.149 137.5,237.5C 140.022,237.872 142.022,237.039 143.5,235C 151.159,234.5 158.826,234.334 166.5,234.5 Z"/></g>
<g><path style="opacity:0.459" fill="#7f8380" d="M 108.5,235.5 C 109.955,237.134 111.622,238.468 113.5,239.5C 110.454,239.817 108.787,238.484 108.5,235.5 Z"/></g>
<g><path style="opacity:0.157" fill="#adacad" d="M 454.5,223.5 C 455.489,228.975 455.822,234.642 455.5,240.5C 462.833,240.5 470.167,240.5 477.5,240.5C 470.018,241.492 462.352,241.825 454.5,241.5C 454.5,235.5 454.5,229.5 454.5,223.5 Z"/></g>
<g><path style="opacity:0.043" fill="#c1c1c1" d="M 100.5,238.5 C 102.272,240.29 104.272,241.623 106.5,242.5C 103.122,243.109 101.122,241.776 100.5,238.5 Z"/></g>
<g><path style="opacity:1" fill="#d43d30" d="M 190.5,223.5 C 188.938,227.392 186.605,230.725 183.5,233.5C 181.973,233.427 180.973,234.094 180.5,235.5C 174.69,241.237 167.69,244.571 159.5,245.5C 164.61,243.421 169.61,240.921 174.5,238C 171.208,237.996 168.542,236.83 166.5,234.5C 175.119,236.888 178.785,233.555 177.5,224.5C 179.344,226.279 180.01,228.612 179.5,231.5C 180.822,231.33 181.989,231.663 183,232.5C 183.813,230.564 184.313,228.564 184.5,226.5C 185.5,226.5 186.5,226.5 187.5,226.5C 187.343,225.127 187.51,223.793 188,222.5C 188.342,224.619 189.175,224.953 190.5,223.5 Z"/></g>
<g><path style="opacity:0.984" fill="#b4251f" d="M 137.5,237.5 C 136.286,239.149 134.953,240.815 133.5,242.5C 134.612,243.265 135.279,244.265 135.5,245.5C 133.833,245.5 132.167,245.5 130.5,245.5C 129.588,244.262 129.421,242.928 130,241.5C 132.157,239.505 134.657,238.172 137.5,237.5 Z"/></g>
<g><path style="opacity:0.01" fill="#eac4c2" d="M 236.5,245.5 C 238.68,244.206 240.68,244.539 242.5,246.5C 240.5,246.167 238.5,245.833 236.5,245.5 Z"/></g>
<g><path style="opacity:0.012" fill="#ebeaea" d="M 444.5,245.5 C 443.041,245.433 441.708,245.766 440.5,246.5C 440.62,245.414 441.287,244.747 442.5,244.5C 443.416,244.543 444.083,244.876 444.5,245.5 Z"/></g>
<g><path style="opacity:0.788" fill="#dc453f" d="M 138.5,246.5 C 145.313,245.509 152.313,245.175 159.5,245.5C 152.726,247.755 145.726,248.088 138.5,246.5 Z"/></g>
<g><path style="opacity:0.667" fill="#e1807f" d="M 310.5,246.5 C 303.313,246.825 296.313,246.491 289.5,245.5C 296.672,244.397 303.672,244.73 310.5,246.5 Z"/></g>
<g><path style="opacity:0.812" fill="#d76964" d="M 257.5,260.5 C 259.833,260.5 262.167,260.5 264.5,260.5C 264.5,259.5 264.5,258.5 264.5,257.5C 263.022,257.762 261.689,257.429 260.5,256.5C 262.045,255.548 263.712,255.215 265.5,255.5C 265.5,254.167 265.5,252.833 265.5,251.5C 261.162,251.378 260.828,251.045 264.5,250.5C 264.5,249.5 264.5,248.5 264.5,247.5C 259.77,247.283 255.103,247.617 250.5,248.5C 251.355,245.703 253.021,245.036 255.5,246.5C 256.328,245.585 257.328,244.919 258.5,244.5C 260.819,245.064 263.153,245.564 265.5,246C 266.113,251.568 266.446,257.068 266.5,262.5C 263.813,262.664 261.146,262.497 258.5,262C 257.944,261.617 257.611,261.117 257.5,260.5 Z"/></g>
<g><path style="opacity:0.953" fill="#cf504d" d="M 340.5,246.5 C 340.843,248.483 340.176,249.817 338.5,250.5C 338.5,249.5 338.5,248.5 338.5,247.5C 333.438,247.274 328.438,247.608 323.5,248.5C 326.118,245.534 329.285,244.867 333,246.5C 333.388,245.572 334.055,244.905 335,244.5C 337.03,244.954 338.863,245.62 340.5,246.5 Z"/></g>
<g><path style="opacity:0.224" fill="#dd6f6c" d="M 382.5,259.5 C 385.244,260.205 387.911,260.205 390.5,259.5C 385.98,257.739 384.313,254.406 385.5,249.5C 393.693,247.859 397.193,251.192 396,259.5C 397.699,260.406 399.533,260.739 401.5,260.5C 401.5,259.5 401.5,258.5 401.5,257.5C 397.5,256.833 397.5,256.167 401.5,255.5C 401.439,252.95 400.106,251.45 397.5,251C 398.793,250.51 400.127,250.343 401.5,250.5C 401.5,249.5 401.5,248.5 401.5,247.5C 381.457,246.75 361.457,246.75 341.5,247.5C 341.81,250.713 341.477,253.713 340.5,256.5C 340.923,254.219 340.256,252.552 338.5,251.5C 338.5,251.167 338.5,250.833 338.5,250.5C 340.176,249.817 340.843,248.483 340.5,246.5C 342.086,245.587 343.586,245.587 345,246.5C 345.804,245.196 346.971,244.529 348.5,244.5C 351.535,245.061 354.535,245.727 357.5,246.5C 361.365,245.194 365.198,245.194 369,246.5C 369.804,245.196 370.971,244.529 372.5,244.5C 376.167,245.833 379.833,245.833 383.5,244.5C 386.535,245.061 389.535,245.727 392.5,246.5C 395.59,244.534 398.923,244.367 402.5,246C 403.113,251.568 403.446,257.068 403.5,262.5C 395.362,263.358 392.029,259.692 393.5,251.5C 391.167,251.5 388.833,251.5 386.5,251.5C 386.057,255.529 387.891,257.529 392,257.5C 392.667,258.833 392.667,260.167 392,261.5C 388.285,263.133 385.118,262.466 382.5,259.5 Z"/></g>
<g><path style="opacity:0.776" fill="#292728" d="M 444.5,245.5 C 446.379,246.341 448.379,246.675 450.5,246.5C 450.5,247.833 450.5,249.167 450.5,250.5C 448.5,250.5 446.5,250.5 444.5,250.5C 444.338,252.527 444.505,254.527 445,256.5C 446.011,257.337 447.178,257.67 448.5,257.5C 450.256,258.552 450.923,260.219 450.5,262.5C 447.058,263.172 444.391,262.172 442.5,259.5C 442.323,256.016 441.323,253.016 439.5,250.5C 439.232,248.901 439.566,247.568 440.5,246.5C 441.708,245.766 443.041,245.433 444.5,245.5 Z"/></g>
<g><path style="opacity:0.596" fill="#cc807e" d="M 249.5,251.5 C 247.616,246.372 245.949,246.372 244.5,251.5C 244.34,249.801 244.506,248.134 245,246.5C 246.333,245.167 247.667,245.167 249,246.5C 249.494,248.134 249.66,249.801 249.5,251.5 Z"/></g>
<g><path style="opacity:0.958" fill="#2c292a" d="M 543.5,246.5 C 543.002,249.01 542.336,251.51 541.5,254C 541.514,255.385 541.848,256.551 542.5,257.5C 542.833,257.5 543.167,257.5 543.5,257.5C 543.5,258.833 543.5,260.167 543.5,261.5C 540.833,261.5 538.167,261.5 535.5,261.5C 536.576,258.266 537.243,254.932 537.5,251.5C 535.833,251.5 534.167,251.5 532.5,251.5C 532.5,255.167 532.5,258.833 532.5,262.5C 531.167,262.5 529.833,262.5 528.5,262.5C 528.5,258.833 528.5,255.167 528.5,251.5C 527.167,251.5 525.833,251.5 524.5,251.5C 524.5,249.833 524.5,248.167 524.5,246.5C 526.57,246.551 528.403,245.885 530,244.5C 533.333,247.167 536.667,247.167 540,244.5C 541.303,244.978 542.469,245.645 543.5,246.5 Z"/></g>
<g><path style="opacity:0.388" fill="#959293" d="M 543.5,246.5 C 544.167,246.5 544.833,246.5 545.5,246.5C 545.5,251.5 545.5,256.5 545.5,261.5C 548.5,261.5 551.5,261.5 554.5,261.5C 548.167,262.833 541.833,262.833 535.5,261.5C 538.167,261.5 540.833,261.5 543.5,261.5C 543.5,260.167 543.5,258.833 543.5,257.5C 544.793,255.636 544.793,253.636 543.5,251.5C 542.534,253.396 542.201,255.396 542.5,257.5C 541.848,256.551 541.514,255.385 541.5,254C 542.336,251.51 543.002,249.01 543.5,246.5 Z M 543.5,257.5 C 543.167,257.5 542.833,257.5 542.5,257.5C 542.201,255.396 542.534,253.396 543.5,251.5C 544.793,253.636 544.793,255.636 543.5,257.5 Z"/></g>
<g><path style="opacity:0.981" fill="#343132" d="M 485.5,246.5 C 486.037,252.135 485.37,257.468 483.5,262.5C 482.833,262.5 482.167,262.5 481.5,262.5C 481.799,260.396 481.466,258.396 480.5,256.5C 479.081,257.005 478.415,258.005 478.5,259.5C 478.126,261.95 476.626,262.95 474,262.5C 470.969,262.138 468.969,260.471 468,257.5C 467.506,259.134 467.34,260.801 467.5,262.5C 466.167,262.5 464.833,262.5 463.5,262.5C 463.665,258.818 463.499,255.152 463,251.5C 462.506,253.134 462.34,254.801 462.5,256.5C 455.833,256.833 455.833,257.167 462.5,257.5C 462.5,259.167 462.5,260.833 462.5,262.5C 459.552,262.777 456.719,262.444 454,261.5C 453.502,258.183 453.335,254.85 453.5,251.5C 452.699,249.958 452.366,248.292 452.5,246.5C 453.156,245.722 453.989,245.056 455,244.5C 458.667,247.167 462.333,247.167 466,244.5C 469.804,247.097 473.637,247.097 477.5,244.5C 479.902,246.049 482.568,246.716 485.5,246.5 Z M 474.5,251.5 C 475.874,253.517 475.707,255.517 474,257.5C 474.135,255.575 474.302,253.575 474.5,251.5 Z"/></g>
<g><path style="opacity:0.992" fill="#312e2f" d="M 517.5,261.5 C 514.5,260.833 511.5,260.167 508.5,259.5C 507.662,259.842 507.328,260.508 507.5,261.5C 504.223,261.784 501.057,261.451 498,260.5C 497.536,261.094 497.369,261.761 497.5,262.5C 494.67,266.609 492.67,266.109 491.5,261C 494.278,258.049 494.111,256.216 491,255.5C 490.536,256.094 490.369,256.761 490.5,257.5C 489.566,258.568 489.232,259.901 489.5,261.5C 488.5,261.5 487.5,261.5 486.5,261.5C 486.5,256.5 486.5,251.5 486.5,246.5C 488.57,246.449 490.403,247.115 492,248.5C 495.455,247.083 498.955,245.75 502.5,244.5C 503.741,245.037 504.908,245.704 506,246.5C 507.092,245.704 508.259,245.037 509.5,244.5C 512.235,246.125 515.235,246.792 518.5,246.5C 518.5,248.167 518.5,249.833 518.5,251.5C 516.5,251.5 514.5,251.5 512.5,251.5C 512.167,255.833 514.167,257.833 518.5,257.5C 518.768,259.099 518.434,260.432 517.5,261.5 Z M 498.5,251.5 C 499.693,251.97 500.36,252.97 500.5,254.5C 500.167,255.5 499.833,256.5 499.5,257.5C 498.534,255.604 498.201,253.604 498.5,251.5 Z M 504.5,251.5 C 505.5,251.5 506.5,251.5 507.5,251.5C 507.5,253.5 507.5,255.5 507.5,257.5C 506.5,257.5 505.5,257.5 504.5,257.5C 504.5,255.5 504.5,253.5 504.5,251.5 Z"/></g>
<g><path style="opacity:0.302" fill="#3a3738" d="M 412.5,246.5 C 417.091,245.698 420.258,247.365 422,251.5C 422.494,249.866 422.66,248.199 422.5,246.5C 426.5,246.5 430.5,246.5 434.5,246.5C 434.12,249.745 432.953,252.745 431,255.5C 429.989,256.337 428.822,256.67 427.5,256.5C 427.5,258.5 427.5,260.5 427.5,262.5C 425.833,262.5 424.167,262.5 422.5,262.5C 422.662,260.473 422.495,258.473 422,256.5C 419.413,263.153 415.413,264.153 410,259.5C 408.743,254.617 409.576,250.284 412.5,246.5 Z M 414.5,251.5 C 415.693,251.97 416.36,252.97 416.5,254.5C 416.044,258.017 415.044,257.85 413.5,254C 413.743,253.098 414.077,252.265 414.5,251.5 Z"/></g>
<g><path style="opacity:0.325" fill="#a9a2a3" d="M 439.5,250.5 C 441.323,253.016 442.323,256.016 442.5,259.5C 441.883,259.389 441.383,259.056 441,258.5C 440.728,255.746 440.228,253.079 439.5,250.5 Z"/></g>
<g><path style="opacity:0.227" fill="#989697" d="M 450.5,246.5 C 451.167,246.5 451.833,246.5 452.5,246.5C 452.366,248.292 452.699,249.958 453.5,251.5C 450.833,251.5 448.167,251.5 445.5,251.5C 445.028,254.358 446.028,256.358 448.5,257.5C 447.178,257.67 446.011,257.337 445,256.5C 444.505,254.527 444.338,252.527 444.5,250.5C 446.5,250.5 448.5,250.5 450.5,250.5C 450.5,249.167 450.5,247.833 450.5,246.5 Z"/></g>
<g><path style="opacity:0.918" fill="#d74340" d="M 289.5,245.5 C 296.313,246.491 303.313,246.825 310.5,246.5C 310.5,250.167 310.5,253.833 310.5,257.5C 309.523,254.713 309.19,251.713 309.5,248.5C 305.534,247.838 301.534,247.505 297.5,247.5C 296.459,250.542 296.459,253.542 297.5,256.5C 299.5,256.5 301.5,256.5 303.5,256.5C 303.5,257.833 303.5,259.167 303.5,260.5C 307.226,260.823 310.893,260.489 314.5,259.5C 313.398,258.824 312.398,258.158 311.5,257.5C 312.833,257.5 314.167,257.5 315.5,257.5C 315.5,258.833 315.5,260.167 315.5,261.5C 311.958,261.187 308.625,261.521 305.5,262.5C 302.234,262.567 300.734,260.901 301,257.5C 300.727,259.329 299.893,260.829 298.5,262C 294.642,262.81 290.976,262.643 287.5,261.5C 287.5,261.167 287.5,260.833 287.5,260.5C 289.604,260.799 291.604,260.466 293.5,259.5C 291.49,258.935 289.824,257.935 288.5,256.5C 290.672,255.795 292.672,254.795 294.5,253.5C 290.625,253.295 288.959,251.295 289.5,247.5C 284.5,247.5 279.5,247.5 274.5,247.5C 274.5,251.833 274.5,256.167 274.5,260.5C 275.5,260.5 276.5,260.5 277.5,260.5C 276.432,261.434 275.099,261.768 273.5,261.5C 273.815,257.629 273.482,253.962 272.5,250.5C 272.261,248.533 272.594,246.699 273.5,245C 278.994,245.453 284.328,245.62 289.5,245.5 Z"/></g>
<g><path style="opacity:0.996" fill="#e12d2f" d="M 287.5,260.5 C 286.833,260.167 286.167,259.833 285.5,259.5C 285.167,258.167 284.833,258.167 284.5,259.5C 283.448,261.256 281.781,261.923 279.5,261.5C 279.5,261.167 279.5,260.833 279.5,260.5C 278.404,256.711 277.737,256.711 277.5,260.5C 276.5,260.5 275.5,260.5 274.5,260.5C 274.5,256.167 274.5,251.833 274.5,247.5C 279.5,247.5 284.5,247.5 289.5,247.5C 288.959,251.295 290.625,253.295 294.5,253.5C 292.672,254.795 290.672,255.795 288.5,256.5C 289.824,257.935 291.49,258.935 293.5,259.5C 291.604,260.466 289.604,260.799 287.5,260.5 Z"/></g>
<g><path style="opacity:1" fill="#e52027" d="M 310.5,257.5 C 310.833,257.5 311.167,257.5 311.5,257.5C 312.398,258.158 313.398,258.824 314.5,259.5C 310.893,260.489 307.226,260.823 303.5,260.5C 303.5,259.167 303.5,257.833 303.5,256.5C 301.5,256.5 299.5,256.5 297.5,256.5C 296.459,253.542 296.459,250.542 297.5,247.5C 301.534,247.505 305.534,247.838 309.5,248.5C 309.19,251.713 309.523,254.713 310.5,257.5 Z"/></g>
<g><path style="opacity:0.118" fill="#ed8f8d" d="M 310.5,246.5 C 311.479,249.625 311.813,252.958 311.5,256.5C 316.123,255.408 317.956,257.075 317,261.5C 313.27,262.46 309.437,262.793 305.5,262.5C 308.625,261.521 311.958,261.187 315.5,261.5C 315.5,260.167 315.5,258.833 315.5,257.5C 314.167,257.5 312.833,257.5 311.5,257.5C 311.167,257.5 310.833,257.5 310.5,257.5C 310.5,253.833 310.5,250.167 310.5,246.5 Z"/></g>
<g><path style="opacity:0.275" fill="#de2a2e" d="M 382.5,259.5 C 380.806,249.072 380.473,249.072 381.5,259.5C 381.5,260.5 381.5,261.5 381.5,262.5C 378.453,263.145 376.287,262.145 375,259.5C 374.617,260.056 374.117,260.389 373.5,260.5C 372.5,260.5 371.5,260.5 370.5,260.5C 370.81,257.287 370.477,254.287 369.5,251.5C 368.432,250.566 367.099,250.232 365.5,250.5C 363.752,253.635 362.085,256.968 360.5,260.5C 359.833,257.358 359.166,254.358 358.5,251.5C 357.371,251.882 356.705,253.215 356.5,255.5C 356.328,256.492 356.662,257.158 357.5,257.5C 357.5,258.167 357.5,258.833 357.5,259.5C 357.083,260.124 356.416,260.457 355.5,260.5C 353.952,258.624 351.952,257.624 349.5,257.5C 349.719,258.675 349.386,259.675 348.5,260.5C 346.675,248.75 345.675,249.084 345.5,261.5C 342.5,262.833 339.5,262.833 336.5,261.5C 335.139,257.787 333.139,257.12 330.5,259.5C 328.257,260.474 325.924,260.808 323.5,260.5C 323.5,259.5 323.5,258.5 323.5,257.5C 328.539,257.549 328.705,256.882 324,255.5C 323.503,253.19 323.337,250.857 323.5,248.5C 328.438,247.608 333.438,247.274 338.5,247.5C 338.5,248.5 338.5,249.5 338.5,250.5C 338.5,250.833 338.5,251.167 338.5,251.5C 338.077,253.781 338.744,255.448 340.5,256.5C 341.477,253.713 341.81,250.713 341.5,247.5C 361.457,246.75 381.457,246.75 401.5,247.5C 401.5,248.5 401.5,249.5 401.5,250.5C 400.127,250.343 398.793,250.51 397.5,251C 400.106,251.45 401.439,252.95 401.5,255.5C 397.5,256.167 397.5,256.833 401.5,257.5C 401.5,258.5 401.5,259.5 401.5,260.5C 399.533,260.739 397.699,260.406 396,259.5C 397.193,251.192 393.693,247.859 385.5,249.5C 384.313,254.406 385.98,257.739 390.5,259.5C 387.911,260.205 385.244,260.205 382.5,259.5 Z M 338.5,251.5 C 340.256,252.552 340.923,254.219 340.5,256.5C 338.744,255.448 338.077,253.781 338.5,251.5 Z"/></g>
<g><path style="opacity:0.196" fill="#aeacad" d="M 564.5,246.5 C 565.833,249.833 565.833,253.167 564.5,256.5C 564.5,254.833 564.5,253.167 564.5,251.5C 557.833,251.167 557.833,250.833 564.5,250.5C 564.5,249.167 564.5,247.833 564.5,246.5 Z"/></g>
<g><path style="opacity:0.157" fill="#ffaba8" d="M 382.5,259.5 C 382.167,259.5 381.833,259.5 381.5,259.5C 380.473,249.072 380.806,249.072 382.5,259.5 Z"/></g>
<g><path style="opacity:0.055" fill="#ffc2c2" d="M 358.5,251.5 C 358.806,254.385 358.473,257.052 357.5,259.5C 357.5,258.833 357.5,258.167 357.5,257.5C 357.672,256.508 357.338,255.842 356.5,255.5C 356.705,253.215 357.371,251.882 358.5,251.5 Z"/></g>
<g><path style="opacity:0.02" fill="#bdbbbd" d="M 481.5,262.5 C 480.71,261.391 480.21,260.058 480,258.5C 479.617,259.056 479.117,259.389 478.5,259.5C 478.415,258.005 479.081,257.005 480.5,256.5C 481.466,258.396 481.799,260.396 481.5,262.5 Z"/></g>
<g><path style="opacity:0.235" fill="#9d9b9c" d="M 485.5,246.5 C 485.833,246.5 486.167,246.5 486.5,246.5C 486.5,251.5 486.5,256.5 486.5,261.5C 487.5,261.5 488.5,261.5 489.5,261.5C 489.232,259.901 489.566,258.568 490.5,257.5C 490.5,259.167 490.5,260.833 490.5,262.5C 488.167,262.5 485.833,262.5 483.5,262.5C 485.37,257.468 486.037,252.135 485.5,246.5 Z"/></g>
<g><path style="opacity:0.988" fill="#363435" d="M 545.5,246.5 C 546.833,246.5 548.167,246.5 549.5,246.5C 549.5,250.167 549.5,253.833 549.5,257.5C 551.167,257.5 552.833,257.5 554.5,257.5C 554.5,258.833 554.5,260.167 554.5,261.5C 551.5,261.5 548.5,261.5 545.5,261.5C 545.5,256.5 545.5,251.5 545.5,246.5 Z"/></g>
<g><path style="opacity:0.694" fill="#d76665" d="M 323.5,248.5 C 323.337,250.857 323.503,253.19 324,255.5C 328.705,256.882 328.539,257.549 323.5,257.5C 323.5,258.5 323.5,259.5 323.5,260.5C 325.924,260.808 328.257,260.474 330.5,259.5C 333.139,257.12 335.139,257.787 336.5,261.5C 334.402,260.037 332.402,260.204 330.5,262C 327.833,262.667 325.167,262.667 322.5,262C 322.112,259.124 321.778,256.291 321.5,253.5C 321.436,251.443 322.102,249.777 323.5,248.5 Z"/></g>
<g><path style="opacity:0.541" fill="#e38886" d="M 369.5,251.5 C 370.477,254.287 370.81,257.287 370.5,260.5C 371.5,260.5 372.5,260.5 373.5,260.5C 372.713,262.104 371.38,262.771 369.5,262.5C 368.582,258.878 368.582,255.212 369.5,251.5 Z"/></g>
<g><path style="opacity:1" fill="#de2f30" d="M 249.5,251.5 C 250.404,250.791 250.737,249.791 250.5,248.5C 255.103,247.617 259.77,247.283 264.5,247.5C 264.5,248.5 264.5,249.5 264.5,250.5C 260.828,251.045 261.162,251.378 265.5,251.5C 265.5,252.833 265.5,254.167 265.5,255.5C 263.712,255.215 262.045,255.548 260.5,256.5C 261.689,257.429 263.022,257.762 264.5,257.5C 264.5,258.5 264.5,259.5 264.5,260.5C 262.167,260.5 259.833,260.5 257.5,260.5C 256.778,260.082 256.278,259.416 256,258.5C 255.51,259.793 255.343,261.127 255.5,262.5C 253.833,262.5 252.167,262.5 250.5,262.5C 250.5,260.5 250.5,258.5 250.5,256.5C 250.548,255.493 249.548,255.16 247.5,255.5C 247.785,257.288 247.452,258.955 246.5,260.5C 245.322,257.609 244.655,254.609 244.5,251.5C 245.949,246.372 247.616,246.372 249.5,251.5 Z"/></g>
<g><path style="opacity:0.886" fill="#717070" d="M 508.5,259.5 C 511.5,260.167 514.5,260.833 517.5,261.5C 514.056,263.09 511.056,262.424 508.5,259.5 Z"/></g>
<g><path style="opacity:0.957" fill="#d1635f" d="M 236.5,245.5 C 238.5,245.833 240.5,246.167 242.5,246.5C 243.451,247.919 243.784,249.585 243.5,251.5C 241.77,254.39 240.77,257.724 240.5,261.5C 238.955,262.452 237.288,262.785 235.5,262.5C 235.5,258.833 235.5,255.167 235.5,251.5C 231.748,251.499 230.748,249.833 232.5,246.5C 233.736,245.754 235.07,245.421 236.5,245.5 Z"/></g>
<g><path style="opacity:0.914" fill="#db232a" d="M 234.5,247.5 C 236.833,247.5 239.167,247.5 241.5,247.5C 239.938,251.652 239.272,255.985 239.5,260.5C 238.5,260.5 237.5,260.5 236.5,260.5C 236.945,255.899 236.278,251.565 234.5,247.5 Z"/></g>
<g><path style="opacity:0.722" fill="#d1615f" d="M 243.5,251.5 C 243.833,251.5 244.167,251.5 244.5,251.5C 244.655,254.609 245.322,257.609 246.5,260.5C 247.452,258.955 247.785,257.288 247.5,255.5C 249.548,255.16 250.548,255.493 250.5,256.5C 249.698,257.952 249.198,259.618 249,261.5C 247.644,262.38 246.144,262.714 244.5,262.5C 244.844,259.38 244.177,256.547 242.5,254C 242.743,253.098 243.077,252.265 243.5,251.5 Z"/></g>
<g><path style="opacity:0.733" fill="#de6a68" d="M 369.5,251.5 C 368,253.184 366.333,254.851 364.5,256.5C 363.77,258.341 363.103,260.175 362.5,262C 359.5,262.667 356.5,262.667 353.5,262C 352.126,258.59 351.459,258.757 351.5,262.5C 349.379,262.675 347.379,262.341 345.5,261.5C 345.675,249.084 346.675,248.75 348.5,260.5C 349.386,259.675 349.719,258.675 349.5,257.5C 351.952,257.624 353.952,258.624 355.5,260.5C 356.416,260.457 357.083,260.124 357.5,259.5C 358.473,257.052 358.806,254.385 358.5,251.5C 359.166,254.358 359.833,257.358 360.5,260.5C 362.085,256.968 363.752,253.635 365.5,250.5C 367.099,250.232 368.432,250.566 369.5,251.5 Z"/></g>
<g><path style="opacity:0.651" fill="#2a2829" d="M 564.5,246.5 C 564.5,247.833 564.5,249.167 564.5,250.5C 557.833,250.833 557.833,251.167 564.5,251.5C 564.5,253.167 564.5,254.833 564.5,256.5C 559.167,256.833 559.167,257.167 564.5,257.5C 564.5,258.833 564.5,260.167 564.5,261.5C 561.43,261.632 558.43,261.299 555.5,260.5C 555.04,255.431 555.04,250.431 555.5,245.5C 556.167,245.167 556.833,244.833 557.5,244.5C 559.646,245.894 561.979,246.56 564.5,246.5 Z"/></g>
<g><path style="opacity:0.11" fill="#fcc4c4" d="M 272.5,250.5 C 273.482,253.962 273.815,257.629 273.5,261.5C 275.099,261.768 276.432,261.434 277.5,260.5C 277.737,256.711 278.404,256.711 279.5,260.5C 277.544,262.148 275.211,262.815 272.5,262.5C 272.5,258.5 272.5,254.5 272.5,250.5 Z"/></g>
<g><path style="opacity:0.114" fill="#fcc6c5" d="M 284.5,259.5 C 284.833,259.5 285.167,259.5 285.5,259.5C 286.167,259.833 286.833,260.167 287.5,260.5C 287.5,260.833 287.5,261.167 287.5,261.5C 284.693,262.657 282.026,262.657 279.5,261.5C 281.781,261.923 283.448,261.256 284.5,259.5 Z"/></g>
<g><path style="opacity:0.102" fill="#d1d0d1" d="M 507.5,261.5 C 504.375,262.479 501.042,262.813 497.5,262.5C 497.369,261.761 497.536,261.094 498,260.5C 501.057,261.451 504.223,261.784 507.5,261.5 Z"/></g>
<g><path style="opacity:0.093" fill="#c6c5c5" d="M 564.5,257.5 C 565.451,258.919 565.784,260.585 565.5,262.5C 562.482,262.665 559.482,262.498 556.5,262C 555.944,261.617 555.611,261.117 555.5,260.5C 558.43,261.299 561.43,261.632 564.5,261.5C 564.5,260.167 564.5,258.833 564.5,257.5 Z"/></g>
<g><path style="opacity:0.263" fill="#888888" d="M 131.5,262.5 C 135.091,262.952 138.425,263.952 141.5,265.5C 137.668,265.413 134.335,264.413 131.5,262.5 Z"/></g>
<g><path style="opacity:0.435" fill="#8e8e8e" d="M 148.5,265.5 C 150.143,265.48 151.476,266.147 152.5,267.5C 153.776,268.614 153.776,269.614 152.5,270.5C 151.54,268.539 150.207,266.873 148.5,265.5 Z"/></g>
<g><path style="opacity:0.016" fill="#e0e0e0" d="M 87.5,268.5 C 88.6129,269.946 88.7796,271.613 88,273.5C 87.0053,272.934 86.172,272.267 85.5,271.5C 87.0481,271.179 87.7148,270.179 87.5,268.5 Z"/></g>
<g><path style="opacity:0.02" fill="#d9d9d9" d="M 55.5,275.5 C 57.1788,275.285 58.1788,275.952 58.5,277.5C 57.2905,277.068 56.2905,276.401 55.5,275.5 Z"/></g>
<g><path style="opacity:0.067" fill="#d5d5d5" d="M 170.5,279.5 C 169.399,277.606 168.066,276.939 166.5,277.5C 167.568,276.566 168.901,276.232 170.5,276.5C 170.5,277.5 170.5,278.5 170.5,279.5 Z"/></g>
<g><path style="opacity:0.071" fill="#acacac" d="M 161.5,294.5 C 159.562,296.163 157.228,296.829 154.5,296.5C 156.599,295.388 158.933,294.721 161.5,294.5 Z"/></g>
<g><path style="opacity:0.147" fill="#aaaaaa" d="M 153.5,297.5 C 151.485,298.924 149.152,299.59 146.5,299.5C 148.515,298.076 150.848,297.41 153.5,297.5 Z"/></g>
<g><path style="opacity:0.067" fill="#cfcfcf" d="M 107.5,301.5 C 108.779,300.285 109.779,300.618 110.5,302.5C 109.391,302.443 108.391,302.11 107.5,301.5 Z"/></g>
<g><path style="opacity:0.067" fill="#cdcdcd" d="M 124.5,302.5 C 126.919,302.195 129.586,302.195 132.5,302.5C 129.939,303.767 127.272,303.767 124.5,302.5 Z"/></g>
</svg>
