<?xml version="1.0" encoding="UTF-8"?>
<!DOCTYPE svg PUBLIC "-//W3C//DTD SVG 1.1//EN" "http://www.w3.org/Graphics/SVG/1.1/DTD/svg11.dtd">
<svg xmlns="http://www.w3.org/2000/svg" version="1.1" width="594px" height="420px" style="shape-rendering:geometricPrecision; text-rendering:geometricPrecision; image-rendering:optimizeQuality; fill-rule:evenodd; clip-rule:evenodd" xmlns:xlink="http://www.w3.org/1999/xlink">
<g><path style="opacity:1" fill="#242122" d="M 262.5,43.5 C 263.552,43.3505 264.552,43.5172 265.5,44C 306.07,84.4477 346.404,125.114 386.5,166C 369.651,167.65 352.651,167.984 335.5,167C 332.989,164.157 330.156,161.657 327,159.5C 326.517,158.552 326.351,157.552 326.5,156.5C 323.228,154.849 320.228,152.683 317.5,150C 315.667,146.833 313.167,144.333 310,142.5C 309.517,141.552 309.351,140.552 309.5,139.5C 306.434,137.627 303.434,135.461 300.5,133C 299.663,131.989 299.33,130.822 299.5,129.5C 295.167,127.167 291.833,123.833 289.5,119.5C 288.448,119.649 287.448,119.483 286.5,119C 279.151,110.75 271.484,102.917 263.5,95.5C 239.265,118.902 215.598,142.735 192.5,167C 175.503,167.5 158.503,167.667 141.5,167.5C 141.933,164.715 143.266,162.381 145.5,160.5C 184.692,121.975 223.692,82.9746 262.5,43.5 Z"/></g>
<g><path style="opacity:0.827" fill="#f0a6a1" d="M 365.5,74.5 C 362.512,72.5103 359.845,70.1769 357.5,67.5C 357.44,66.9569 357.107,66.6236 356.5,66.5C 355.501,82.4861 355.167,98.4861 355.5,114.5C 354.338,98.3385 354.172,82.0052 355,65.5C 355.718,64.5494 356.551,64.3828 357.5,65C 360.43,68.0839 363.097,71.2506 365.5,74.5 Z"/></g>
<g><path style="opacity:1" fill="#eb1d25" d="M 357.5,67.5 C 359.845,70.1769 362.512,72.5103 365.5,74.5C 370.582,78.3764 375.249,82.7097 379.5,87.5C 380.224,90.3411 381.39,93.0078 383,95.5C 387.556,97.6449 391.39,100.645 394.5,104.5C 395.309,106.071 395.643,107.738 395.5,109.5C 399.372,109.43 401.705,111.263 402.5,115C 404.868,115.856 407.202,116.69 409.5,117.5C 409.962,119.757 410.962,121.757 412.5,123.5C 412.291,124.086 411.957,124.586 411.5,125C 414.757,125.455 417.091,127.121 418.5,130C 419.448,130.483 420.448,130.649 421.5,130.5C 421.148,133.073 421.648,135.406 423,137.5C 424.049,136.483 425.216,136.316 426.5,137C 427.09,138.509 427.756,140.009 428.5,141.5C 429.086,141.291 429.586,140.957 430,140.5C 431.506,142.174 433.339,143.174 435.5,143.5C 438.856,146.843 442.189,150.176 445.5,153.5C 445.554,155.632 446.554,156.965 448.5,157.5C 432.534,159.485 416.201,160.152 399.5,159.5C 398.092,156.574 396.425,153.741 394.5,151C 394.95,149.715 395.617,148.548 396.5,147.5C 395.726,146.289 394.893,146.289 394,147.5C 392.312,146.675 392.145,145.675 393.5,144.5C 391.602,143.266 389.935,143.599 388.5,145.5C 386.925,144.544 385.258,143.877 383.5,143.5C 374.5,135.167 365.833,126.5 357.5,117.5C 356.189,100.706 356.189,84.039 357.5,67.5 Z"/></g>
<g><path style="opacity:0.424" fill="#b72426" d="M 357.5,67.5 C 356.189,84.039 356.189,100.706 357.5,117.5C 356.094,117.027 355.427,116.027 355.5,114.5C 355.167,98.4861 355.501,82.4861 356.5,66.5C 357.107,66.6236 357.44,66.9569 357.5,67.5 Z"/></g>
<g><path style="opacity:0.976" fill="#db3f3f" d="M 379.5,87.5 C 389.806,97.1396 399.806,107.14 409.5,117.5C 407.202,116.69 404.868,115.856 402.5,115C 401.705,111.263 399.372,109.43 395.5,109.5C 395.643,107.738 395.309,106.071 394.5,104.5C 391.39,100.645 387.556,97.6449 383,95.5C 381.39,93.0078 380.224,90.3411 379.5,87.5 Z"/></g>
<g><path style="opacity:0.988" fill="#db3d3b" d="M 409.5,117.5 C 418.473,125.806 427.14,134.473 435.5,143.5C 433.339,143.174 431.506,142.174 430,140.5C 429.586,140.957 429.086,141.291 428.5,141.5C 427.756,140.009 427.09,138.509 426.5,137C 425.216,136.316 424.049,136.483 423,137.5C 421.648,135.406 421.148,133.073 421.5,130.5C 420.448,130.649 419.448,130.483 418.5,130C 417.091,127.121 414.757,125.455 411.5,125C 411.957,124.586 412.291,124.086 412.5,123.5C 410.962,121.757 409.962,119.757 409.5,117.5 Z"/></g>
<g><path style="opacity:1" fill="#de3734" d="M 383.5,143.5 C 385.258,143.877 386.925,144.544 388.5,145.5C 389.935,143.599 391.602,143.266 393.5,144.5C 392.145,145.675 392.312,146.675 394,147.5C 394.893,146.289 395.726,146.289 396.5,147.5C 395.617,148.548 394.95,149.715 394.5,151C 396.425,153.741 398.092,156.574 399.5,159.5C 393.833,154.5 388.5,149.167 383.5,143.5 Z"/></g>
<g><path style="opacity:0.869" fill="#c72329" d="M 448.5,157.5 C 449.404,158.209 449.737,159.209 449.5,160.5C 433.5,160.5 417.5,160.5 401.5,160.5C 400.508,160.672 399.842,160.338 399.5,159.5C 416.201,160.152 432.534,159.485 448.5,157.5 Z"/></g>
<g><path style="opacity:0.039" fill="#d26767" d="M 445.5,153.5 C 448.457,154.987 450.457,157.32 451.5,160.5C 434.671,161.827 418.005,161.827 401.5,160.5C 417.5,160.5 433.5,160.5 449.5,160.5C 449.737,159.209 449.404,158.209 448.5,157.5C 446.554,156.965 445.554,155.632 445.5,153.5 Z"/></g>
<g><path style="opacity:1" fill="#231f21" d="M 284.5,245.5 C 284.414,244.504 284.748,243.671 285.5,243C 283.5,241 281.5,239 279.5,237C 280.5,236.667 281.5,236.333 282.5,236C 281.234,235.691 280.067,235.191 279,234.5C 277.989,235.337 276.822,235.67 275.5,235.5C 271.813,232.629 268.479,229.296 265.5,225.5C 265.027,224.094 264.027,223.427 262.5,223.5C 247.5,208.167 232.5,192.833 217.5,177.5C 217.027,176.094 216.027,175.427 214.5,175.5C 211.856,172.52 209.189,169.52 206.5,166.5C 223.824,165.334 241.157,165.167 258.5,166C 281.958,189.159 305.125,212.659 328,236.5C 351.527,212.973 375.027,189.473 398.5,166C 415.843,165.167 433.176,165.334 450.5,166.5C 410.032,207.801 369.199,248.468 328,288.5C 313.68,274.014 299.18,259.681 284.5,245.5 Z"/></g>
<g><path style="opacity:0.016" fill="#fa8383" d="M 192.5,172.5 C 175.466,171.848 158.8,172.515 142.5,174.5C 140.767,173.992 140.434,173.159 141.5,172C 158.672,171.172 175.672,171.338 192.5,172.5 Z"/></g>
<g><path style="opacity:0.672" fill="#c12d32" d="M 192.5,172.5 C 194.167,174.167 195.833,175.833 197.5,177.5C 194.886,177.723 193.219,176.556 192.5,174C 176.49,173.167 160.49,173.334 144.5,174.5C 145.127,175.417 145.461,176.417 145.5,177.5C 144.167,176.833 143.167,175.833 142.5,174.5C 158.8,172.515 175.466,171.848 192.5,172.5 Z"/></g>
<g><path style="opacity:1" fill="#eb1c24" d="M 197.5,177.5 C 202.121,185.122 208.121,191.455 215.5,196.5C 218.109,197.443 220.109,199.11 221.5,201.5C 222.013,203.854 223.179,205.854 225,207.5C 225.494,209.134 225.66,210.801 225.5,212.5C 228.622,212.318 231.289,213.318 233.5,215.5C 234.499,231.486 234.833,247.486 234.5,263.5C 233.5,263.5 232.5,263.5 231.5,263.5C 230.183,259.517 227.517,256.85 223.5,255.5C 221.736,254.674 220.402,253.341 219.5,251.5C 217.382,248.385 215.716,245.052 214.5,241.5C 210.194,241.697 208.194,239.697 208.5,235.5C 204.94,236.109 202.94,234.609 202.5,231C 202.896,229.103 203.896,227.603 205.5,226.5C 204.311,225.571 202.978,225.238 201.5,225.5C 201.5,226.5 201.5,227.5 201.5,228.5C 200.167,228.5 198.833,228.5 197.5,228.5C 198.034,224.522 196.534,221.522 193,219.5C 192.667,220.167 192.333,220.833 192,221.5C 188.686,219.522 186.519,216.689 185.5,213C 183.482,212.495 181.482,211.995 179.5,211.5C 176.437,209.287 173.77,206.621 171.5,203.5C 170.781,201.236 170.448,198.903 170.5,196.5C 168.712,196.785 167.045,196.452 165.5,195.5C 163.682,190.377 160.348,187.043 155.5,185.5C 154.754,184.264 154.421,182.93 154.5,181.5C 151.518,180.311 148.518,178.977 145.5,177.5C 145.461,176.417 145.127,175.417 144.5,174.5C 160.49,173.334 176.49,173.167 192.5,174C 193.219,176.556 194.886,177.723 197.5,177.5 Z"/></g>
<g><path style="opacity:0.059" fill="#cccbcc" d="M 214.5,175.5 C 216.027,175.427 217.027,176.094 217.5,177.5C 215.973,177.573 214.973,176.906 214.5,175.5 Z"/></g>
<g><path style="opacity:1" fill="#db3836" d="M 145.5,177.5 C 148.518,178.977 151.518,180.311 154.5,181.5C 154.421,182.93 154.754,184.264 155.5,185.5C 160.348,187.043 163.682,190.377 165.5,195.5C 167.045,196.452 168.712,196.785 170.5,196.5C 170.448,198.903 170.781,201.236 171.5,203.5C 165.578,198.956 160.578,193.623 156.5,187.5C 152.245,184.916 148.578,181.582 145.5,177.5 Z"/></g>
<g><path style="opacity:0.733" fill="#d05351" d="M 197.5,177.5 C 203.134,183.299 208.967,188.966 215,194.5C 215.464,195.094 215.631,195.761 215.5,196.5C 208.121,191.455 202.121,185.122 197.5,177.5 Z"/></g>
<g><path style="opacity:1" fill="#dc3532" d="M 179.5,211.5 C 181.482,211.995 183.482,212.495 185.5,213C 186.519,216.689 188.686,219.522 192,221.5C 192.333,220.833 192.667,220.167 193,219.5C 196.534,221.522 198.034,224.522 197.5,228.5C 198.833,228.5 200.167,228.5 201.5,228.5C 201.5,227.5 201.5,226.5 201.5,225.5C 202.978,225.238 204.311,225.571 205.5,226.5C 203.896,227.603 202.896,229.103 202.5,231C 202.94,234.609 204.94,236.109 208.5,235.5C 208.194,239.697 210.194,241.697 214.5,241.5C 215.716,245.052 217.382,248.385 219.5,251.5C 216.983,250.107 215.316,248.107 214.5,245.5C 202.288,234.958 190.621,223.624 179.5,211.5 Z"/></g>
<g><path style="opacity:0.063" fill="#fa8f90" d="M 235.5,215.5 C 236.117,215.611 236.617,215.944 237,216.5C 237.5,233.497 237.667,250.497 237.5,267.5C 236.209,267.737 235.209,267.404 234.5,266.5C 235.831,258.695 236.498,250.528 236.5,242C 236.472,233.122 236.139,224.288 235.5,215.5 Z"/></g>
<g><path style="opacity:0.039" fill="#cfcecf" d="M 262.5,223.5 C 264.027,223.427 265.027,224.094 265.5,225.5C 263.973,225.573 262.973,224.906 262.5,223.5 Z"/></g>
<g><path style="opacity:0.996" fill="#d52d2e" d="M 221.5,201.5 C 226.473,205.806 231.14,210.473 235.5,215.5C 236.139,224.288 236.472,233.122 236.5,242C 236.498,250.528 235.831,258.695 234.5,266.5C 232.81,266.144 231.81,265.144 231.5,263.5C 232.5,263.5 233.5,263.5 234.5,263.5C 234.833,247.486 234.499,231.486 233.5,215.5C 231.289,213.318 228.622,212.318 225.5,212.5C 225.66,210.801 225.494,209.134 225,207.5C 223.179,205.854 222.013,203.854 221.5,201.5 Z"/></g>
<g><path style="opacity:1" fill="#474546" d="M 284.5,245.5 C 281.529,242.192 278.529,238.859 275.5,235.5C 276.822,235.67 277.989,235.337 279,234.5C 280.067,235.191 281.234,235.691 282.5,236C 281.5,236.333 280.5,236.667 279.5,237C 281.5,239 283.5,241 285.5,243C 284.748,243.671 284.414,244.504 284.5,245.5 Z"/></g>
<g><path style="opacity:0.949" fill="#cd4240" d="M 223.5,255.5 C 227.517,256.85 230.183,259.517 231.5,263.5C 228.5,261.167 225.833,258.5 223.5,255.5 Z"/></g>
<g><path style="opacity:0.98" fill="#312f30" d="M 399.5,374.5 C 398.71,373.599 397.71,372.932 396.5,372.5C 398.25,371.13 400.25,370.13 402.5,369.5C 403.831,362.364 404.497,354.864 404.5,347C 404.5,339.326 404.166,331.826 403.5,324.5C 399.649,323.191 395.649,323.191 391.5,324.5C 390.197,328.118 388.53,331.451 386.5,334.5C 385.914,334.291 385.414,333.957 385,333.5C 384.501,328.511 384.334,323.511 384.5,318.5C 400.833,318.5 417.167,318.5 433.5,318.5C 432.868,323.862 431.535,329.029 429.5,334C 428.4,334.432 427.733,333.932 427.5,332.5C 426.414,329.58 425.748,326.58 425.5,323.5C 421.5,323.5 417.5,323.5 413.5,323.5C 413.167,338.848 413.501,354.181 414.5,369.5C 417.804,369.678 419.471,371.344 419.5,374.5C 412.816,373.345 406.149,373.345 399.5,374.5 Z"/></g>
<g><path style="opacity:1" fill="#2c292a" d="M 378.5,359.5 C 379.9,360.1 380.9,361.1 381.5,362.5C 381.155,366.422 380.488,370.255 379.5,374C 367.814,373.868 356.148,374.035 344.5,374.5C 342.681,374.658 341.348,373.991 340.5,372.5C 342.001,371.248 343.668,370.248 345.5,369.5C 346.666,354.178 346.833,338.844 346,323.5C 343.863,322.521 342.029,321.188 340.5,319.5C 353.483,318.501 366.483,318.168 379.5,318.5C 379.142,322.509 378.642,326.509 378,330.5C 376.989,331.337 375.822,331.67 374.5,331.5C 374.244,329.063 373.577,326.729 372.5,324.5C 366.872,323.505 361.206,323.171 355.5,323.5C 355.5,330.167 355.5,336.833 355.5,343.5C 359.555,343.824 363.555,343.491 367.5,342.5C 367.855,339.774 369.188,337.774 371.5,336.5C 372.496,342.463 372.829,348.463 372.5,354.5C 371.167,354.5 369.833,354.5 368.5,354.5C 368.5,352.5 368.5,350.5 368.5,348.5C 364.167,348.5 359.833,348.5 355.5,348.5C 355.5,355.167 355.5,361.833 355.5,368.5C 361.509,368.666 367.509,368.499 373.5,368C 374.028,364.437 375.695,361.603 378.5,359.5 Z"/></g>
<g><path style="opacity:0.069" fill="#cfcdcf" d="M 269.5,329.5 C 269.5,330.833 269.5,332.167 269.5,333.5C 267.901,333.768 266.568,333.434 265.5,332.5C 266.5,332.5 267.5,332.5 268.5,332.5C 268.263,331.209 268.596,330.209 269.5,329.5 Z"/></g>
<g><path style="opacity:0.204" fill="#8b888b" d="M 403.5,324.5 C 404.166,331.826 404.5,339.326 404.5,347C 404.497,354.864 403.831,362.364 402.5,369.5C 403.483,354.578 403.816,339.578 403.5,324.5 Z"/></g>
<g><path style="opacity:1" fill="#2b2829" d="M 269.5,329.5 C 268.596,330.209 268.263,331.209 268.5,332.5C 267.5,332.5 266.5,332.5 265.5,332.5C 265.583,325.638 262.25,321.971 255.5,321.5C 244.82,322.345 238.32,328.012 236,338.5C 232.248,356.019 238.915,367.019 256,371.5C 257.825,371.057 259.658,370.723 261.5,370.5C 261.5,364.5 261.5,358.5 261.5,352.5C 258.412,352.803 256.746,351.47 256.5,348.5C 263.167,348.5 269.833,348.5 276.5,348.5C 276.17,351.109 274.67,352.776 272,353.5C 271.505,355.473 271.338,357.473 271.5,359.5C 271.047,364.279 270.047,368.946 268.5,373.5C 257.651,376.713 246.984,375.879 236.5,371C 223.533,359.599 221.033,346.099 229,330.5C 233.676,323.492 240.176,319.325 248.5,318C 256.185,317.403 263.852,317.57 271.5,318.5C 270.674,322.136 270.008,325.803 269.5,329.5 Z"/></g>
<g><path style="opacity:1" fill="#2d2a2b" d="M 291.5,335.5 C 290.341,346.659 290.174,357.992 291,369.5C 291.671,370.252 292.504,370.586 293.5,370.5C 296.694,370.176 297.694,371.342 296.5,374C 292.559,373.733 288.559,373.566 284.5,373.5C 282.517,373.843 281.183,373.176 280.5,371.5C 281.807,370.847 283.14,370.18 284.5,369.5C 285.666,354.178 285.833,338.844 285,323.5C 282.863,322.521 281.029,321.188 279.5,319.5C 284.131,318.338 288.798,318.172 293.5,319C 302.976,331.452 312.81,343.618 323,355.5C 323.5,344.505 323.667,333.505 323.5,322.5C 320.412,322.803 318.746,321.47 318.5,318.5C 324.176,318.334 329.843,318.501 335.5,319C 336.833,319.667 336.833,320.333 335.5,321C 333.975,322.009 332.308,322.509 330.5,322.5C 330.825,339.744 330.492,356.91 329.5,374C 325.835,374.387 323.002,372.887 321,369.5C 311.364,357.191 301.697,344.858 292,332.5C 291.517,333.448 291.351,334.448 291.5,335.5 Z"/></g>
<g><path style="opacity:1" fill="#2a2728" d="M 161.5,364.5 C 161.025,367.082 161.692,369.082 163.5,370.5C 165.512,371.014 167.512,371.18 169.5,371C 172.219,369.403 174.386,367.237 176,364.5C 181.721,349.392 187.721,334.392 194,319.5C 196.025,317.275 198.358,316.941 201,318.5C 206.4,332.7 211.4,347.033 216,361.5C 217.292,366.454 220.292,369.788 225,371.5C 225.483,372.448 225.649,373.448 225.5,374.5C 218.502,373.402 211.502,373.236 204.5,374C 204.043,373.586 203.709,373.086 203.5,372.5C 205.5,371.167 207.5,369.833 209.5,368.5C 208.159,363.674 206.159,359.174 203.5,355C 197.833,354.333 192.167,354.333 186.5,355C 184.926,359.651 182.926,364.151 180.5,368.5C 181.914,369.624 183.414,370.624 185,371.5C 185.483,372.448 185.649,373.448 185.5,374.5C 172.577,374.652 159.744,374.319 147,373.5C 146.312,372.668 146.479,372.002 147.5,371.5C 148.833,370.833 150.167,370.167 151.5,369.5C 152.666,357.848 152.833,346.181 152,334.5C 145.904,346.773 140.57,359.439 136,372.5C 134.211,374.229 132.044,374.896 129.5,374.5C 124.49,360.304 118.99,346.304 113,332.5C 112.167,344.847 112.334,357.18 113.5,369.5C 115.332,370.248 116.999,371.248 118.5,372.5C 118,373.881 117,374.547 115.5,374.5C 110.599,373.736 105.765,373.402 101,373.5C 100.312,372.668 100.479,372.002 101.5,371.5C 102.833,370.833 104.167,370.167 105.5,369.5C 106.666,354.178 106.833,338.844 106,323.5C 103.863,322.521 102.029,321.188 100.5,319.5C 106.167,318.167 111.833,318.167 117.5,319.5C 123.083,332.403 128.583,345.403 134,358.5C 140.339,345.492 145.839,332.158 150.5,318.5C 156.167,318.5 161.833,318.5 167.5,318.5C 167.5,319.5 167.5,320.5 167.5,321.5C 163.691,321.534 161.857,323.534 162,327.5C 161.5,339.829 161.333,352.162 161.5,364.5 Z M 200.5,345.5 C 200.804,346.15 201.137,346.817 201.5,347.5C 199.5,347.833 197.5,348.167 195.5,348.5C 193.048,348.461 191.048,347.794 189.5,346.5C 191.504,341.484 193.504,336.484 195.5,331.5C 197.558,336.006 199.225,340.672 200.5,345.5 Z"/></g>
<g><path style="opacity:0.016" fill="#8b8787" d="M 200.5,345.5 C 202.176,346.183 202.843,347.517 202.5,349.5C 197.833,349.5 193.167,349.5 188.5,349.5C 188.263,348.209 188.596,347.209 189.5,346.5C 191.048,347.794 193.048,348.461 195.5,348.5C 197.5,348.167 199.5,347.833 201.5,347.5C 201.137,346.817 200.804,346.15 200.5,345.5 Z"/></g>
<g><path style="opacity:0.392" fill="#787678" d="M 291.5,335.5 C 291.333,346.505 291.5,357.505 292,368.5C 292.717,369.044 293.217,369.711 293.5,370.5C 292.504,370.586 291.671,370.252 291,369.5C 290.174,357.992 290.341,346.659 291.5,335.5 Z"/></g>
<g><path style="opacity:1" fill="#292728" d="M 459.5,316.5 C 487.237,316.841 497.737,330.507 491,357.5C 487.035,366.727 480.201,372.561 470.5,375C 446.259,377.76 434.426,366.927 435,342.5C 436.938,327.734 445.105,319.067 459.5,316.5 Z M 458.5,321.5 C 472.479,320.317 480.312,326.651 482,340.5C 482.717,347.618 482.05,354.618 480,361.5C 471.218,373.447 461.385,374.447 450.5,364.5C 448.473,361.779 446.973,358.779 446,355.5C 445.104,347.754 445.437,340.087 447,332.5C 449.11,326.89 452.944,323.224 458.5,321.5 Z"/></g>
<g><path style="opacity:0.059" fill="#b4b4b4" d="M 378.5,359.5 C 379.209,358.596 380.209,358.263 381.5,358.5C 381.5,359.833 381.5,361.167 381.5,362.5C 380.9,361.1 379.9,360.1 378.5,359.5 Z"/></g>
<g><path style="opacity:0.075" fill="#959191" d="M 161.5,364.5 C 162.285,366.374 162.952,368.374 163.5,370.5C 161.692,369.082 161.025,367.082 161.5,364.5 Z"/></g>
<g><path style="opacity:0.148" fill="#888585" d="M 271.5,359.5 C 271.5,364.167 271.5,368.833 271.5,373.5C 270.5,373.5 269.5,373.5 268.5,373.5C 270.047,368.946 271.047,364.279 271.5,359.5 Z"/></g>
<g><path style="opacity:0.027" fill="#afafaf" d="M 280.5,371.5 C 281.183,373.176 282.517,373.843 284.5,373.5C 283.081,374.451 281.415,374.784 279.5,374.5C 279.263,373.209 279.596,372.209 280.5,371.5 Z"/></g>
<g><path style="opacity:0.031" fill="#b5b5b5" d="M 396.5,372.5 C 397.71,372.932 398.71,373.599 399.5,374.5C 397.821,374.715 396.821,374.048 396.5,372.5 Z"/></g>
</svg>
